<svg width="24" height="24" viewBox="0 0 24 24" fill="none" xmlns="http://www.w3.org/2000/svg">
<g clip-path="url(#clip0_2751_36347)">
<path d="M12.0001 23.64C18.4287 23.64 23.6401 18.4286 23.6401 12C23.6401 5.57139 18.4287 0.359985 12.0001 0.359985C5.57151 0.359985 0.360107 5.57139 0.360107 12C0.360107 18.4286 5.57151 23.64 12.0001 23.64Z" fill="#28292F"/>
<path d="M17.0941 16.638L13.1581 7.12198C12.9361 6.62998 12.6061 6.38998 12.1711 6.38998H11.8231C11.3881 6.38998 11.0581 6.62998 10.8361 7.12198L9.12309 11.268H7.82709C7.44009 11.271 7.12509 11.583 7.12209 11.973V11.982C7.12509 12.369 7.44009 12.684 7.82709 12.687H8.52309L6.88809 16.638C6.85809 16.725 6.84009 16.815 6.84009 16.908C6.84009 17.13 6.90909 17.304 7.03209 17.439C7.15509 17.574 7.33209 17.64 7.55409 17.64C7.70109 17.637 7.84209 17.592 7.95909 17.505C8.08509 17.418 8.17209 17.292 8.24109 17.148L10.0411 12.684H11.2891C11.6761 12.681 11.9911 12.369 11.9941 11.979V11.961C11.9911 11.574 11.6761 11.259 11.2891 11.256H10.6231L11.9971 7.83298L15.7411 17.145C15.8101 17.289 15.8971 17.415 16.0231 17.502C16.1401 17.589 16.2841 17.634 16.4281 17.637C16.6501 17.637 16.8241 17.571 16.9501 17.436C17.0761 17.301 17.1421 17.127 17.1421 16.905C17.1451 16.815 17.1301 16.722 17.0941 16.638Z" fill="white"/>
</g>
<defs>
<clipPath id="clip0_2751_36347">
<rect width="24" height="24" fill="white"/>
</clipPath>
</defs>
</svg>
