<svg width="24" height="24" viewBox="0 0 24 24" fill="none" xmlns="http://www.w3.org/2000/svg">
<g clip-path="url(#clip0_2827_41273)">
<path d="M12 24C18.6274 24 24 18.6274 24 12C24 5.37258 18.6274 0 12 0C5.37258 0 0 5.37258 0 12C0 18.6274 5.37258 24 12 24Z" fill="#28292F"/>
<g filter="url(#filter0_d_2827_41273)">
<path d="M11.7937 4.54496C12.1529 4.35971 12.5917 4.78796 12.4012 5.14121C12.2894 5.42921 11.8687 5.50571 11.6542 5.28596C11.4269 5.07596 11.5012 4.65896 11.7937 4.54421V4.54496ZM7.92741 4.95446C8.14566 4.86596 8.42241 5.06246 8.39991 5.29721C8.42241 5.55071 8.10741 5.73821 7.88466 5.61746C7.58991 5.50496 7.62366 5.03396 7.92741 4.95446V4.95446ZM15.8459 5.62421C15.5047 5.58371 15.4507 5.05571 15.7784 4.94921C16.0334 4.82771 16.2674 5.05646 16.3049 5.29421C16.2509 5.49671 16.0784 5.68271 15.8459 5.62421V5.62421ZM8.80716 6.57296C9.17241 6.34571 9.69291 6.68396 9.63666 7.10171C9.61791 7.52246 9.04941 7.76696 8.72841 7.48196C8.41791 7.25846 8.46516 6.74546 8.80716 6.57296ZM14.3797 6.81446C14.5424 6.40196 15.2024 6.38846 15.3877 6.79046C15.5714 7.10321 15.3457 7.49096 15.0194 7.59746C14.5867 7.67696 14.1764 7.21646 14.3797 6.81446ZM11.3279 7.57421C11.3242 7.21871 11.6527 6.95471 11.9954 6.92996C12.2234 6.97496 12.4709 7.07021 12.5684 7.29596C12.7507 7.60796 12.5887 8.03621 12.2609 8.17946C12.1109 8.26196 11.9324 8.23121 11.7689 8.22146C11.5192 8.10146 11.3084 7.86371 11.3279 7.57421ZM5.57841 8.09171C5.91216 7.88921 6.36216 8.25671 6.23541 8.61371C6.16641 8.92196 5.74491 9.04721 5.50416 8.85071C5.24691 8.66621 5.28741 8.22296 5.57916 8.09096L5.57841 8.09171ZM17.9249 8.09021C18.2077 7.87421 18.6749 8.12246 18.6404 8.47346C18.6599 8.79371 18.2557 9.03596 17.9752 8.87096C17.6662 8.73371 17.6339 8.26571 17.9249 8.09096V8.09021ZM12.9449 8.72846C13.4114 8.56346 13.9664 8.76071 14.2319 9.17096C14.5829 9.67121 14.3969 10.4332 13.8517 10.7205C13.2877 11.0602 12.4634 10.773 12.2542 10.152C12.0179 9.59696 12.3629 8.90246 12.9442 8.72846H12.9449ZM10.2052 8.78321C10.7227 8.54321 11.4194 8.74421 11.6692 9.26471C11.9632 9.77171 11.7359 10.4775 11.2102 10.7392C10.6837 11.034 9.94041 10.8105 9.68616 10.2667C9.40041 9.74021 9.65391 9.02546 10.2052 8.78321V8.78321ZM7.46241 9.70496C7.50216 9.37721 7.81641 9.16346 8.13366 9.14096C8.29911 9.15843 8.45374 9.23152 8.57227 9.34828C8.69079 9.46503 8.7662 9.61854 8.78616 9.78371C8.76366 10.1212 8.49891 10.4497 8.13591 10.4482C7.73616 10.482 7.38591 10.0905 7.46241 9.70496V9.70496ZM15.5639 9.21296C15.9742 8.97821 16.5434 9.31946 16.5254 9.78296C16.5532 10.2742 15.9232 10.62 15.5152 10.332C15.0907 10.092 15.1237 9.41696 15.5639 9.21296ZM9.09141 10.9432C9.56991 10.8135 10.1189 11.0355 10.3537 11.469C10.6109 11.9055 10.5059 12.5115 10.1062 12.8325C9.59241 13.302 8.64666 13.113 8.37366 12.4725C8.05941 11.8852 8.44116 11.0977 9.09066 10.9425L9.09141 10.9432ZM14.2867 10.941C14.7524 10.8097 15.2999 10.986 15.5504 11.4037C15.8819 11.8815 15.7237 12.5947 15.2309 12.9022C14.7134 13.26 13.9139 13.0725 13.6289 12.513C13.2839 11.9347 13.6312 11.1172 14.2867 10.941V10.941ZM6.00666 11.4855C6.42066 11.3317 6.87966 11.781 6.71166 12.1852C6.60966 12.5527 6.08241 12.6892 5.81016 12.4177C5.49141 12.1627 5.60916 11.5965 6.00666 11.4855V11.4855ZM17.2334 12.072C17.2256 11.9069 17.2834 11.7454 17.394 11.6226C17.5047 11.4999 17.6594 11.4258 17.8244 11.4165C18.1079 11.4615 18.3839 11.6865 18.3614 11.9902C18.3877 12.3915 17.8964 12.6637 17.5484 12.4755C17.3857 12.3937 17.3024 12.2295 17.2334 12.072ZM3.97041 11.685C4.21941 11.5777 4.52766 11.79 4.47066 12.0622C4.45716 12.3705 3.99441 12.4897 3.82491 12.2317C3.67491 12.0525 3.76491 11.7772 3.97041 11.6842V11.685ZM19.6822 11.6782C19.8577 11.556 20.1397 11.6437 20.2087 11.8455C20.3264 12.066 20.1104 12.3675 19.8584 12.3307C19.5044 12.3622 19.3904 11.832 19.6822 11.6782ZM10.4444 13.158C11.0999 12.9907 11.8049 13.5285 11.8094 14.193C11.8514 14.8642 11.1569 15.459 10.4864 15.3045C9.96741 15.222 9.56016 14.73 9.57741 14.2147C9.57591 13.7212 9.95391 13.2622 10.4444 13.158V13.158ZM13.0409 13.1572C13.7062 12.9742 14.4322 13.5217 14.4217 14.2012C14.4569 14.8597 13.7842 15.435 13.1272 15.3037C12.5084 15.2257 12.0524 14.5575 12.2249 13.9665C12.3119 13.5735 12.6464 13.254 13.0409 13.1565V13.1572ZM8.03391 13.566C8.49441 13.4887 8.92641 13.9935 8.73966 14.424C8.60316 14.883 7.92516 15.0067 7.62516 14.6325C7.27416 14.2725 7.53666 13.6155 8.03391 13.566V13.566ZM15.6494 13.5862C16.0604 13.4167 16.5644 13.7662 16.5329 14.205C16.5494 14.6872 15.9269 15.0202 15.5257 14.7382C15.0704 14.4855 15.1537 13.7407 15.6494 13.5862V13.5862ZM17.7779 15.6862C17.6174 15.3915 17.9092 15.0007 18.2429 15.0555C18.4079 15.0525 18.5242 15.1807 18.6299 15.2887C18.6517 15.4635 18.6884 15.672 18.5407 15.8062C18.3404 16.056 17.8867 15.9847 17.7779 15.6862V15.6862ZM5.57691 15.1372C5.88816 14.934 6.33591 15.2377 6.26541 15.5947C6.22791 15.912 5.82291 16.0927 5.55666 15.9127C5.27016 15.75 5.28066 15.2857 5.57691 15.1372V15.1372ZM11.7217 15.7995C12.1289 15.6232 12.6479 15.972 12.6089 16.413C12.6389 16.9005 11.9977 17.238 11.5994 16.9455C11.1569 16.6942 11.2312 15.9547 11.7217 15.7995V15.7995ZM8.87616 16.4527C9.22266 16.2735 9.68766 16.5832 9.65616 16.9657C9.66666 17.2792 9.35616 17.5462 9.04116 17.4997C8.78091 17.4945 8.61141 17.2642 8.52741 17.046C8.53191 16.8082 8.63166 16.5435 8.87616 16.4535V16.4527ZM14.6407 16.4587C14.9977 16.2412 15.5047 16.5532 15.4709 16.9612C15.4799 17.3887 14.9069 17.6617 14.5747 17.3812C14.2537 17.1615 14.2927 16.6335 14.6407 16.4587ZM15.6434 18.8962C15.4844 18.6607 15.6712 18.3765 15.9284 18.3225C16.1362 18.3637 16.3559 18.5175 16.3117 18.753C16.2817 19.0732 15.8062 19.1707 15.6434 18.897V18.8962ZM7.68516 18.6915C7.74816 18.504 7.90116 18.3187 8.12541 18.3675C8.45166 18.39 8.54841 18.8745 8.26266 19.0237C8.00616 19.194 7.70766 18.9607 7.68516 18.6915ZM11.5252 18.9067C11.5874 18.6292 11.9512 18.495 12.1912 18.642C12.3502 18.7095 12.3967 18.8835 12.4372 19.032C12.4158 19.1091 12.3958 19.1866 12.3772 19.2645C12.2789 19.3785 12.1522 19.4932 11.9887 19.4895C11.6849 19.5247 11.4104 19.1865 11.5244 18.9067H11.5252Z" fill="black"/>
</g>
<path d="M11.7937 4.54496C12.1529 4.35971 12.5917 4.78796 12.4012 5.14121C12.2894 5.42921 11.8687 5.50571 11.6542 5.28596C11.4269 5.07596 11.5012 4.65896 11.7937 4.54421V4.54496ZM7.92741 4.95446C8.14566 4.86596 8.42241 5.06246 8.39991 5.29721C8.42241 5.55071 8.10741 5.73821 7.88466 5.61746C7.58991 5.50496 7.62366 5.03396 7.92741 4.95446V4.95446ZM15.8459 5.62421C15.5047 5.58371 15.4507 5.05571 15.7784 4.94921C16.0334 4.82771 16.2674 5.05646 16.3049 5.29421C16.2509 5.49671 16.0784 5.68271 15.8459 5.62421V5.62421ZM8.80716 6.57296C9.17241 6.34571 9.69291 6.68396 9.63666 7.10171C9.61791 7.52246 9.04941 7.76696 8.72841 7.48196C8.41791 7.25846 8.46516 6.74546 8.80716 6.57296ZM14.3797 6.81446C14.5424 6.40196 15.2024 6.38846 15.3877 6.79046C15.5714 7.10321 15.3457 7.49096 15.0194 7.59746C14.5867 7.67696 14.1764 7.21646 14.3797 6.81446ZM11.3279 7.57421C11.3242 7.21871 11.6527 6.95471 11.9954 6.92996C12.2234 6.97496 12.4709 7.07021 12.5684 7.29596C12.7507 7.60796 12.5887 8.03621 12.2609 8.17946C12.1109 8.26196 11.9324 8.23121 11.7689 8.22146C11.5192 8.10146 11.3084 7.86371 11.3279 7.57421ZM5.57841 8.09171C5.91216 7.88921 6.36216 8.25671 6.23541 8.61371C6.16641 8.92196 5.74491 9.04721 5.50416 8.85071C5.24691 8.66621 5.28741 8.22296 5.57916 8.09096L5.57841 8.09171ZM17.9249 8.09021C18.2077 7.87421 18.6749 8.12246 18.6404 8.47346C18.6599 8.79371 18.2557 9.03596 17.9752 8.87096C17.6662 8.73371 17.6339 8.26571 17.9249 8.09096V8.09021ZM12.9449 8.72846C13.4114 8.56346 13.9664 8.76071 14.2319 9.17096C14.5829 9.67121 14.3969 10.4332 13.8517 10.7205C13.2877 11.0602 12.4634 10.773 12.2542 10.152C12.0179 9.59696 12.3629 8.90246 12.9442 8.72846H12.9449ZM10.2052 8.78321C10.7227 8.54321 11.4194 8.74421 11.6692 9.26471C11.9632 9.77171 11.7359 10.4775 11.2102 10.7392C10.6837 11.034 9.94041 10.8105 9.68616 10.2667C9.40041 9.74021 9.65391 9.02546 10.2052 8.78321V8.78321ZM7.46241 9.70496C7.50216 9.37721 7.81641 9.16346 8.13366 9.14096C8.29911 9.15843 8.45374 9.23152 8.57227 9.34828C8.69079 9.46503 8.7662 9.61854 8.78616 9.78371C8.76366 10.1212 8.49891 10.4497 8.13591 10.4482C7.73616 10.482 7.38591 10.0905 7.46241 9.70496V9.70496ZM15.5639 9.21296C15.9742 8.97821 16.5434 9.31946 16.5254 9.78296C16.5532 10.2742 15.9232 10.62 15.5152 10.332C15.0907 10.092 15.1237 9.41696 15.5639 9.21296ZM9.09141 10.9432C9.56991 10.8135 10.1189 11.0355 10.3537 11.469C10.6109 11.9055 10.5059 12.5115 10.1062 12.8325C9.59241 13.302 8.64666 13.113 8.37366 12.4725C8.05941 11.8852 8.44116 11.0977 9.09066 10.9425L9.09141 10.9432ZM14.2867 10.941C14.7524 10.8097 15.2999 10.986 15.5504 11.4037C15.8819 11.8815 15.7237 12.5947 15.2309 12.9022C14.7134 13.26 13.9139 13.0725 13.6289 12.513C13.2839 11.9347 13.6312 11.1172 14.2867 10.941V10.941ZM6.00666 11.4855C6.42066 11.3317 6.87966 11.781 6.71166 12.1852C6.60966 12.5527 6.08241 12.6892 5.81016 12.4177C5.49141 12.1627 5.60916 11.5965 6.00666 11.4855V11.4855ZM17.2334 12.072C17.2256 11.9069 17.2834 11.7454 17.394 11.6226C17.5047 11.4999 17.6594 11.4258 17.8244 11.4165C18.1079 11.4615 18.3839 11.6865 18.3614 11.9902C18.3877 12.3915 17.8964 12.6637 17.5484 12.4755C17.3857 12.3937 17.3024 12.2295 17.2334 12.072ZM3.97041 11.685C4.21941 11.5777 4.52766 11.79 4.47066 12.0622C4.45716 12.3705 3.99441 12.4897 3.82491 12.2317C3.67491 12.0525 3.76491 11.7772 3.97041 11.6842V11.685ZM19.6822 11.6782C19.8577 11.556 20.1397 11.6437 20.2087 11.8455C20.3264 12.066 20.1104 12.3675 19.8584 12.3307C19.5044 12.3622 19.3904 11.832 19.6822 11.6782ZM10.4444 13.158C11.0999 12.9907 11.8049 13.5285 11.8094 14.193C11.8514 14.8642 11.1569 15.459 10.4864 15.3045C9.96741 15.222 9.56016 14.73 9.57741 14.2147C9.57591 13.7212 9.95391 13.2622 10.4444 13.158V13.158ZM13.0409 13.1572C13.7062 12.9742 14.4322 13.5217 14.4217 14.2012C14.4569 14.8597 13.7842 15.435 13.1272 15.3037C12.5084 15.2257 12.0524 14.5575 12.2249 13.9665C12.3119 13.5735 12.6464 13.254 13.0409 13.1565V13.1572ZM8.03391 13.566C8.49441 13.4887 8.92641 13.9935 8.73966 14.424C8.60316 14.883 7.92516 15.0067 7.62516 14.6325C7.27416 14.2725 7.53666 13.6155 8.03391 13.566V13.566ZM15.6494 13.5862C16.0604 13.4167 16.5644 13.7662 16.5329 14.205C16.5494 14.6872 15.9269 15.0202 15.5257 14.7382C15.0704 14.4855 15.1537 13.7407 15.6494 13.5862V13.5862ZM17.7779 15.6862C17.6174 15.3915 17.9092 15.0007 18.2429 15.0555C18.4079 15.0525 18.5242 15.1807 18.6299 15.2887C18.6517 15.4635 18.6884 15.672 18.5407 15.8062C18.3404 16.056 17.8867 15.9847 17.7779 15.6862V15.6862ZM5.57691 15.1372C5.88816 14.934 6.33591 15.2377 6.26541 15.5947C6.22791 15.912 5.82291 16.0927 5.55666 15.9127C5.27016 15.75 5.28066 15.2857 5.57691 15.1372V15.1372ZM11.7217 15.7995C12.1289 15.6232 12.6479 15.972 12.6089 16.413C12.6389 16.9005 11.9977 17.238 11.5994 16.9455C11.1569 16.6942 11.2312 15.9547 11.7217 15.7995V15.7995ZM8.87616 16.4527C9.22266 16.2735 9.68766 16.5832 9.65616 16.9657C9.66666 17.2792 9.35616 17.5462 9.04116 17.4997C8.78091 17.4945 8.61141 17.2642 8.52741 17.046C8.53191 16.8082 8.63166 16.5435 8.87616 16.4535V16.4527ZM14.6407 16.4587C14.9977 16.2412 15.5047 16.5532 15.4709 16.9612C15.4799 17.3887 14.9069 17.6617 14.5747 17.3812C14.2537 17.1615 14.2927 16.6335 14.6407 16.4587ZM15.6434 18.8962C15.4844 18.6607 15.6712 18.3765 15.9284 18.3225C16.1362 18.3637 16.3559 18.5175 16.3117 18.753C16.2817 19.0732 15.8062 19.1707 15.6434 18.897V18.8962ZM7.68516 18.6915C7.74816 18.504 7.90116 18.3187 8.12541 18.3675C8.45166 18.39 8.54841 18.8745 8.26266 19.0237C8.00616 19.194 7.70766 18.9607 7.68516 18.6915ZM11.5252 18.9067C11.5874 18.6292 11.9512 18.495 12.1912 18.642C12.3502 18.7095 12.3967 18.8835 12.4372 19.032C12.4158 19.1091 12.3958 19.1866 12.3772 19.2645C12.2789 19.3785 12.1522 19.4932 11.9887 19.4895C11.6849 19.5247 11.4104 19.1865 11.5244 18.9067H11.5252Z" fill="white"/>
</g>
<defs>
<filter id="filter0_d_2827_41273" x="2.75024" y="4.00027" width="18.4915" height="16.9917" filterUnits="userSpaceOnUse" color-interpolation-filters="sRGB">
<feFlood flood-opacity="0" result="BackgroundImageFix"/>
<feColorMatrix in="SourceAlpha" type="matrix" values="0 0 0 0 0 0 0 0 0 0 0 0 0 0 0 0 0 0 127 0" result="hardAlpha"/>
<feOffset dy="0.5"/>
<feGaussianBlur stdDeviation="0.5"/>
<feColorMatrix type="matrix" values="0 0 0 0 0 0 0 0 0 0 0 0 0 0 0 0 0 0 0.204257 0"/>
<feBlend mode="normal" in2="BackgroundImageFix" result="effect1_dropShadow_2827_41273"/>
<feBlend mode="normal" in="SourceGraphic" in2="effect1_dropShadow_2827_41273" result="shape"/>
</filter>
<clipPath id="clip0_2827_41273">
<rect width="24" height="24" fill="white"/>
</clipPath>
</defs>
</svg>
