<svg width="24" height="24" viewBox="0 0 24 24" fill="none" xmlns="http://www.w3.org/2000/svg">
<path d="M23.6433 14.8962C22.042 21.3208 15.5349 25.244 9.0985 23.6417C2.67383 22.0356 -1.24298 15.5284 0.358284 9.1038C1.95955 2.67916 8.46271 -1.24396 14.8835 0.358273C21.3238 1.94087 25.2406 8.46762 23.6433 14.8962Z" fill="#28292F"/>
<path d="M14.3774 6.59493C14.5233 6.59493 14.6579 6.53509 14.7589 6.43038L15.5219 5.63378C15.6154 5.53281 15.75 5.47671 15.8883 5.47671H15.9183C16.0642 5.47671 16.1988 5.54029 16.296 5.64874L16.9392 6.37802C17.0627 6.51639 17.2384 6.59493 17.4217 6.59493H19.1457C17.504 4.41085 14.8935 3.00092 11.954 3.00092C9.01449 3.00092 6.40031 4.41085 4.75849 6.59493H14.3774Z" fill="white"/>
<path d="M15.2862 9.02211H16.8719L20.4397 9.01837C20.6865 9.72146 20.8474 10.4694 20.9109 11.2399H14.2241C14.0408 11.2399 13.8651 11.1613 13.7416 11.0229L13.0984 10.2974C13.0011 10.1889 12.8665 10.1254 12.7206 10.1254H12.6907C12.5561 10.1254 12.4214 10.1815 12.3279 10.2824L11.5651 11.079C11.464 11.1838 11.3294 11.2436 11.1835 11.2436H2.9895C3.05305 10.4694 3.21389 9.7252 3.46071 9.02585H12.1409C12.4103 9.02585 12.672 8.90617 12.8515 8.70422L13.405 8.07966C13.5023 7.9712 13.6369 7.90763 13.7828 7.90763C13.9286 7.90763 14.0632 7.9712 14.1605 8.07966L14.8038 8.8052C14.9271 8.94357 15.103 9.02211 15.2862 9.02211Z" fill="white"/>
<path d="M8.33007 15.7464C8.22912 15.8511 8.09443 15.911 7.94863 15.911L3.84967 15.9147C3.50936 15.2116 3.26254 14.4599 3.11295 13.6708H8.94342C9.21639 13.6708 9.47818 13.5548 9.65772 13.3491L10.2113 12.7246C10.3047 12.6199 10.4431 12.5563 10.589 12.5563C10.7348 12.5563 10.8695 12.6161 10.9667 12.7246L11.6099 13.4426C11.7334 13.581 11.9091 13.6595 12.0924 13.6595H20.7951C20.6455 14.4487 20.3986 15.2004 20.0583 15.9035H10.9928C10.8096 15.9035 10.6338 15.8249 10.5104 15.6866L9.86714 14.961C9.77364 14.8563 9.6353 14.7927 9.48943 14.7927H9.45948C9.32113 14.7927 9.19024 14.8488 9.09302 14.9498L8.33007 15.7464Z" fill="white"/>
<path d="M8.56191 18.1362L18.5325 18.1399C16.8869 19.8977 14.5532 21.0009 11.954 21.0009C9.35481 21.0009 7.01739 19.8977 5.37557 18.1399H5.41297C5.68601 18.1399 5.9478 18.024 6.12727 17.8183L6.6808 17.1937C6.7743 17.089 6.91264 17.0254 7.05851 17.0254C7.20438 17.0254 7.339 17.0853 7.43622 17.1937L8.07953 17.9193C8.2029 18.0576 8.37872 18.1362 8.56191 18.1362Z" fill="white"/>
</svg>
