<svg width="24" height="24" viewBox="0 0 24 24" fill="none" xmlns="http://www.w3.org/2000/svg">
<rect width="24" height="24" rx="12" fill="#28292F"/>
<path d="M12.5837 14.4708L14.7197 17.8233L16.6929 16.6798L13.8876 12.2582L12.5837 14.4708Z" fill="#505255"/>
<path d="M18.4896 15.335L18.4881 14.4187L15.4228 9.64447L14.2856 11.5741L17.2447 16.3598L18.3146 15.7398C18.4195 15.6546 18.483 15.5295 18.4897 15.3946L18.4896 15.335Z" fill="#505255"/>
<path d="M5.64478 16.199L7.15563 17.0696L12.1834 9.00643L11.3301 8.98391C10.6031 8.97364 9.81989 9.16266 9.46042 9.74944L6.60531 14.1748L5.64478 15.6506V16.199Z" fill="white"/>
<path d="M15.0853 9.00644L12.8363 9.0146L7.74829 17.4108L9.52672 18.4348L10.0103 17.6145L15.0853 9.00644Z" fill="white"/>
<path d="M19.4374 8.99486C19.4186 8.52453 19.1639 8.09398 18.765 7.84331L13.1741 4.62809C12.7795 4.42942 12.2866 4.42916 11.8913 4.62796C11.8446 4.65154 6.45425 7.7777 6.45425 7.7777C6.37965 7.81349 6.30779 7.8561 6.2402 7.90449C5.88412 8.15968 5.66707 8.55627 5.64478 8.99196V15.6506L6.60531 14.1748L6.59692 9.03696C6.59803 9.01818 6.60039 8.99968 6.60374 8.98143C6.62546 8.86055 6.69295 8.75271 6.79457 8.67983C6.81993 8.66168 12.3023 5.48825 12.3198 5.47954C12.4486 5.41482 12.6124 5.41406 12.7414 5.47753L18.26 8.65186C18.3906 8.73501 18.4724 8.87599 18.4797 9.03011V15.3946C18.473 15.5295 18.4197 15.6546 18.3147 15.7399L17.2448 16.3598L16.6928 16.6798L14.7196 17.8233L12.7186 18.9829C12.6108 19.0219 12.4848 19.0197 12.3779 18.9762L10.0104 17.6145L9.52673 18.4348L11.6544 19.6597C11.7247 19.6998 11.7874 19.7352 11.8388 19.7641C11.9185 19.8087 11.9728 19.8386 11.9919 19.8479C12.1431 19.9214 12.3607 19.9641 12.5568 19.9641C12.7366 19.9641 12.9119 19.9311 13.0777 19.8662L18.8899 16.5002C19.2235 16.2417 19.4197 15.8519 19.4374 15.4297V8.99486Z" fill="white"/>
</svg>
