<svg width="24" height="24" viewBox="0 0 24 24" fill="none" xmlns="http://www.w3.org/2000/svg">
<path d="M23.6433 14.8962C22.042 21.3208 15.5349 25.244 9.0985 23.6417C2.67383 22.0356 -1.24298 15.5284 0.358284 9.1038C1.95955 2.67916 8.46271 -1.24396 14.8835 0.358273C21.3238 1.94087 25.2406 8.46762 23.6433 14.8962Z" fill="#28292F"/>
<path d="M6.23661 16.9437H8.56544C9.11381 16.9437 9.38796 16.9437 9.63262 16.8759C9.90091 16.7962 10.1456 16.6548 10.3489 16.4602C10.5358 16.2821 10.6706 16.0462 10.9366 15.5807L10.9445 15.567L13.9649 10.2277C14.2332 9.75894 14.3658 9.5231 14.4248 9.27545C14.4897 9.00719 14.4897 8.7242 14.4248 8.45593C14.3663 8.21034 14.2324 7.97635 13.9685 7.5152L13.968 7.51429L13.9619 7.50376L12.7798 5.4402C12.5352 5.0098 12.4114 4.79461 12.2551 4.71501C12.0871 4.62954 11.8866 4.62954 11.7186 4.71501C11.5623 4.79461 11.4385 5.0098 11.1938 5.4402L5.44358 15.5758C5.20181 16.0003 5.08097 16.2126 5.08981 16.3865C5.10162 16.5752 5.19892 16.7461 5.35809 16.8493C5.50552 16.9437 5.74722 16.9437 6.23661 16.9437Z" fill="white"/>
<path d="M17.7837 16.9439H14.4466C13.9543 16.9439 13.7067 16.9439 13.5622 16.8496C13.4031 16.7464 13.3058 16.5725 13.2939 16.3838C13.2852 16.2112 13.407 16.0009 13.6508 15.58L13.6566 15.5702L15.3221 12.7107C15.5668 12.2891 15.6907 12.0798 15.844 12.0003C16.012 11.9147 16.2095 11.9147 16.3775 12.0003C16.5297 12.0778 16.6483 12.2783 16.8832 12.6756L16.9022 12.7078L18.5737 15.5672L18.5978 15.6088C18.8295 16.0086 18.9478 16.2127 18.9393 16.3809C18.9304 16.5695 18.8302 16.7435 18.671 16.8467C18.5236 16.9439 18.276 16.9439 17.7837 16.9439Z" fill="white"/>
</svg>
