<svg width="24" height="24" viewBox="0 0 24 24" fill="none" xmlns="http://www.w3.org/2000/svg">
<rect width="24" height="24" rx="12" fill="#28292F"/>
<path d="M15.7565 11.2113L15.7482 9.43585H15.7547L14.2466 8.5481L11.6624 10.0718L9.09383 8.5481L7.5867 9.43585V11.2113L10.1709 12.7277V15.7677L11.6716 16.6472L13.1723 15.7677V12.7277L15.7565 11.2113Z" fill="white"/>
<path d="M11.6633 4L7.58578 6.40409L9.08648 7.29184L11.6633 5.76815L14.2475 7.29184L15.7482 6.40409L11.6633 4Z" fill="white"/>
<path d="M6.50898 14.8726L6.50071 11.8399L5.00092 10.9531V15.7686L9.08582 18.1644V16.3889L6.50898 14.8726Z" fill="white"/>
<path d="M6.50071 10.5745V8.80724L8.00876 7.91949L6.50071 7.03174L5 7.91949V9.68672L6.50071 10.5745Z" fill="white"/>
<path d="M11.6627 7.03174L10.162 7.91949L11.6627 8.80724L13.1707 7.91949L11.6627 7.03174Z" fill="white"/>
<path d="M9.08648 13.3563L7.58578 12.4685V14.244L9.08648 15.1235V13.3563Z" fill="white"/>
<path d="M11.6633 17.9126L10.1626 17.0249V18.7921L11.6633 19.6799L13.1714 18.7921V17.0249L11.6633 17.9126Z" fill="white"/>
<path d="M16.8244 7.03174L15.3236 7.91949L16.8244 8.80724V10.5745L18.3324 9.68672V7.91949L16.8244 7.03174Z" fill="white"/>
<path d="M18.3333 10.9522L16.8326 11.8399L16.8244 14.8726L14.2484 16.388V18.1635L18.3333 15.7677V10.9522Z" fill="white"/>
<path d="M15.7485 14.244L14.2478 15.1234V13.3562L15.7485 12.4685V14.244Z" fill="white"/>
</svg>
