<svg width="24" height="24" viewBox="0 0 24 24" fill="none" xmlns="http://www.w3.org/2000/svg">
<path d="M23.6433 14.8962C22.042 21.3208 15.5349 25.244 9.0985 23.6417C2.67383 22.0356 -1.24298 15.5285 0.358284 9.1038C1.95955 2.67916 8.46271 -1.24396 14.8835 0.358273C21.3238 1.94087 25.2406 8.46762 23.6433 14.8962Z" fill="#28292F"/>
<path d="M17.6824 10.4236C17.8981 8.82361 16.6824 7.98831 15.0157 7.42361L15.5334 5.2589L14.2157 4.94125L13.7138 7.0589C13.3647 6.97655 13.0118 6.89419 12.6628 6.8236L13.1647 4.70595L11.8314 4.38831L11.3138 6.55301C11.0314 6.48635 10.7451 6.43537 10.4628 6.3687L8.6471 5.93341L8.31377 7.33341C8.31377 7.33341 9.29808 7.5491 9.26279 7.5687C9.79612 7.70204 9.89808 8.05106 9.87847 8.31772L9.29416 10.7844C9.32945 10.8001 9.37651 10.8001 9.42749 10.8354C9.37651 10.8197 9.34514 10.8197 9.29416 10.804L8.49416 14.255C8.42749 14.4197 8.25886 14.655 7.89416 14.5726C7.90985 14.5883 6.92553 14.3373 6.92553 14.3373L6.302 15.855L8.01965 16.255C8.3373 16.3373 8.65494 16.404 8.95298 16.4903L8.43534 18.6746L9.75298 18.9923L10.2706 16.8275C10.6393 16.9256 10.9883 17.0119 11.3216 17.0942L10.804 19.2432L12.1216 19.5609L12.6393 17.3766C14.8902 17.7766 16.5726 17.5923 17.2549 15.5413C17.804 13.906 17.204 12.9726 16.004 12.3569C16.8824 12.1569 17.5177 11.5883 17.6824 10.4236ZM14.7177 14.6707C14.3334 16.306 11.5687 15.455 10.6824 15.2393L11.3647 12.3373C12.2667 12.5569 15.1177 12.9569 14.7177 14.6707ZM15.0824 10.4236C14.7334 11.906 12.4314 11.1922 11.6824 11.0079L12.3177 8.37655C13.051 8.55694 15.451 8.87459 15.0824 10.4236Z" fill="white"/>
</svg>
