<svg width="24" height="24" viewBox="0 0 24 24" fill="none" xmlns="http://www.w3.org/2000/svg">
<g clip-path="url(#clip0_2827_41267)">
<path d="M12 24C18.6274 24 24 18.6274 24 12C24 5.37258 18.6274 0 12 0C5.37258 0 0 5.37258 0 12C0 18.6274 5.37258 24 12 24Z" fill="#28292F"/>
<g style="mix-blend-mode:luminosity">
<path fill-rule="evenodd" clip-rule="evenodd" d="M18.4787 12.2294C18.5435 12.1717 18.6118 12.1138 18.6747 12.0561C18.7376 11.9983 18.8023 11.9405 18.867 11.8827L19.0594 11.7041C19.0908 11.6734 19.1241 11.6464 19.1555 11.6156C19.187 11.5885 19.2239 11.5578 19.2554 11.5307C19.5106 11.2941 19.7674 11.0575 20.0191 10.8208C19.7584 11.0538 19.5031 11.2852 19.2423 11.5216L19.1518 11.6102C19.1203 11.6408 19.087 11.6679 19.0556 11.6987L18.8633 11.872C18.7986 11.9298 18.7357 11.9876 18.671 12.0506C18.6062 12.1136 18.5433 12.1716 18.4786 12.2292L18.4787 12.2294ZM21.8666 12.1937C21.8666 12.1937 20.9383 12.2875 20.4852 12.3508C20.0654 12.4086 18.7524 12.6054 18.7524 12.6054L21.8666 12.1937ZM21.8666 12.1937C21.6058 12.2154 21.3451 12.2424 21.0843 12.2696C20.9512 12.2822 20.8236 12.2966 20.6959 12.3092L20.5 12.331C20.4353 12.3399 20.3724 12.349 20.3077 12.358L19.5309 12.479L19.1426 12.5422C19.015 12.5639 18.8873 12.5875 18.7542 12.6091C18.8819 12.5965 19.015 12.5784 19.1426 12.5603L19.5309 12.5061L20.3077 12.3942C20.3724 12.3852 20.4353 12.3724 20.5 12.3635L20.696 12.3415C20.8237 12.3289 20.9568 12.3108 21.0844 12.2962C21.3452 12.2656 21.6059 12.233 21.8667 12.1934L21.8666 12.1937ZM18.8448 12.8416C18.8448 12.8416 19.836 13.0874 20.1708 13.1813C20.4999 13.2698 21.4967 13.566 21.4967 13.566L18.8449 12.8418L18.8448 12.8416Z" fill="#CFB66C"/>
<path fill-rule="evenodd" clip-rule="evenodd" d="M18.8451 12.8416C19.0652 12.9049 19.284 12.9663 19.5072 13.0242L20.1693 13.1975C20.3893 13.2607 20.6081 13.3222 20.8276 13.3854L21.1567 13.4739C21.2658 13.5046 21.3767 13.5316 21.4895 13.5624C21.3805 13.5267 21.2695 13.4902 21.1604 13.4594L20.8312 13.3566C20.6112 13.2897 20.3924 13.2264 20.1729 13.1597C19.9492 13.1055 19.7291 13.0476 19.5054 12.9952C19.2928 12.9428 19.069 12.8906 18.8451 12.8418V12.8418V12.8416ZM21.3582 14.162C21.2492 14.1223 19.9917 13.5498 19.6995 13.4161C19.5532 13.3492 19.128 13.2018 19.128 13.2018L21.3582 14.162Z" fill="#CFB66C"/>
<path fill-rule="evenodd" clip-rule="evenodd" d="M21.358 14.162C21.262 14.1263 21.1713 14.0826 21.0789 14.0411L20.8052 13.9164L20.2559 13.6582C20.073 13.5733 19.8953 13.4796 19.7067 13.3998C19.6105 13.3601 19.5143 13.3276 19.4183 13.2969L19.272 13.2518C19.2221 13.2392 19.1758 13.2247 19.1257 13.212C19.3086 13.2969 19.5011 13.3692 19.6842 13.4522C19.867 13.5408 20.054 13.613 20.2427 13.6924L20.8012 13.9326C20.9887 14.0068 21.1715 14.0862 21.3582 14.162V14.162H21.358ZM21.2361 14.6621C21.2361 14.6621 20.097 14.0101 19.705 13.8006C19.4997 13.6886 18.8358 13.3671 18.8358 13.3671L21.2361 14.6621Z" fill="#CFB66C"/>
<path fill-rule="evenodd" clip-rule="evenodd" d="M21.2358 14.6623C21.0436 14.5467 20.8476 14.4293 20.6516 14.3101L20.359 14.1366C20.2591 14.0789 20.163 14.0247 20.0612 13.967C19.9613 13.9091 19.8651 13.8514 19.7635 13.7972C19.7151 13.768 19.6644 13.7427 19.6118 13.7214L19.4565 13.6455C19.2512 13.548 19.0459 13.4486 18.8296 13.3637C19.0256 13.4848 19.2272 13.5878 19.4287 13.6942C19.5286 13.7484 19.6304 13.7972 19.7302 13.8514C19.83 13.9056 19.9262 13.9634 20.028 14.0158C20.1278 14.0735 20.224 14.1277 20.3257 14.1801L20.6272 14.3408L21.2356 14.6623V14.6623H21.2358ZM18.8448 13.5099C18.8448 13.5099 19.5531 14.0409 19.7824 14.2107C20.0117 14.3805 20.6867 14.8573 20.6867 14.8573L18.8448 13.5099V13.5099Z" fill="#CFB66C"/>
<path fill-rule="evenodd" clip-rule="evenodd" d="M14.7802 17.7923L15.1426 17.1222L14.9318 16.2842L13.4284 15.7171L14.0682 14.4348L13.752 13.1398L13.1583 11.9801L11.3238 11.6984L9.97577 10.4432L7.06493 10.6581L6.49356 13.6978L7.59387 17.525L8.2207 19.5064L10.7617 19.6004L11.9415 18.8021L13.3229 18.2384L14.7802 17.7923V17.7923Z" fill="#E2CC85"/>
<path fill-rule="evenodd" clip-rule="evenodd" d="M10.3234 17.7706C10.3234 17.7706 10.6748 17.9278 11.2742 17.8916C11.4477 17.6641 12.6626 17.5575 12.6626 17.5575C12.6626 17.5575 12.8142 17.5124 13.0824 17.6208C13.3523 17.7279 13.6076 17.7147 13.8462 17.7724C14.0847 17.8302 14.3216 17.5268 14.5045 17.4636C14.6873 17.3968 14.9298 17.2361 14.9298 17.2361L15.4418 17.1873L16.4699 16.7628L18.1033 15.1735L18.5472 15.8521L18.6841 16.692L18.1902 17.6872L16.8606 18.8702L14.268 19.5131L12.7312 19.0709L10.8061 18.2762L10.3234 17.7705V17.7706Z" fill="#F1D789"/>
<path fill-rule="evenodd" clip-rule="evenodd" d="M19.5346 12.1536L19.2055 11.1801L18.8133 10.5515L17.5504 10.4485L17.9295 11.5286L18.9853 13.3637L18.5471 15.0019L19.3237 15.3811L19.5624 15.0235L19.7547 14.2036L19.7676 13.2824L19.5346 12.1536V12.1536Z" fill="#F4ECB4"/>
<path fill-rule="evenodd" clip-rule="evenodd" d="M18.1184 17.7039L18.3606 17.3733C18.3606 17.3733 18.4253 17.2162 18.3883 17.0789C18.3517 16.9398 18.3569 16.9308 18.3753 16.8784C18.3938 16.826 18.5492 16.6454 18.5399 16.49C18.5308 16.3329 18.5528 16.2805 18.4346 16.156C18.3107 16.035 18.3477 15.8254 18.3477 15.8254L18.1868 15.923L18.1502 15.8688C18.1502 15.8688 18.0911 15.9139 18.0911 15.9844C18.0781 15.8869 18.1318 15.4353 18.0098 15.3324C17.8877 15.2295 17.6713 15.8146 17.6713 15.8146L17.8045 14.9657L18.1467 14.0953L18.7551 13.3005L18.7916 12.4245V12.3486C18.7916 12.3486 19.0709 12.7677 19.1486 13.0987C19.2041 13.3262 19.0709 13.6026 19.0986 13.9295C19.1209 14.2547 19.1486 14.2293 19.0673 14.3581C18.986 14.487 18.788 14.7519 18.8656 14.9433C18.934 15.1077 19.1671 14.9921 19.1671 14.9921C19.1671 14.9921 19.2133 15.1257 19.2762 15.1745C19.2984 15.0951 19.3224 15.0445 19.3668 14.9959C19.3706 15.0267 19.3797 15.0682 19.3797 15.0682C19.3797 15.0682 19.4204 14.9436 19.4611 14.7864C19.5165 14.577 19.5757 14.3006 19.6294 14.1525C19.6516 14.2374 19.707 14.4957 19.707 14.4957L19.6756 14.8931L19.5239 15.4385L19.3776 15.7957L19.2353 16.2327L19.1115 16.5263L19.0117 16.7503L18.9248 17.2543L18.5051 17.6877L18.2812 17.7853L18.1186 17.704V17.704L18.1184 17.7039Z" fill="#F3E19D"/>
<path fill-rule="evenodd" clip-rule="evenodd" d="M19.3145 11.3589C19.3145 11.3589 19.616 11.8589 19.7028 12.363C19.7896 12.8671 19.8674 13.3998 19.8125 14.0861C19.757 14.7779 19.6516 15.2023 19.5665 15.5057C19.4202 16.0097 19.0413 16.7105 19.0413 16.7105L19.0284 16.6834C19.0921 16.5655 19.1429 16.4414 19.1801 16.3131C19.23 16.1216 19.2486 15.8941 19.2948 15.7911C19.3355 15.6883 19.4039 15.5997 19.4372 15.4732C19.4686 15.3523 19.4737 15.1608 19.5703 15.0182C19.611 14.9603 19.661 14.8086 19.6757 14.657C19.6943 14.4293 19.6665 14.1746 19.6886 13.9652C19.7294 13.6166 19.757 13.38 19.7201 13.1975C19.6832 13.015 19.4907 12.4968 19.3723 12.085C19.2947 11.8213 19.341 11.5991 19.1986 11.3697C19.0562 11.1422 18.9692 10.9417 18.9378 10.8026C18.9013 10.6762 19.315 11.3589 19.315 11.3589V11.3589H19.3145Z" fill="#F2E8B0"/>
<path fill-rule="evenodd" clip-rule="evenodd" d="M17.8852 11.1583C17.8852 11.1583 18.0405 11.2036 18.1145 11.283C18.1885 11.3588 18.2199 11.422 18.3198 11.5503C18.4196 11.6785 18.4252 11.7833 18.5066 11.944C18.5879 12.1012 18.7674 12.3377 18.7896 12.4226C18.8118 12.5075 18.8487 12.9048 18.8949 13.0927C18.9356 13.2806 18.8487 13.5118 18.8487 13.5118L18.7434 13.49C18.7434 13.49 18.7434 13.6237 18.6379 13.7141C18.5326 13.8025 18.5141 13.4142 18.5141 13.4142L18.1202 12.1156L17.5266 11.7218L17.4619 11.4039L17.8854 11.1583V11.1583H17.8852Z" fill="#F5EEC0"/>
<path fill-rule="evenodd" clip-rule="evenodd" d="M17.5965 11.7472C17.5965 11.7472 17.8758 11.7652 18.0126 11.8628C18.068 11.9025 18.0902 11.935 18.1493 11.9838C18.2584 12.0723 18.3695 12.1536 18.423 12.2695C18.4823 12.385 18.547 12.5603 18.5914 12.8908C18.6099 13.0299 18.6099 13.1581 18.6228 13.2701C18.6414 13.4218 18.669 13.5428 18.6543 13.6273C18.6357 13.8007 18.4526 13.891 18.4348 14.0878L18.0557 13.9001L17.6988 12.5255L16.9405 12.0612L17.3696 11.5916L17.597 11.7464V11.7464L17.5965 11.7472Z" fill="#E6DB9D"/>
<path fill-rule="evenodd" clip-rule="evenodd" d="M19.5968 21.0031C19.5952 20.9895 19.5936 20.976 19.592 20.962C19.5367 20.4977 19.5273 20.1458 19.4867 19.9254C19.4276 19.613 19.3869 19.4968 19.3961 19.3798C19.4091 19.1921 19.4238 19.0548 19.4053 18.9103C19.3776 18.7188 19.1853 18.4913 19.1907 18.3341C19.1945 18.2095 19.2592 18.1283 19.3147 18.0524C19.3702 17.9766 19.4146 17.9134 19.4146 17.9134C19.4146 17.9134 19.0354 17.6587 19.0391 16.6328C19.0313 16.6349 19.0239 16.6379 19.0169 16.6418L18.8301 17.1601L18.7025 17.3118L18.2125 18.204L17.5818 18.8019L16.6499 19.4141L16.0655 20.0353L16.0063 21.6915L16.7701 22.6596L16.8951 22.8808C17.8888 22.3936 18.8 21.7603 19.5969 21.003L19.5968 21.0031Z" fill="#E5CB7A"/>
<path fill-rule="evenodd" clip-rule="evenodd" d="M17.2637 22.5876C17.2637 22.5876 17.2507 22.3817 17.0769 22.248C17.0491 22.2931 17.0307 22.3366 17.0362 22.369C17.0047 22.3149 16.7847 21.9681 16.2872 21.8777C15.7897 21.7893 15.6695 21.4353 15.6695 21.4353L14.6137 20.4979L13.4061 19.4125L11.9378 18.9085L11.2516 18.7441C11.2516 18.7441 11.2387 18.7929 11.2645 18.9012C11.137 18.8923 10.854 18.8291 10.56 18.7279C10.4416 18.6828 10.3306 18.6647 10.2715 18.7243C10.1845 18.8037 10.1716 18.9916 10.1661 19.1035C10.0237 19.0728 9.85918 18.9392 9.72728 18.9518C9.51638 18.9735 9.32962 19.2155 9.11507 19.2155C8.83213 19.2155 8.70462 19.0458 8.50664 18.9121C8.38827 18.8326 8.21822 18.7335 8.12203 18.6664C7.89273 18.502 5.46646 17.7778 5.46646 17.7778L4.61581 17.8319L4.47891 18.7242L4.55205 21.0566C4.56107 21.065 4.57009 21.0738 4.57924 21.0823L8.44703 23.0553L13.8084 23.858C15.0094 23.6663 16.1683 23.277 17.2359 22.7065L17.2633 22.5875V22.5875L17.2637 22.5876Z" fill="#D8C173"/>
<path fill-rule="evenodd" clip-rule="evenodd" d="M19.2717 21.2998C19.1955 21.1442 19.127 21.0141 19.115 20.9675C19.1055 21.0613 19.088 21.2672 19.0529 21.486C19.1266 21.4248 19.1996 21.3627 19.2717 21.2997V21.2998Z" fill="#F1D789"/>
<path fill-rule="evenodd" clip-rule="evenodd" d="M15.3553 23.4948L14.662 23.3064L14.6028 23.3245C14.6028 23.3245 14.5714 23.3426 14.5714 23.4039C14.4845 23.3552 14.4105 23.3642 14.3568 23.3318C14.3292 23.3895 14.3015 23.581 14.1793 23.6044C14.0518 23.6316 13.9149 23.5503 13.7762 23.4474C13.6394 23.3408 13.4836 23.2071 13.3657 23.153C13.3225 23.2306 13.2842 23.3108 13.251 23.3931C13.0957 23.2721 12.8257 22.7809 12.4411 22.7898C12.3299 22.5333 12.1442 22.3141 11.9069 22.1595C11.55 21.9229 11.3263 21.9049 11.047 21.9265C10.9361 21.7858 10.7994 21.6664 10.6439 21.5743C10.5976 21.5924 10.47 21.6683 10.3109 21.596C10.15 21.5239 9.96886 21.2438 9.7303 21.2078C9.60174 21.1905 9.47103 21.2173 9.36044 21.2836C9.36044 21.2836 8.66558 20.6098 8.18613 20.3859C8.20466 20.3317 8.2416 20.1276 7.67949 19.676C7.64804 19.7032 7.67023 19.779 7.64804 19.7832C7.6389 19.7832 7.50176 19.7254 7.32816 19.5953C7.11361 19.4383 6.85664 19.2738 6.70133 19.2287C6.40876 19.1438 6.09839 19.3172 6.09839 19.3172C6.072 19.2991 6.04258 19.2857 6.01147 19.2774C5.9376 19.2648 5.88396 19.2558 5.84324 19.2417C5.8469 19.3356 5.79326 19.4964 5.84324 19.6354C5.78535 19.6672 5.72402 19.6927 5.66038 19.7113C5.69171 19.7781 5.76022 19.9479 5.87482 20.0292C5.77875 20.0743 5.76583 20.1267 5.62893 20.172C5.6844 20.2479 5.77522 20.378 5.81569 20.4578C5.85641 20.5427 6.00257 20.8949 6.0673 21.0284C6.13569 21.1622 6.22809 21.4078 6.27259 21.4571C6.31709 21.5064 6.47788 21.7153 6.60173 21.8182C6.49202 21.7784 6.04317 21.6448 5.85275 21.5942C5.90944 21.6754 6.19677 22.0918 6.473 22.4922C9.14861 24.0585 12.385 24.4244 15.3562 23.4966L15.3553 23.4948Z" fill="#E0CD81"/>
<path fill-rule="evenodd" clip-rule="evenodd" d="M17.5509 11.6984C17.5509 11.6984 17.7117 11.6984 17.7431 11.7201C17.7746 11.7418 17.5822 11.787 17.5231 11.8087C17.464 11.8303 17.3363 11.9296 17.3031 12.0092C17.2716 12.085 16.1473 12.5274 16.1473 12.5274L15.3521 12.4877L15.0779 12.1177L15.5994 11.6716L15.2337 10.6187L15.7182 10.6945L16.8832 11.3731L17.4676 11.5917L17.5509 11.6984V11.6984Z" fill="#DFC57C"/>
<path fill-rule="evenodd" clip-rule="evenodd" d="M15.8047 12.047C15.7813 12.084 15.7395 12.106 15.695 12.1048C15.5304 12.1048 15.3789 12.1445 15.316 12.2257C15.2105 12.3559 14.9183 12.7713 14.9183 12.7713L14.2193 13.0169L14.1742 12.213L14.9379 11.6947L15.8071 12.0071V12.0469H15.8052L15.8047 12.047Z" fill="#E5CC7C"/>
<path fill-rule="evenodd" clip-rule="evenodd" d="M15.942 12.345C15.942 12.345 15.8145 12.3541 15.6536 12.2962C15.4926 12.2383 15.2282 12.1138 15.1135 12.1626C14.9527 12.2294 14.986 12.439 14.812 12.627C14.7067 12.7426 14.5144 12.739 14.4052 12.8637C14.2961 12.9883 13.9208 12.9304 13.9208 12.9304L13.7784 13.6805L14.3498 14.3958L14.5367 15.2844H15.3093L16.0151 15.0109L16.3628 14.1894L16.189 13.3586L15.942 12.345V12.345Z" fill="#D2C281"/>
<path fill-rule="evenodd" clip-rule="evenodd" d="M14.4473 12.3811C14.4281 12.3869 14.4082 12.3899 14.3882 12.3902C14.4104 12.4083 14.4567 12.4479 14.4382 12.5509C14.4196 12.6539 14.3605 12.7839 14.4104 12.8633C14.3706 12.9058 14.3409 12.9564 14.3234 13.0114C14.292 13.1 14.2827 13.1812 14.0776 13.1939C14.1072 13.2117 14.1345 13.233 14.1589 13.2572C14.1589 13.2572 14.0165 13.3781 13.9443 13.49C13.8704 13.4869 13.6744 13.4274 13.6744 13.4274L13.6337 13.4546L13.5468 13.4188C13.5468 13.4188 13.6281 13.3881 13.569 13.1949C13.5135 13.0251 13.4635 13.0342 13.4593 13.0215C13.455 13.0089 13.4185 12.8301 13.4185 12.7578C13.3909 12.664 13.3687 12.3786 13.3687 12.3786L13.4278 11.7483L13.7606 11.5514L14.0312 11.2962L14.2865 11.7658L14.4546 11.9295L14.4675 12.3359L14.4473 12.3811V12.3811Z" fill="#E2C270"/>
<path fill-rule="evenodd" clip-rule="evenodd" d="M13.6467 11.8537C13.6467 11.8537 13.5876 12.0181 13.5653 12.1445C13.5574 12.1199 13.5531 12.0944 13.5524 12.0687C13.5524 12.0687 13.5062 12.318 13.497 12.421C13.4785 12.4173 13.4605 12.4119 13.4563 12.4299C13.4522 12.4479 13.41 12.6485 13.4197 12.7604C13.3427 12.6363 13.2362 12.5322 13.1091 12.457C13.0351 12.4118 12.9482 12.3631 12.8575 12.3594C12.7151 12.3558 12.6116 12.448 12.4415 12.448C12.031 12.448 11.6592 12.1535 11.3855 12.0633C11.184 11.9964 11.0102 11.9477 10.8881 11.8392C10.8289 11.7905 10.7235 11.6822 10.6274 11.5213C10.4998 11.307 10.3666 11.1205 10.2334 11.097C10.2937 11.1078 10.355 11.112 10.4163 11.1096C10.4163 11.1096 10.3755 11.0699 10.3065 11.0157C10.2375 10.9615 10.1549 10.8947 10.0366 10.8947C9.82575 10.8947 9.72042 10.9253 9.60205 10.9253C9.48368 10.9217 9.41529 10.8947 9.41529 10.8947C9.41529 10.8947 9.29132 10.9796 9.01215 10.9796C8.73287 10.9832 8.54611 11.0066 8.39995 11.0194C8.25378 11.0321 7.76385 10.9796 7.62329 10.9837C7.53165 10.9871 7.44167 11.0086 7.35876 11.0469L7.81188 9.76102L9.43955 8.37158L10.4086 9.04166L11.8992 10.4974L13.3416 11.0194L13.6431 11.3499V11.8537H13.6467Z" fill="#CCB360"/>
<path fill-rule="evenodd" clip-rule="evenodd" d="M10.4102 11.1168C10.4102 11.1168 10.3695 11.0772 10.3013 11.023C10.233 10.9688 10.1495 10.9019 10.0312 10.9019C9.82046 10.9019 9.71501 10.9326 9.59664 10.9326C9.47827 10.929 9.40988 10.9019 9.40988 10.9019C9.40988 10.9019 9.28579 10.9867 9.00675 10.9867C8.72746 10.9902 8.5407 11.0137 8.39454 11.0263C8.24838 11.0389 7.75844 10.9867 7.61788 10.9906C7.52627 10.994 7.43632 11.0155 7.35347 11.0538L7.55876 10.474L7.79721 10.0316L8.4778 9.30363C8.4778 9.30363 9.29456 8.83405 9.30078 8.83048C9.30444 8.82691 9.58372 8.75464 9.58372 8.75464L10.3234 9.19171L10.9946 10.8877L11.0076 11.2449L10.5731 11.4454C10.464 11.2668 10.3437 11.1239 10.2309 11.1058C10.3327 11.1167 10.4104 11.1167 10.4104 11.1167V11.1167L10.4102 11.1168Z" fill="#D5B457"/>
<path fill-rule="evenodd" clip-rule="evenodd" d="M10.4196 11.2379C10.4843 11.2414 10.5379 11.2288 10.5527 11.1837C10.6082 11.032 10.6526 11.0103 10.699 11.0103C10.7455 11.0103 10.8081 11.1078 10.8453 11.1168C10.8825 11.1257 10.9266 11.0049 10.9266 11.0049L10.9673 10.9868C10.9673 10.9868 11.2059 11.1384 11.3741 11.3173C11.5424 11.4961 11.818 11.7996 11.9418 11.8536C12.0657 11.9077 12.4911 11.9259 12.6367 11.9566C12.7822 11.9873 12.9436 12.0903 12.9658 12.1138C12.988 12.1372 12.901 12.1625 12.8881 12.1859C12.8751 12.2076 13.0306 12.1986 13.0435 12.2217C13.0526 12.2397 13.0069 12.3426 12.9842 12.395C12.9446 12.3757 12.901 12.3652 12.8567 12.3643C12.7143 12.3607 12.6107 12.4529 12.4407 12.4529C12.0301 12.4529 11.6584 12.1584 11.3847 12.0681C11.1831 12.0013 11.0093 11.9525 10.8872 11.8441C10.8281 11.7954 10.7227 11.687 10.6265 11.5262C10.5563 11.4161 10.4878 11.3131 10.4192 11.2373V11.2373L10.4196 11.2379Z" fill="#D2B257"/>
<path fill-rule="evenodd" clip-rule="evenodd" d="M16.3077 20.1764C16.3077 20.1764 16.3442 20.0427 16.6831 19.6978C16.7793 19.6003 16.8384 19.5192 16.9032 19.4612C17.0641 19.313 17.1584 19.2734 17.273 19.1885C17.5245 19.0061 17.7982 19.0061 18.009 18.7821C18.2197 18.5582 18.4654 18.1303 18.636 17.693C18.8043 17.2559 18.8506 17.1168 18.8506 17.1042C18.8506 17.0916 18.8043 17.0067 18.7451 17.0193C18.686 17.0319 18.686 17.1438 18.6711 17.171C18.6417 17.2153 18.6083 17.257 18.5713 17.2955C18.4844 17.3932 18.3605 17.5098 18.2976 17.6839C18.3105 17.5358 18.3624 17.3715 18.3624 17.3715C18.3624 17.3715 18.0369 17.572 17.7595 17.7814C17.4803 17.991 17.3657 18.0632 17.2841 18.1968C17.2026 18.3304 17.0104 18.6827 16.9184 18.7857C16.8264 18.8887 15.5653 19.2769 15.5653 19.2769L14.9654 19.7138L14.6675 20.3513L14.9006 20.7085L15.3481 20.8025L16.0749 20.4846L16.3077 20.1763V20.1763V20.1764Z" fill="#D2B159"/>
<path fill-rule="evenodd" clip-rule="evenodd" d="M17.9221 17.9801C17.9221 17.9801 17.7705 18.2167 17.4006 18.4407C17.0677 18.6376 16.5407 18.8164 16.0709 18.923C15.801 18.9862 15.531 19.0349 15.2887 19.0386C14.6359 19.0475 14.1866 18.8652 13.6299 18.8056C13.3284 18.7749 12.9585 18.7514 12.5739 18.6627C12.0802 18.5471 11.788 18.417 11.3903 18.2341C11.1019 18.1041 10.8374 18.0066 10.6229 17.8819C10.3215 17.7086 10.1014 17.5153 9.84617 17.4576C9.87762 17.5425 9.9109 17.6942 10.1624 17.8513C10.0293 17.8476 9.84617 17.8387 9.84617 17.8387C9.84617 17.8387 10.0237 17.9416 10.3362 18.1728C10.5286 18.3157 10.7837 18.5575 11.0445 18.7182C11.2128 18.8212 11.3959 18.8968 11.5161 18.9585C11.8087 19.1156 11.9267 19.195 12.119 19.3871C12.0506 19.3835 12.045 19.3871 12.045 19.3871C12.045 19.3871 12.2873 19.4178 12.461 19.508C12.4976 19.508 12.561 19.4954 12.6719 19.5261C12.7588 19.5532 12.8736 19.6147 12.9918 19.6471C13.1602 19.6959 13.2155 19.6743 13.2155 19.6743L13.1878 19.7284C13.1878 19.7284 13.4073 19.7247 13.4804 19.732C13.4675 19.7356 13.4711 19.741 13.4711 19.741C13.484 19.7431 13.4964 19.7474 13.5077 19.7537C13.5429 19.7759 13.5816 19.7924 13.6223 19.8024C13.6445 19.8059 13.663 19.8059 13.6908 19.8114C13.6815 19.8331 13.6094 19.9543 13.5761 20.0257C13.6038 20.0438 14.0199 20.3509 14.0199 20.3509C14.007 20.3707 13.9965 20.3919 13.9885 20.4141C13.9756 20.4537 13.97 20.5116 13.957 20.5386C13.9257 20.5928 13.9072 20.6019 13.9072 20.6019C13.9072 20.6019 13.957 20.6109 14.0441 20.6326C14.118 20.6507 14.2087 20.6813 14.3367 20.6994C14.3759 20.7044 14.4154 20.7074 14.455 20.7084C14.4365 20.7482 14.3552 20.8999 14.505 21.075C14.6548 21.2501 14.701 21.2756 14.7472 21.3875C14.7705 21.3704 14.7952 21.3552 14.8212 21.3423C14.8711 21.3206 14.9396 21.2882 14.9636 21.2448C14.9776 21.3027 14.9962 21.3594 15.0191 21.4146C15.0653 21.5355 15.1337 21.6548 15.1466 21.7451C15.1966 21.6909 15.289 21.5843 15.4166 21.606C15.5442 21.6277 15.6459 21.7975 15.6681 21.8463C15.6681 21.8156 15.6903 21.7921 15.6958 21.8282C15.6996 21.8679 15.7698 22.2832 16.1618 22.6192C16.1655 22.5343 16.1655 22.3464 16.1747 22.2851C16.2113 22.3208 16.256 22.3736 16.5224 22.4856C16.7832 22.5975 16.7418 22.7096 16.7418 22.7096C16.7418 22.7096 16.764 22.531 16.6235 22.3429C16.4811 22.1551 16.3942 22.0665 16.3942 22.0521C16.3965 22.0375 16.4029 22.0237 16.4127 22.0124C16.4312 21.9943 16.4682 21.9726 16.4682 21.9582C16.446 21.9493 16.2259 21.8463 16.2389 21.633C16.2518 21.4417 16.3349 21.3423 16.3942 21.2719C16.4033 21.2629 16.3071 21.1961 16.3202 21.1744C16.3294 21.1618 16.4477 21.0768 16.4626 21.0315C16.4591 21.0045 16.4529 20.9779 16.444 20.9521C16.4311 20.9124 16.4218 20.8852 16.4255 20.8582C16.4348 20.8131 16.4847 20.6884 16.4995 20.6758C16.4866 20.6794 16.3942 20.6758 16.3942 20.6758C16.3942 20.6758 16.468 20.5602 16.4811 20.506C16.4941 20.4518 16.5218 20.3091 16.5365 20.2821C16.5051 20.2856 16.4274 20.291 16.4274 20.2821C16.4237 20.2549 16.4958 20.2098 16.464 20.1749C16.4418 20.1785 16.3993 20.1966 16.3587 20.2472C16.3809 20.1893 16.4178 20.0774 16.4956 20.0323C16.459 20.0196 16.3347 19.987 16.2256 20.0502C16.1165 20.1135 16.0793 20.2019 16.0793 20.2019C16.0793 20.2019 16.0146 20.2507 15.9146 20.323C15.8 20.4115 15.654 20.5373 15.4209 20.6264C15.3709 20.6535 15.2434 20.6535 15.1509 20.6354C15.1106 20.6261 15.0719 20.6108 15.0363 20.5903C15.0234 20.5829 15.0097 20.5768 14.9956 20.5722C15.0154 20.5332 15.0383 20.4958 15.0639 20.4602C15.0325 20.4602 14.9956 20.4639 14.9956 20.4639C14.9956 20.4639 14.9734 20.415 15.0732 20.321C15.051 20.2993 15.0232 20.2853 15.0232 20.2487C15.0547 20.2451 15.1101 20.2 15.1231 20.1819C15.1047 20.1693 15.0769 20.1278 15.0454 20.1151C15.0732 20.0935 15.1416 20.0031 15.173 19.9942C15.143 19.9833 15.1139 19.97 15.0861 19.9544C15.0861 19.9544 15.2414 19.9146 15.2914 19.8821C15.3414 19.8464 15.4153 19.7846 15.4596 19.7665C15.506 19.7484 15.5873 19.7395 15.6206 19.7033C15.5892 19.7124 15.5392 19.7033 15.5022 19.7033C15.4745 19.7033 15.4615 19.7069 15.4523 19.7069C15.456 19.6943 15.456 19.6671 15.3838 19.6582C15.3491 19.6531 15.3154 19.6427 15.284 19.6275C15.284 19.6275 15.3525 19.6239 15.4303 19.5516C15.508 19.4793 15.5726 19.4216 15.617 19.4126C15.6632 19.4035 15.7501 19.4433 15.8038 19.4396C15.8778 19.4307 15.9092 19.3945 15.9092 19.3945C15.9092 19.3945 16.1551 19.4161 16.7006 19.0911C17.1723 18.8093 17.3776 18.5601 17.3776 18.5601C17.4217 18.5444 17.4644 18.5251 17.5051 18.5022C17.6826 18.412 17.9286 18.2241 17.9211 17.9784V17.9784L17.9221 17.9801Z" fill="#C2A44D"/>
<path fill-rule="evenodd" clip-rule="evenodd" d="M11.1187 7.13971C11.076 7.15328 11.0379 7.17832 11.009 7.21198C10.9221 7.30949 10.8666 7.49367 11.0645 7.6906C10.9868 7.71763 10.9548 7.72632 10.887 7.71763C10.9554 7.79716 11.1107 7.96694 11.12 8.11505C11.1292 8.23602 11.0516 8.27221 11.0516 8.27221C11.0516 8.27221 11.1699 8.4058 11.1754 8.62939C11.1195 8.56783 11.0583 8.51103 10.9926 8.45961C10.8557 8.35305 10.6671 8.23209 10.5394 8.15625C10.5412 8.18803 10.5368 8.21986 10.5265 8.25007C10.5265 8.25007 10.2881 8.05862 10.0877 8.14363C9.99709 8.18339 10.0378 8.30793 10.0378 8.30793C10.0378 8.30793 9.91383 8.2628 9.82691 8.3477C9.73999 8.43259 9.61711 8.65154 9.55409 8.73643C9.52642 8.77619 9.45425 8.85204 9.38038 8.96943C9.27945 9.13379 9.19518 9.30736 9.12876 9.4877C9.12511 9.39376 9.10109 9.24756 8.82729 9.33959C8.55362 9.43353 8.243 9.63045 7.98225 10.0182C7.7215 10.406 7.65689 10.8438 7.52559 11.0105C7.39247 11.1712 7.25558 11.4385 7.24631 11.5505C7.23705 11.6626 7.28703 12.0237 7.01335 13.0008C6.9357 12.6975 6.81733 12.0237 6.81733 12.0237L6.7526 11.4295L6.6786 9.59081L8.64444 7.99575L10.1812 6.90659L11.1816 7.00052L11.1189 7.13959V7.13959L11.1187 7.13971Z" fill="#CAA13E"/>
<path fill-rule="evenodd" clip-rule="evenodd" d="M7.46621 9.87595C7.46621 9.87595 7.49401 9.69735 7.95627 9.39375C8.41866 9.09396 8.77925 9.09396 9.11205 8.83929C9.36732 8.63879 9.63356 8.17814 9.80691 8.02646C9.97526 7.87656 10.0029 7.44306 10.0029 7.44306L9.43522 6.97873L8.59091 5.78681L7.87715 5.01923L7.53509 5.48356L7.05966 6.02898L6.79525 7.1235L6.69907 8.72558L7.46707 9.87606L7.46621 9.87595Z" fill="#B59544"/>
<path fill-rule="evenodd" clip-rule="evenodd" d="M6.89472 11.7963C6.88073 11.5534 6.91145 11.3099 6.98542 11.0775C7.10732 10.7073 7.37368 10.0498 7.49742 9.80359C7.5474 9.53082 7.51034 9.50916 7.4567 9.47844C7.40306 9.44772 7.20143 9.33557 7.09099 8.94207C6.98054 8.54857 6.63787 8.53572 6.63787 8.53572L6.42709 8.38403L6.10709 9.16602L5.82793 9.87229L5.74101 10.4123L5.67628 10.8729L5.82793 11.8464L6.57679 12.5075L6.89484 11.7963V11.7963H6.89472Z" fill="#C89D3A"/>
<path fill-rule="evenodd" clip-rule="evenodd" d="M17.345 22.6473V22.6273C17.3294 22.6178 17.3157 22.6057 17.3044 22.5916C17.2915 22.5735 17.2821 22.5518 17.2729 22.5465C17.2544 22.5374 17.1675 22.5107 17.1213 22.5193C17.0751 22.5279 16.9529 22.5771 16.8882 22.5735C16.7551 22.5699 16.5998 22.4705 16.3538 22.5157C15.9839 22.5825 15.897 22.8282 15.6824 22.9672C15.5361 23.0649 15.3847 23.0214 15.3626 23.0214H15.3127C15.3034 23.0214 15.235 22.9456 15.198 22.9492C15.124 22.9528 15.1167 23.0125 15.0705 23.016C14.9614 23.0287 14.7505 22.9619 14.645 22.989C14.5816 23.0084 14.5318 23.0569 14.5119 23.1189C14.4897 23.1857 14.5082 23.2706 14.5619 23.3194C14.6765 23.4223 14.7856 23.5199 14.8078 23.6052C14.7795 23.6262 14.7524 23.6486 14.7266 23.6723C15.6416 23.4446 16.5219 23.1004 17.345 22.6484V22.6473Z" fill="#CEB052"/>
<path fill-rule="evenodd" clip-rule="evenodd" d="M7.4978 19.0386C7.4978 19.0386 7.20938 18.663 7.10941 18.4769C7.00957 18.2851 7.42564 15.8563 7.42564 15.8563L6.58973 13.1814L6.61204 12.3109C6.61204 12.3109 6.57133 11.5071 6.47514 11.1585C6.36043 11.359 6.00349 11.601 5.92584 11.7293C5.88927 11.4835 5.76505 10.9652 5.78346 10.4126C5.71507 10.5154 5.5505 11.5504 5.5505 11.5504L5.38592 12.2475L5.17137 12.9881L4.93281 13.7702L4.79042 14.3103L4.70911 14.4403L4.6406 14.6678L4.57587 14.9135L4.38911 15.4897L4.2794 15.9628L4.19248 16.8208C4.17357 16.8865 4.15996 16.9535 4.15176 17.0213C4.1481 17.1152 4.16468 17.1694 4.16468 17.1857C4.16468 17.202 4.13323 17.3915 4.14615 17.5343C4.16468 17.6772 4.16468 17.789 4.2794 17.8915C4.39411 17.994 4.46615 18.6067 4.46615 18.6067L4.67144 18.4731C4.67144 18.4731 4.63072 18.2906 4.72691 18.1245C4.82309 17.9584 5.00985 17.924 5.1153 17.9511C5.22062 17.9728 5.4314 18.0052 5.49991 18.063C5.56464 18.1208 5.7236 18.2996 5.86976 18.3809C6.05262 18.4881 6.35056 18.4965 6.50952 18.5326C6.67044 18.5683 6.84793 18.6755 7.03481 18.7999C7.18133 18.8926 7.33604 18.9722 7.49707 19.038V19.038L7.4978 19.0386Z" fill="#CCA847"/>
<path fill-rule="evenodd" clip-rule="evenodd" d="M7.4978 22.985C7.4978 22.985 7.48561 22.9928 7.46208 23.0054C6.14825 22.4042 4.97105 21.552 3.99999 20.4992C4.0106 20.1336 4.02437 19.759 4.03949 19.6201C4.07082 19.3257 4.04863 19.0259 4.0579 18.8525C4.06716 18.6792 4.167 17.9729 4.2132 17.7905C4.26318 17.6081 4.35949 17.5178 4.37412 17.5178C4.38704 17.5215 4.46481 17.861 4.46481 17.9464C4.46481 18.0317 4.48334 18.2372 4.48334 18.2896C4.49626 18.2859 4.50175 18.2539 4.50175 18.2408C4.52028 18.2859 4.54247 18.3655 4.55173 18.3745C4.561 18.3836 4.53881 18.2987 4.55173 18.2806C4.56465 18.2625 4.5883 18.2715 4.58318 18.2264C4.58099 18.1997 4.57667 18.1731 4.57026 18.147C4.57026 18.147 4.62573 18.2264 4.66632 18.4287C4.70704 18.6292 4.70704 18.6347 4.72179 18.6526C4.73471 18.6744 4.80871 18.7466 4.81249 18.7737C4.81614 18.8224 4.74398 18.8712 4.73849 18.8983C4.73483 18.9435 4.80322 19.1529 4.82541 19.2555C4.84759 19.358 4.83833 19.5588 4.86198 19.6618C4.88051 19.7557 4.89855 19.8099 4.96182 19.8496C4.91562 19.8586 4.87124 19.8712 4.87124 19.8712C4.87124 19.8712 4.80651 20.1385 4.97108 20.3662C5.03021 20.4456 5.04496 20.4818 5.10786 20.554C5.23184 20.6876 5.32802 20.8398 5.33729 20.9387C5.34368 20.9095 5.348 20.8799 5.35021 20.8501C5.35021 20.8501 5.54245 21.0687 5.62388 21.1934C5.72921 21.3541 5.87537 21.3451 5.91645 21.3848C5.95754 21.4246 5.96644 21.4968 5.95303 21.5546C5.9896 21.5636 6.05835 21.5763 6.10468 21.7154C6.12686 21.7875 6.18233 21.8582 6.26925 21.9068C6.35617 21.9554 6.46161 21.97 6.51525 21.9827C6.46905 21.9953 6.45052 21.9953 6.42833 22.0097C6.45601 22.0548 6.58364 22.1253 6.72602 22.2157C6.86841 22.3005 6.93692 22.4251 6.97203 22.5064C7.0086 22.5822 7.0626 22.6311 7.14952 22.6401C7.11295 22.6618 7.05882 22.7123 7.03115 22.7286C7.07187 22.7376 7.14087 22.7376 7.26411 22.8406C7.39357 22.9454 7.43795 22.9761 7.49719 22.9851V22.9851L7.4978 22.985Z" fill="#C39D3C"/>
<path fill-rule="evenodd" clip-rule="evenodd" d="M10.0709 23.822C10.0001 23.7735 9.92342 23.7338 9.8426 23.7038C9.55417 23.5918 9.24904 23.5702 9.12884 23.5341C9.01413 23.4984 8.92356 23.4491 8.78117 23.4221C8.78495 23.4537 8.78812 23.4835 8.79153 23.5116C9.21131 23.6405 9.63878 23.7441 10.0715 23.822H10.0709Z" fill="#D2BA6B"/>
<path fill-rule="evenodd" clip-rule="evenodd" d="M4.75084 16.4125C4.75084 16.4125 4.80997 16.7249 4.91542 16.9219C5.02086 17.1188 5.13484 17.3914 5.13484 17.3914C5.13415 17.33 5.12672 17.2688 5.11266 17.2089C5.24578 17.2847 5.56943 17.4673 5.66123 17.5485C5.74815 17.6243 5.89431 17.758 5.93125 17.8212C5.84433 17.572 5.75375 17.3481 5.73888 17.2451C5.872 17.339 6.49347 17.8393 6.81701 18.1698L7.82492 18.9664C7.94123 19.0276 8.06101 19.0824 8.18368 19.1304C8.3574 19.2026 8.56268 19.264 8.71433 19.3219C8.67362 19.2153 8.60901 19.1213 8.51831 19.031C8.42213 18.9425 8.1337 18.6373 8.08933 18.4952C8.04861 18.3471 8.03935 18.2587 8.09298 18.134C8.14297 18.1466 8.25756 18.1521 8.33521 18.1738C8.41286 18.1954 8.49612 18.2766 8.49612 18.2766C8.49612 18.2766 8.437 17.9461 8.30937 17.6337C8.40555 17.6373 8.57012 17.6643 8.57012 17.6643C8.57012 17.6643 8.34082 17.2887 7.94841 17.0269C8.06858 17.0518 8.18618 17.0875 8.29973 17.1333C8.52904 17.2272 8.78053 17.3663 8.96729 17.4421C8.86196 17.2993 8.12224 16.2682 7.68204 15.3073C7.24319 14.3482 7.07922 14.1026 6.98304 13.5879C6.93318 13.3332 6.94647 12.9569 6.93318 12.6198C6.92026 12.2856 6.87772 11.9858 6.90539 11.7853C6.7908 11.9244 6.36169 12.3163 6.34694 13.1924C6.33402 14.0683 6.7574 15.2514 7.20686 15.8889C7.09714 15.9196 6.81286 15.9558 6.52078 15.4603C6.2287 14.9647 6.23223 14.8264 6.12678 14.6204C6.11386 14.7234 6.11764 14.7595 6.11764 14.7595C6.11764 14.7595 5.69219 14.2556 5.49068 13.6216C5.44997 13.8944 5.32977 14.1346 5.51848 14.6349C5.68671 15.0864 5.90674 15.1967 5.90674 15.1967C5.90674 15.1967 5.79764 15.1786 5.63685 15.0846C5.60905 15.1514 5.61454 15.2275 5.56834 15.2544C5.52214 15.2813 5.45923 15.3267 5.44997 15.37C5.40011 15.2977 5.32246 15.2056 5.29832 15.137C5.31685 15.2799 5.32977 15.9046 5.26175 16.2225C5.11924 16.2099 4.9732 16.2008 4.87336 15.9497C4.94175 16.1955 4.94175 16.3435 4.89555 16.553C4.81972 16.5025 4.75133 16.4122 4.75133 16.4122V16.4122L4.75084 16.4125Z" fill="#C0993A"/>
<path fill-rule="evenodd" clip-rule="evenodd" d="M9.55578 6.45697C9.55578 6.45697 9.69817 6.51472 9.94039 6.51472C10.1512 6.51472 10.092 6.4353 10.4212 6.4353C10.9278 6.4353 12.6976 6.72105 13.0084 6.717C13.21 6.71343 12.3279 6.80189 12.3279 6.80189L10.0735 6.83261L9.62051 6.79689L9.45216 6.46233L9.55578 6.45697Z" fill="#A88F33"/>
<path fill-rule="evenodd" clip-rule="evenodd" d="M15.4016 10.7611C15.4016 10.7611 15.6902 10.976 15.8122 11.1404C15.9342 11.3048 15.999 11.413 16.1377 11.5467C16.1051 11.548 16.0726 11.5437 16.0415 11.5341C16.0415 11.5341 16.0415 11.5698 16.0637 11.5792C16.0249 11.575 15.9862 11.5881 15.9584 11.615C15.9991 11.6366 16.11 11.7451 16.0231 11.8733C15.9584 11.9708 15.8215 11.9798 15.8215 11.9798C15.8215 11.9798 15.8529 12.0684 15.7216 12.0593C15.4387 12.0467 15.1225 11.9256 14.9764 11.9563C14.8301 11.992 14.747 12.0051 14.6435 12.1804C14.5338 12.3537 14.4382 12.3809 14.4382 12.3809C14.4382 12.3809 14.3735 12.22 14.3882 11.9799C14.3352 11.8504 14.3057 11.7129 14.3013 11.5735L14.3975 10.8818L14.8172 10.3634L15.3609 10.6578L15.4016 10.7607V10.7611Z" fill="#E3C571"/>
<path fill-rule="evenodd" clip-rule="evenodd" d="M14.8857 10.6581C14.8857 10.6581 14.845 10.752 14.6748 10.7609C14.6934 10.8007 14.6934 10.8062 14.6878 10.8368C14.6841 10.8675 14.6786 10.9126 14.6786 10.9126C14.6599 10.9038 14.643 10.8917 14.6286 10.8769C14.6194 10.9167 14.6379 10.9798 14.6286 11.025C14.6229 11.0525 14.6136 11.0792 14.601 11.1044C14.5983 11.0982 14.5952 11.0922 14.5917 11.0864C14.5881 11.0774 14.5551 11.184 14.4641 11.265C14.4642 11.2526 14.461 11.2403 14.4549 11.2293C14.4535 11.252 14.4459 11.2738 14.4327 11.2925C14.4396 11.2894 14.4458 11.2851 14.4512 11.2799C14.4512 11.2799 14.442 11.5657 14.392 11.7134C14.3837 11.7039 14.3762 11.6936 14.3698 11.6827C14.3698 11.6738 14.3735 11.7622 14.3828 11.8256C14.3957 11.8888 14.3864 11.9773 14.3864 11.9773C14.3531 11.9516 14.3164 11.9304 14.2774 11.914C14.222 11.8922 14.1312 11.8254 14.0758 11.6773C14.0437 11.5935 14.0189 11.5071 14.0018 11.4191C13.9839 11.4527 13.9716 11.4889 13.9652 11.5262C13.9615 11.5714 13.8745 11.5479 13.8745 11.5479L13.856 11.351L13.7463 10.9049L13.6465 10.6285L13.1657 9.89714L12.297 9.24374L11.5387 9.41352L10.899 8.56462L12.0011 7.918L13.0441 8.02456L13.9907 9.30506L14.7488 10.4665L14.8857 10.6579V10.6579L14.8857 10.6581Z" fill="#D8B65B"/>
<path fill-rule="evenodd" clip-rule="evenodd" d="M9.42297 8.80502C9.42297 8.80502 9.4877 8.81764 9.67446 8.91218C9.86122 9.00671 9.99068 9.03671 10.0628 9.17578C10.135 9.31484 10.1405 9.42509 10.1405 9.42509C10.1405 9.42509 10.0129 9.37092 9.93887 9.35282C9.86122 9.33484 9.7743 9.3402 9.78356 9.37092C9.79246 9.39198 9.80481 9.41148 9.82014 9.42866C9.82014 9.42866 9.67385 9.42509 9.67775 9.49557C9.68165 9.56606 9.70542 9.64369 9.7331 9.67797C9.76089 9.71369 9.87548 9.76656 9.8884 9.80811C9.91985 9.893 9.87548 9.89657 9.89218 9.96515C9.9051 10.0321 9.96606 10.1621 10.1659 10.3896C10.3711 10.6172 10.4584 10.778 10.4584 10.778C10.4584 10.778 10.5583 10.5956 10.6101 10.4384C10.6466 10.4564 10.843 10.563 10.843 10.563L11.298 9.01516L11.2888 8.91218C11.2888 8.91218 11.2481 8.86348 11.2389 8.77311C11.3073 8.75145 11.3165 8.73335 11.4072 8.64858C11.4979 8.56381 11.5718 8.4607 11.7233 8.39022C11.7455 8.35045 11.7733 8.2964 11.8842 8.27461C11.9952 8.25282 12.0617 8.23496 12.0617 8.23496C12.0617 8.23496 12.0026 8.21317 11.9748 8.16805C12.0433 8.1771 12.0987 8.19877 12.2485 8.19519C12.4001 8.1915 12.4168 8.18615 12.5 8.19877C12.5831 8.21139 12.6828 8.24758 12.72 8.12292C12.7607 8.09221 12.8476 8.11935 12.9216 8.22579C12.9956 8.33223 13.0215 8.41724 13.1639 8.45879C13.1739 8.52009 13.1958 8.57894 13.2286 8.63215C13.2693 8.69906 13.334 8.76585 13.421 8.86515C13.5579 9.02231 13.5357 9.28055 13.7539 9.47748C13.9739 9.67428 13.7173 8.93194 13.7173 8.93194L13.366 8.11042L12.3655 7.15496L10.8121 7.05209L10.6604 7.83789L9.90218 8.09256L9.42321 8.80597V8.80597L9.42297 8.80502Z" fill="#D3AE4D"/>
<path fill-rule="evenodd" clip-rule="evenodd" d="M9.17691 8.97836L9.82971 8.05909L10.2865 7.71584C10.2865 7.71584 10.612 7.13077 10.6342 7.11268C10.6527 7.10006 10.9596 7.06755 11.1557 7.05493L11.1191 7.14339C11.0763 7.15697 11.0383 7.18201 11.0094 7.21566C10.9225 7.31317 10.867 7.49736 11.0648 7.69429C10.9872 7.72131 10.9551 7.73001 10.8874 7.72131C10.9557 7.80085 11.111 7.97063 11.1203 8.11874C11.1296 8.2397 11.0519 8.27578 11.0519 8.27578C11.0519 8.27578 11.1703 8.40948 11.1758 8.63296C11.1199 8.57139 11.0587 8.51459 10.9929 8.46318C10.856 8.35603 10.6674 8.23554 10.5398 8.15969C10.5415 8.19152 10.5372 8.22338 10.5269 8.25363C10.5269 8.25363 10.2884 8.06218 10.088 8.14707C9.99745 8.18684 10.0382 8.3115 10.0382 8.3115C10.0382 8.3115 9.91419 8.26637 9.82727 8.35126C9.74035 8.43615 9.6165 8.65463 9.55359 8.73964C9.52592 8.77941 9.45375 8.85525 9.37988 8.97252C9.27893 9.13691 9.19466 9.31053 9.12827 9.49091C9.12461 9.41864 9.10974 9.31756 8.98198 9.31756L9.17618 8.978L9.17691 8.97836Z" fill="#CAA13E"/>
<path fill-rule="evenodd" clip-rule="evenodd" d="M18.9634 11.5901C18.9634 11.5901 19.0096 11.478 18.9634 11.2596C18.9172 11.0411 18.845 10.9381 18.821 10.6166C18.797 10.2952 18.5824 9.89418 18.5824 9.89418L17.9888 9.63058L17.569 9.7425L17.4452 10.2916L17.9759 10.5774C17.9759 10.5774 18.0036 10.6983 18.1534 10.7958C18.3032 10.8933 18.5104 10.9692 18.5602 11.0686C18.59 11.1295 18.6118 11.1938 18.6249 11.26C18.6249 11.26 18.7766 11.2293 18.8672 11.3268C18.9634 11.4263 18.9597 11.5147 18.9634 11.5906V11.5901Z" fill="#F4EFC8"/>
<path fill-rule="evenodd" clip-rule="evenodd" d="M17.7649 11.4437C17.7649 11.4437 17.8149 11.4745 17.8518 11.5509C17.8884 11.4931 17.9758 11.1499 17.9794 10.8411C17.9831 10.5322 18.002 10.4557 17.9288 10.3492C17.8557 10.2428 17.5688 10.1306 17.6096 9.93893C17.6503 9.75653 17.8205 9.68069 18.0294 9.73308C18.1757 9.7688 18.2846 10.0726 18.4362 10.2243C18.5509 10.3399 18.6877 10.3218 18.7246 10.3851C18.7746 10.4699 18.7284 10.5548 18.7432 10.609C18.7469 10.6271 18.7931 10.7246 18.8764 10.842C19.0446 11.0786 19.3294 11.4128 19.3665 11.7126C19.3535 11.5428 19.3627 11.5392 19.3165 11.3513L19.3443 11.3062L19.1614 10.721L19.043 10.2388L18.7785 9.43138L18.3126 8.60605L17.8595 8.11111L17.3879 8.14183L17.3325 8.83357L17.0625 10.1323L16.4947 10.815L17.4046 11.413L17.7652 11.4437V11.4437H17.7649Z" fill="#EBCC73"/>
<path fill-rule="evenodd" clip-rule="evenodd" d="M17.4822 11.6891C17.4822 11.6891 17.5598 11.7072 17.5876 11.6928C17.6154 11.6784 17.643 11.6621 17.6338 11.644C17.6247 11.6259 17.5747 11.5953 17.5747 11.5808C17.5726 11.5535 17.5931 11.5295 17.6209 11.5266C17.6635 11.5213 17.6764 11.5483 17.6764 11.5483C17.6764 11.5483 17.7171 11.5177 17.7503 11.5126C17.7306 11.5102 17.7109 11.509 17.6911 11.5089C17.7422 11.4863 17.7965 11.4711 17.8521 11.4638C17.8058 11.4367 17.7152 11.3572 17.656 11.3572C17.5969 11.3572 17.5598 11.3483 17.5691 11.3176C17.5784 11.2868 17.6246 11.2417 17.6744 11.2236C17.656 11.2019 17.643 11.1694 17.6874 11.0807C17.7337 10.9923 17.7152 10.9326 17.7003 10.9111C17.6874 10.8839 17.6412 10.8352 17.619 10.8045C17.5968 10.7738 17.5783 10.7323 17.5413 10.7106C17.5228 10.698 17.4637 10.6749 17.4044 10.6528C17.3397 10.6312 17.286 10.604 17.2491 10.6312C17.2084 10.6582 17.2269 10.6944 17.2269 10.6944C17.2269 10.6944 17.0993 10.6491 16.9847 10.707C16.87 10.7611 16.5907 10.7955 16.5907 10.7955L16.4906 10.9924L17.1527 11.5469L17.4264 11.6806L17.4818 11.6895V11.6895L17.4822 11.6891Z" fill="#E5C66B"/>
<path fill-rule="evenodd" clip-rule="evenodd" d="M16.5628 10.7827C16.5628 10.7827 16.7681 10.9164 16.8143 10.9651C16.7866 10.9688 16.7404 10.9869 16.7589 11.0139C16.7811 11.0409 16.9142 11.1349 16.9882 11.2235C17.0659 11.3119 17.1399 11.424 17.1657 11.4781C17.1934 11.5268 17.4043 11.6696 17.4763 11.6876C17.3247 11.6876 17.0195 11.5052 16.905 11.5052C16.9086 11.5593 16.8735 11.6208 16.8088 11.6261C16.744 11.6315 16.5573 11.6659 16.3058 11.5142C16.0543 11.3661 16.1374 11.2558 16.0321 11.1837C15.8305 11.0536 15.7492 10.9379 15.6382 10.8658C15.5273 10.7936 15.4699 10.7772 15.4699 10.7772C15.4699 10.7772 15.4662 10.723 15.4333 10.7285C15.415 10.7306 15.3993 10.7424 15.3926 10.7592C15.3926 10.7592 15.2002 10.6255 14.9537 10.5895C14.9595 10.5869 14.9641 10.5825 14.9667 10.5768C14.9667 10.5768 14.9483 10.5678 14.9445 10.5587C14.9445 10.5587 14.9316 10.5406 14.9223 10.5497C14.913 10.5587 14.9001 10.6255 14.8816 10.6527C14.8409 10.6346 14.7632 10.4648 14.7632 10.4648L14.5763 9.94284V9.466L14.7226 9.49315L15.8198 9.9482L16.4856 10.622L16.5633 10.7827H16.5628Z" fill="#E6BD62"/>
<path fill-rule="evenodd" clip-rule="evenodd" d="M13.4044 8.44374C13.345 8.42967 13.2881 8.40712 13.2355 8.37682C13.2577 8.43469 13.2577 8.49791 13.3539 8.63518C13.4501 8.77246 13.4537 8.79234 13.5314 8.93498C13.609 9.08309 13.6183 9.29621 13.6923 9.39003C13.6591 9.37429 13.6236 9.36395 13.587 9.35943C13.587 9.35943 13.6608 9.42265 13.6923 9.48944C13.7238 9.55624 13.7792 9.6953 13.916 9.78031C14.0528 9.86532 14.2267 9.91937 14.4135 10.1199C14.6004 10.3167 14.7926 10.566 14.8889 10.6556C14.8389 10.5708 14.7705 10.401 14.752 10.2891C14.7335 10.1771 14.7558 10.0433 14.7243 9.89532C14.6929 9.74733 14.6929 9.64065 14.5415 9.38229C14.3901 9.12393 14.1309 8.22633 14.1309 8.22633L13.5725 8.05298L13.4041 8.44314V8.44314L13.4044 8.44374Z" fill="#B6933F"/>
<path fill-rule="evenodd" clip-rule="evenodd" d="M13.8076 8.11326C13.8076 8.11326 13.9759 8.34983 14.0221 8.55938C14.0683 8.76893 14.0258 8.75083 14.0535 8.85382C14.0701 8.91661 14.0701 8.98247 14.0535 9.04527C13.9952 8.9536 13.9155 8.87679 13.8208 8.8212C13.6617 8.72738 13.5322 8.66046 13.4551 8.58105C13.3774 8.49616 13.3127 8.3571 13.1445 8.25054C13.2128 8.24149 13.309 8.21077 13.3273 8.21482C13.2588 8.13898 13.0536 8.02337 12.8465 7.88431C12.6412 7.74143 12.6542 7.68381 12.3212 7.54117C12.4303 7.55927 12.4822 7.53213 12.5728 7.54117C12.5363 7.46533 12.4083 7.42914 12.2803 7.3046C12.1523 7.18006 12.3616 6.99576 12.3616 6.99576L13.3368 7.57189L13.8084 8.11374L13.8076 8.11326Z" fill="#C49937"/>
<path fill-rule="evenodd" clip-rule="evenodd" d="M16.4539 7.68336L16.4317 7.51001L16.1524 7.07294L15.8602 6.30535V5.25595L15.8824 4.6491L15.8362 4.25168L15.8011 4.12535L15.764 4.07654L15.5256 4.1975L15.1963 4.63458L15.1648 5.47812L15.4848 6.80922L16.3984 7.78278L16.4539 7.68336V7.68336Z" fill="#DFC068"/>
<path fill-rule="evenodd" clip-rule="evenodd" d="M15.727 4.0277C15.727 4.0277 15.8733 4.03139 15.9045 4.62562C15.9357 5.21985 15.9508 5.53227 15.973 5.82671C15.9952 6.12114 16.0469 6.29985 16.0729 6.47332C16.0988 6.64679 16.1136 6.88325 16.1967 7.02779C16.2333 7.09458 16.3114 7.30413 16.4945 7.46129C16.6998 7.63464 17.0065 7.75573 17.053 7.76477C17.1344 7.78275 17.5468 7.82252 17.715 7.91288C17.7742 7.9436 17.8759 7.97968 17.9887 8.08267C18.2125 8.27947 18.5102 8.63165 18.7248 9.0561C19.0539 9.6901 19.3831 11.4799 19.3831 11.4799L19.3091 11.359C19.3091 11.359 19.2998 11.1982 19.1352 10.9164C18.9743 10.6347 19.0205 10.3186 18.7968 9.77856C18.7099 9.57271 18.6008 9.30542 18.4677 9.07777C18.2568 8.7075 18.0016 8.3896 17.7445 8.21625C17.3248 7.93455 16.8624 7.87312 16.8624 7.87312L16.3649 7.55166C16.3649 7.55166 16.278 7.38735 16.1633 7.19947C16.0025 6.93587 15.7976 6.64144 15.7529 6.21341C15.6843 5.57942 15.849 5.16401 15.8398 4.78838C15.8305 4.41274 15.8269 4.1364 15.7491 4.06949C15.6713 4.00258 15.7269 4.02794 15.7269 4.02794V4.02794L15.727 4.0277Z" fill="#A88F33"/>
<path fill-rule="evenodd" clip-rule="evenodd" d="M15.7269 6.86337C15.7269 6.86337 15.5075 6.33593 15.407 5.86814C15.3885 5.7742 15.3515 5.68039 15.3423 5.60454C15.2961 5.162 15.2831 4.97959 15.3423 4.73754C15.3885 4.55895 15.566 4.39798 15.6585 4.27321C15.7491 4.14307 15.7916 4.09462 15.7731 4.06723C15.7546 4.03985 15.6825 3.99508 15.6123 4.00044C15.4614 4.00473 15.319 4.06929 15.2183 4.17903C15.0759 4.33976 14.9631 4.8853 14.9631 4.8853L14.8445 5.60514L14.5431 6.51179L15.7266 6.86409V6.86409L15.7269 6.86337Z" fill="#C99E3D"/>
<path fill-rule="evenodd" clip-rule="evenodd" d="M13.6652 6.31438C13.6652 6.31438 13.7059 6.33236 13.7798 6.31438C13.7734 6.3745 13.8019 6.43307 13.8538 6.46607C13.9314 6.43535 14.6584 6.49678 14.6584 6.49678C14.6584 6.49678 14.9968 6.43892 15.1022 6.00185C15.1761 5.71098 15.0468 5.31011 15.0893 5.04639C15.154 4.65801 15.2446 4.58205 15.2539 4.46121C15.2631 4.34036 15.2724 4.30952 15.2724 4.23368C15.3131 4.22463 15.3371 4.21201 15.3777 4.21201C15.387 4.17629 15.3686 4.1451 15.4092 4.08188C15.387 4.09093 15.2353 4.10902 15.0579 4.27333C14.9116 4.40703 14.9116 4.45573 14.8895 4.48287C14.8618 4.5099 14.638 4.69718 14.5418 4.88387C14.4456 5.07056 14.2589 5.66586 14.2163 5.76337C14.2034 5.80314 14.1756 5.8429 14.1066 5.93315C13.9994 6.06328 13.8422 6.27843 13.6647 6.31415V6.31415L13.6652 6.31438Z" fill="#B58634"/>
<path fill-rule="evenodd" clip-rule="evenodd" d="M14.8635 4.49194C14.7515 4.66869 14.6509 4.85208 14.5622 5.04105C14.4531 5.2812 14.3883 5.47812 14.2514 5.63885C14.3254 5.42943 14.4567 5.0176 14.5344 4.87127C14.6213 4.71649 14.7988 4.54981 14.8635 4.49206V4.49206V4.49194Z" fill="#A88F33"/>
<path fill-rule="evenodd" clip-rule="evenodd" d="M16.1209 7.46127C16.1209 7.46127 16.3076 7.50639 16.6553 7.68522C16.77 7.74297 16.879 7.79166 16.9844 7.83691C17.2584 7.95787 17.5521 8.06967 17.7852 8.13134C17.7667 8.15301 17.7576 8.16194 17.7576 8.16194C17.7576 8.16194 17.7576 8.25052 17.7076 8.301C17.7352 8.32815 18.1052 8.57377 17.996 9.39553C17.9221 9.3685 17.8352 9.33231 17.8223 9.33231C17.8 9.336 17.7945 9.39553 17.7668 9.39553C17.7391 9.39553 17.6485 9.35981 17.5523 9.23837C17.5559 9.28718 17.6114 9.77843 17.3137 10.1089C17.2582 10.0457 17.1177 9.83617 17.1177 9.83617L17.114 9.76938C17.114 9.76938 17.1011 9.53638 17.0233 9.32326C16.9455 9.11014 16.794 8.95298 16.794 8.95298L16.0027 7.84941L16.1211 7.46115V7.46115L16.1209 7.46127Z" fill="#E6C367"/>
<path fill-rule="evenodd" clip-rule="evenodd" d="M16.8605 9.08172C16.8967 9.10672 16.9366 9.12619 16.9788 9.13946C16.9918 9.09434 17.0103 8.93896 16.9012 8.78728C16.7736 8.60476 16.4944 8.36819 16.4167 8.18007C16.3668 8.05899 16.389 7.75562 15.9451 7.36725C15.5012 6.97887 15.3275 6.84528 15.3275 6.84528L14.61 6.4931L13.7279 6.83266L14.1661 8.51023L14.5064 9.29603L15.8595 9.04683L16.8606 9.08172V9.08172H16.8605Z" fill="#DCBA5A"/>
<path fill-rule="evenodd" clip-rule="evenodd" d="M16.344 8.62619L16.1756 8.42034V8.27401C16.1756 8.27401 15.9889 8.2252 15.7874 8.0247C15.5859 7.8242 15.3066 7.43952 15.0606 7.46297C14.8146 7.49012 14.7906 7.98493 14.7813 8.12411C14.772 8.2633 14.7406 8.57916 14.6907 8.74906C14.6353 8.91884 15.2899 9.56177 15.2899 9.56177L15.7345 9.89228L16.344 8.62619V8.62619Z" fill="#E9CE77"/>
<path fill-rule="evenodd" clip-rule="evenodd" d="M15.8232 10.3402C15.8232 10.3402 15.6863 10.1306 15.7867 10.0855C15.7275 9.95548 15.6184 9.8182 15.6184 9.8182C15.6184 9.8182 15.5408 9.63044 15.2893 9.39923C15.0378 9.16801 14.8824 9.01442 14.8417 8.85917C14.8166 8.75798 14.8029 8.65442 14.8009 8.55032C14.7738 8.57202 14.7447 8.59134 14.714 8.60807C14.6733 8.62617 14.4811 8.78142 14.5087 9.09395C14.5364 9.40649 14.655 9.5365 14.655 9.5365C14.655 9.5365 14.7696 9.64842 14.8509 9.70628C14.938 9.76403 14.9693 9.83082 15.1155 9.8363C15.1004 9.82463 15.0836 9.81546 15.0655 9.80915C15.0655 9.80915 15.2171 9.79117 15.2986 9.86332C15.38 9.93547 15.5531 10.1578 15.64 10.2247C15.7269 10.2788 15.8229 10.3403 15.8229 10.3403V10.3403L15.8232 10.3402Z" fill="#CDAE50"/>
<path fill-rule="evenodd" clip-rule="evenodd" d="M9.67436 6.82715C9.89284 6.74939 10.1224 6.70552 10.3548 6.69714C10.7432 6.68452 11.3109 6.70619 11.8675 6.70976C12.4667 6.71333 13.0104 6.50926 13.7649 6.47319C13.8887 6.40092 14.2037 6.08481 15.187 6.75489C15.1279 6.75131 14.4731 6.60677 14.2458 6.88502C14.0165 7.16136 14.0812 7.63093 14.1125 7.74285C14.1718 7.99216 14.3642 8.35518 14.4417 8.60985C14.5192 8.86452 14.5009 8.99834 14.5564 9.17693C14.6119 9.35553 14.7339 9.44423 14.6618 9.65008C14.5657 9.59234 14.5156 9.59234 14.3549 9.24016C14.1942 8.88797 14.2273 8.63688 13.9609 8.33887C13.7001 8.03907 13.266 7.62903 13.101 7.52604C12.9359 7.42305 11.6253 6.75846 10.253 7.39245C9.92207 7.35817 9.67423 6.82704 9.67423 6.82704V6.82704L9.67436 6.82715Z" fill="#D2A83E"/>
<path fill-rule="evenodd" clip-rule="evenodd" d="M14.6342 6.58145C14.6355 6.56788 14.6386 6.55452 14.6433 6.54168C14.6562 6.51527 14.673 6.4909 14.6933 6.46941C14.6933 6.46941 15.0188 6.41167 15.1834 6.42965C15.4719 6.46037 15.7327 6.80897 15.8547 6.9878C15.9767 7.16663 16.1284 7.44285 16.2929 7.58561C16.2911 7.5717 16.2944 7.55762 16.3022 7.54584C16.3022 7.54584 16.2929 7.55846 16.3113 7.57656C16.3298 7.59466 16.3299 7.60358 16.3206 7.61228L16.2928 7.6393C16.2837 7.6393 16.0284 7.52727 15.6807 7.21068C15.3109 6.88017 15.0279 6.71063 14.8799 6.65253C14.801 6.61977 14.7185 6.59592 14.6341 6.58145V6.58145H14.6342Z" fill="#C29637"/>
<path fill-rule="evenodd" clip-rule="evenodd" d="M8.32046 5.22345C8.32046 5.22345 8.37971 5.2956 8.45371 5.37513C8.61828 5.54491 8.83283 5.73624 9.01593 5.93317C9.18965 6.12105 9.38567 6.26737 9.60583 6.513C9.82599 6.75862 10.0813 7.03127 10.1459 7.1108C10.205 7.19033 10.2512 7.32035 10.2512 7.38714C10.2826 7.36547 10.3196 7.34201 10.3196 7.34201C10.304 7.37037 10.2854 7.39703 10.2641 7.42155C10.2179 7.48477 10.1459 7.56442 10.1088 7.613C10.0633 7.67484 10.0307 7.74477 10.0127 7.81885C9.99056 7.82242 9.84817 7.84957 9.67056 7.56418C9.49294 7.27879 9.26011 6.96638 9.26011 6.96638L8.89025 6.42989L8.65717 5.97484L8.36459 5.4655L8.3201 5.22345V5.22345H8.32046Z" fill="#AC8132"/>
<path fill-rule="evenodd" clip-rule="evenodd" d="M7.94162 4.85864C7.94162 4.85864 8.16543 5.03723 8.25235 5.14439C8.33927 5.25154 8.54492 5.53276 8.54492 5.53276L8.47093 5.52372L8.09546 5.19868L7.94917 4.94401L7.94174 4.85912L7.94162 4.85864Z" fill="#A88F33"/>
<path fill-rule="evenodd" clip-rule="evenodd" d="M8.01001 19.212C8.01001 19.212 8.01367 19.0638 7.92858 18.9754C7.84166 18.8868 7.62162 18.7568 7.40707 18.2691C7.19252 17.7814 7.16862 17.6713 7.16862 17.6713C7.16862 17.6713 7.55323 17.9928 7.79034 18.0686C7.73487 17.9566 7.70342 17.8772 7.67563 17.8193C7.70708 17.7923 7.8402 17.7616 7.85312 17.7472C7.77925 17.6749 7.73853 17.4978 7.58871 17.3804C7.39634 17.2376 7.04501 16.9921 6.77195 16.7732C6.49888 16.5544 5.96201 16.0454 5.8935 15.8973C5.85279 15.9551 5.84364 15.9911 5.84364 15.9911C5.84364 15.9911 6.11354 16.3344 6.2541 16.5529C6.37807 16.7407 6.36881 16.8473 6.36881 16.8473L6.11354 16.7401C6.11354 16.7401 6.03967 17.0074 6.37429 17.4139C6.22801 17.3597 6.16901 17.3922 6.08587 17.347C6.22277 17.432 6.41135 17.5476 6.58885 17.8654C6.76268 18.1833 6.99942 18.5536 7.39878 18.7846C7.78717 19.0285 8.01099 19.2109 8.01099 19.2109V19.2109L8.01001 19.212Z" fill="#A67A2E"/>
<path fill-rule="evenodd" clip-rule="evenodd" d="M9.01226 7.01519C9.01226 7.01519 9.16391 7.32391 9.1861 7.56418C9.18975 7.62204 9.20463 7.66717 9.20463 7.73396C9.20828 7.94886 9.19171 8.18913 9.2412 8.30104C9.25973 8.25592 9.26899 8.2252 9.28752 8.20722C9.31519 8.28307 9.36518 8.51964 9.40589 8.6081C9.4243 8.55036 9.46502 8.34986 9.46124 8.11329C9.45746 7.87671 9.45209 7.83147 9.45209 7.78277C9.46124 7.85492 9.51122 7.95255 9.52975 8.0103C9.55742 7.9616 9.58887 7.89838 9.62593 7.846C9.64812 7.88171 9.67579 7.93446 9.6998 7.9616C9.70358 7.93993 9.71273 7.88207 9.71833 7.80087C9.72199 7.70693 9.7276 7.58597 9.72199 7.56061C9.71285 7.51191 9.63507 7.32046 9.4705 7.1452C9.27448 6.93566 9.07285 6.53299 9.01372 6.40834C8.9546 6.28368 8.70311 5.76541 8.70311 5.76541H8.51075L8.79003 6.38667C8.79003 6.38667 8.95826 6.72623 9.04518 6.85101C9.13209 6.97578 9.31519 7.33332 9.39663 7.47238C9.3375 7.39654 9.28752 7.35678 9.22828 7.28451C9.17098 7.2339 9.01202 7.01543 9.01202 7.01543V7.01543L9.01226 7.01519Z" fill="#8C6228"/>
<path fill-rule="evenodd" clip-rule="evenodd" d="M7.93774 4.83505C7.96917 4.92951 8.01882 5.01721 8.08403 5.09341C8.19874 5.22712 8.44475 5.40583 8.56482 5.54846C8.67454 5.68753 8.89397 6.06685 8.79425 6.51655C8.75768 6.41903 8.6888 6.2258 8.5057 6.0072C8.3226 5.78861 8.12657 5.53763 8.03027 5.34261C7.93421 5.14568 7.92129 4.99043 7.92129 4.99043L7.88472 4.9453L7.9069 4.84232L7.93835 4.83505L7.93774 4.83505Z" fill="#CBA94C"/>
<path fill-rule="evenodd" clip-rule="evenodd" d="M4.19295 16.8152C4.19295 16.8152 4.26695 16.6184 4.28913 16.4395C4.31132 16.2607 4.25256 16.2252 4.32058 16.0206C4.3613 15.8959 4.43518 15.9134 4.4537 15.8959C4.47223 15.8784 4.48516 15.6901 4.4815 15.5871C4.47784 15.4841 4.48516 15.3505 4.50369 15.2926C4.53136 15.271 4.54989 15.2529 4.5906 15.1193C4.63681 14.9856 4.65899 14.9188 4.68118 14.8791C4.70337 14.8395 4.76822 14.8033 4.76822 14.7635C4.76822 14.684 4.69422 14.6426 4.69422 14.6207C4.69788 14.5755 4.75335 14.6117 4.76822 14.599C4.78663 14.5773 4.72189 14.4473 4.74591 14.4292C4.75517 14.4203 4.81991 14.4961 4.83661 14.4745C4.85514 14.4527 4.87732 14.2378 4.9106 14.0951C4.94193 13.9561 4.97533 13.855 4.97899 13.8134C4.98265 13.7737 5.23426 13.0729 5.29521 12.9031C5.34433 12.7596 5.38568 12.6137 5.41907 12.466C5.4376 12.3811 5.45052 12.2077 5.45978 12.2258C5.46905 12.2439 5.46344 12.3323 5.47831 12.3287C5.49124 12.3251 5.53744 12.0163 5.55219 11.9675C5.56511 11.9187 5.64288 11.7532 5.6619 11.6334C5.68043 11.5123 5.72103 11.1962 5.74882 10.9813C5.77661 10.7664 5.78954 10.678 5.78954 10.6242C5.78499 10.4925 5.79241 10.3608 5.81172 10.2304C5.84829 10.0028 5.92144 9.72644 5.98556 9.56582C6.10941 9.26234 6.43868 8.48571 6.49756 8.29247C6.49756 8.24366 6.43283 8.2708 6.43283 8.2708C6.43283 8.2708 6.27203 8.66454 6.15367 8.9679C6.03895 9.27139 5.92985 9.53868 5.90205 9.56582C5.87987 9.59285 5.70603 9.89086 5.62838 10.3785C5.55072 10.8662 5.52305 11.3159 5.47673 11.6157C5.45454 11.7586 5.43601 11.9101 5.38981 12.0618C5.33995 12.2262 5.2623 12.396 5.16051 12.656C5.07359 12.8746 5.00886 13.057 4.97375 13.2142C4.93303 13.4147 4.93303 13.5664 4.90902 13.6658C4.88671 13.7507 4.85355 13.9203 4.77578 14.1658C4.698 14.4114 4.58353 14.7276 4.50588 14.9244C4.35411 15.3181 4.28645 15.6468 4.26353 15.8221C4.2433 16.0027 4.17479 16.6277 4.19332 16.8154V16.8154L4.19295 16.8152Z" fill="#A88F33"/>
<path fill-rule="evenodd" clip-rule="evenodd" d="M7.92852 4.81336L7.93779 4.83503C7.93779 4.83503 7.91012 4.84408 7.9156 4.88027C7.91521 4.92979 7.9183 4.97928 7.92487 5.02838C7.93401 5.09161 7.95254 5.1403 7.9562 5.18007C7.9562 5.26496 7.94327 5.36247 8.06591 5.60452C8.10248 5.67131 8.12503 5.72906 8.14356 5.76882C8.18977 5.86633 8.19903 5.88086 8.23975 5.92598C8.17501 5.89026 7.94193 5.74739 7.82369 5.76882C7.905 5.81395 8.02897 5.90253 8.10663 6.01813C8.0881 6.02171 8.01044 6.03623 7.8872 6.01813C7.68191 5.98742 7.45261 5.91515 7.2511 5.92955C7.03094 5.94217 7.11786 5.67131 7.11786 5.67131L7.37191 5.12589L7.8527 4.7955L7.92852 4.81348V4.81336Z" fill="#BE9C44"/>
<path fill-rule="evenodd" clip-rule="evenodd" d="M6.6748 8.89895C6.6748 8.89895 6.88935 8.6894 6.97627 7.97028C7.06318 7.24782 7.04465 6.18437 7.04465 6.18437L7.21849 5.76897C7.21849 5.76897 7.25506 5.49263 7.34613 5.38976C7.43719 5.28689 7.61602 5.11342 7.69745 5.02853C7.77889 4.94364 7.87129 4.82803 7.92676 4.80993C7.89909 4.76481 7.77511 4.51014 7.29992 4.50657C6.82474 4.503 6.67821 4.76124 6.62859 4.85518C6.57898 4.94912 6.35492 5.35523 6.27178 6.12913C6.19413 6.90207 6.19035 6.95993 6.20327 7.22722C6.21253 7.37533 6.26251 7.71846 6.34955 8.08505C6.42904 8.3958 6.51595 8.74262 6.67504 8.89967L6.6748 8.89895Z" fill="#A17C34"/>
<path fill-rule="evenodd" clip-rule="evenodd" d="M7.3476 9.5148C7.2761 9.51984 7.20467 9.5041 7.14231 9.46956C7.07393 9.46599 6.82609 9.49671 6.63568 9.26013C6.62276 9.31419 6.58935 9.46063 6.67639 9.59064C6.63007 9.5454 6.56168 9.52742 6.55242 9.5148C6.54876 9.5816 6.48403 9.78745 6.7577 10.2877C6.68383 10.2083 6.59691 10.2119 6.51926 10.2029C6.51548 10.2968 6.46379 10.6128 6.60057 10.7827C6.69114 10.8983 6.83914 10.8621 6.83914 10.8621C6.83697 10.8369 6.83697 10.8115 6.83914 10.7863C6.84279 10.7374 6.86132 10.6887 6.84828 10.6562C6.91979 10.6243 6.98493 10.5803 7.04065 10.5261C7.20156 10.378 7.41051 10.1252 7.42526 9.93735C7.44379 9.7278 7.25142 9.68268 7.25142 9.68268C7.26753 9.6686 7.28128 9.65212 7.29214 9.63386C7.3014 9.60326 7.31067 9.55445 7.3476 9.5148V9.5148V9.5148Z" fill="#8C6228"/>
<path fill-rule="evenodd" clip-rule="evenodd" d="M8.77388 7.24269C8.77388 7.24269 8.78315 7.23007 8.83301 7.28781C8.82374 7.23007 8.81448 7.17578 8.81082 7.12339C8.78722 7.07489 8.75668 7.02991 8.72012 6.9898C8.74792 7.04386 8.76645 7.09267 8.76645 7.09267C8.76645 7.09267 8.69794 6.96801 8.5981 6.89217C8.52971 6.838 8.44279 6.81276 8.40585 6.76216C8.36514 6.70799 8.3744 6.69894 8.36514 6.68989C8.36514 6.68989 8.27444 6.63214 8.13571 6.46225C8.11731 6.44058 8.08951 6.41712 8.07098 6.39545C8.03965 6.38283 7.96566 6.35033 7.87874 6.30687C7.78804 6.25818 7.68637 6.19138 7.62347 6.164C7.49961 6.10983 7.3682 6.1153 7.30725 6.03029C7.26105 6.01767 7.21119 5.88218 7.22033 5.76669C7.15194 5.79372 6.80061 6.00684 6.68029 6.47284C6.59337 6.80335 6.7488 7.31269 6.81353 7.55844C6.87827 7.80418 6.88741 7.98646 6.97811 8.09838C7.09282 8.24661 7.46256 8.45556 7.55325 8.55902C7.63091 8.64391 7.86387 8.85882 7.85472 9.01407C7.84546 9.12968 7.69942 9.19266 7.66784 9.21457C7.63627 9.23648 7.63651 9.26338 7.57727 9.25029C7.51802 9.23719 7.49596 9.21052 7.47182 9.21052C7.44415 9.21409 7.44415 9.21957 7.43123 9.21957C7.42185 9.2193 7.41254 9.21806 7.40343 9.21588C7.40343 9.21588 7.4127 9.3803 7.80657 9.43019C7.83436 9.43388 7.86204 9.44281 7.89727 9.44828C7.85094 9.42662 7.82327 9.42662 7.77329 9.35982C7.82876 9.35077 7.98784 9.34173 8.02856 9.3291C8.01564 9.30744 7.97309 9.24957 7.93798 9.22255C7.90653 9.19552 7.94164 9.18683 7.96931 9.20088C8.01696 9.23253 8.06267 9.26688 8.10621 9.30375C8.15241 9.34351 8.19313 9.39768 8.26713 9.44662C8.28931 9.37435 8.28566 9.23707 8.19862 9.13777C8.22092 9.14135 8.26347 9.20457 8.30406 9.19195C8.3114 9.12607 8.30703 9.05945 8.29114 8.99502C8.26895 8.9137 8.14876 8.77107 8.14876 8.77107L7.56812 7.75774L7.44427 6.99016L8.77388 7.24245V7.24245V7.24269Z" fill="#92723A"/>
<path fill-rule="evenodd" clip-rule="evenodd" d="M8.80534 7.28603C8.80534 7.28603 8.83679 7.3077 8.77388 7.34925C8.78315 7.36187 8.80534 7.40699 8.83313 7.43771C8.86446 7.47343 8.89786 7.49557 8.91078 7.52629C8.93846 7.58951 8.96064 7.63285 8.96064 7.66C8.96064 7.68714 8.96991 7.86049 9.04756 7.97241C9.07535 8.01218 9.10681 8.07897 9.12899 8.12409C9.17519 8.20351 9.21591 8.26697 9.22518 8.30269C9.24358 8.36591 9.2565 8.53926 9.2565 8.53926C9.2565 8.53926 9.21579 8.49044 9.20104 8.47247C9.22335 8.51759 9.24736 8.56629 9.28247 8.60248C9.26028 8.58438 9.19555 8.53926 9.08645 8.44532C8.9348 8.32078 8.69806 8.11124 8.40951 7.94527C8.49655 7.97598 8.57042 7.97598 8.62955 7.98503C8.58335 7.93991 8.16729 7.46307 7.94908 7.41795C7.93583 7.40154 7.92923 7.38094 7.93055 7.36008L8.11743 7.3421L8.49655 7.42152L8.55189 7.13577L8.80534 7.28567V7.28603Z" fill="#B18E3E"/>
<path fill-rule="evenodd" clip-rule="evenodd" d="M8.20208 8.91154C8.20208 8.91154 8.25207 8.96024 8.29827 9.08132C8.33384 9.04505 8.36434 9.00433 8.38896 8.96024C8.45735 8.84832 8.56268 8.70557 8.80868 8.78689C8.81234 8.71104 8.81795 8.67128 8.80868 8.61711C8.76797 8.60818 8.64411 8.51067 8.52026 8.36791C8.43322 8.2704 8.35191 8.15837 8.29644 8.01573C8.25987 7.98859 8.1966 7.94346 8.11358 7.89107C7.99521 7.81166 7.85283 7.7032 7.83064 7.58223C7.88611 7.6039 8.00448 7.65807 8.18209 7.64914C8.11358 7.61843 8.00826 7.58592 8.02118 7.45222C7.99338 7.43412 7.9712 7.4215 7.9712 7.4215C7.99204 7.41471 8.01397 7.41164 8.03593 7.41245C8.03971 7.39983 8.04519 7.38185 8.07664 7.39078C8.1081 7.39971 8.11322 7.39983 8.11736 7.41245C8.13028 7.41614 8.17283 7.41245 8.20428 7.43424C8.23573 7.45603 8.32265 7.52806 8.35593 7.54068C8.34301 7.51901 8.3246 7.48663 8.3246 7.48663C8.3246 7.48663 8.41517 7.49556 8.47991 7.52234C8.59827 7.56211 8.73505 7.63438 8.87378 7.70474C8.86086 7.68308 8.85525 7.66903 8.84611 7.66498C8.83696 7.66093 8.81466 7.65605 8.81466 7.65236C8.81466 7.64867 8.8238 7.61664 8.81831 7.60366C8.77684 7.51785 8.7279 7.43567 8.67203 7.35804C8.6073 7.27303 8.59437 7.15207 8.59437 7.15207L8.31143 7.013L7.51625 6.83441L7.00023 6.86513L7.06496 7.21374L7.36972 7.82238L7.63047 8.37684L7.92829 8.71652L8.20196 8.91154V8.91154H8.20208Z" fill="#543E26"/>
<path fill-rule="evenodd" clip-rule="evenodd" d="M6.91321 7.40295C6.91321 7.40295 7.22395 7.77859 7.31087 7.83645C7.2554 7.72084 6.91321 7.03267 6.78936 6.84122C6.81703 6.81955 6.85409 6.81955 6.76717 6.48404C6.84105 6.6537 6.86701 6.74228 6.92796 6.78741C6.98892 6.83253 6.99647 6.81812 7.03768 6.81812C7.0299 6.80438 7.0267 6.7886 7.02853 6.773C7.02853 6.773 7.28929 6.74228 7.46739 6.74228C7.64549 6.74228 7.99804 6.83622 8.19419 6.91206C8.34949 6.97528 8.43641 6.97528 8.49188 7.01493C8.54735 7.06005 8.5788 7.10887 8.60659 7.12149C8.62878 7.13411 8.7341 7.16661 8.75824 7.2009C8.78043 7.23662 8.81737 7.27674 8.81737 7.28579C8.81737 7.29484 8.82663 7.30758 8.79884 7.29841C8.78969 7.29484 8.72118 7.25865 8.64353 7.21352C8.5382 7.15578 8.41057 7.08899 8.31804 7.04922C8.05363 6.94623 7.97037 6.96433 7.85212 6.94266C7.72827 6.92099 7.55065 6.87039 7.43241 6.87039C7.31404 6.86682 7.09022 6.87039 7.03841 6.87944C7.0606 6.89754 7.07913 6.91921 7.06986 6.99505C7.06986 7.01672 7.08839 7.04017 7.10643 7.09256C7.16178 7.24067 7.26722 7.48629 7.32586 7.61095C7.40717 7.78061 7.49957 7.92336 7.54529 8.01182C7.591 8.10029 7.69157 8.33329 7.79117 8.45795C7.89077 8.5826 7.94282 8.65844 7.97403 8.68559C8.00524 8.71273 8.2293 8.87335 8.2126 8.93121C8.17188 8.91859 7.91478 8.82406 7.72815 8.6188C7.54151 8.41354 7.50433 8.28828 7.35829 8.17625C7.21225 8.06421 7.09753 7.87645 7.02914 7.7212C6.97185 7.57666 6.98477 7.53153 6.91273 7.40331V7.40331L6.91321 7.40295Z" fill="#806031"/>
<path fill-rule="evenodd" clip-rule="evenodd" d="M13.6094 10.2066C13.6094 10.2066 13.6501 10.3709 13.7426 10.4522C13.8332 10.5317 13.9941 10.6003 14.0125 10.734C14.0347 10.8676 13.8516 10.9345 13.8516 10.9345C13.8516 10.9345 13.9516 11.0952 13.9516 11.2162C13.9516 11.3409 13.9552 11.3643 13.9423 11.4835C13.957 11.4927 13.9695 11.5049 13.9789 11.5192C13.9789 11.5192 13.9698 11.6348 13.8791 11.707C13.7884 11.7791 13.7108 11.8226 13.6646 11.8045C13.6576 11.8192 13.6514 11.8343 13.6461 11.8497C13.6461 11.8497 13.5776 11.6799 13.5314 11.5318C13.4852 11.3802 13.4445 11.4017 13.4261 11.1976C13.4076 10.9936 13.2066 10.6432 13.2066 10.6432L13.0695 10.3437L13.2932 10.174L13.6094 10.2065V10.2066Z" fill="#B6903C"/>
<path fill-rule="evenodd" clip-rule="evenodd" d="M13.1935 10.5009C13.2396 10.5472 13.2822 10.5967 13.3209 10.649C13.38 10.7286 13.4262 10.8007 13.5131 10.8315C13.6 10.8624 13.6555 10.8621 13.65 10.9472C13.6445 11.0322 13.5631 11.0681 13.5169 11.1115C13.4669 11.1566 13.4262 11.2324 13.4484 11.3174C13.4207 11.3048 13.3707 11.2903 13.3245 11.1928C13.2783 11.0953 12.9552 10.501 12.9552 10.501H13.1935V10.5009Z" fill="#685026"/>
<path fill-rule="evenodd" clip-rule="evenodd" d="M11.9189 9.13006C11.9189 9.13006 11.8912 9.05791 11.9189 9.00552C11.9467 8.95135 12.1149 8.93326 12.1981 8.87182C12.2851 8.8086 12.3905 8.76467 12.4774 8.79241C12.4645 8.76169 12.4127 8.69478 12.4552 8.68037C12.496 8.66775 12.6475 8.73454 12.6882 8.76526C12.7289 8.79598 12.8214 8.83205 12.8399 8.85384C12.8583 8.87563 12.8898 8.91706 12.9084 8.89897C12.9269 8.88635 12.936 8.85384 12.9675 8.87182C12.9989 8.8898 13.1503 9.01088 13.1783 9.08137C13.2062 9.15185 13.269 9.30901 13.4575 9.48772C13.6461 9.66643 13.7276 9.78216 13.6721 9.84895C13.6166 9.91574 13.5907 9.86705 13.5814 9.92479C13.5743 9.98148 13.5774 10.0389 13.5907 10.0946C13.6129 10.1885 13.6498 10.277 13.5999 10.2951C13.4723 10.3348 13.3483 10.2594 13.3206 10.2824C13.2652 10.3311 13.3521 10.5064 13.2208 10.5407C13.0876 10.5764 12.9563 10.51 12.9563 10.51L12.4718 10.2553L12.0058 10.0152L11.7673 9.55451L11.8952 9.16983L11.9196 9.13006H11.9189Z" fill="#D4B968"/>
<path fill-rule="evenodd" clip-rule="evenodd" d="M12.3762 10.23C12.3762 10.23 12.4576 10.1091 12.3577 10.0024C12.2577 9.89571 12.1154 9.8507 12.06 9.78391C12.0705 9.77119 12.0847 9.76179 12.1007 9.75688C12.0639 9.69254 12.0077 9.64079 11.9398 9.60865C11.9675 9.58163 12.0045 9.55996 12.0451 9.55996C12.1358 9.55996 12.1914 9.61413 12.2745 9.61413C12.3558 9.61413 12.3651 9.57436 12.3651 9.57436C12.3651 9.57436 12.2282 9.56174 12.2413 9.50209C12.2542 9.43887 12.2778 9.43887 12.2778 9.43887C12.2778 9.43887 12.0134 9.33172 11.9672 9.27457C11.921 9.21742 11.9265 9.14991 11.9172 9.12289C11.8859 9.12289 11.7028 9.02895 11.6288 9.06871C11.5548 9.10848 11.6066 9.21683 11.6066 9.21683C11.6066 9.21683 11.3827 9.0524 11.2686 8.89119C11.1687 8.90024 11.1223 8.8244 11.0491 8.8244C10.9584 8.8244 10.8161 8.94537 10.7884 9.20361C10.7699 9.35172 10.7422 9.43661 10.7699 9.69854C10.7828 9.84666 10.7791 10.1629 10.7333 10.3198C10.702 10.4445 10.628 10.4318 10.628 10.4318C10.6393 10.4698 10.6618 10.5037 10.6927 10.5293C10.7427 10.5745 10.7482 10.6938 10.7427 10.7389C10.7353 10.7719 10.726 10.8044 10.7149 10.8364C10.7149 10.8364 10.774 10.9032 10.7889 10.9484C10.8018 10.9936 10.8628 11.0243 10.9073 11.0243C10.9517 11.0243 10.9294 11.0206 10.9886 11.0243C11.0477 11.028 11.0662 11.0369 11.1033 11.0243C11.1403 11.0117 11.168 10.9971 11.1531 10.8814C11.1402 10.7658 11.6099 10.4967 11.6099 10.4967L12.3779 10.2294V10.2294L12.3762 10.23Z" fill="#CCA849"/>
<path fill-rule="evenodd" clip-rule="evenodd" d="M13.2582 11.3715C13.2582 11.3715 13.09 11.5901 12.3983 11.5901C12.0691 11.5901 11.9544 11.5594 11.8863 11.5413C11.8123 11.5232 11.5349 11.4168 11.2557 11.0952C11.0042 10.8044 11.0596 10.6852 11.0596 10.6852L11.2059 10.6636L11.6813 10.7268L13.0881 11.312L13.2588 11.3715H13.2582Z" fill="#585136"/>
<path fill-rule="evenodd" clip-rule="evenodd" d="M12.7421 11.4256C12.7421 11.4256 13.3413 11.5558 13.3413 11.1855C13.3413 10.8243 12.9714 10.4449 12.8789 10.3781C12.7827 10.3112 12.5534 10.2353 12.5534 10.2353H12.0005L11.8952 10.508L11.9414 11.0968L12.7421 11.4255V11.4256Z" fill="#252211"/>
<path fill-rule="evenodd" clip-rule="evenodd" d="M12.1893 10.3456C12.1893 10.3456 12.3039 10.2426 12.5647 10.3813C12.8254 10.52 13.0363 10.81 13.0492 11.0732C13.0622 11.3061 12.8532 11.4795 12.5277 11.4886C12.2855 11.4975 12.1393 11.4705 12.0653 11.4529C12.0839 11.4312 12.1801 11.3138 12.1801 11.3138L12.1892 10.3457V10.3457L12.1893 10.3456Z" fill="#C3B378"/>
<path fill-rule="evenodd" clip-rule="evenodd" d="M12.3021 10.4033C12.3021 10.4033 12.3298 10.3816 12.4119 10.4249C12.4802 10.4607 12.5801 10.5551 12.6577 10.6219C12.7077 10.6616 12.7392 10.6796 12.7675 10.7103C12.8822 10.844 12.9783 11.0626 12.9228 11.171C12.8672 11.2793 12.6842 11.404 12.2181 11.3191L12.3035 10.4034V10.4034L12.3021 10.4033Z" fill="#E6D89C"/>
<path fill-rule="evenodd" clip-rule="evenodd" d="M12.4538 10.6274C12.4538 10.6274 12.5278 10.7394 12.5278 10.9182C12.5278 11.1006 12.4224 11.3914 12.034 11.4131C11.7363 11.4311 11.5366 10.9941 11.3202 10.8243C11.1557 10.6943 11.0558 10.6906 11.0558 10.6906C11.0558 10.6906 11.2241 10.512 11.6734 10.2807C12.1173 10.0477 12.6147 10.0169 12.8848 10.3746C12.7571 10.3656 12.3447 10.2626 12.3447 10.2626L12.1431 10.3258L12.4538 10.6275V10.6275V10.6274Z" fill="#252211"/>
<path fill-rule="evenodd" clip-rule="evenodd" d="M11.8731 10.8639C11.8861 10.8369 11.8953 10.8007 11.8417 10.7918C11.7881 10.7828 11.764 10.7881 11.7455 10.8275C11.727 10.8669 11.7089 10.8998 11.7364 10.9161C11.764 10.9305 11.8362 10.9161 11.8733 10.8637L11.8731 10.8639ZM11.9601 10.6093C11.9601 10.6093 11.9786 10.6219 11.9693 10.5966C11.9657 10.566 11.9415 10.5117 11.8824 10.5245C11.8233 10.5372 11.8361 10.6003 11.8458 10.6184C11.8556 10.6365 11.905 10.6671 11.942 10.6541C11.9516 10.6518 11.9593 10.6451 11.963 10.6362C11.9667 10.6273 11.9658 10.6172 11.9606 10.609L11.9601 10.6093Z" fill="#6F674D"/>
<path fill-rule="evenodd" clip-rule="evenodd" d="M16.9658 10.7247C16.9658 10.7247 16.8195 10.8318 16.6496 10.8277C16.4814 10.824 16.265 10.6543 16.1652 10.5459C16.106 10.4826 16.0554 10.4158 16.0006 10.3635C15.9543 10.3183 15.9229 10.2967 15.9007 10.266C15.8693 10.2302 15.836 10.1631 15.8193 10.1413C15.86 10.172 15.9191 10.2263 15.9802 10.2624C16.0393 10.2981 16.167 10.3652 16.2188 10.3833C16.2686 10.4014 16.7865 10.6691 16.7865 10.6691L16.9658 10.7247V10.7247Z" fill="#AC924C"/>
<path fill-rule="evenodd" clip-rule="evenodd" d="M16.7422 9.39021C16.7422 9.39021 16.6609 9.33603 16.5036 9.30162C16.352 9.26591 16.0468 9.2384 16.0468 9.2384L15.7954 9.34556L15.6955 9.71584L15.8784 10.1006L16.1113 10.2435L16.3759 9.82811L16.7416 9.39092V9.39092L16.7422 9.39021Z" fill="#9F8E57"/>
<path fill-rule="evenodd" clip-rule="evenodd" d="M17.0714 9.72071L17.1584 9.78417C17.1584 9.78417 17.1361 9.7444 17.1177 9.62343C17.0993 9.50247 17.003 9.20803 16.8625 9.03825C16.7219 8.86847 16.7256 8.87752 16.7256 8.87752C16.7517 8.87285 16.7787 8.8794 16.7996 8.8955C16.781 8.85549 16.6627 8.71262 16.5443 8.64118C16.4259 8.56975 16.3797 8.54725 16.2559 8.60547C16.132 8.66369 16.1006 8.69393 16.0099 8.69036C15.9192 8.68678 15.8416 8.59285 15.8416 8.59285C15.8416 8.59285 15.8231 8.65059 15.8915 8.7843C15.9599 8.918 16.2299 9.19065 16.2299 9.19065L16.7921 9.56628L17.0714 9.72106V9.72106V9.72071Z" fill="#EAC970"/>
<path fill-rule="evenodd" clip-rule="evenodd" d="M16.6553 9.34506C16.6553 9.34506 16.2484 9.39924 16.1245 9.28732C16.1208 9.29994 16.106 9.29994 16.106 9.30899C16.107 9.31581 16.1102 9.32212 16.1152 9.32697C16.1018 9.32487 16.0882 9.32367 16.0745 9.3234C16.0582 9.32813 16.0415 9.33116 16.0245 9.33244C16.0109 9.33216 15.9973 9.33092 15.9838 9.32875C15.9864 9.34689 15.9965 9.36322 16.0116 9.374C15.9931 9.374 15.975 9.37757 15.975 9.39197C15.975 9.40638 15.9714 9.44984 15.9936 9.45889C16.012 9.46385 16.0315 9.46255 16.049 9.4552C16.0476 9.48939 16.0381 9.5228 16.0212 9.55282C15.9847 9.61962 15.9067 9.6957 15.8018 9.67379C15.8018 9.67379 15.7465 9.8038 15.9794 10.0928C16.0108 10.1325 16.0442 10.1867 16.0848 10.2318C16.1008 10.266 16.1131 10.3017 16.1213 10.3384C16.1213 10.3384 15.7273 10.1903 15.6146 9.8525C15.4999 9.51294 15.4777 9.17886 15.4999 8.86644C15.5036 8.77786 15.5184 8.71476 15.5406 8.66951C15.596 8.55748 15.7515 8.57558 15.8143 8.6388C15.905 8.72738 16.0566 8.94764 16.2674 9.09932C16.4819 9.25101 16.4911 9.27791 16.6558 9.34506V9.34506H16.6553Z" fill="#D7BC6B"/>
<path fill-rule="evenodd" clip-rule="evenodd" d="M17.1436 9.83272C17.1436 9.83272 17.2212 9.87784 17.262 10.047C17.3027 10.2204 17.2254 10.4317 17.1807 10.4985C17.1359 10.5653 17.0344 10.7478 16.8237 10.7569C16.7716 10.7566 16.72 10.7462 16.6721 10.7261C16.5985 10.6932 16.5296 10.6513 16.4668 10.6015C16.3761 10.5347 16.3022 10.477 16.3115 10.4715C16.3337 10.4624 16.8699 10.0289 16.8699 10.0289L17.0715 9.80914L17.1437 9.83296L17.1436 9.83272Z" fill="#585136"/>
<path fill-rule="evenodd" clip-rule="evenodd" d="M16.6365 10.5515C16.6365 10.5515 16.5274 10.5425 16.4627 10.5028C16.3979 10.463 16.8418 10.0332 16.8418 10.0332L16.8103 10.4975L16.6365 10.5515Z" fill="#453A25"/>
<path fill-rule="evenodd" clip-rule="evenodd" d="M17.1085 9.80009C17.1085 9.80009 17.1639 9.90308 17.1639 9.93022C17.1732 10.0187 17.1454 10.2968 17.1232 10.3853C17.101 10.4792 16.9808 10.6218 16.8254 10.6218C16.7294 10.6218 16.5961 10.5641 16.5961 10.5497C16.5961 10.5316 16.733 10.514 16.7699 10.4467C16.7921 10.411 16.8014 10.3222 16.8065 10.2324C16.8102 10.1747 16.8102 10.1114 16.788 10.0895C16.738 10.0354 16.7289 9.87998 16.7289 9.87998L16.5514 9.55792H16.7848L17.0641 9.7277L17.1085 9.80009Z" fill="#84754B"/>
<path fill-rule="evenodd" clip-rule="evenodd" d="M17.177 9.89952C17.177 9.89952 16.9941 9.66294 16.8293 9.60865C16.6645 9.55436 16.5908 9.58698 16.5908 9.58698L16.6869 9.82725L16.8238 9.97536L16.8146 10.0512C16.8146 10.0512 16.8369 10.2517 16.7 10.3908C16.5631 10.5298 16.4614 10.5245 16.4022 10.5245C16.3429 10.5245 16.1729 10.4757 16.086 10.2752C16.0083 10.0874 15.9436 9.84654 16.0989 9.60508C16.2506 9.36482 16.5187 9.35553 16.5705 9.35553C16.6223 9.35553 17.0291 9.37541 17.177 9.89916V9.89916V9.89952Z" fill="#252211"/>
<path fill-rule="evenodd" clip-rule="evenodd" d="M12.4814 10.7032C12.5498 10.6725 12.4851 10.4847 12.4167 10.4268C12.3483 10.369 12.2614 10.3023 12.1096 10.2931C12.0542 10.2896 12.0006 10.3239 12.0097 10.36C12.0227 10.4268 12.1189 10.5208 12.2058 10.5876C12.326 10.6797 12.4037 10.7375 12.4814 10.7032Z" fill="#F7F7E7"/>
<path fill-rule="evenodd" clip-rule="evenodd" d="M16.1802 9.67912C16.1302 9.67555 16.0655 9.71484 16.0526 9.7677C16.0397 9.82545 16.084 9.94105 16.1802 9.94105C16.2579 9.94105 16.2986 9.84711 16.2986 9.82009C16.2977 9.79786 16.2914 9.77618 16.2801 9.75687C16.2764 9.75139 16.2671 9.68817 16.1802 9.67912V9.67912Z" fill="#F8F6DE"/>
<path fill-rule="evenodd" clip-rule="evenodd" d="M16.9015 9.72067C16.9015 9.72067 17.0291 9.77842 17.0883 9.89926C17.1305 9.9885 17.1433 10.0884 17.1248 10.185C17.1156 10.2301 17.0694 10.3421 17.0379 10.3818C17.0065 10.4216 16.9639 10.4487 16.9325 10.445C16.901 10.4413 16.8364 10.3601 16.8364 10.3115C16.8364 10.2628 16.8326 10.0568 16.7717 9.94474C16.718 9.83283 16.9011 9.72079 16.9011 9.72079V9.72079L16.9015 9.72067Z" fill="#D4C38B"/>
<path fill-rule="evenodd" clip-rule="evenodd" d="M16.8827 9.71161C16.9049 9.72423 16.9418 9.74233 16.9327 9.76579C16.9234 9.78745 16.8457 9.8015 16.8179 9.85437C16.7865 9.90854 16.7865 9.96628 16.7958 9.99343C16.7716 9.98222 16.7497 9.9669 16.731 9.94819C16.6903 9.90306 16.6404 9.84175 16.5979 9.84175C16.5701 9.84175 16.5424 9.85437 16.5165 9.85437C16.4758 9.85437 16.4352 9.84175 16.4296 9.80019C16.4204 9.74602 16.5072 9.69721 16.5572 9.70626C16.5479 9.67054 16.535 9.61779 16.5757 9.5816C16.6164 9.5454 16.7439 9.60874 16.7717 9.62684C16.7995 9.64494 16.8827 9.71173 16.8827 9.71173V9.71173V9.71161Z" fill="#E2D59D"/>
<path fill-rule="evenodd" clip-rule="evenodd" d="M13.9441 13.5064L13.6705 13.4274L13.5928 13.4816C13.5928 13.4816 13.5375 13.5972 13.4504 13.6116C13.4782 13.6694 13.5504 13.7188 13.5466 13.7597C13.5428 13.8007 13.5059 13.832 13.5059 13.832C13.5059 13.832 13.7519 14.2293 13.2673 14.6297C13.382 14.6748 13.5281 14.7369 13.6057 14.7726C13.5504 14.7852 13.432 14.8083 13.382 14.8521C13.3321 14.8959 13.3321 14.9099 13.2859 14.937C13.2397 14.9641 13.212 15.0002 13.2211 15.0164C13.2526 14.9983 13.358 14.9443 13.3764 14.9947C13.3948 15.0452 13.8332 15.0255 13.8332 15.0255L14.5729 15.1645C14.5729 15.1645 14.5453 15.0923 14.6229 15.0255C14.7135 14.946 14.8244 15.029 14.9428 14.9406C15.0981 14.825 15.1037 14.6913 15.1536 14.6408C15.1037 14.6101 15.0019 14.5649 14.7597 14.5336C14.769 14.5155 14.8004 14.4614 14.7819 14.4127C14.7597 14.3494 14.6673 14.3097 14.695 14.2341C14.6542 14.225 14.6358 14.225 14.534 14.1004C14.4379 13.9757 14.3787 13.9487 14.3047 13.9396C14.2307 13.9306 14.1864 13.9396 14.0495 13.815C13.9534 13.7265 13.9847 13.6507 13.9847 13.6507C13.9847 13.6507 13.922 13.6308 13.944 13.5061V13.5061L13.9441 13.5064Z" fill="#CBAC5A"/>
<path fill-rule="evenodd" clip-rule="evenodd" d="M14.7523 13.5465C14.7486 13.5284 14.7338 13.5194 14.6339 13.5284C14.5341 13.5374 13.9016 13.4707 13.7296 13.4616C13.5558 13.449 12.9437 13.4579 12.6459 13.5194C12.3481 13.5808 12.0467 13.6531 11.9007 13.6891C11.7544 13.7289 11.7083 13.7432 11.7139 13.7613C11.7176 13.7794 11.7505 13.797 11.7694 13.792C11.7878 13.7884 12.2724 13.6439 12.4221 13.6134C12.5718 13.5829 13.0898 13.5014 13.3729 13.5063C13.6374 13.5099 13.7428 13.5027 13.9665 13.5279C14.1903 13.5551 14.5602 13.5911 14.6711 13.5767C14.7808 13.5641 14.7581 13.5641 14.7525 13.546V13.546L14.7523 13.5465Z" fill="#D6BC6F"/>
<path fill-rule="evenodd" clip-rule="evenodd" d="M13.2639 14.9621C13.2639 14.9621 12.8848 15.1626 12.7479 15.4082C12.648 15.5906 12.807 15.681 12.807 15.681C12.807 15.681 12.5924 15.681 12.6202 15.7966C12.6332 15.8687 12.9901 16.0638 13.2287 16.1667C13.4709 16.2697 13.4616 16.2644 13.58 16.2823C13.6947 16.3004 14.0091 16.2466 14.0738 16.3365C14.1386 16.4264 14.1104 16.519 14.0924 16.5334C14.0738 16.5461 13.924 16.5642 13.924 16.5642C13.924 16.5642 13.9555 16.6491 14.2661 16.6581C14.5767 16.6672 14.6545 16.6887 14.673 16.7213C14.6915 16.7519 14.6139 16.7339 14.4714 16.757C14.329 16.7787 14.1293 16.7928 14.1293 16.7928C14.1293 16.7928 14.194 16.8469 14.3623 16.8903C14.5546 16.939 14.8561 16.9842 14.9467 17.0384C14.9005 17.0691 14.832 17.1142 14.8004 17.1178C14.878 17.1359 14.9873 17.1757 15.0057 17.1901C14.978 17.2082 14.9409 17.2298 14.9409 17.2298C14.9409 17.2298 15.0964 17.4122 15.1869 17.4575C15.2775 17.5027 15.799 17.7392 15.9785 17.6941C16.426 17.5784 16.4814 17.0998 16.5906 17.0637C16.7551 17.0096 16.8328 17.1178 16.9789 17.042C16.9142 16.9968 16.879 16.9698 16.8106 16.9391C16.8846 16.9034 17.2674 16.6663 17.2674 16.6663C17.3074 16.5811 17.3518 16.4979 17.4005 16.4171C17.4745 16.2925 17.5833 16.1263 17.665 15.9799C17.8425 15.6585 17.8518 15.5104 18.0127 15.328C17.9849 15.2922 17.8888 15.2972 17.8888 15.2972L16.5406 15.7307L14.1499 15.7984L13.5282 14.9315L13.2638 14.9622L13.2639 14.9621Z" fill="#DFC677"/>
<path fill-rule="evenodd" clip-rule="evenodd" d="M16.8052 16.2841C16.7907 16.2998 16.7739 16.3132 16.7553 16.3239C16.709 16.3546 16.6406 16.3908 16.5944 16.4449C16.5759 16.4178 16.5297 16.369 16.4481 16.4449C16.3666 16.5207 16.2653 16.4666 16.2022 16.4846C16.1375 16.5064 16.1338 16.5153 16.1338 16.5153C16.1338 16.5153 16.0973 16.4846 16.0155 16.4521C15.9655 16.434 15.9064 16.4214 15.8416 16.4034C15.7825 16.3908 15.7178 16.3727 15.6733 16.3727C15.6326 16.3997 15.4865 16.5513 14.9003 16.3276C14.3473 16.118 14.2198 16.0946 14.1273 16.127C14.118 16.1053 14.1088 16.0637 13.9664 16.0692C13.9664 16.0115 14.0847 15.8145 14.0847 15.8145L14.7375 15.5961H15.0946L16.1653 15.7875L16.7586 16.1182L16.8048 16.2848L16.8052 16.2841Z" fill="#C4A859"/>
<path fill-rule="evenodd" clip-rule="evenodd" d="M17.1621 15.9175C17.1621 15.9175 17.1492 16.0151 17.0012 16.118C16.8549 16.2209 16.809 16.2823 16.809 16.2823C16.809 16.2823 16.7812 16.2466 16.759 16.2102C16.7368 16.1704 16.7183 16.1253 16.6813 16.1127C16.6073 16.082 16.4391 16.1397 16.402 16.1307C16.3706 16.1217 16.3798 16.0585 16.3466 16.0585C16.2689 16.0548 16.2191 16.1072 16.1913 16.1072C16.1635 16.1072 16.0952 16.1036 16.0859 16.0892C16.0767 16.0748 16.073 15.9248 15.9676 15.8525C15.8529 15.7731 15.7123 15.8074 15.675 15.8255C15.675 15.8525 15.6713 15.9194 15.5973 15.923C15.5233 15.9266 15.516 15.914 15.4511 15.9356C15.3861 15.9573 15.3087 15.9321 15.2736 16.0385C15.2421 16.0296 15.1681 16.0205 15.1866 15.9175C15.1501 15.8905 15.1181 15.8724 15.0404 15.7659C15.0218 15.7388 14.9905 15.7081 14.9664 15.6683C14.9016 15.6683 14.824 15.6557 14.7205 15.7442C14.7519 15.7659 14.7705 15.7799 14.7796 15.8019C14.7525 15.8281 14.7278 15.8565 14.7057 15.8868C14.6779 15.9225 14.6594 15.9664 14.6243 15.9754C14.5466 15.9971 14.419 15.9664 14.2766 15.9754C14.1397 15.9845 14.0251 16.0331 13.9752 16.0639C13.9566 16.0549 13.9566 16.0512 13.9104 16.0603C13.8642 16.0693 13.8291 16.0729 13.879 16.0152C13.8513 16.0278 13.8198 16.0549 13.7921 16.0278C13.7643 16.0006 13.7422 15.961 13.6645 15.9519C13.5869 15.9429 13.5591 15.9555 13.5276 15.8761C13.4869 15.7786 13.6275 15.7786 13.6275 15.7786C13.6275 15.7786 13.5627 15.7207 13.4906 15.6449C13.4037 15.5655 13.3038 15.4625 13.2798 15.336C13.2391 15.103 13.4721 15.0724 13.4721 15.0724L14.602 15.412L15.9834 15.3451L17.1614 15.9177V15.9177L17.1621 15.9175Z" fill="#927D49"/>
<path fill-rule="evenodd" clip-rule="evenodd" d="M18.1773 12.7297C18.1773 12.7297 18.2139 12.7749 18.2364 12.8814C18.259 12.988 18.2494 12.9754 18.2679 13.0512C18.2864 13.127 18.514 13.882 18.4287 14.1367C18.3433 14.3913 18.1956 14.4853 18.1032 14.6911C18.0847 14.7363 18.0666 14.7634 18.057 14.8032C18.0255 14.9368 18.0532 15.0398 18.0163 15.1735C18.0034 15.2186 17.97 15.271 17.9201 15.3251C17.8104 15.4371 17.6315 15.5436 17.5544 15.6195C17.4454 15.7315 17.29 15.9591 17.0921 15.9807C16.9867 15.9933 16.8368 15.95 16.713 15.8778C16.6033 15.8109 16.5355 15.7171 16.4204 15.6635C16.3391 15.6237 16.2522 15.6093 16.1745 15.5912C16.0136 15.5605 15.8675 15.5555 15.7805 15.5731C15.6474 15.6003 15.333 15.6942 15.1588 15.6942C15.0227 15.6921 14.8873 15.6739 14.7557 15.6401C14.4913 15.5642 14.1714 15.4341 13.9605 15.3763C13.8367 15.3406 13.7368 15.3312 13.635 15.3095C13.4612 15.2698 13.3151 15.2156 13.2319 15.1126C13.2873 15.0494 13.3557 14.9519 13.7257 14.9555C14.1454 14.9645 14.63 15.192 14.8686 15.2282C15.1071 15.2644 15.2106 15.295 15.477 15.2011C15.7381 15.1062 15.7468 15.0434 15.7468 15.0434C15.7468 15.0434 16.0209 14.8562 16.1357 14.3787C16.2504 13.9013 16.1357 13.5534 15.8378 13.2228C15.7602 13.1379 15.7787 13.062 15.7787 13.062C15.7787 13.062 15.5827 12.8038 15.6363 12.562C15.6955 12.3217 16.0746 12.3705 16.0746 12.3705L18.1772 12.7297V12.7297H18.1773Z" fill="#6E6342"/>
<path fill-rule="evenodd" clip-rule="evenodd" d="M17.8611 13.5335C17.8774 13.5634 17.8851 13.5971 17.8833 13.631C17.8796 13.6797 17.8648 13.7429 17.7151 13.8857C17.5874 14.0102 17.6152 14.1493 17.6152 14.1493C17.6152 14.1493 17.551 14.1619 17.3767 14.0822C17.2398 14.019 17.1938 14.131 17.1938 14.131C17.1539 14.1106 17.1108 14.0972 17.0662 14.0913C17.0258 14.0876 16.9867 14.0755 16.9516 14.0556C16.9516 14.0556 16.7907 14.2163 16.6501 14.2921C16.5225 14.359 16.4485 14.4042 16.3856 14.359C16.3264 14.3193 16.3264 14.238 16.3302 14.2019C16.3449 14.1686 16.3635 14.1371 16.3856 14.1079C16.4263 14.0502 16.491 13.9833 16.4953 13.9294C16.5045 13.8048 16.3991 13.6566 16.4214 13.6205C16.4437 13.5844 16.5267 13.5754 16.732 13.6477C16.9446 13.7162 17.862 13.5338 17.862 13.5338V13.5338L17.8611 13.5335Z" fill="#39331F"/>
<path fill-rule="evenodd" clip-rule="evenodd" d="M17.3766 14.3408C17.3766 14.3408 17.482 14.2433 17.445 13.7701C17.4003 13.7694 17.3557 13.7736 17.3119 13.7827C17.3119 13.7827 17.2545 14.1494 17.3766 14.3408Z" fill="#292311"/>
<path fill-rule="evenodd" clip-rule="evenodd" d="M18.1275 12.3685C18.1128 12.3578 18.0992 12.3459 18.0868 12.3327C18.1234 12.3995 18.2922 12.6668 18.1553 13.0877C18.0184 13.5067 17.6745 13.8191 17.251 13.8336C16.8275 13.8482 16.6049 13.6457 16.3504 13.3424C16.2505 13.2214 16.1358 13.0696 16.0342 12.9667C15.8825 12.8059 15.7641 12.7608 15.7641 12.6055C15.7641 12.2876 16.0971 12.1449 16.5871 12.0022C17.0772 11.8596 17.5192 11.8772 17.7485 11.9749C17.9722 12.0813 18.0684 12.1933 18.1276 12.3686V12.3686L18.1275 12.3685Z" fill="#252211"/>
<path fill-rule="evenodd" clip-rule="evenodd" d="M16.5536 14.4835L16.517 14.4654C16.517 14.4654 16.5079 14.3225 16.4486 14.3263C16.3895 14.3354 16.3617 14.4113 16.3673 14.4383C16.371 14.4654 16.3857 14.5106 16.445 14.5051C16.5226 14.5069 16.554 14.4835 16.554 14.4835H16.5536Z" fill="#3F3824"/>
<path fill-rule="evenodd" clip-rule="evenodd" d="M16.7183 13.8766C16.7183 13.8766 16.6817 13.864 16.637 13.9073C16.6004 13.9073 16.4409 13.8892 16.3909 13.92C16.341 13.9507 16.3262 13.9777 16.3262 13.9777C16.3262 13.9777 16.513 14.0175 16.6148 13.9777C16.7183 13.9434 16.7183 13.8766 16.7183 13.8766V13.8766Z" fill="#2D2815"/>
<path fill-rule="evenodd" clip-rule="evenodd" d="M15.8954 13.9036C15.8954 13.8946 15.9952 13.8278 16.1007 13.806C16.1192 13.8024 16.123 13.815 16.1373 13.815C16.1465 13.8115 16.1502 13.7843 16.1502 13.7843L16.2102 13.8152C16.2102 13.8152 16.2194 13.8278 16.188 13.8509C16.1603 13.8726 16.114 13.8907 16.101 13.9267C16.0881 13.9628 16.0881 13.9754 16.0825 13.9809C16.0789 13.9845 16.0141 13.9809 15.9827 13.9628C15.9512 13.9447 15.892 13.9152 15.8958 13.9033V13.9033L15.8954 13.9036Z" fill="#82764F"/>
<path fill-rule="evenodd" clip-rule="evenodd" d="M16.8291 14.2704C16.8291 14.2704 16.8107 14.1458 16.6867 14.1403C16.5592 14.1313 16.5351 14.2523 16.5351 14.2523L16.6091 14.3245C16.6091 14.3227 16.6645 14.2469 16.8285 14.2704H16.8291Z" fill="#2D2816"/>
<path fill-rule="evenodd" clip-rule="evenodd" d="M16.0248 13.7339C16.0248 13.7339 16.0933 13.8062 16.2448 13.8278C16.2577 13.8097 16.2855 13.7737 16.2448 13.7159C16.2041 13.6582 16.1579 13.6401 16.1117 13.6581C16.07 13.6647 16.0361 13.6942 16.0248 13.7339Z" fill="#574F35"/>
<path fill-rule="evenodd" clip-rule="evenodd" d="M15.7453 13.8228C15.7415 13.8046 15.7545 13.801 15.7453 13.7919C15.7361 13.7828 15.6856 13.7647 15.6763 13.7737C15.6726 13.7774 15.6763 13.7919 15.6763 13.8096C15.6763 13.8274 15.6763 13.8456 15.6856 13.8587C15.6986 13.8769 15.7358 13.886 15.7545 13.8806C15.7732 13.8752 15.7769 13.8497 15.7769 13.8447C15.7676 13.8411 15.7453 13.8319 15.7453 13.8228ZM15.4298 13.6276C15.4298 13.6185 15.3981 13.6003 15.3794 13.6003C15.3516 13.6003 15.3516 13.6221 15.3478 13.6276C15.3385 13.6312 15.3385 13.6239 15.3292 13.6403C15.3199 13.6568 15.3067 13.6858 15.3162 13.704C15.3256 13.7223 15.3627 13.7349 15.3719 13.7313C15.385 13.7221 15.426 13.6403 15.4298 13.6276V13.6276Z" fill="#82764F"/>
<path fill-rule="evenodd" clip-rule="evenodd" d="M16.0654 13.864C16.0654 13.864 16.0244 13.873 15.9685 13.9186C15.9872 13.9313 16.0152 13.9458 16.0152 13.9458C16.0152 13.9458 16.0189 13.904 16.0654 13.8639V13.864Z" fill="#6E6342"/>
<path fill-rule="evenodd" clip-rule="evenodd" d="M16.156 13.4666C16.1653 13.4577 16.1283 13.436 16.1061 13.4396C16.084 13.4431 16.0747 13.4577 16.0507 13.4612C16.0267 13.4648 16.0229 13.4522 16.0141 13.4431C16.0053 13.4341 15.9734 13.4396 15.9679 13.4431C15.9645 13.4471 15.9614 13.4513 15.9586 13.4558C15.9579 13.4419 15.9512 13.4289 15.9402 13.42C15.9259 13.4097 15.9075 13.4064 15.8903 13.411C15.8866 13.4236 15.8681 13.4687 15.8717 13.4778C15.8754 13.4868 15.9309 13.4996 15.9402 13.4904C15.931 13.5122 15.8903 13.5573 15.8848 13.5662C15.8793 13.5752 15.9255 13.597 15.9439 13.5934C15.9697 13.5916 16.1288 13.5012 16.1565 13.4669L16.156 13.4666ZM15.9138 13.1668C15.9172 13.1577 15.9238 13.15 15.9323 13.1451C15.9452 13.1416 15.9878 13.1451 15.9878 13.1668C15.9878 13.1885 15.9512 13.3097 15.9101 13.3728C15.8638 13.436 15.8325 13.4883 15.801 13.5028C15.7805 13.5119 15.7563 13.504 15.7456 13.4847C15.7419 13.4756 15.7326 13.4088 15.7363 13.2517C15.7399 13.0945 15.7456 12.9428 15.7548 12.9338C15.7641 12.9247 15.801 12.9249 15.8139 12.9428C15.8269 12.9608 15.9101 13.1398 15.9139 13.1668V13.1668H15.9138Z" fill="#585136"/>
<path fill-rule="evenodd" clip-rule="evenodd" d="M16.0783 14.0915C16.0783 14.0915 16.1431 14.0517 16.206 14.0789C16.2651 14.106 16.2614 14.2126 16.2614 14.2126C16.2344 14.2229 16.2039 14.2195 16.18 14.2035C16.1393 14.1765 16.0876 14.1314 16.0783 14.0916V14.0915Z" fill="#574F35"/>
<path fill-rule="evenodd" clip-rule="evenodd" d="M15.9563 14.2343C15.96 14.1985 15.9929 14.1985 15.9929 14.1801C15.9883 14.1619 15.9715 14.1493 15.9523 14.1494C15.9338 14.1494 15.9158 14.171 15.8931 14.1851C15.8709 14.1977 15.8376 14.2208 15.834 14.2483C15.8303 14.2758 15.8705 14.3512 15.9153 14.3512C15.96 14.3512 15.9467 14.2699 15.956 14.2338L15.9563 14.2343ZM15.5994 14.1854C15.5994 14.1854 15.6734 14.2071 15.6679 14.1854C15.6624 14.1638 15.6456 14.1584 15.6216 14.1584C15.6094 14.1459 15.593 14.1382 15.5754 14.1366C15.5653 14.1361 15.5555 14.1394 15.5477 14.1457C15.5477 14.1457 15.4977 14.124 15.483 14.1366C15.4682 14.1493 15.4792 14.1493 15.4701 14.1638C15.4584 14.1799 15.4508 14.1984 15.4478 14.218C15.4478 14.2324 15.5032 14.2631 15.5477 14.2577C15.5994 14.2469 15.5903 14.1945 15.5994 14.1854V14.1854ZM15.1686 14.1041C15.1686 14.1041 15.1464 14.1167 15.1648 14.1313C15.1777 14.1439 15.2425 14.167 15.2981 14.171C15.3535 14.171 15.4034 14.18 15.4034 14.162C15.4034 14.144 15.3572 14.1078 15.3295 14.0988C15.3183 14.085 15.3012 14.077 15.2832 14.0771C15.261 14.0771 15.1742 14.0681 15.1501 14.0645C15.1279 14.0608 15.1094 14.0734 15.1224 14.0915C15.1279 14.1041 15.1686 14.1041 15.1686 14.1041V14.1041ZM15.041 13.5465C15.041 13.5465 15.0688 13.6042 15.1001 13.6042C15.1315 13.6006 15.1315 13.5916 15.1315 13.5825C15.1315 13.5699 15.1001 13.5374 15.1039 13.5284C15.113 13.5284 15.1353 13.5284 15.1315 13.5067C15.1315 13.4886 15.1001 13.4669 15.0724 13.471C15.0515 13.4542 15.0255 13.4447 14.9984 13.4439C14.967 13.4439 14.9393 13.4529 14.9393 13.471C14.9393 13.4891 14.9759 13.5287 14.9893 13.5379C15.004 13.5523 15.0226 13.5617 15.041 13.5468V13.5465ZM15.4626 14.6138C15.4626 14.6138 15.4992 14.6175 15.4992 14.6355C15.4992 14.6445 15.4901 14.6445 15.477 14.6392C15.4695 14.6388 15.4621 14.6375 15.4548 14.6355C15.4512 14.6392 15.4512 14.6572 15.4234 14.6572C15.4006 14.6542 15.3786 14.6468 15.3586 14.6355C15.3365 14.6266 15.3179 14.6174 15.3179 14.5998C15.3272 14.5691 15.3457 14.5545 15.3734 14.5545C15.3876 14.5537 15.4017 14.5568 15.4141 14.5636C15.4141 14.5636 15.4234 14.5455 15.4548 14.5636C15.4863 14.5817 15.4826 14.5817 15.4734 14.5907C15.4568 14.6051 15.4623 14.6145 15.4623 14.6145L15.4626 14.6138ZM15.6715 14.8019C15.6715 14.7928 15.625 14.7745 15.612 14.78C15.599 14.7836 15.5617 14.8527 15.5617 14.86C15.5617 14.8692 15.6083 14.891 15.627 14.891C15.6456 14.891 15.6772 14.86 15.6772 14.855C15.6772 14.8514 15.6548 14.846 15.6548 14.8423C15.6493 14.8333 15.6715 14.8113 15.6715 14.8022V14.8019ZM15.8179 14.538C15.8086 14.5344 15.8086 14.5254 15.7957 14.5163C15.7875 14.511 15.7772 14.5097 15.7679 14.5127C15.7613 14.5012 15.7497 14.4932 15.7364 14.491C15.7142 14.4874 15.6957 14.491 15.6999 14.5C15.6999 14.5272 15.6813 14.5451 15.6813 14.5668C15.6813 14.5885 15.6943 14.6156 15.7405 14.6337C15.7867 14.6463 15.8496 14.6463 15.8588 14.6428C15.8681 14.6392 15.8774 14.603 15.8681 14.5849C15.8588 14.5668 15.833 14.547 15.8181 14.538V14.538H15.8179Z" fill="#82764F"/>
<path fill-rule="evenodd" clip-rule="evenodd" d="M15.7588 14.5503C15.7588 14.5503 15.7904 14.5685 15.7904 14.5776C15.7933 14.5864 15.7945 14.5956 15.7941 14.6048C15.7941 14.6102 15.7531 14.6012 15.7476 14.5957C15.7457 14.5921 15.7588 14.5597 15.7588 14.5503Z" fill="#6E6342"/>
<path fill-rule="evenodd" clip-rule="evenodd" d="M16.0339 14.4654C16.0154 14.4691 15.984 14.4654 15.96 14.4745C15.9414 14.4835 15.9285 14.5016 15.9471 14.5233C15.9656 14.5449 15.9836 14.5774 16.0247 14.572C16.0709 14.5684 16.1153 14.5449 16.1153 14.5268C16.1169 14.5037 16.1089 14.4809 16.0931 14.4636C16.0746 14.4492 16.0654 14.4583 16.034 14.4654V14.4654H16.0339Z" fill="#585136"/>
<path fill-rule="evenodd" clip-rule="evenodd" d="M16.0561 14.4835C16.0561 14.4835 16.1152 14.5286 16.1301 14.5504C16.1486 14.5721 16.2392 14.684 16.2668 14.7074C16.2577 14.6916 16.2472 14.6765 16.2355 14.6623C16.2721 14.6852 16.2995 14.7196 16.3132 14.7598C16.3354 14.8267 16.1892 14.8628 16.0931 14.89C15.9971 14.9171 15.9599 14.9257 15.9599 14.9257C15.9953 14.8738 16.0256 14.8188 16.0506 14.7614C16.0872 14.6765 16.1061 14.6674 16.082 14.6277C16.0635 14.5879 16.0357 14.5609 16.0357 14.5302C16.0468 14.5016 16.0561 14.4835 16.0561 14.4835Z" fill="#574F35"/>
<path fill-rule="evenodd" clip-rule="evenodd" d="M18.1643 14.6262C18.1508 14.6287 18.1371 14.6287 18.1236 14.6262C18.0959 14.6226 17.8074 14.5191 17.5059 14.5377C17.2802 14.551 17.0565 14.5869 16.8383 14.6448C16.4592 14.7423 15.9877 14.9356 15.6826 15.0458C15.6013 15.0764 15.5217 15.1307 15.4631 15.1523C15.2301 15.2408 15.2209 15.2408 15.084 15.2643C14.9231 15.286 14.7585 15.2336 14.5865 15.1975C14.3758 15.1523 14.0152 15.1306 13.6989 15.0855C13.5967 15.0716 13.4958 15.0493 13.3975 15.0187C13.3975 15.0187 13.649 15.2643 14.2519 15.3527C14.4956 15.3889 14.7433 15.3919 14.9878 15.3618C15.1802 15.3437 15.3077 15.3166 15.4039 15.2895C15.513 15.2588 15.7368 15.1775 16.0123 15.1109C16.2047 15.0621 16.4192 15.026 16.6651 14.9809C17.2717 14.8725 17.93 14.7479 18.1646 14.627L18.1643 14.6262Z" fill="#252211"/>
<path fill-rule="evenodd" clip-rule="evenodd" d="M18.845 13.51C18.9913 13.631 19.1465 13.7466 19.298 13.8585L19.7548 14.2013C19.9101 14.3132 20.0618 14.4288 20.2172 14.5408C20.3726 14.6529 20.5278 14.7593 20.6926 14.8623C20.5463 14.7413 20.3912 14.6293 20.2358 14.5192C20.0805 14.409 19.9195 14.301 19.7697 14.1894L19.3129 13.8461C19.1558 13.7342 19.0041 13.6186 18.845 13.5102V13.51ZM19.6531 14.7743C19.6531 14.7743 19.4886 14.6406 19.2833 14.4529C19.0281 14.22 18.7156 13.9218 18.6157 13.8678L19.6533 14.7744L19.6531 14.7743Z" fill="#CFB66C"/>
<path fill-rule="evenodd" clip-rule="evenodd" d="M19.6531 14.7742C19.5716 14.6948 19.4847 14.6172 19.3978 14.5412L19.2647 14.4293C19.224 14.3936 19.1776 14.3535 19.1371 14.3137C19.0557 14.2343 18.9761 14.1493 18.8948 14.0681C18.8545 14.0272 18.8119 13.9887 18.7672 13.9525C18.7448 13.9331 18.72 13.9167 18.6933 13.9037C18.671 13.891 18.647 13.8679 18.6157 13.8639C18.6341 13.891 18.6563 13.9037 18.6748 13.9271C18.697 13.9452 18.7155 13.9669 18.7339 13.9849C18.7746 14.0246 18.8208 14.0607 18.8615 14.0969C18.9485 14.1692 19.039 14.2398 19.126 14.3154C19.2129 14.391 19.2942 14.4725 19.3812 14.5484C19.4755 14.6261 19.5624 14.702 19.6531 14.7746V14.7742ZM18.5472 14.0518C18.5472 14.0518 19.15 14.628 19.274 14.7218L18.5472 14.0518Z" fill="#CFB66C"/>
<path fill-rule="evenodd" clip-rule="evenodd" d="M18.5471 14.0518C18.6014 14.1131 18.6595 14.171 18.7212 14.2251L18.9041 14.3949C18.9632 14.4526 19.0188 14.5105 19.0816 14.5682C19.1463 14.6224 19.2054 14.6754 19.2739 14.7254L19.0964 14.5556C19.0372 14.4979 18.9725 14.4492 18.9096 14.3913L18.7321 14.2215C18.6711 14.162 18.6119 14.1041 18.5471 14.0518V14.0518ZM18.5195 14.3642C18.575 14.5156 18.6405 14.6635 18.7155 14.8067C18.8708 15.1102 19.1037 15.4894 19.2055 15.6828L18.5195 14.3642Z" fill="#CFB66C"/>
<path fill-rule="evenodd" clip-rule="evenodd" d="M18.5196 14.3643C18.5196 14.4311 18.5381 14.4889 18.5603 14.5467C18.5819 14.6045 18.6066 14.6612 18.6342 14.7165C18.662 14.7706 18.6934 14.8285 18.7249 14.8809C18.7563 14.9333 18.7933 14.9873 18.8211 15.0416L19.0078 15.3631C19.0726 15.4702 19.1355 15.578 19.2039 15.681C19.1577 15.5654 19.0948 15.457 19.0355 15.3505C18.9708 15.2433 18.9117 15.1362 18.8526 15.0253C18.8238 14.9701 18.7979 14.9135 18.775 14.8557C18.7473 14.7978 18.7197 14.7436 18.6973 14.6912C18.6697 14.6335 18.6475 14.5792 18.6197 14.5269C18.5884 14.4708 18.5624 14.4167 18.5198 14.3643L18.5196 14.3643Z" fill="#CFB66C"/>
<path fill-rule="evenodd" clip-rule="evenodd" d="M17.8612 15.8453C17.8612 15.8453 18.0441 16.0819 18.0258 16.3817C17.976 16.2246 17.9131 15.9844 17.8612 15.8453ZM17.6874 16.0825C17.6874 16.0825 17.7521 16.7254 17.8058 17.0415C17.73 16.6761 17.7152 16.7068 17.6874 16.0825ZM16.4762 17.0795C16.4762 17.0795 16.7498 17.8653 16.7554 18.0836C16.6962 17.8591 16.5816 17.4004 16.4762 17.0789V17.0795Z" fill="#DEC270"/>
<path fill-rule="evenodd" clip-rule="evenodd" d="M15.8359 15.7967C15.8359 15.7967 15.3921 16.5119 15.0592 17.1223C15.1492 16.8151 15.3565 16.2517 15.8359 15.7967Z" fill="#CBAF59"/>
<path fill-rule="evenodd" clip-rule="evenodd" d="M14.6433 16.8495C14.3996 17.2703 14.1799 17.7038 13.985 18.1481C14.022 17.8411 14.1219 17.3156 14.6433 16.8495Z" fill="#E3C677"/>
<path fill-rule="evenodd" clip-rule="evenodd" d="M11.137 17.9041C11.0631 17.8589 10.917 17.6132 10.7893 17.5519C10.6618 17.4887 10.5656 17.476 10.4509 17.3514C10.3363 17.2212 10.3046 17.1418 10.0534 17.039C9.70195 16.8907 9.94369 16.6993 9.94369 16.6993C9.90498 16.6621 9.86358 16.6278 9.81983 16.5964C9.72914 16.5296 9.62381 16.4483 9.63295 16.3055C9.64588 16.0654 9.69208 15.7168 9.89371 15.5145C9.69769 15.4747 9.32234 15.4477 9.08914 15.39C8.81924 15.3231 8.69526 15.2291 8.69526 15.2291C8.69526 15.2291 8.85057 14.9709 8.59908 14.7108C8.34759 14.4508 8.1423 14.2954 7.99065 14.0046C8.16449 13.9829 8.42951 13.8927 9.10584 14.1436C9.06933 14.1604 9.03409 14.1797 9.00039 14.2014C9.00039 14.2014 9.41645 14.3134 9.5681 14.4381C9.83263 14.6566 9.86591 14.8354 10.1525 14.9691C10.4391 15.1028 10.7277 15.0666 10.9661 15.1749C11.2045 15.2833 11.2398 15.3754 11.3268 15.4152C11.3083 15.4369 11.3305 15.473 11.2954 15.5037C11.3176 15.5344 11.447 15.7402 11.5783 15.7402C11.5654 15.7891 11.4545 15.8251 11.4545 15.8251C11.4545 15.8251 11.5358 15.883 11.7429 15.8974C11.6376 16.0046 11.5376 16.1214 11.2621 16.2911C11.2843 16.3363 11.3768 16.4032 11.3397 16.4881C11.299 16.573 11.1935 16.6886 10.772 16.7825C10.9866 16.7914 11.238 16.8402 11.5766 16.7951C11.915 16.7554 11.9705 16.7319 12.1794 16.7825C12.1572 16.8042 12.0981 16.8042 12.0463 16.8619C12.1018 16.8655 12.4494 16.8221 12.5678 16.974C12.6917 17.131 12.7453 17.3894 12.736 17.5627C12.8008 17.5934 12.8637 17.6476 12.8322 17.7596C12.8008 17.8717 12.6362 17.9077 12.5308 17.9781C12.4254 18.0539 12.4162 18.081 12.3162 18.063C12.2109 18.0413 12.0556 17.9385 11.9649 17.9385C11.8742 17.9385 11.8096 18.0053 11.8096 18.0053C11.8096 18.0053 11.5636 17.8896 11.5395 17.9113C11.5174 17.933 11.5359 18.072 11.5119 18.0937C11.4875 18.11 11.2104 17.9493 11.1364 17.9041H11.137Z" fill="#ECD592"/>
</g>
</g>
<defs>
<clipPath id="clip0_2827_41267">
<rect width="24" height="24" fill="white"/>
</clipPath>
</defs>
</svg>
