<svg width="24" height="24" viewBox="0 0 24 24" fill="none" xmlns="http://www.w3.org/2000/svg">
<g clip-path="url(#clip0_2827_41354)">
<path d="M12 24C18.6274 24 24 18.6274 24 12C24 5.37258 18.6274 0 12 0C5.37258 0 0 5.37258 0 12C0 18.6274 5.37258 24 12 24Z" fill="#28292F"/>
<path d="M5.83594 19.0453V4.95468C5.86406 4.95468 5.89219 4.95468 5.92031 4.95468C7.03594 4.95468 8.15625 4.95468 9.27188 4.95468C9.3 4.95468 9.32344 4.95468 9.36094 4.95468V15.5203H11.1281V12.0047C11.1516 12.0047 11.1609 12 11.175 12C11.7281 12 12.2859 12 12.8391 12C12.8578 12 12.8766 12.0047 12.8953 12.0047C12.8906 12.0281 12.8859 12.0562 12.8859 12.0797C12.8859 13.2 12.8859 14.3203 12.8859 15.4406V15.525H16.3922V19.0406H16.2984C12.8438 19.0406 9.38906 19.0406 5.93437 19.0406C5.90156 19.0453 5.86875 19.0453 5.83594 19.0453Z" fill="white"/>
<path d="M16.4063 8.4703C16.4063 9.6328 16.4063 10.7953 16.4063 11.9578C16.4063 11.9672 16.4063 11.9812 16.4016 11.9953C16.3735 11.9953 16.3454 12 16.3125 12C15.1969 12 14.0813 12 12.9704 12C12.9422 12 12.9141 12.0047 12.8907 12.0094C12.8907 11.9766 12.886 11.9437 12.886 11.9156C12.886 10.214 12.886 8.51249 12.886 6.81093V6.71718H11.1985V4.96405H14.6438V8.47499C14.6672 8.47499 14.686 8.47967 14.7 8.47967C15.2532 8.47967 15.811 8.47967 16.3641 8.47967C16.3782 8.47499 16.3922 8.47499 16.4063 8.4703Z" fill="white"/>
<path d="M16.4062 8.47501C16.4062 8.12813 16.4062 7.77657 16.4062 7.42969C16.4062 6.63282 16.4062 5.83594 16.4062 5.03907V4.95938H18.1594V8.47032C18.1406 8.47032 18.1266 8.47501 18.1078 8.47501C17.5547 8.47501 17.0016 8.47501 16.4437 8.47501C16.4344 8.47501 16.4203 8.47032 16.4062 8.47501Z" fill="white"/>
</g>
<defs>
<clipPath id="clip0_2827_41354">
<rect width="24" height="24" fill="white"/>
</clipPath>
</defs>
</svg>
