<svg width="24" height="24" viewBox="0 0 24 24" fill="none" xmlns="http://www.w3.org/2000/svg">
<path d="M23.6433 14.8962C22.042 21.3208 15.5349 25.244 9.0985 23.6417C2.67383 22.0356 -1.24298 15.5284 0.358284 9.1038C1.95955 2.67916 8.46271 -1.24396 14.8835 0.358273C21.3238 1.94087 25.2406 8.46762 23.6433 14.8962Z" fill="#28292F"/>
<path d="M11.1182 4.86732C11.4542 4.69018 11.9654 4.69018 12.3014 4.86732L15.7301 6.67491C15.9324 6.78159 16.0436 6.94056 16.0635 7.10468H16.0667V16.1905C16.0623 16.3695 15.9501 16.5473 15.7301 16.6633L12.3014 18.4709C11.9654 18.648 11.4542 18.648 11.1182 18.4709L7.68957 16.6633C7.47046 16.5478 7.3653 16.3687 7.36009 16.1905C7.35956 16.1722 7.35951 16.1571 7.36008 16.1447L7.36009 7.16585C7.35958 7.15322 7.35957 7.14064 7.36008 7.12812L7.36009 7.10468H7.36162C7.37685 6.93875 7.48294 6.78383 7.68957 6.67491L11.1182 4.86732ZM15.5213 12.1561L12.3004 13.8597C11.9649 14.0372 11.4544 14.0372 11.1188 13.8597L7.90508 12.1599V16.1624L11.1188 17.8532C11.3088 17.9548 11.5062 18.0539 11.6985 18.0582L11.7096 18.0583C11.9015 18.0589 12.0879 17.9614 12.2768 17.869L15.5213 16.1478V12.1561ZM6.82252 15.9935C6.82252 16.3418 6.86264 16.5707 6.9423 16.732C7.00832 16.8657 7.10739 16.9679 7.28828 17.0922L7.29861 17.0992C7.33831 17.1262 7.38204 17.1545 7.43527 17.1878L7.49805 17.2265L7.69081 17.3439L7.41433 17.8051L7.19858 17.6736L7.16231 17.6512C7.09993 17.6123 7.04823 17.5789 7 17.5461C6.48445 17.1954 6.29218 16.8131 6.28839 16.0177L6.28833 15.9935H6.82252ZM11.4502 9.74065C11.4253 9.74923 11.4019 9.75918 11.3806 9.77046L7.95722 11.5839C7.95362 11.5858 7.9502 11.5876 7.94694 11.5895L7.94404 11.5912L7.94941 11.5943L7.95722 11.5985L11.3806 13.4119C11.4019 13.4232 11.4253 13.4331 11.4502 13.4417V9.74065ZM11.9957 9.74065V13.4417C12.0206 13.4331 12.044 13.4232 12.0653 13.4119L15.4887 11.5985C15.4923 11.5966 15.4957 11.5947 15.4989 11.5929L15.5019 11.5912L15.4965 11.5881L15.4887 11.5839L12.0653 9.77046C12.044 9.75918 12.0206 9.74923 11.9957 9.74065ZM15.5213 7.75376L12.4437 9.37055L15.5213 10.9873V7.75376ZM7.90508 7.75376V10.9873L10.9827 9.37055L7.90508 7.75376ZM12.0623 5.35054C11.8841 5.25634 11.5618 5.25634 11.3836 5.35054L7.95723 7.16205C7.95363 7.16396 7.9502 7.16583 7.94694 7.16771L7.94404 7.16938L7.94942 7.17246L7.95723 7.17671L11.3836 8.98821C11.5618 9.08243 11.8841 9.08243 12.0623 8.98821L15.4887 7.17671C15.4922 7.1748 15.4957 7.17293 15.4989 7.17107L15.5019 7.16938L15.4965 7.1663L15.4887 7.16205L12.0623 5.35054ZM16.0316 5.53312L16.2473 5.66459L16.2836 5.68705C16.346 5.7259 16.3977 5.75928 16.4459 5.79209C16.9614 6.14277 17.1537 6.52511 17.1575 7.32047L17.1576 7.3447H16.6234C16.6234 6.99638 16.5833 6.76746 16.5036 6.60617C16.4376 6.47251 16.3385 6.37035 16.1576 6.24605L16.1473 6.23899C16.1076 6.21198 16.0639 6.18369 16.0106 6.15045L15.9479 6.11166L15.7551 5.99429L16.0316 5.53312Z" fill="white"/>
</svg>
