<svg width="24" height="24" viewBox="0 0 24 24" fill="none" xmlns="http://www.w3.org/2000/svg">
<path d="M23.6433 14.8962C22.042 21.3208 15.5349 25.244 9.0985 23.6417C2.67383 22.0356 -1.24298 15.5285 0.358284 9.1038C1.95955 2.67916 8.46271 -1.24396 14.8835 0.358273C21.3238 1.94087 25.2406 8.46762 23.6433 14.8962Z" fill="#28292F"/>
<path d="M17.8077 4C17.0415 4 16.4204 4.57587 16.4204 5.28626C16.4204 5.40662 16.4382 5.52312 16.4716 5.63361C17.2561 5.33333 18.1511 5.15742 19.1865 5.14227C19.1094 4.49966 18.5215 4 17.8077 4Z" fill="white"/>
<path d="M16.1346 5.77317V5.3075C14.6015 5.3075 13.3586 6.45978 13.3586 7.8812V7.96819C13.5868 7.69053 13.8276 7.426 14.0838 7.17816C14.6741 6.60716 15.3462 6.12489 16.1346 5.77317Z" fill="white"/>
<path d="M13.3586 8.36342C13.6405 7.99914 13.941 7.6559 14.2667 7.34083C14.8092 6.81611 15.4216 6.36944 16.1346 6.03522V14.1013C16.1346 15.5227 14.8918 16.675 13.3586 16.675V8.36342Z" fill="white"/>
<path d="M12.577 9.03247C12.0832 8.32008 11.2209 7.84814 10.2397 7.84814V13.1719C10.4949 12.7195 10.7431 12.2548 10.9929 11.7871L10.9934 11.7862C11.0249 11.7271 11.0565 11.668 11.0881 11.6089C11.5564 10.7328 12.034 9.85084 12.577 9.03247Z" fill="white"/>
<path d="M10.2397 13.6723C10.5764 13.0969 10.8951 12.5 11.2135 11.9037C11.2474 11.8402 11.2813 11.7768 11.3152 11.7133C11.7639 10.874 12.2159 10.0399 12.7205 9.26556C12.9094 9.6132 13.0158 10.006 13.0158 10.4218V19C11.4826 19 10.2397 17.8477 10.2397 16.4263V13.6723Z" fill="white"/>
<path d="M9.89691 13.7628V10.1144C8.36374 10.1144 7.12085 11.2667 7.12085 12.6881V16.9459C7.53683 16.67 7.91381 16.3459 8.26178 15.9844C8.88112 15.341 9.40772 14.5804 9.89691 13.7628Z" fill="white"/>
<path d="M7.12085 17.2318C7.61177 16.9259 8.05066 16.5568 8.45087 16.141C8.99178 15.5791 9.46263 14.931 9.89691 14.2389V15.5959C9.89691 17.0174 8.65403 18.1696 7.12085 18.1696V17.2318Z" fill="white"/>
<path d="M6.63627 17.235C6.72697 16.9807 6.77605 16.7088 6.77605 16.4263V14.4871C5.24288 14.4871 4 15.6394 4 17.0609V17.9353C5.0284 17.8822 5.89173 17.6317 6.63627 17.235Z" fill="white"/>
<path d="M4 18.1707C4.951 18.1233 5.76813 17.913 6.483 17.5786C6.02703 18.4215 5.0864 19 4 19V18.1707Z" fill="white"/>
</svg>
