<svg width="24" height="24" viewBox="0 0 24 24" fill="none" xmlns="http://www.w3.org/2000/svg">
<g clip-path="url(#clip0_2827_41269)">
<path d="M12 24C18.6274 24 24 18.6274 24 12C24 5.37258 18.6274 0 12 0C5.37258 0 0 5.37258 0 12C0 18.6274 5.37258 24 12 24Z" fill="#28292F"/>
<g style="mix-blend-mode:luminosity">
<path d="M6.15947 8.48439C6.15947 8.48439 5.54072 9.2672 5.74697 12.8063C5.74697 12.8063 4.39228 16.275 4.85166 18.0469C5.31103 19.8141 7.10166 19.725 7.10166 19.725C7.10166 19.725 9.9751 22.2516 12.1782 20.025C14.386 17.7938 10.3407 9.1547 10.3407 9.1547L9.83447 6.16876C9.83447 6.16876 9.28135 6.6047 9.35166 9.47814C9.42197 12.3516 8.22666 10.3266 8.22666 10.3266L6.15947 8.48439Z" fill="#3C2D0C"/>
</g>
<g style="mix-blend-mode:luminosity">
<path d="M6.3891 11.6109L5.62973 13.7484L5.35316 15.2437C5.35316 15.2437 4.41098 18.5766 8.29691 18.5297C8.29691 18.5297 11.3297 21.2437 13.3079 19.425L13.8375 18.8484L14.7563 17.4234L16.275 12.8953C16.275 12.8953 15.7922 9.79218 12.736 8.5078C12.736 8.5078 12.4829 8.37187 12.0235 8.55468C12.0235 8.55468 10.7579 5.70468 9.95629 6.05155C9.95629 6.05155 9.26723 6.41718 9.86254 9.22499L8.78441 9.7078C8.78441 9.7078 7.60316 7.46718 6.51098 7.91718C5.49379 8.32499 6.3891 11.6109 6.3891 11.6109Z" fill="#E78C19"/>
</g>
<g style="mix-blend-mode:luminosity">
<path d="M10.3172 7.44844L10.4109 8.69063C10.4109 8.69063 10.4812 9.40313 11.2359 9.15001C11.4515 9.07969 11.639 8.92969 11.6203 8.68594C11.6062 8.50313 11.4797 8.33438 11.3953 8.17969C11.2406 7.88438 11.114 7.57032 10.9312 7.28438C10.8375 7.13907 10.6453 6.81563 10.4344 6.85313C10.4344 6.85313 10.275 6.80626 10.3172 7.44844Z" fill="#EFB99D"/>
</g>
<g style="mix-blend-mode:luminosity">
<path d="M6.99842 8.84531C7.01248 8.83593 7.32186 8.44687 7.96405 9.39374C8.60623 10.3406 8.54061 10.2187 8.54061 10.2187C8.54061 10.2187 8.88748 10.5984 8.17967 11.0859C8.02498 11.1984 7.85623 11.2922 7.67811 11.3672C7.56561 11.4094 7.44842 11.4328 7.33123 11.4328C7.1953 11.4281 7.13436 11.3578 7.10155 11.2312C6.99373 10.8187 6.87186 10.4062 6.81092 9.98437C6.76405 9.65624 6.6703 9.05624 6.99842 8.84531Z" fill="#EFB99D"/>
</g>
<g style="mix-blend-mode:luminosity">
<path d="M14.4609 10.7531C14.4609 10.9781 14.1328 11.1609 13.725 11.1609C13.3171 11.1609 12.989 10.9781 12.989 10.7531C12.989 10.5281 13.3265 10.1953 13.7296 10.1953C14.1328 10.1953 14.4609 10.5281 14.4609 10.7531Z" fill="#FBFBFB"/>
</g>
<g style="mix-blend-mode:luminosity">
<path d="M10.2166 12.5138C10.4346 12.1285 10.4104 11.7025 10.1626 11.5622C9.91477 11.422 9.53711 11.6206 9.31909 12.0059C9.10106 12.3912 9.12523 12.8172 9.37306 12.9574C9.6209 13.0977 9.99856 12.8991 10.2166 12.5138Z" fill="#FBFBFB"/>
</g>
<g style="mix-blend-mode:luminosity">
<path d="M11.2594 14.3766L13.2704 13.3313C13.2704 13.3313 15.7735 12.0235 16.3829 13.0313C16.9922 14.0391 16.3829 15.5813 16.3829 15.5813C16.3829 15.5813 16.1204 17.386 14.2782 17.5453L13.2891 17.6813L12.0235 17.7141C12.0235 17.7141 9.98911 17.8313 8.49379 16.725L8.02036 16.1485C8.02036 16.1485 7.06879 14.8406 7.73442 13.8985C8.40004 12.9563 10.6782 14.4141 10.6782 14.4141C10.6782 14.4141 10.9969 14.5875 11.2594 14.3766Z" fill="#FBFBFB"/>
</g>
<g style="mix-blend-mode:luminosity">
<path d="M15.8202 9.16405C16.0869 9.16405 16.303 8.94789 16.303 8.68124C16.303 8.41459 16.0869 8.19843 15.8202 8.19843C15.5536 8.19843 15.3374 8.41459 15.3374 8.68124C15.3374 8.94789 15.5536 9.16405 15.8202 9.16405Z" fill="#E72D36"/>
</g>
<g style="mix-blend-mode:luminosity">
<path d="M14.7516 7.97814C15.0183 7.97814 15.2344 7.76197 15.2344 7.49532C15.2344 7.22867 15.0183 7.01251 14.7516 7.01251C14.485 7.01251 14.2688 7.22867 14.2688 7.49532C14.2688 7.76197 14.485 7.97814 14.7516 7.97814Z" fill="#E72D36"/>
</g>
<g style="mix-blend-mode:luminosity">
<path d="M13.0407 7.59844C13.3073 7.59844 13.5235 7.38228 13.5235 7.11563C13.5235 6.84898 13.3073 6.63281 13.0407 6.63281C12.774 6.63281 12.5579 6.84898 12.5579 7.11563C12.5579 7.38228 12.774 7.59844 13.0407 7.59844Z" fill="#E72D36"/>
</g>
<g style="mix-blend-mode:luminosity">
<path d="M13.4203 3.69376C13.5234 5.11876 13.3172 6.40782 12.9703 6.40782C12.6234 6.40782 12.1641 5.01563 12.1641 3.69376C12.1641 3.15001 12.45 3.06094 12.7969 3.06094C13.1484 3.06094 13.3828 3.15001 13.4203 3.69376Z" fill="#E72D36"/>
</g>
<g style="mix-blend-mode:luminosity">
<path d="M16.6172 4.57968C16.0922 5.90624 15.3469 6.97968 15.0376 6.82968C14.7282 6.67968 14.9157 5.22655 15.4922 4.03593C15.7313 3.54374 16.0266 3.59061 16.336 3.74061C16.6454 3.8953 16.8188 4.07343 16.6172 4.57968Z" fill="#E72D36"/>
</g>
<g style="mix-blend-mode:luminosity">
<path d="M18.9047 7.16718C17.7469 8.00624 16.5469 8.51249 16.3641 8.21718C16.1813 7.92187 17.1235 6.80155 18.2438 6.10312C18.7079 5.81718 18.9329 6.01405 19.1157 6.30468C19.2938 6.59999 19.3454 6.84374 18.9047 7.16718Z" fill="#E72D36"/>
</g>
<g style="mix-blend-mode:luminosity">
<path d="M11.1657 12.975C11.1235 12.9797 11.0813 12.9844 11.0391 12.9891C11.0438 13.0031 11.0485 13.0172 11.0485 13.036C11.0485 13.1813 10.8188 13.3031 10.5328 13.3125C10.5328 13.3266 10.5282 13.336 10.5328 13.35C10.5469 13.5281 10.8563 13.65 11.2172 13.6219C11.5828 13.5938 11.8688 13.425 11.8547 13.2469C11.836 13.0688 11.5313 12.9469 11.1657 12.975Z" fill="black"/>
</g>
<g style="mix-blend-mode:luminosity">
<path d="M13.7062 12.3469C13.664 12.3516 13.6218 12.3562 13.5796 12.3609C13.5843 12.375 13.589 12.3891 13.589 12.4078C13.589 12.5531 13.3593 12.675 13.0734 12.6844C13.0734 12.6984 13.0687 12.7078 13.0734 12.7219C13.0874 12.9 13.3968 13.0219 13.7577 12.9937C14.1234 12.9656 14.4093 12.7969 14.3952 12.6187C14.3812 12.4406 14.0718 12.3187 13.7062 12.3469Z" fill="black"/>
</g>
<g style="mix-blend-mode:luminosity">
<path d="M14.5406 13.0922C14.5406 13.0922 13.5328 13.3875 13.5937 13.9547C13.6547 14.5219 14.8687 14.8172 14.8687 14.8172C14.8687 14.8172 15.1968 14.9484 15.3843 14.6344C15.5718 14.325 15.8484 13.9031 15.7734 13.2984C15.7734 13.2984 15.75 12.8484 14.5406 13.0922Z" fill="black"/>
</g>
</g>
<defs>
<clipPath id="clip0_2827_41269">
<rect width="24" height="24" fill="white"/>
</clipPath>
</defs>
</svg>
