<svg width="24" height="24" viewBox="0 0 24 24" fill="none" xmlns="http://www.w3.org/2000/svg">
<g clip-path="url(#clip0_2818_31632)">
<path d="M12 24C18.6274 24 24 18.6274 24 12C24 5.37258 18.6274 0 12 0C5.37258 0 0 5.37258 0 12C0 18.6274 5.37258 24 12 24Z" fill="#28292F"/>
<path d="M17.3809 15.6877L17.3762 15.683L17.3809 15.6877Z" fill="#3D8130"/>
<path d="M7.47836 8.98124L6.91292 10.0826L6.32781 11.2381L5.91479 12.3198L5.63944 13.4704L5.46735 14.7291L5.3641 15.8157L5.24609 16.5287L5.3641 17.0843L5.56569 17.5612L5.93937 18.2201L6.80475 18.7609L7.44394 19.0117C7.60128 19.0608 7.76845 19.11 7.91104 19.1543L8.66824 19.2919L9.74996 19.3411H10.6448C10.7481 19.3411 11.6528 19.2919 11.6577 19.287L12.8083 19.3067L13.9195 19.169L14.4013 18.9674L14.7308 18.5741L14.7455 18.0529C14.7258 18.0086 14.6619 17.8415 14.6423 17.7775C14.6275 17.7333 14.4062 17.4727 14.2047 17.2465L14.1997 17.2416C14.1112 17.1138 13.9686 16.8925 13.9686 16.8187C13.9686 16.745 14.0571 16.5287 14.0768 16.4893L14.0866 16.4696L14.5488 16.3369L14.8537 16.5582L15.129 16.4057L15.4388 16.096L15.9796 15.6977L16.4713 15.4174L16.8598 15.3437L17.3711 15.6928L17.3367 15.6534L17.5481 15.4666L17.7448 15.1421V14.8028L17.7055 14.7045L17.4547 14.9061L17.0073 15.0339H16.9974L16.3091 15.0192L15.3109 15.1224L14.9963 15.1568L14.7553 15.1224L14.1112 15.0339L13.3835 14.8962L12.2084 14.7045H12.2035L11.0775 14.2374L10.0892 13.667L9.48445 13.2589L9.42544 12.9688L9.50411 12.6984L9.74504 12.5214L10.3056 12.6492L11.5299 13.0278C12.1297 13.1508 13.0443 13.3327 13.1033 13.3376C13.1328 13.3376 13.2508 13.3573 13.5458 13.4064C13.8605 13.4556 14.2932 13.5294 14.3817 13.5294C14.5341 13.5294 15.7092 13.5933 15.7781 13.5982C15.842 13.5982 16.7958 13.5785 16.8991 13.5785C16.9679 13.5785 17.3367 13.4556 17.558 13.3769L17.8923 12.9787L18.2119 12.4231C18.2316 12.2608 18.2119 12.0985 18.1529 11.9461C18.0742 11.7396 17.9267 11.5626 17.7399 11.4446C17.6416 11.6314 17.5137 11.7494 17.3662 11.8035C17.3121 11.8232 17.2482 11.833 17.1892 11.833C17.1007 11.833 17.0122 11.8134 16.9384 11.774L16.9876 11.6855C17.0958 11.7396 17.2187 11.7494 17.3367 11.7101C17.4695 11.6609 17.5825 11.5429 17.6711 11.361C17.5629 11.4003 17.4449 11.4249 17.3269 11.4249C17.2531 11.4249 17.1794 11.42 17.1056 11.4003L17.1154 11.3512L17.1253 11.302C17.1302 11.302 17.5088 11.3954 17.794 11.1742C17.9956 11.0217 18.1087 10.7464 18.1283 10.3678L17.7989 10.7562L17.4006 10.9382C17.2236 10.9824 16.6336 11.1299 16.5795 11.1299C16.5598 11.1299 16.4812 11.1201 16.2894 11.0857C16.0485 11.0463 15.6896 10.9922 15.5961 10.9922C15.429 10.9922 15.1929 10.8103 15.1684 10.7907L15.1389 10.771L15.3257 10.2252L15.842 9.6401L16.3877 9.25167H17.0663L17.7055 9.3205L17.9808 9.63519L18.1136 9.83186V9.30084L17.5825 9.10908C17.5235 9.09925 16.9974 9.02549 16.8696 9.02549C16.7467 9.02549 16.2747 9.09925 16.196 9.10908L15.5125 9.5516L15.4585 9.46801L16.1567 9.01566H16.1665C16.1911 9.01074 16.7221 8.92715 16.8647 8.92715C17.0024 8.92715 17.5727 9.01074 17.5973 9.01566L17.6071 9.02058L18.1824 9.232L18.2365 9.2615L18.2414 9.22217L17.971 8.98616L17.4842 8.75015L16.8942 8.70098L16.2157 8.81898L15.9452 8.93699L15.9059 8.84357L16.1911 8.72065L16.8893 8.59772L17.5088 8.65181L17.5334 8.66656L17.3465 8.37646L16.8204 7.91428L16.8254 7.90936L14.7799 7.96836C14.7799 7.96836 14.5144 8.00278 14.2096 8.04212L14.4997 8.46005L14.6472 8.72065L14.5734 8.98124L14.4751 8.95174L14.539 8.73048L14.4112 8.50922L14.1014 8.06178L14.1211 8.04703C13.7375 8.0962 13.3294 8.14537 13.3049 8.14537C13.2606 8.14537 11.6184 8.26829 11.5495 8.26829C11.4119 8.25846 11.2742 8.24371 11.1414 8.21421C11.1169 8.19946 10.0204 7.80119 9.98105 7.7766C9.94172 7.75202 9.5582 7.38325 9.5582 7.38325L8.81083 7.15216L8.15689 7.95853L7.47836 8.98124ZM15.4585 11.2381C15.5568 11.2823 15.6453 11.3364 15.7387 11.3905L16.2992 11.4544L16.6188 11.3856L16.6385 11.4839L16.3042 11.5528L15.9157 11.5085C16.0829 11.6314 16.2353 11.7691 16.373 11.9265C16.4713 12.0395 16.5598 12.1625 16.6336 12.2903L16.5451 12.3395C16.4566 12.192 16.3533 12.0494 16.2304 11.9265C16.0682 11.7593 15.8862 11.6069 15.6896 11.4839L15.4044 11.3217L15.4585 11.2381ZM9.83846 9.39918L10.2859 8.97141L10.6743 8.65181L11.2299 8.54364L11.815 8.52397H12.4395L12.9558 8.54364L14.0031 8.56331L14.3325 8.7649L14.7357 9.13366L14.9668 9.41884L15.0749 9.99903L14.9766 10.0187L14.8733 9.46309L14.6619 9.19758L14.2735 8.84357L13.9785 8.66164L13.1574 8.64689L13.5163 8.84357C13.708 8.94191 14.0375 9.11891 14.0719 9.19267C14.0965 9.232 14.3571 9.48768 14.598 9.71386L14.6029 9.71877L14.9717 10.1957L15.0258 10.5891L14.9274 10.6038L14.8783 10.24L14.5292 9.78761C14.4062 9.67452 14.0227 9.31067 13.9883 9.24184C13.9588 9.2025 13.7031 9.05499 13.477 8.93699L12.9508 8.64689L12.4444 8.63214H11.8249L11.2447 8.64689L10.7284 8.74523L10.3597 9.04516L9.94172 9.44834L9.89746 9.71386L9.98597 9.79253L10.2072 9.67452L10.5711 9.22217L11.2299 8.97141L12.0855 8.8829L12.8083 8.95174L13.7474 9.43851L14.1358 9.6696L14.5095 10.1662L14.6816 10.7071L14.9324 10.8693V11.0906L14.7013 11.302L14.2882 11.4741L14.1112 11.6216L13.9244 11.9265L13.831 12.0789L13.8211 12.0838C13.6982 12.1477 13.4819 12.2608 13.4229 12.2608C13.3786 12.2706 13.1033 12.3936 12.8574 12.5165L12.8328 12.5214C12.8132 12.5263 12.3805 12.6591 12.2723 12.6787L12.2576 12.5804C12.351 12.5656 12.7591 12.4427 12.7984 12.428C13.0443 12.31 13.3491 12.1674 13.4032 12.1674C13.5212 12.1231 13.6343 12.069 13.7474 12.0051L13.7916 11.9314L14.0178 11.5626L14.0719 11.5184C13.9146 11.5036 13.708 11.479 13.654 11.4495C13.6294 11.4397 13.4819 11.42 12.7099 11.42C12.5182 11.42 12.0658 11.3168 12.0019 11.2971C11.9527 11.2823 11.4905 11.1447 11.4856 11.1447L11.4758 11.1398L11.4659 11.1299C11.461 11.125 11.0333 10.7169 10.7186 10.535L10.7678 10.4465C11.0726 10.6235 11.461 10.9873 11.5299 11.0512C11.6036 11.0709 11.9871 11.1889 12.0363 11.2037C12.0904 11.2233 12.5329 11.3217 12.7099 11.3217C13.6392 11.3217 13.6785 11.3463 13.7031 11.3659C13.7375 11.3856 13.9588 11.4102 14.1456 11.4249L14.1407 11.4593L14.2145 11.3954L14.6275 11.2233L14.8094 11.0562V10.9332L14.6816 10.8497L14.6865 10.8644L14.2587 11.0217L13.6687 11.0906C13.6392 11.0906 13.5114 11.0955 13.3688 11.0955C13.2016 11.0955 13.0197 11.0906 12.9656 11.0709C12.8869 11.0463 12.3903 10.9382 12.1445 10.8841H12.1396L12.1346 10.8792C11.8249 10.712 11.4414 10.5006 11.4119 10.4465C11.3873 10.417 11.1955 10.3186 11.0333 10.24H11.0283L10.4826 9.92036L10.4088 9.93511L10.399 9.8712L10.2269 9.77286L9.96138 9.91545L9.77454 9.75319L9.83846 9.39918ZM10.0646 11.7544L10.0892 11.8527L9.75487 11.9314L9.5877 11.9707L9.57787 11.9314L9.56312 11.8724L10.0646 11.7544ZM10.2761 12.2215L10.2515 12.3198C10.1384 12.2952 10.0204 12.3001 9.9073 12.3198C9.72046 12.3542 9.44511 12.4624 9.1796 12.7672L9.10585 12.7033C9.65162 12.0641 10.2515 12.2116 10.2761 12.2215Z" fill="white"/>
<path d="M10.9497 9.73357C10.9792 9.72865 11.6774 9.64507 11.7659 9.64507C11.8004 9.64507 11.8987 9.6549 12.0265 9.66474C12.1986 9.67949 12.4887 9.70407 12.533 9.69915C12.6018 9.67949 13.2902 9.62048 13.3688 9.61065L13.7769 9.58115L13.6934 9.53198L12.7739 9.05504L12.0806 8.98621L11.2448 9.06979L10.6252 9.3058L10.3105 9.69915L10.5121 9.81716L10.9497 9.73357Z" fill="white"/>
<path d="M13.3739 9.71386C13.0691 9.74336 12.602 9.78762 12.5528 9.79745C12.5086 9.80728 12.3512 9.79745 12.0169 9.76795C11.9038 9.75811 11.7956 9.74828 11.7661 9.74828C11.6973 9.74828 11.1662 9.8122 10.9647 9.83187L10.6401 9.89087L11.0827 10.1515C11.2203 10.2154 11.4563 10.3334 11.4957 10.3924C11.535 10.4317 11.8694 10.6235 12.1791 10.7907C12.2578 10.8054 12.9068 10.948 13.0052 10.9824C13.074 11.007 13.4526 11.0021 13.6739 10.9972L14.254 10.9283L14.6031 10.7956L14.5835 10.7857L14.4065 10.2252L14.0574 9.75811L13.8509 9.63519L13.8558 9.68436L13.3739 9.71386Z" fill="white"/>
<path d="M17.917 9.67456L17.6712 9.39922L17.0713 9.33038H16.4321L15.9159 9.69915L15.4242 10.2548L15.2668 10.712C15.3455 10.771 15.5029 10.8694 15.6061 10.8694C15.7094 10.8694 16.0437 10.9235 16.3141 10.9677C16.442 10.9874 16.5698 11.007 16.5895 11.007C16.6337 11.0021 17.0959 10.889 17.3811 10.8202L17.745 10.653L18.035 10.3187L18.0105 10.1613L17.1156 9.79749L15.97 9.76307L15.9749 9.66473L17.1402 9.69915L18.1039 10.0925L18.1432 10.3433C18.1432 10.3285 18.1432 10.3138 18.1432 10.299V10.0237L17.917 9.67456Z" fill="white"/>
<path d="M16.8453 15.442L16.5109 15.5059L16.0389 15.7764L15.5079 16.1697L15.3604 16.3172L15.6947 16.5532L15.7193 16.7401L15.4931 16.9662L15.4243 16.8974L15.6161 16.7057L15.6062 16.6122L15.2915 16.391L15.1981 16.4844L15.0015 16.5926L14.9474 16.8581L15.2227 17.099L15.621 17.0843C15.6947 17.0302 15.8177 16.9515 15.8767 16.9466C15.9357 16.9122 15.9947 16.8728 16.0487 16.8286C16.1815 16.7253 16.2356 16.6909 16.2749 16.6909C16.3929 16.6319 16.506 16.568 16.6142 16.4942L16.6289 16.4844L17.1108 16.5385L17.278 16.7057L17.2436 16.7401C17.1403 16.8532 17.0223 17.0007 17.0174 17.0351C17.0174 17.0597 17.0125 17.0843 17.0026 17.1039L17.1157 17.04L17.6467 16.6614L17.7057 16.745L17.1649 17.1285L16.9141 17.2662C16.9043 17.2809 16.8945 17.2957 16.8895 17.3006L16.8699 17.2858L16.4864 17.4973L16.2208 17.8808L16.1274 18.107L16.3192 18.3774L16.5306 18.6183L16.7814 18.6478L17.0125 18.5987L17.0075 18.5495L17.2632 18.1463L17.7451 17.6792L17.8139 17.753L17.337 18.2151L17.1059 18.5741L17.1206 18.8445L17.3665 19.0117L17.691 19.0461L17.8729 18.992L17.8385 18.9379L17.8631 18.9084C17.8729 18.8937 18.1384 18.5937 18.1925 18.5446C18.2318 18.5052 18.458 18.2446 18.5711 18.1168L18.6449 18.1807C18.6301 18.1955 18.3154 18.5642 18.2613 18.6134C18.222 18.6527 18.0303 18.8642 17.9614 18.9428L18.1335 19.1985H18.4236L18.6744 19.0854L18.8809 18.7806L19.1562 18.4856L19.23 18.5544L18.9546 18.8445L18.7432 19.1641L18.4433 19.2969H18.0794L17.927 19.0707L17.6959 19.1395L17.3271 19.1051L17.0223 18.8937L17.0125 18.697L16.7814 18.7462L16.4765 18.7068L16.2454 18.4413L15.9012 18.2348L15.5423 17.8365L15.4538 17.217L15.5521 17.2023L15.6259 17.7333L16.0537 17.394L16.5159 16.9515L16.7814 16.5877L16.6535 16.5729C16.5109 16.6663 16.3438 16.7696 16.2848 16.7794C16.2258 16.8138 16.1668 16.8532 16.1127 16.8974C15.975 17.0007 15.9209 17.0351 15.8865 17.0351C15.8127 17.0695 15.739 17.1138 15.6751 17.1629L15.6603 17.1728L15.1932 17.1924L14.8441 16.8827L14.8933 16.6467L14.8589 16.6663L14.5442 16.4401L14.1754 16.5483C14.1361 16.6368 14.1066 16.7253 14.0869 16.8187C14.0918 16.8581 14.2 17.04 14.2983 17.1826C14.4311 17.3301 14.7359 17.6792 14.7556 17.753C14.7704 17.807 14.8343 17.9644 14.8589 18.0234L14.8638 18.0332L14.849 18.7019L15.0408 18.9871C15.1391 19.0461 15.8619 19.4689 15.9455 19.5181C16.0045 19.5525 16.5257 19.7 16.8453 19.7885L17.9221 19.8918L18.7875 19.7738L19.5299 19.4345L19.9331 19.0461L19.8397 18.7019L19.3431 17.7775L18.9841 17.2318L18.3597 16.5532L17.4402 16.0468L17.3026 15.7518L16.8453 15.442Z" fill="white"/>
<path d="M17.6271 13.4507L17.6124 13.4556C17.514 13.4901 17.0125 13.6671 16.9043 13.6671C16.8011 13.6671 15.7931 13.6818 15.7833 13.6867C15.7685 13.6867 14.5393 13.6179 14.3869 13.6179C14.2886 13.6179 13.8903 13.554 13.5363 13.495C13.3396 13.4606 13.138 13.4311 13.1085 13.4311C13.0397 13.4311 11.7662 13.1705 11.5105 13.1213H11.5056L10.2813 12.7427L9.76995 12.6296L9.59294 12.7624L9.53394 12.9738L9.57819 13.2L10.1485 13.5835L11.127 14.1489L12.2382 14.6111L13.4035 14.7979L14.1312 14.9356L15.0015 15.0536L16.3094 14.916H16.3143L16.9978 14.9307L17.4108 14.8127L17.7599 14.5324L18.0451 14.0948L18.109 13.8932L18.0156 13.6671C17.6025 14.0407 17.5583 14.0555 17.5337 14.0604L17.1108 14.1637L15.9357 14.2178H15.9308L14.7016 14.1489L13.4822 13.9277L12.4988 13.9473H12.4939L11.4712 13.6867L10.5665 13.3721L10.0846 13.077L10.1387 12.9935L10.6156 13.2835L11.5056 13.5933L12.5136 13.849L13.4969 13.8293H13.5019L14.7212 14.0506L15.9406 14.1194L17.1059 14.0702L17.514 13.967C17.5386 13.9572 17.6763 13.849 17.9664 13.5835C18.0057 13.5491 18.0303 13.5245 18.0401 13.5146L18.4138 13.0033L18.5417 12.7624C18.522 12.6788 18.5023 12.6001 18.4925 12.5165C18.4433 12.4378 18.3892 12.369 18.3253 12.3002C18.3253 12.3444 18.3253 12.3887 18.3155 12.4329V12.4428L17.9762 13.0279L17.6271 13.4507Z" fill="white"/>
<path d="M19.9183 18.6675L19.4168 17.7333L19.053 17.1777L18.4236 16.4746L17.514 15.978L17.3812 15.6928L17.3566 15.7075C17.3566 15.7075 17.4402 16.0124 17.4992 16.0419C17.5582 16.0714 18.3449 16.4746 18.3843 16.4942C18.4236 16.5139 19.107 17.3301 19.107 17.3301L19.6577 18.2889L19.9872 19.0264C19.9872 19.0264 19.5643 19.4591 19.5397 19.464C19.5151 19.469 18.6989 19.8672 18.6744 19.8672C18.6498 19.8672 17.8582 19.9557 17.8139 19.9459C17.7697 19.9311 16.7961 19.8476 16.7224 19.8426C16.6437 19.8377 15.7439 19.4788 15.7439 19.4788L14.967 19.0117L14.7458 18.6675L14.436 19.0166C14.436 19.0166 13.9984 19.2379 13.9394 19.2379C13.8804 19.2379 12.8085 19.3804 12.7249 19.3804H10.5664C10.5664 19.3804 8.43249 19.3411 8.33907 19.2969C8.30957 19.2821 8.13748 19.228 7.9113 19.1543L7.72938 19.1199L7.4442 19.0117C7.0951 18.9035 6.78042 18.8101 6.78042 18.8101L5.9003 18.2397C5.9003 18.2397 5.53153 17.6005 5.51678 17.5661C5.50203 17.5317 5.27586 16.9958 5.27586 16.9712C5.27586 16.9466 5.19719 16.5188 5.19719 16.5188L5.35453 15.5404L5.42336 14.5127L5.59054 13.3917C5.59054 13.3917 5.8708 12.2657 5.87572 12.2166C5.88063 12.1625 6.33299 11.0513 6.33299 11.0513L6.80992 10.1908L7.43928 8.89274L8.13256 7.91428L8.80618 7.11283L8.85043 7.12758L8.77176 7.06366L8.11781 7.87495L7.39012 8.93207L6.81976 10.0433L6.23465 11.1938L5.81671 12.2854L5.53645 13.4458L5.36436 14.7143L5.26111 15.801L5.13818 16.5336L5.26111 17.1138L5.47253 17.6055L5.86096 18.2938L6.75092 18.8543L7.69004 19.2231L8.64884 19.4001L9.7453 19.4542H10.6402C10.7434 19.4542 11.6039 19.405 11.658 19.4001L12.8134 19.4198H12.8184L13.9443 19.2821H13.9492L14.4655 19.0658L14.731 18.7462L14.9523 19.0756L14.9621 19.0805C14.9719 19.0854 15.7931 19.5624 15.8767 19.6165C15.9652 19.6705 16.7174 19.8771 16.8059 19.8967L17.9073 20L18.7924 19.8771H18.7973L19.5643 19.528L19.5741 19.523L20.0314 19.0805L19.9183 18.6675Z" fill="black"/>
<path d="M8.1324 7.91431L7.43912 8.89276L6.80976 10.1908L6.33282 11.0513C6.33282 11.0513 5.88047 12.1625 5.87555 12.2166C5.87063 12.2707 5.59037 13.3917 5.59037 13.3917L5.4232 14.5128L5.35436 15.5404L5.19702 16.5188C5.19702 16.5188 5.27569 16.9466 5.27569 16.9712C5.27569 16.9958 5.50187 17.5317 5.51662 17.5661C5.53137 17.6006 5.90014 18.2398 5.90014 18.2398L6.78026 18.8101C6.78026 18.8101 7.09494 18.9035 7.44404 19.0117L6.80484 18.7609L5.93947 18.2201L5.56579 17.5612L5.3642 17.0843L5.24619 16.5287L5.3642 15.8157L5.46745 14.7291L5.63954 13.4704L5.91489 12.3198L6.3279 11.2381L6.91301 10.0826L7.47845 8.98127L8.20124 7.93397L8.85518 7.1276L8.81093 7.11285L8.1324 7.91431Z" fill="black"/>
<path d="M16.865 15.3387L16.4766 15.4125L15.9849 15.6928L15.444 16.091L15.1342 16.4008L14.8589 16.5532L14.554 16.332L14.0919 16.4647L14.082 16.4844C14.0624 16.5286 13.9739 16.7401 13.9739 16.8138C13.9739 16.8876 14.1214 17.1137 14.205 17.2367L14.2099 17.2416C14.4115 17.4678 14.6327 17.7283 14.6475 17.7726C14.6622 17.8365 14.7311 18.0037 14.7507 18.0479L14.736 18.5691L14.4065 18.9625L13.9247 19.1641L12.8135 19.3018L11.6629 19.2821C11.6531 19.2821 10.7484 19.3362 10.65 19.3362H9.75517L8.67346 19.287L7.91626 19.1493C8.13752 19.2182 8.31453 19.2772 8.34403 19.2919C8.43253 19.3362 10.5714 19.3755 10.5714 19.3755H12.7299C12.8135 19.3755 13.8903 19.2329 13.9444 19.2329C14.0034 19.2329 14.441 19.0117 14.441 19.0117L14.7507 18.6626L14.972 19.0067L15.7489 19.4738C15.7489 19.4738 16.6486 19.8279 16.7273 19.8377C16.806 19.8426 17.7746 19.9262 17.8189 19.9409C17.8631 19.9557 18.6547 19.8623 18.6793 19.8623C18.7039 19.8623 19.5201 19.4689 19.5447 19.4591C19.5693 19.4542 19.9921 19.0215 19.9921 19.0215L19.6627 18.284L19.112 17.3252C19.112 17.3252 18.4286 16.509 18.3892 16.4893C18.3499 16.4696 17.5632 16.0664 17.5042 16.0369C17.4452 16.0074 17.3616 15.7026 17.3616 15.7026L17.3862 15.6878V15.6829L16.865 15.3387ZM17.4353 16.0468L18.3548 16.5532L18.9694 17.2317L19.3283 17.7775L19.8249 18.7019L19.9184 19.0461L19.5152 19.4345L18.7727 19.7738L17.9074 19.8918L16.8306 19.7885C16.511 19.7 15.9898 19.5525 15.9308 19.5181C15.8472 19.4689 15.1244 19.0461 15.0261 18.9871L14.8343 18.7019L14.8491 18.0332V18.0283C14.8245 17.9693 14.7606 17.8119 14.7458 17.7579C14.7261 17.6841 14.4213 17.335 14.2885 17.1875C14.1902 17.04 14.0771 16.8581 14.0771 16.8236C14.0968 16.7302 14.1263 16.6417 14.1656 16.5532L14.5344 16.445L14.8491 16.6712L14.8835 16.6516L14.8343 16.8876L15.1834 17.1973L15.6505 17.1777L15.6653 17.1678C15.7292 17.1187 15.8029 17.0744 15.8767 17.04C15.916 17.04 15.9652 17.0056 16.1029 16.9023C16.157 16.8581 16.216 16.8187 16.275 16.7843C16.334 16.7794 16.5061 16.6712 16.6437 16.5778L16.7716 16.5925L16.5061 16.9564L16.0439 17.3989L15.6161 17.7382L15.5423 17.2072L15.444 17.2219L15.5325 17.8414L15.8914 18.2397L16.2356 18.4462L16.4667 18.7117L16.7716 18.7511L17.0027 18.7019L17.0125 18.8986L17.3173 19.11L17.6861 19.1444L17.9172 19.0756L18.0696 19.3018H18.4335L18.7334 19.169L18.9448 18.8494L19.2202 18.5593L19.1464 18.4905L18.8711 18.7855L18.6646 19.0903L18.4138 19.2034H18.1237L17.9516 18.9477C18.0205 18.8691 18.2122 18.6576 18.2515 18.6183C18.3056 18.5642 18.6203 18.2004 18.6351 18.1856L18.5613 18.1217C18.4482 18.2545 18.222 18.5101 18.1827 18.5495C18.1286 18.6036 17.8631 18.9035 17.8533 18.9133L17.8287 18.9428L17.8631 18.9969L17.6812 19.051L17.3567 19.0166L17.1108 18.8494L17.0961 18.579L17.3272 18.22L17.8041 17.7579L17.7353 17.6841L17.2534 18.1512L16.9977 18.5544L17.0027 18.6036L16.7716 18.6527L16.5208 18.6232L16.3094 18.3823L16.1176 18.1119L16.211 17.8857L16.4766 17.5022L16.8601 17.2907L16.8797 17.3055C16.8847 17.2957 16.8945 17.2858 16.9043 17.2711L17.1551 17.1334L17.6959 16.7499L17.6369 16.6663L17.1059 17.0449L16.9928 17.1088C17.0027 17.0892 17.0076 17.0646 17.0076 17.04C17.0125 17.0007 17.1305 16.8581 17.2338 16.745L17.2682 16.7106L17.101 16.5434L16.6191 16.4893L16.6044 16.4991C16.4962 16.5729 16.3831 16.6417 16.2651 16.6958C16.2258 16.6958 16.1717 16.7351 16.0389 16.8335C15.9849 16.8777 15.9259 16.9171 15.8669 16.9515C15.8079 16.9564 15.6898 17.0351 15.6112 17.0892L15.2129 17.1039L14.9376 16.863L14.9917 16.5975L15.1883 16.4893L15.2817 16.3959L15.5964 16.6171L15.6063 16.7106L15.4145 16.9023L15.4833 16.9712L15.7095 16.745L15.6849 16.5581L15.3506 16.3221L15.4981 16.1746L16.0291 15.7813L16.5011 15.5108L16.8355 15.4469L17.2878 15.7567L17.4353 16.0468ZM16.0881 18.2446L15.9554 18.166L15.6603 17.8414L16.1127 17.4874L16.5798 17.0351L16.8847 16.6122L17.0567 16.6319L17.1305 16.7056C17.0371 16.8089 16.9092 16.9613 16.9092 17.0302C16.8945 17.0892 16.865 17.1432 16.8306 17.1875L16.4028 17.4235L16.1176 17.8316L15.9996 18.1266L16.0881 18.2446Z" fill="black"/>
<path d="M17.2928 8.22409L17.5436 8.55352C17.5436 8.55352 17.6665 8.74528 17.7107 8.76003C17.755 8.77478 18.1631 9.01079 18.1631 9.01079L18.3303 9.19763L18.2958 9.3058L18.168 9.26647L18.1877 9.90074H18.227V9.33039L18.3401 9.3943L18.3696 9.15338L18.05 8.87312L17.7058 8.70594L17.7206 8.69611L17.4551 8.27817L16.9191 7.80615L16.8601 7.87499H16.9142L17.2928 8.22409Z" fill="black"/>
<path d="M18.1286 10.8153C18.1286 10.8153 17.9467 11.1791 17.927 11.1889C17.9074 11.2037 17.7451 11.2725 17.7451 11.2725L17.7599 11.361C17.8336 11.4151 17.9074 11.4741 17.9713 11.538C17.9811 11.5528 18.0893 11.7691 18.1778 11.9314H18.2663C18.1827 11.6856 18.0155 11.4741 17.7943 11.3414C17.8041 11.3217 17.814 11.2971 17.8238 11.2774C17.8385 11.2676 17.8582 11.2578 17.873 11.243C18.1139 11.0611 18.2368 10.7464 18.2516 10.3039V9.99414L18.1926 9.90564L18.2073 10.3826L18.1286 10.8153Z" fill="black"/>
<path d="M17.381 8.3519L17.5679 8.64199L17.5433 8.62724L16.9237 8.57316L16.2256 8.69608L15.9404 8.819L15.9797 8.91242L16.2501 8.79442L16.9287 8.67641L17.5187 8.72558L18.0055 8.96159L18.2759 9.1976L18.271 9.23693L18.2169 9.20743L17.6416 8.99601L17.6318 8.99109C17.6072 8.98617 17.0418 8.90259 16.8992 8.90259C16.7566 8.90259 16.2256 8.98617 16.201 8.99109H16.1911L15.4929 9.44344L15.547 9.52703L16.2305 9.08451C16.3091 9.07468 16.7812 9.00092 16.9041 9.00092C17.0319 9.00092 17.558 9.07959 17.617 9.08451L18.1481 9.27627V9.81713L18.0153 9.62045L17.74 9.30577L17.1008 9.23693H16.4222L15.8765 9.62537L15.3602 10.2105L15.1733 10.7563L15.2028 10.7759C15.2274 10.7956 15.4634 10.9775 15.6306 10.9775C15.724 10.9775 16.0879 11.0365 16.3239 11.0709C16.5156 11.1004 16.5943 11.1152 16.614 11.1152C16.6681 11.1152 17.2581 10.9677 17.4351 10.9234L17.8334 10.7415L18.1628 10.3531C18.1431 10.7317 18.03 11.007 17.8285 11.1594C17.5384 11.3807 17.1598 11.2873 17.1598 11.2873L17.1499 11.3364L17.1401 11.3856C17.2138 11.4004 17.2876 11.4102 17.3614 11.4102C17.4794 11.4102 17.5974 11.3905 17.7055 11.3463C17.617 11.5282 17.5039 11.6462 17.3712 11.6954C17.2581 11.7347 17.1303 11.7249 17.0221 11.6708L16.9729 11.7593C17.0516 11.7986 17.1401 11.8183 17.2237 11.8183C17.2827 11.8183 17.3417 11.8085 17.4007 11.7888C17.5482 11.7347 17.6711 11.6167 17.7744 11.4299C17.9612 11.5479 18.1087 11.7249 18.1874 11.9314H18.2021C18.1186 11.7691 18.0055 11.5528 17.9956 11.538C17.9268 11.4741 17.858 11.4151 17.7842 11.361L17.7695 11.2725C17.7695 11.2725 17.9317 11.2037 17.9514 11.1889C17.971 11.1742 18.153 10.8153 18.153 10.8153L18.2316 10.3875L18.2169 9.91055L18.1972 9.27627L18.3251 9.3156L18.3595 9.20743L18.1923 9.02059C18.1923 9.02059 17.7842 8.77966 17.74 8.76983C17.6957 8.75508 17.5728 8.56332 17.5728 8.56332L17.322 8.23389L16.9385 7.88971H16.8844L16.8795 7.89463L17.381 8.3519ZM18.1481 10.3432L18.1087 10.0925L17.145 9.69912L15.9797 9.6647L15.9748 9.76304L17.1204 9.79746L18.0153 10.1613L18.0399 10.3186L17.7498 10.653L17.3859 10.8202C17.1008 10.889 16.6386 11.0021 16.5943 11.007C16.5747 11.007 16.4468 10.9873 16.319 10.9677C16.0485 10.9234 15.7142 10.8693 15.6109 10.8693C15.5126 10.8693 15.3553 10.771 15.2717 10.712L15.429 10.2547L15.9207 9.69912L16.437 9.33036H17.0762L17.676 9.39919L17.9219 9.67454L18.153 10.0236V10.299C18.1481 10.3137 18.1481 10.3285 18.1481 10.3432Z" fill="black"/>
<path d="M15.0063 15.1471L15.321 15.1127H14.7654L15.0063 15.1471Z" fill="black"/>
<path d="M17.804 15.1323C17.7892 15.1569 17.5041 15.6191 17.5041 15.6191L17.3762 15.6879L17.4057 15.7224L17.6319 15.5257L17.8482 15.1618V15.1127H17.804C17.8089 15.1225 17.8089 15.1274 17.804 15.1323Z" fill="black"/>
<path d="M17.8042 15.1323C17.8042 15.1274 17.8091 15.1176 17.8091 15.1127H17.755V15.1323L17.5584 15.4569L17.3469 15.6437L17.3813 15.683L17.3863 15.6879L17.5141 15.6191C17.5092 15.6191 17.7944 15.1618 17.8042 15.1323Z" fill="black"/>
<path d="M18.2758 12.1182L18.3201 12.1822C18.3102 12.0986 18.2955 12.015 18.266 11.9314H18.1775C18.2316 12.0347 18.2758 12.1182 18.2758 12.1182Z" fill="black"/>
<path d="M18.5956 12.669C18.5907 12.6936 18.5317 12.8902 18.5169 12.9197C18.5022 12.9542 18.04 13.5884 18.04 13.5884L18.1482 13.8097C18.1482 13.8097 18.1678 13.967 18.1531 13.9916C18.1383 14.0162 17.7302 14.6505 17.7302 14.6505L17.7941 14.8275C17.7941 14.8275 17.8089 15.0487 17.804 15.1176H17.8482V14.7783L17.7941 14.6308L17.8384 14.5964L18.1383 14.1342L18.217 13.8834L18.099 13.5933C18.1088 13.5835 18.1137 13.5786 18.1137 13.5786L18.4973 13.0525L18.6497 12.7722L18.6448 12.7526C18.6251 12.6739 18.6054 12.5903 18.5956 12.5067C18.5956 12.4871 18.5956 12.433 18.3399 12.1625L18.3203 12.1822L18.4727 12.3985C18.4727 12.3985 18.6005 12.6444 18.5956 12.669Z" fill="black"/>
<path d="M18.1778 11.9314H18.163C18.222 12.0838 18.2417 12.2461 18.222 12.4083L17.8975 12.9639L17.5632 13.3622C17.337 13.4409 16.9682 13.5638 16.9043 13.5638C16.8011 13.5638 15.8472 13.5786 15.7833 13.5835C15.7095 13.5786 14.5393 13.5146 14.3869 13.5146C14.2984 13.5146 13.8657 13.4458 13.551 13.3917C13.2609 13.3425 13.138 13.3229 13.1085 13.3229C13.0446 13.318 12.1349 13.136 11.5351 13.0131L10.3108 12.6345L9.75026 12.5067L9.50933 12.6837L9.43066 12.9541L9.48967 13.2442L10.0944 13.6523L11.0827 14.2227L12.2087 14.6898H12.2136L13.3888 14.8815L14.1165 15.0192L14.7606 15.1077H15.3211L16.3192 15.0044L17.0076 15.0192H17.0174L17.4648 14.8914L17.7156 14.6898L17.7549 14.7881V15.1077H17.809C17.8139 15.0389 17.7992 14.8176 17.7992 14.8176L17.7353 14.6406C17.7353 14.6406 18.1434 14.0063 18.1581 13.9817C18.1729 13.9572 18.1532 13.7998 18.1532 13.7998L18.045 13.5786C18.045 13.5786 18.5121 12.9443 18.522 12.9099C18.5367 12.8754 18.5908 12.6837 18.6006 12.6591C18.6056 12.6345 18.4777 12.3887 18.4777 12.3887L18.3253 12.1723L18.281 12.1084C18.2761 12.1182 18.2319 12.0347 18.1778 11.9314ZM18.3204 12.4329C18.3253 12.3887 18.3302 12.3444 18.3302 12.3002C18.3941 12.3641 18.4482 12.4378 18.4974 12.5165C18.5072 12.6001 18.522 12.6837 18.5466 12.7623L18.4187 13.0033L18.045 13.5146C18.0352 13.5245 18.0057 13.5491 17.9713 13.5835C17.6812 13.849 17.5484 13.9522 17.5189 13.967L17.1108 14.0702L15.9455 14.1194L14.7261 14.0506L13.5068 13.8293H13.5018L12.5185 13.849L11.5105 13.5933L10.6205 13.2835L10.1436 12.9934L10.0895 13.077L10.5714 13.372L11.4761 13.6867L12.4988 13.9473H12.5037L13.4871 13.9277L14.7065 14.1489L15.9357 14.2177H15.9406L17.1157 14.1637L17.5386 14.0604C17.5583 14.0555 17.6074 14.0407 18.0205 13.6671L18.1139 13.8932L18.05 14.0948L17.7648 14.5324L17.4157 14.8127L17.0027 14.9307L16.3192 14.9159H16.3143L15.0064 15.0536L14.1361 14.9356L13.4084 14.7979L12.2431 14.6111L11.1319 14.1489L10.1534 13.5835L9.58309 13.2L9.53884 12.9738L9.59784 12.7623L9.77485 12.6296L10.2862 12.7427L11.5105 13.1213H11.5154C11.7711 13.1754 13.0397 13.431 13.1134 13.431C13.138 13.431 13.3445 13.4655 13.5412 13.495C13.8952 13.554 14.2935 13.6179 14.3918 13.6179C14.5442 13.6179 15.7734 13.6867 15.7882 13.6867C15.798 13.6867 16.806 13.6671 16.9092 13.6671C17.0174 13.6671 17.5189 13.49 17.6173 13.4556L17.632 13.4507L17.986 13.0279L18.3253 12.4428L18.3204 12.4329Z" fill="black"/>
<path d="M9.90741 12.3199C10.0205 12.2953 10.1385 12.2953 10.2516 12.3199L10.2762 12.2215C10.2516 12.2166 9.65173 12.0642 9.10596 12.7034L9.17971 12.7673C9.44522 12.4575 9.72057 12.3543 9.90741 12.3199Z" fill="black"/>
<path d="M9.75007 11.9314L10.0844 11.8527L10.0648 11.7544L9.56323 11.8724L9.57798 11.9314H9.75007Z" fill="black"/>
<path d="M9.58796 11.9707L9.75022 11.9314H9.57812L9.58796 11.9707Z" fill="black"/>
<path d="M15.6995 11.4889C15.8961 11.6167 16.0781 11.7642 16.2403 11.9314H16.378C16.2403 11.7741 16.0879 11.6364 15.9207 11.5135L16.3091 11.5577L16.6435 11.4889L16.6238 11.3905L16.3042 11.4594L15.7437 11.3955C15.6552 11.3365 15.5618 11.2873 15.4634 11.243L15.4192 11.3315L15.6995 11.4889Z" fill="black"/>
<path d="M16.5502 12.3444L16.6387 12.2952C16.565 12.1674 16.4765 12.0445 16.3782 11.9314H16.2405C16.3585 12.0592 16.4617 12.1969 16.5502 12.3444Z" fill="black"/>
<path d="M10.2271 9.77284L10.3992 9.87118L10.409 9.9351L10.4828 9.92035L11.0285 10.2399H11.0334C11.1957 10.3186 11.3875 10.417 11.412 10.4465C11.4465 10.4956 11.8251 10.707 12.1348 10.8791L12.1397 10.8841H12.1447C12.3954 10.9381 12.8871 11.0463 12.9658 11.0709C13.0248 11.0906 13.2067 11.0955 13.369 11.0955C13.5116 11.0955 13.6443 11.0906 13.6689 11.0906L14.2589 11.0217L14.6867 10.8644L14.6818 10.8496L14.8096 10.9332V11.0561L14.6277 11.2233L14.2147 11.3954L14.1409 11.4593L14.1458 11.4249C13.959 11.4102 13.7377 11.3807 13.7033 11.3659C13.6787 11.3512 13.6394 11.3217 12.7101 11.3217C12.5331 11.3217 12.0906 11.2233 12.0365 11.2037C11.9873 11.1889 11.6038 11.0709 11.5301 11.0512C11.4661 10.9873 11.0777 10.6284 10.7679 10.4465L10.7188 10.535C11.0384 10.7218 11.4661 11.125 11.4661 11.1299L11.476 11.1397L11.4858 11.1447C11.4907 11.1447 11.9529 11.2823 12.0021 11.2971C12.0611 11.3167 12.5134 11.42 12.7101 11.42C13.4821 11.42 13.6246 11.4397 13.6541 11.4495C13.7082 11.479 13.9147 11.5036 14.0721 11.5183L14.018 11.5626L13.7918 11.9314H13.9098L14.0967 11.6265L14.2737 11.479L14.6867 11.3069L14.9178 11.0955V10.8742L14.667 10.712L14.4949 10.1711L14.1212 9.6745L13.7328 9.44341L12.7937 8.95664L12.0709 8.8878L11.2154 8.97631L10.5565 9.22707L10.1927 9.67942L9.9714 9.79743L9.8829 9.71875L9.92715 9.45324L10.3451 9.05006L10.7139 8.75013L11.2301 8.65179L11.8103 8.63704H12.4298L12.9363 8.65179L13.4624 8.94189C13.6886 9.05989 13.9492 9.2074 13.9737 9.24673C14.0082 9.31557 14.3917 9.67942 14.5146 9.79251L14.8637 10.2449L14.9129 10.6087L15.0112 10.594L14.9571 10.2006L14.5884 9.72367L14.5834 9.71875C14.3425 9.4975 14.0819 9.24182 14.0573 9.19756C14.0229 9.12381 13.6935 8.9468 13.5017 8.84847L13.1428 8.65179L13.9639 8.66654L14.2589 8.84847L14.6474 9.20248L14.8588 9.46799L14.962 10.0236L15.0604 10.0039L14.9522 9.42374L14.7211 9.13856L14.3179 8.7698L13.9885 8.5682L12.9412 8.54854L12.4249 8.52887H11.8005L11.2154 8.54854L10.6598 8.65671L10.2713 8.97631L9.8239 9.40407L9.76489 9.75809L9.95173 9.92035L10.2271 9.77284ZM14.0622 9.75317L14.4113 10.2203L14.5884 10.7808L14.608 10.7906L14.2589 10.9234L13.6787 10.9922C13.4575 10.9971 13.0789 11.0021 13.01 10.9775C12.9117 10.9431 12.2627 10.8054 12.184 10.7857C11.8742 10.6185 11.535 10.4268 11.5006 10.3875C11.4612 10.3334 11.2252 10.2154 11.0875 10.1465L10.645 9.88593L10.9695 9.82693C11.1711 9.80234 11.7021 9.74334 11.771 9.74334C11.8005 9.74334 11.9087 9.75317 12.0217 9.76301C12.3561 9.79251 12.5134 9.80234 12.5577 9.79251C12.6068 9.78267 13.074 9.73351 13.3788 9.70892L13.8607 9.6745L13.8557 9.62533L14.0622 9.75317ZM10.6204 9.31065L11.24 9.07464L12.0758 8.99106L12.7691 9.05989L13.6886 9.53683L13.7722 9.586L13.364 9.6155C13.2854 9.62042 12.597 9.68434 12.5282 9.704C12.4839 9.71384 12.1987 9.68434 12.0217 9.66959C11.8939 9.65975 11.7956 9.64992 11.7611 9.64992C11.6726 9.64992 10.9744 9.73351 10.9449 9.73842L10.5024 9.82201L10.3008 9.704L10.6204 9.31065Z" fill="black"/>
<path d="M13.7476 12.0051C13.6345 12.069 13.5215 12.1182 13.4034 12.1674C13.3494 12.1674 13.0445 12.31 12.7987 12.428C12.7544 12.4427 12.3512 12.5656 12.2578 12.5804L12.2726 12.6787C12.3758 12.6591 12.8134 12.5263 12.8331 12.5214L12.838 12.5165C13.0838 12.3985 13.3641 12.2706 13.4034 12.2608C13.4624 12.2559 13.6788 12.1477 13.8017 12.0838L13.8115 12.0789L13.905 11.9265H13.787L13.7476 12.0051Z" fill="black"/>
<path d="M14.2197 7.97821L14.1558 8.02246C14.1853 8.01755 14.2148 8.01755 14.2443 8.01263L14.2197 7.97821Z" fill="black"/>
<path d="M14.4506 8.48468L14.5785 8.70594L14.5146 8.9272L14.6129 8.9567L14.6866 8.69611L14.5391 8.43551L14.249 8.01758C14.2195 8.0225 14.19 8.0225 14.1605 8.02741L14.1409 8.04216L14.4506 8.48468Z" fill="black"/>
<path d="M17.4599 8.36661L17.8975 8.32236C17.8975 8.32236 18.989 8.64688 19.0333 8.69113C19.0776 8.73538 19.6282 8.97631 19.6282 8.97631L19.9528 9.00581L19.997 8.7108L19.7561 8.36661L19.0628 7.85526L18.2712 7.47174L17.7746 7.29965L17.5976 4.79204L17.1796 4.1676L16.5552 3.65624L15.7488 3.25798L14.913 3.24323L13.3396 3.4399L11.894 3.72508L11.8104 3.47924C11.6973 3.44973 11.5842 3.43007 11.4711 3.41532C11.3875 3.41532 10.6205 3.65133 10.6205 3.65133L10.1534 3.89717L10.0551 4.18235L9.38638 4.55112L8.84552 5.22964L8.53576 5.88359C8.53576 5.88359 8.37842 6.53754 8.37842 6.57687C8.37842 6.61621 8.46201 6.97514 8.52101 6.99972C8.58001 7.02431 9.01761 7.14231 9.01761 7.14231L9.59289 7.42749L10.4238 7.90934L11.4564 8.24861C11.4564 8.24861 12.4348 8.17977 12.5332 8.17977C12.6315 8.17977 14.1066 8.02243 14.1902 8.02243C14.2738 8.02243 15.8914 7.89459 15.9357 7.89459C15.9799 7.89459 16.9436 7.87984 16.9436 7.87984L17.3271 8.21911L17.4599 8.36661Z" fill="white"/>
<path d="M17.0762 9.75816L17.2041 10.0286L17.2827 10.3384L17.2434 10.535L17.0762 10.9628L16.5452 11.0513L15.6897 10.8989L15.5864 10.5989L15.6258 10.3285L15.7143 9.90075L15.9355 9.65491L16.0781 9.73358L17.0222 9.75816" fill="black"/>
<path d="M13.1821 9.71885L13.3395 10.0188L13.3542 10.3826L13.2755 10.7071L13.1084 10.9677L12.8379 10.9825L11.8005 10.6727L11.3875 10.3089L11.4415 10.0778L11.5841 9.85653L11.7759 9.7041L12.5036 9.72377C12.4937 9.71885 13.1526 9.77294 13.1821 9.71885Z" fill="black"/>
<path d="M19.8643 8.40597L19.4612 8.05195L18.881 7.66352L17.9271 7.31442L17.7943 7.26033L17.755 6.43921C17.7058 6.03603 17.637 5.42634 17.637 5.37717C17.637 5.30833 17.6026 4.80681 17.6026 4.78714V4.77731L17.3174 4.26104L16.8405 3.76935L16.1079 3.35141L15.4982 3.17932H14.6623L13.8412 3.28258C13.5117 3.33666 12.9955 3.42025 12.9365 3.42025C12.848 3.42025 12.1596 3.57759 12.0809 3.59234L11.84 3.65626L11.8793 3.63659L11.8007 3.47925L11.545 3.38091L11.1713 3.41533L10.5714 3.56284L10.1191 3.85293L10.0257 4.09386L10.0896 4.11845L9.83883 4.18237H9.82899L9.29797 4.51671L8.92921 4.93465L8.59486 5.49517L8.32935 6.40971V6.73914L8.50144 7.04399L9.57823 7.42751L9.93717 7.75202L10.7386 8.11587L11.4466 8.29288L12.7693 8.20437L14.682 7.99787L16.0439 7.89461L17.1748 7.90936L18.3696 8.08145L19.3137 8.52889L19.3579 8.44038L18.404 7.98803L17.1896 7.81594L16.0439 7.79627L14.677 7.89953L12.7644 8.10604L11.4614 8.18962L10.7829 8.02245L10.0011 7.66352L9.63724 7.33409L8.57519 6.95549L8.43752 6.70964V6.41955L8.6932 5.53451L9.01771 4.99365L9.37173 4.59047L9.87816 4.27087L12.1104 3.68576C12.4005 3.62184 12.8873 3.51367 12.9463 3.51367C13.0348 3.51367 13.7822 3.39075 13.8658 3.376L14.6721 3.27274H15.4883L16.0636 3.43992L16.7765 3.84802L17.2338 4.32004L17.4993 4.80681C17.5092 4.98873 17.5337 5.328 17.5337 5.37717C17.5337 5.446 17.6419 6.35071 17.6567 6.44905L17.696 7.221L17.1158 6.99974L15.9702 6.87682L15.1048 6.78831L14.2542 6.85715L13.2708 6.9604L12.1252 7.221L11.2647 7.42751L10.6894 7.46193L9.95192 7.31442L10.3256 7.58485L10.6304 7.76185L11.3286 7.93395L12.0121 7.95361H12.017L12.6267 7.88478L13.4872 7.7471L14.3279 7.60943L15.272 7.54059L15.9259 7.50618L16.7126 7.55535L17.7796 7.69302L19.1563 7.95361L19.3972 8.11095L19.7808 8.4453L19.8889 8.69606L19.8643 8.8829L19.6578 8.89765L19.2547 8.71081L18.5122 8.4158L17.9271 8.23879L17.4157 8.29288L17.4256 8.39122L17.9173 8.34205L18.4729 8.50922L19.2104 8.79932L19.6382 8.99599L19.9479 8.97632L19.9922 8.68131L19.8643 8.40597ZM10.1289 4.1037L10.2027 3.91685L10.6108 3.65626L11.1861 3.51859L11.5352 3.48417L11.7318 3.55792L11.7859 3.66609L10.1289 4.1037ZM17.7943 7.61435L16.7175 7.47668L15.921 7.42259L15.2621 7.45701L14.3132 7.52584L13.4626 7.66352L12.6021 7.80119L12.0023 7.87003L11.3385 7.85528L10.6599 7.6881L10.3748 7.52093H10.3699L10.6698 7.57993L11.2647 7.54551L12.135 7.339L13.2708 7.08332L14.2493 6.98007L15.0901 6.91123L15.9456 6.99482L17.0765 7.11283L17.8828 7.42259L18.8269 7.76677L18.9351 7.84053L17.7943 7.61435Z" fill="black"/>
<path d="M12.8581 10.5338C13.0221 10.485 13.1217 10.3337 13.0807 10.1957C13.0397 10.0578 12.8735 9.98547 12.7095 10.0342C12.5455 10.083 12.4459 10.2344 12.4869 10.3723C12.5279 10.5103 12.6941 10.5826 12.8581 10.5338Z" fill="white"/>
<path d="M12.0561 10.5055C12.1267 10.5055 12.1839 10.4483 12.1839 10.3777C12.1839 10.3071 12.1267 10.2498 12.0561 10.2498C11.9855 10.2498 11.9282 10.3071 11.9282 10.3777C11.9282 10.4483 11.9855 10.5055 12.0561 10.5055Z" fill="white"/>
<path d="M11.9774 10.1072C12.0481 10.1072 12.1053 10.05 12.1053 9.9794C12.1053 9.9088 12.0481 9.85156 11.9774 9.85156C11.9068 9.85156 11.8496 9.9088 11.8496 9.9794C11.8496 10.05 11.9068 10.1072 11.9774 10.1072Z" fill="white"/>
<path d="M16.1422 10.6678C16.2073 10.6678 16.2602 10.6149 16.2602 10.5498C16.2602 10.4846 16.2073 10.4318 16.1422 10.4318C16.077 10.4318 16.0242 10.4846 16.0242 10.5498C16.0242 10.6149 16.077 10.6678 16.1422 10.6678Z" fill="white"/>
<path d="M16.1274 10.2203C16.198 10.2203 16.2552 10.1631 16.2552 10.0925C16.2552 10.0219 16.198 9.96466 16.1274 9.96466C16.0567 9.96466 15.9995 10.0219 15.9995 10.0925C15.9995 10.1631 16.0567 10.2203 16.1274 10.2203Z" fill="white"/>
<path d="M16.8305 10.5842C16.9581 10.5842 17.0616 10.4807 17.0616 10.3531C17.0616 10.2255 16.9581 10.122 16.8305 10.122C16.7028 10.122 16.5994 10.2255 16.5994 10.3531C16.5994 10.4807 16.7028 10.5842 16.8305 10.5842Z" fill="white"/>
</g>
<defs>
<clipPath id="clip0_2818_31632">
<rect width="24" height="24" fill="white"/>
</clipPath>
</defs>
</svg>
