<svg width="24" height="24" viewBox="0 0 24 24" fill="none" xmlns="http://www.w3.org/2000/svg">
<rect width="24" height="24" rx="12" fill="#28292F"/>
<g style="mix-blend-mode:luminosity">
<path fill-rule="evenodd" clip-rule="evenodd" d="M12.2338 20.4C13.1048 20.4 15.339 20.0073 17.3082 18.4367C19.5725 16.6307 19.7859 15.6235 19.9235 14.974C19.9355 14.9175 19.9468 14.8637 19.959 14.8122C19.982 14.7149 19.9954 14.5828 20 14.4257C19.5244 14.3487 18.8577 14.3046 18.0797 14.3969C16.8073 14.548 15.8076 15.4163 15.4668 15.8316C15.2774 14.8878 14.3534 13 12.1722 13C9.99094 13 8.81449 14.8878 8.49891 15.8316C8.29694 15.4792 7.54461 14.699 6.15104 14.3969C5.28938 14.2102 4.53776 14.3025 4 14.4596C4.04246 15.1615 4.27316 15.9101 4.88718 16.7C5.94372 18.0592 7.58307 18.8985 8.31447 19.2729C8.39573 19.3145 8.46579 19.3504 8.52259 19.3806C9.09063 19.6827 10.6433 20.4 12.2338 20.4Z" fill="white"/>
</g>
<g style="mix-blend-mode:luminosity">
<path fill-rule="evenodd" clip-rule="evenodd" d="M19.9982 14.3981C19.5228 14.3213 18.8566 14.2773 18.079 14.3694C16.8074 14.52 15.8082 15.3859 15.4676 15.8C15.2784 14.8588 14.3549 12.9765 12.1749 12.9765C9.99495 12.9765 8.81917 14.8588 8.50378 15.8C8.30193 15.4486 7.55004 14.6706 6.15727 14.3694C5.29612 14.1832 4.54494 14.2752 4.00749 14.432C3.96879 13.7937 4.08654 13.1943 4.2129 12.6376C4.42484 11.704 4.95722 10.4667 5.19692 9.96471C4.98245 9.4502 4.4854 7.992 4.2129 6.27529C3.9404 4.55859 4.40214 3.40157 4.66706 3.03765C5.09599 3.15059 6.12039 3.50447 6.78649 4.01647C7.4526 4.52847 8.47699 5.66039 8.90592 6.16235C9.46101 6.01176 10.8891 5.71059 12.1608 5.71059C13.4324 5.71059 14.6587 6.01176 15.1128 6.16235C15.4913 5.71059 16.4223 4.64894 17.1187 4.01647C17.8151 3.384 18.9479 3.07529 19.4274 3C19.5535 3.16314 19.821 3.64 19.8815 4.24235C19.9572 4.99529 19.7302 6.57647 19.4274 7.63059C19.1852 8.47388 18.8722 9.46274 18.7461 9.85176C18.8092 9.9898 19.0262 10.4391 19.3895 11.1318C19.7748 11.8663 20.0238 13.522 19.9982 14.3981Z" fill="#FFAA35"/>
</g>
<g style="mix-blend-mode:luminosity">
<path d="M13.7875 17.7484C13.6975 17.8688 13.6 18.0997 13.5625 18.2V18.1624L13.45 17.2592C13.2375 17.2842 12.685 17.3344 12.175 17.3344C11.665 17.3344 11.0625 17.2842 10.825 17.2592L10.7875 18.1624C10.7625 18.1247 10.6975 18.0194 10.6375 17.8989C10.5625 17.7484 10.3 17.5226 10.3 17.4097C10.3 17.3194 10.175 17.1212 10.1125 17.0334L10 16.8828H10.675L10.825 16.9957C10.95 16.9832 11.2675 16.9732 11.5375 17.0334C11.8075 17.0936 11.975 16.8578 12.025 16.7323V16.1302C11.9125 16.0549 11.635 15.8818 11.425 15.7915C11.1625 15.6786 10.9 15.227 10.975 14.7754C11.05 14.3238 11.275 14.1732 11.425 14.2109C11.575 14.2485 12.55 14.1732 12.7 14.2109C12.85 14.2485 13.1125 14.3238 13.225 14.5119C13.3375 14.7001 13.2625 15.4528 13.0375 15.7162C12.8575 15.927 12.5125 16.08 12.3625 16.1302V16.7323C12.3625 16.8076 12.625 16.9957 12.6625 17.0334C12.7 17.071 13.2625 17.0334 13.375 17.0334C13.465 17.0334 13.5375 16.9581 13.5625 16.9205H14.2V17.071C14.2 17.1463 14.0875 17.485 14.05 17.5226C14.0125 17.5602 13.9 17.5979 13.7875 17.7484Z" fill="black"/>
</g>
<g style="mix-blend-mode:luminosity">
<path d="M12.5809 17.5L12.1999 17.8L11.8951 17.5L11.6285 17.6333L11.3999 17.4H12.9999L12.7713 17.6667L12.5809 17.5Z" fill="black"/>
</g>
<g style="mix-blend-mode:luminosity">
<path d="M8.48102 11.3462C8.03471 11.1615 7.55121 11.0385 7.36525 11C7.31566 11.0256 7.21648 11.1077 7.21648 11.2308C7.21648 11.3846 7.17929 11.5385 7.21648 11.8462C7.25367 12.1538 7.55121 12.3462 8.07191 12.5769C8.5926 12.8077 9.48522 13 10.1175 13C10.7498 13 10.1547 12.3462 9.93153 12.1923C9.70837 12.0385 9.03891 11.5769 8.48102 11.3462Z" fill="black"/>
</g>
<g style="mix-blend-mode:luminosity">
<path d="M9.09177 10.3254C8.75823 10.3851 8.29584 10.4 8.10633 10.4C7.91682 10.3752 7.51507 10.2583 7.42411 9.98994C7.3104 9.65444 7.61361 9.28166 7.99263 9.09527C8.37164 8.90888 8.86436 8.98343 9.16757 9.43077C9.47078 9.87811 9.50868 10.2509 9.09177 10.3254Z" fill="white"/>
</g>
<g style="mix-blend-mode:luminosity">
<path d="M15.9189 11.1461C16.3652 10.9615 16.8487 10.8384 17.0347 10.8C17.0843 10.8256 17.1835 10.9077 17.1835 11.0308C17.1835 11.1846 17.2207 11.3384 17.1835 11.6461C17.1463 11.9538 16.8487 12.1461 16.328 12.3769C15.8074 12.6077 14.9147 12.8 14.2825 12.8C13.6502 12.8 14.2453 12.1461 14.4684 11.9923C14.6916 11.8384 15.361 11.3769 15.9189 11.1461Z" fill="black"/>
</g>
<g style="mix-blend-mode:luminosity">
<path d="M14.708 10.3254C15.0416 10.3851 15.504 10.4 15.6935 10.4C15.883 10.3751 16.2847 10.2583 16.3757 9.98994C16.4894 9.65444 16.1862 9.28166 15.8072 9.09527C15.4282 8.90888 14.9354 8.98343 14.6322 9.43077C14.329 9.87811 14.2911 10.2509 14.708 10.3254Z" fill="white"/>
</g>
<g style="mix-blend-mode:luminosity">
<path d="M6.4859 7.53488C6.21335 7.83256 5.69097 8.50233 5.46385 8.8C5.31244 8.47752 4.97932 7.61674 4.85819 6.75349C4.73706 5.89023 4.83296 4.55814 4.89604 4C5.06008 4.01241 5.53956 4.14884 6.14522 4.59535C6.75088 5.04186 7.63413 5.87287 8.00005 6.23256C7.60889 6.54264 6.75845 7.23721 6.4859 7.53488Z" fill="#FF8C30"/>
</g>
<g style="mix-blend-mode:luminosity">
<path fill-rule="evenodd" clip-rule="evenodd" d="M4.80005 4.70878C5.39534 4.9572 6.17893 5.33693 6.50732 5.68015C6.84043 6.0283 7.13348 6.48918 7.30746 6.8C7.56865 6.58344 7.82819 6.37539 8.00005 6.2402C7.63006 5.87928 6.73697 5.04543 6.12457 4.59739C5.51217 4.14935 5.02735 4.01245 4.86149 4C4.84168 4.17385 4.81869 4.42255 4.80005 4.70878Z" fill="#FF9A32"/>
</g>
<g style="mix-blend-mode:luminosity">
<path d="M17.3142 7.53488C17.5867 7.83256 18.1091 8.50233 18.3363 8.8C18.4877 8.47752 18.8208 7.61674 18.9419 6.75349C19.063 5.89023 18.9671 4.55814 18.9041 4C18.74 4.01241 18.2605 4.14884 17.6549 4.59535C17.0492 5.04186 16.1659 5.87287 15.8 6.23256C16.1912 6.54264 17.0417 7.23721 17.3142 7.53488Z" fill="#FF8C30"/>
</g>
<g style="mix-blend-mode:luminosity">
<path fill-rule="evenodd" clip-rule="evenodd" d="M19 4.70878C18.4047 4.9572 17.6212 5.33693 17.2928 5.68015C16.9596 6.0283 16.6666 6.48918 16.4927 6.8C16.2315 6.58344 15.9719 6.37539 15.8 6.2402C16.17 5.87928 17.0631 5.04543 17.6755 4.59739C18.2879 4.14935 18.7727 4.01245 18.9386 4C18.9584 4.17385 18.9814 4.42255 19 4.70878Z" fill="#FF9A32"/>
</g>
</svg>
