<svg width="24" height="24" viewBox="0 0 24 24" fill="none" xmlns="http://www.w3.org/2000/svg">
<g clip-path="url(#clip0_2827_41274)">
<mask id="mask0_2827_41274" style="mask-type:luminance" maskUnits="userSpaceOnUse" x="0" y="0" width="24" height="24">
<path d="M12 0C18.624 0 24 5.376 24 12C24 18.624 18.624 24 12 24C5.376 24 0 18.624 0 12C0 5.376 5.376 0 12 0Z" fill="white"/>
</mask>
<g mask="url(#mask0_2827_41274)">
<path d="M0 0L24 24M24 0L0 24" stroke="black" stroke-miterlimit="22.9256"/>
</g>
<path d="M12 0C18.624 0 24 5.376 24 12C24 18.624 18.624 24 12 24C5.376 24 0 18.624 0 12C0 5.376 5.376 0 12 0Z" fill="#28292F"/>
<mask id="mask1_2827_41274" style="mask-type:luminance" maskUnits="userSpaceOnUse" x="5" y="11" width="14" height="11">
<path d="M11.9903 14.1312L6.6431 11.0784L6.4991 11.2992C4.8575 13.824 5.2223 17.1264 7.3823 19.248C9.9263 21.744 14.0543 21.744 16.5983 19.248C18.7583 17.1264 19.1231 13.824 17.4815 11.2992L17.3375 11.0784L11.9903 14.1312Z" fill="white"/>
</mask>
<g mask="url(#mask1_2827_41274)">
<path d="M11.9903 21.312C15.5903 21.312 18.5087 18.3936 18.5087 14.7936C18.5087 11.1936 15.5903 8.27521 11.9903 8.27521C8.39031 8.27521 5.47192 11.1936 5.47192 14.7936C5.47192 18.3936 8.39031 21.312 11.9903 21.312Z" fill="url(#paint0_radial_2827_41274)"/>
</g>
<path d="M11.9903 14.1312L6.6431 11.0784L6.4991 11.2992C4.8575 13.824 5.2223 17.1264 7.3823 19.248C9.9263 21.744 14.0543 21.744 16.5983 19.248C18.7583 17.1264 19.1231 13.824 17.4815 11.2992L17.3375 11.0784L11.9903 14.1312Z" fill="#FAFAFA"/>
<path d="M11.9903 7.31519L7.38232 9.94559L11.9903 12.576L16.5983 9.94559L11.9903 7.31519Z" fill="url(#paint1_radial_2827_41274)"/>
<path d="M12.0001 7.9968L6.64331 11.0784L11.9905 14.1312L17.3281 11.0784L12.0001 7.9968Z" fill="#191616"/>
<path d="M11.9903 2.88L7.38232 9.94561L11.9903 12.576V2.88Z" fill="white"/>
<path d="M11.9905 12.576L16.5985 9.94561L11.9905 2.88V12.576Z" fill="white"/>
</g>
<defs>
<radialGradient id="paint0_radial_2827_41274" cx="0" cy="0" r="1" gradientUnits="userSpaceOnUse" gradientTransform="translate(11.978 20.1289) rotate(-90.4664) scale(8.705 10.3758)">
<stop stop-color="#7F8290"/>
<stop offset="1" stop-color="#151618"/>
</radialGradient>
<radialGradient id="paint1_radial_2827_41274" cx="0" cy="0" r="1" gradientUnits="userSpaceOnUse" gradientTransform="translate(11.9903 9.94558) scale(0.2304)">
<stop stop-color="#5C5F63" stop-opacity="0"/>
<stop offset="1" stop-color="#A1A1A1" stop-opacity="0.4"/>
</radialGradient>
<clipPath id="clip0_2827_41274">
<rect width="24" height="24" fill="white"/>
</clipPath>
</defs>
</svg>
