<svg width="24" height="24" viewBox="0 0 24 24" fill="none" xmlns="http://www.w3.org/2000/svg">
<g clip-path="url(#clip0_2751_36346)">
<path d="M12 24C18.6274 24 24 18.6274 24 12C24 5.37258 18.6274 0 12 0C5.37258 0 0 5.37258 0 12C0 18.6274 5.37258 24 12 24Z" fill="#28292F"/>
<path d="M11.9999 3.18546L10.3821 4.116L5.9748 6.66327L4.36353 7.59273V16.4073L5.98025 17.3367L10.429 19.8851L12.0457 20.8145L13.6635 19.8851L18.0272 17.3367L19.6439 16.4073V7.59273L18.0272 6.66327L13.6199 4.116L11.9999 3.18546ZM7.59262 14.5473V9.45273L11.9999 6.90546L16.4072 9.45273V14.5473L11.9999 17.0945L7.59262 14.5473Z" fill="white"/>
</g>
<defs>
<clipPath id="clip0_2751_36346">
<rect width="24" height="24" fill="white"/>
</clipPath>
</defs>
</svg>
