<svg width="24" height="24" viewBox="0 0 24 24" fill="none" xmlns="http://www.w3.org/2000/svg">
<g clip-path="url(#clip0_2818_31626)">
<path d="M12 24C18.6274 24 24 18.6274 24 12C24 5.37258 18.6274 0 12 0C5.37258 0 0 5.37258 0 12C0 18.6274 5.37258 24 12 24Z" fill="#28292F"/>
<path d="M5.6685 15.8671V9.83331L10.2442 13.2773V15.8671H11.4127V13.0351C11.4127 12.9294 11.388 12.8252 11.3408 12.7307C11.2935 12.6362 11.225 12.554 11.1405 12.4906L5.59125 8.31381C5.49008 8.2378 5.36974 8.19145 5.24372 8.17995C5.1177 8.16844 4.99096 8.19224 4.8777 8.24868C4.76444 8.30512 4.66912 8.39196 4.60241 8.4995C4.5357 8.60704 4.50024 8.73102 4.5 8.85756V15.8671H5.6685ZM18.324 15.8671V9.83331L13.7482 13.2773V15.8671H12.5798V13.0351C12.5798 12.8206 12.6802 12.6188 12.8512 12.4906L18.4012 8.31381C18.5025 8.23776 18.6229 8.1914 18.749 8.17993C18.8751 8.16846 19.0018 8.19232 19.1151 8.24885C19.2284 8.30538 19.3237 8.39233 19.3904 8.49998C19.457 8.60762 19.4924 8.7317 19.4925 8.85831V15.8678H18.324V15.8671Z" fill="white"/>
</g>
<defs>
<clipPath id="clip0_2818_31626">
<rect width="24" height="24" fill="white"/>
</clipPath>
</defs>
</svg>
