<svg width="24" height="24" viewBox="0 0 24 24" fill="none" xmlns="http://www.w3.org/2000/svg">
<path d="M23.6433 14.8962C22.042 21.3208 15.5349 25.244 9.0985 23.6417C2.67383 22.0356 -1.24298 15.5284 0.358284 9.1038C1.95955 2.67916 8.46271 -1.24396 14.8835 0.358273C21.3238 1.94087 25.2406 8.46762 23.6433 14.8962Z" fill="#28292F"/>
<path d="M16.9474 5.70093C16.4808 5.70093 16.0475 5.94288 15.803 6.34062L13.1692 10.2509C13.0834 10.3798 13.1182 10.5535 13.2471 10.6393C13.3515 10.709 13.4897 10.7004 13.5849 10.6185L16.1774 8.3699C16.2205 8.33113 16.2869 8.33508 16.3257 8.37816C16.3433 8.3979 16.3526 8.42339 16.3526 8.44959V15.4898C16.3526 15.548 16.3056 15.5946 16.2474 15.5946C16.2162 15.5946 16.1867 15.581 16.167 15.5569L8.33011 6.17621C8.07488 5.87503 7.7001 5.70129 7.30558 5.70093H7.03168C6.29039 5.70093 5.68945 6.30185 5.68945 7.04313V16.9587C5.68945 17.7 6.29039 18.3009 7.03168 18.3009C7.49835 18.3009 7.93164 18.059 8.17611 17.6612L10.8099 13.7509C10.8957 13.6221 10.8609 13.4483 10.732 13.3625C10.6276 13.2929 10.4894 13.3015 10.3942 13.3833L7.80169 15.632C7.75861 15.6707 7.6922 15.6668 7.65343 15.6237C7.63584 15.604 7.62651 15.5785 7.62687 15.5523V8.51026C7.62687 8.45211 7.67389 8.40544 7.73205 8.40544C7.76292 8.40544 7.79272 8.41908 7.81246 8.44313L15.6483 17.8256C15.9035 18.1268 16.2783 18.3006 16.6728 18.3009H16.9467C17.688 18.3013 18.2893 17.7007 18.29 16.9594V7.04313C18.29 6.30185 17.6891 5.70093 16.9478 5.70093H16.9474Z" fill="white"/>
</svg>
