<svg width="24" height="24" viewBox="0 0 24 24" fill="none" xmlns="http://www.w3.org/2000/svg">
<g clip-path="url(#clip0_2827_41355)">
<path d="M12 24C18.6274 24 24 18.6274 24 12C24 5.37258 18.6274 0 12 0C5.37258 0 0 5.37258 0 12C0 18.6274 5.37258 24 12 24Z" fill="#28292F"/>
<g clip-path="url(#clip1_2827_41355)">
<path d="M12.1999 3C16.3973 3 19.7999 6.40263 19.7999 10.6C19.7999 14.5455 16.7936 17.7885 12.9469 18.1636C12.9691 17.8911 12.9643 17.617 12.9333 17.345C12.7124 15.4146 11.1907 13.8908 9.26088 13.6677V3.59986L9.25708 3.59117C10.162 3.21063 11.1565 3 12.1999 3Z" fill="white"/>
<path d="M8.31031 13.6666V4.07759L8.30651 4.07162C8.6116 3.88922 8.92917 3.72853 9.25651 3.59119L9.26031 3.59987V13.6677C11.1902 13.8908 12.7123 15.4146 12.9327 17.345C12.9642 17.617 12.9686 17.8911 12.9463 18.1636C12.7009 18.1875 12.4518 18.1995 12.1999 18.2C9.5616 18.2 7.23708 16.8559 5.87451 14.8148C6.53517 14.1742 7.39017 13.7703 8.30488 13.6672H8.31031V13.6666Z" fill="#28292F"/>
<path d="M12.9471 18.1636C12.7886 20.1125 11.2719 21.7422 9.25571 21.9729C6.96213 22.2351 4.89005 20.5886 4.62785 18.295C4.47422 16.9531 4.97419 15.6866 5.87533 14.8148C7.23791 16.8559 9.56242 18.2 12.2007 18.2C12.4526 18.1995 12.7012 18.1875 12.9471 18.1636Z" fill="white"/>
<path d="M8.31047 4.07763V13.6667H8.30504C7.39033 13.7698 6.53587 14.1731 5.87467 14.8143C5.06961 13.608 4.60059 12.1591 4.60059 10.6001C4.60059 7.82606 6.08693 5.3984 8.30721 4.07166L8.31047 4.07763Z" fill="white"/>
</g>
</g>
<defs>
<clipPath id="clip0_2827_41355">
<rect width="24" height="24" fill="white"/>
</clipPath>
<clipPath id="clip1_2827_41355">
<rect width="15.2" height="19" fill="white" transform="translate(4.6001 3)"/>
</clipPath>
</defs>
</svg>
