<svg width="24" height="24" viewBox="0 0 24 24" fill="none" xmlns="http://www.w3.org/2000/svg">
<path d="M12 24C18.6274 24 24 18.6274 24 12C24 5.37259 18.6274 0 12 0C5.37258 0 0 5.37259 0 12C0 18.6274 5.37258 24 12 24Z" fill="#28292F"/>
<path d="M15.4628 14.5949L18.8578 12.6345C19.0376 12.5306 19.1489 12.3376 19.1489 12.1298V8.20954C19.1489 8.00228 19.0372 7.80874 18.8578 7.70487L15.4628 5.74447C15.283 5.6406 15.06 5.64109 14.8802 5.74447L11.4852 7.70487C11.3053 7.80874 11.1941 8.00228 11.1941 8.20954V15.2157L8.81332 16.5901L6.43252 15.2157V12.4665L8.81332 11.0921L10.3837 11.9985V10.1543L9.10436 9.41586C9.01617 9.36491 8.91523 9.33796 8.81283 9.33796C8.71042 9.33796 8.60949 9.36491 8.52178 9.41586L5.12674 11.3763C4.94692 11.4801 4.83569 11.6732 4.83569 11.8809V15.8012C4.83569 16.0085 4.94741 16.202 5.12674 16.3059L8.52178 18.2663C8.70111 18.3697 8.92454 18.3697 9.10436 18.2663L12.4994 16.3064C12.6792 16.2025 12.7905 16.009 12.7905 15.8017V8.79555L12.8336 8.77106L15.1712 7.42117L17.552 8.79555V11.5448L15.1712 12.9192L13.6033 12.0137V13.858L14.8802 14.5954C15.06 14.6988 15.283 14.6988 15.4628 14.5954V14.5949Z" fill="white"/>
</svg>
