<svg width="24" height="24" viewBox="0 0 24 24" fill="none" xmlns="http://www.w3.org/2000/svg">
<g clip-path="url(#clip0_2818_31627)">
<rect width="24" height="24" rx="12" fill="white"/>
<g clip-path="url(#clip1_2818_31627)">
<path fill-rule="evenodd" clip-rule="evenodd" d="M11.9694 24.0612C15.5343 24.0612 18.7371 22.5106 20.9401 20.0472C19.9153 19.1566 18.3709 19.1025 17.2799 19.9828L17.0715 20.151C15.074 21.7628 12.1633 21.5248 10.4541 19.6098C9.52196 18.5654 7.92551 18.4588 6.86272 19.3699L4.45971 21.43C6.51788 23.0766 9.12869 24.0612 11.9694 24.0612ZM15.8701 18.2356C17.7727 16.7003 20.447 16.7554 22.2769 18.2382C23.3707 16.4259 24 14.3017 24 12.0306C24 9.50697 23.223 7.16485 21.8952 5.23043C21.0392 5.04813 20.1113 5.26105 19.407 5.88518L19.2065 6.06281C17.2855 7.76513 14.367 7.66169 12.5713 5.82766C11.5919 4.82737 9.99222 4.79452 8.9726 5.75377L6.17618 8.38462L4.63783 6.74948L7.43424 4.1186C9.34422 2.32169 12.3409 2.38323 14.1755 4.25702C15.134 5.23609 16.6921 5.2913 17.7176 4.38255L17.918 4.20492C18.5406 3.65328 19.2607 3.28139 20.0149 3.0858C17.8834 1.16746 15.0628 0 11.9694 0C5.86223 0 0.817902 4.55063 0.0422493 10.4461C1.89725 9.55591 4.18539 9.89845 5.69786 11.4473C6.6527 12.4251 8.19017 12.5283 9.26711 11.6869L10.8306 10.4654C12.7957 8.93026 15.5734 9.00456 17.4536 10.6426L20.4976 13.2947L19.0229 14.9874L15.9788 12.3354C14.9097 11.4039 13.3302 11.3616 12.2128 12.2346L10.6493 13.4561C8.67061 15.0019 5.84591 14.8123 4.09162 13.0158C3.07151 11.9712 1.4031 11.9347 0.33835 12.9339L0 13.2513C0.253212 15.764 1.27965 18.0486 2.83776 19.8634L5.40149 17.6655C7.39236 15.9586 10.3829 16.1584 12.1291 18.1149C13.0415 19.1372 14.5953 19.2642 15.6616 18.4037L15.8701 18.2356Z" fill="#28292F"/>
</g>
</g>
<defs>
<clipPath id="clip0_2818_31627">
<rect width="24" height="24" rx="12" fill="white"/>
</clipPath>
<clipPath id="clip1_2818_31627">
<rect width="24" height="24.0612" fill="white"/>
</clipPath>
</defs>
</svg>
