<svg width="24" height="24" viewBox="0 0 24 24" fill="none" xmlns="http://www.w3.org/2000/svg">
<path d="M23.6433 14.8962C22.042 21.3208 15.5349 25.244 9.0985 23.6417C2.67383 22.0356 -1.24298 15.5284 0.358284 9.1038C1.95955 2.67916 8.46271 -1.24396 14.8835 0.358273C21.3238 1.94087 25.2406 8.46762 23.6433 14.8962Z" fill="#28292F"/>
<path d="M19.4123 15.7051L16.9361 18.2922C16.8822 18.3484 16.8171 18.3932 16.7447 18.4238C16.6724 18.4544 16.5943 18.4702 16.5154 18.4702H4.77697C4.72096 18.4702 4.66617 18.4542 4.61933 18.4243C4.5725 18.3944 4.53565 18.3518 4.51333 18.3018C4.491 18.2517 4.48417 18.1964 4.49367 18.1426C4.50316 18.0889 4.52858 18.039 4.56679 17.9991L7.04486 15.412C7.09855 15.3559 7.16347 15.3112 7.2356 15.2806C7.30775 15.25 7.38557 15.2341 7.46427 15.234H19.202C19.258 15.234 19.3128 15.2499 19.3597 15.2798C19.4065 15.3098 19.4433 15.3524 19.4657 15.4024C19.488 15.4525 19.4948 15.5077 19.4853 15.5615C19.4758 15.6153 19.4504 15.6652 19.4123 15.7051ZM16.9361 10.4954C16.8822 10.4392 16.8171 10.3944 16.7447 10.3638C16.6724 10.3332 16.5943 10.3174 16.5154 10.3174H4.77697C4.72096 10.3174 4.66617 10.3334 4.61933 10.3633C4.5725 10.3932 4.53565 10.4358 4.51333 10.4858C4.491 10.5359 4.48417 10.5912 4.49367 10.645C4.50316 10.6987 4.52858 10.7486 4.56679 10.7886L7.04486 13.3757C7.09855 13.4317 7.16347 13.4764 7.2356 13.507C7.30775 13.5376 7.38557 13.5535 7.46427 13.5536H19.202C19.258 13.5536 19.3128 13.5377 19.3597 13.5078C19.4065 13.4778 19.4433 13.4353 19.4657 13.3852C19.488 13.3352 19.4948 13.2799 19.4853 13.2261C19.4758 13.1723 19.4504 13.1224 19.4123 13.0825L16.9361 10.4954ZM4.77697 8.63709H16.5154C16.5943 8.63712 16.6724 8.62135 16.7447 8.59073C16.8171 8.5601 16.8822 8.51529 16.9361 8.4591L19.4123 5.872C19.4504 5.8321 19.4758 5.7822 19.4853 5.72843C19.4948 5.67465 19.488 5.61935 19.4657 5.56931C19.4433 5.51926 19.4065 5.47667 19.3597 5.44674C19.3128 5.41682 19.258 5.40088 19.202 5.40088H7.46427C7.38557 5.40101 7.30775 5.41687 7.2356 5.44749C7.16347 5.47811 7.09855 5.52282 7.04486 5.57887L4.56743 8.16597C4.52926 8.20582 4.50385 8.25568 4.49433 8.30938C4.48481 8.3631 4.49159 8.41836 4.51384 8.46838C4.53608 8.5184 4.57283 8.56099 4.61957 8.59096C4.66631 8.62093 4.72102 8.63696 4.77697 8.63709Z" fill="white"/>
</svg>
