<svg width="24" height="24" viewBox="0 0 24 24" fill="none" xmlns="http://www.w3.org/2000/svg">
<rect width="24" height="24" rx="12" fill="#28292F"/>
<path fill-rule="evenodd" clip-rule="evenodd" d="M16.2683 10.5071L16.2679 10.5079C17.0023 11.4287 17.4411 12.5949 17.4411 13.8634C17.4411 15.1507 16.9891 16.3327 16.235 17.2597L16.17 17.3396L16.1528 17.2381C16.1382 17.1519 16.121 17.0648 16.101 16.977C15.7236 15.3187 14.4939 13.8967 12.4699 12.7453C11.1032 11.97 10.3209 11.0363 10.1155 9.97552C9.98283 9.28958 10.0815 8.6006 10.272 8.01045C10.4626 7.4205 10.746 6.92622 10.9868 6.62865L10.987 6.62845L11.7743 5.66574C11.9123 5.49692 12.1707 5.49692 12.3088 5.66574L16.2683 10.5071ZM17.5136 9.54527L17.5137 9.54491L12.2366 3.0924C12.1358 2.9692 11.9472 2.9692 11.8464 3.0924L6.56926 9.54498L6.5694 9.54534L6.55223 9.56664C5.58113 10.7717 5 12.303 5 13.9701C5 17.8525 8.15253 21 12.0415 21C15.9305 21 19.083 17.8525 19.083 13.9701C19.083 12.3031 18.5019 10.7717 17.5308 9.56664L17.5136 9.54527ZM7.83193 10.4863L7.83214 10.4861L8.30414 9.90889L8.31841 10.0154C8.32972 10.0998 8.34342 10.1847 8.35967 10.2699C8.66508 11.8723 9.75609 13.2084 11.5801 14.2432C13.1657 15.1456 14.0888 16.1833 14.3548 17.3213C14.4658 17.7963 14.4856 18.2635 14.4375 18.6721L14.4345 18.6974L14.4117 18.7086C13.696 19.0582 12.8916 19.2544 12.0413 19.2544C9.05919 19.2544 6.64155 16.8408 6.64155 13.8634C6.64155 12.585 7.08722 11.4104 7.83193 10.4863Z" fill="white"/>
</svg>
