<svg width="24" height="24" viewBox="0 0 24 24" fill="none" xmlns="http://www.w3.org/2000/svg">
<g clip-path="url(#clip0_2818_31628)">
<path d="M11.7233 0H12.2764C12.2952 0.0046875 12.3139 0.009375 12.3327 0.0140625C12.4405 0.01875 12.5483 0.01875 12.6561 0.028125C12.9327 0.0515625 13.2093 0.065625 13.4858 0.103125C13.8327 0.15 14.1843 0.20625 14.5311 0.276563C15.2905 0.435938 16.0311 0.670312 16.7436 0.979687C20.1468 2.44687 22.6827 5.4 23.6155 8.98594C23.728 9.4125 23.8124 9.84844 23.878 10.2844C23.9155 10.5422 23.9436 10.8047 23.9624 11.0625C23.9811 11.2641 23.9811 11.4703 23.9905 11.6719C23.9952 11.6906 23.9999 11.7047 24.0046 11.7234V12.2766C23.9999 12.2859 23.9952 12.2953 23.9905 12.3094C23.9858 12.4266 23.9858 12.5438 23.9764 12.6609C23.9577 12.9 23.9483 13.1391 23.9155 13.3781C23.8639 13.7625 23.8077 14.1422 23.7327 14.5219C23.5405 15.4359 23.2405 16.3219 22.8374 17.1609C22.0264 18.8625 20.8311 20.3438 19.3405 21.4922C18.0702 22.4813 16.6171 23.1984 15.0608 23.6016C14.3905 23.7797 13.7108 23.8969 13.0171 23.9484C12.7218 23.9719 12.4264 23.9812 12.1311 23.9953C11.9811 24 11.8264 23.9953 11.6764 23.9859C11.4046 23.9719 11.128 23.9625 10.8561 23.9344C10.5796 23.9062 10.303 23.8687 10.0264 23.8266C9.44051 23.7328 8.86395 23.5969 8.30145 23.4094C4.46239 22.1719 1.51395 19.0875 0.435823 15.2062C0.234261 14.4891 0.103011 13.7578 0.0467608 13.0125C0.0280108 12.7359 0.0092608 12.4547 -0.000114196 12.1781C-0.0048017 12.0141 -0.000114196 11.8453 0.0092608 11.6812C0.0280108 11.3625 0.0420733 11.0484 0.0701983 10.7344C0.0983233 10.4391 0.140511 10.1391 0.192073 9.84844C0.318636 9.13125 0.515511 8.42813 0.778011 7.74844C2.16082 4.11563 5.21707 1.37344 8.98114 0.39375C9.4077 0.28125 9.84364 0.196875 10.2796 0.13125C10.5374 0.09375 10.7999 0.065625 11.0577 0.046875C11.2639 0.028125 11.4702 0.028125 11.6718 0.01875C11.6952 0.009375 11.7093 0.0046875 11.7233 0ZM11.9952 20.8312C16.8702 20.8547 20.803 16.8703 20.8358 12.1031C20.8686 7.14375 16.8983 3.22969 12.1077 3.17813C7.08739 3.12656 3.22489 7.13906 3.17332 11.8969C3.11707 16.9031 7.18114 20.85 11.9952 20.8312Z" fill="#28292F"/>
<path d="M11.9953 20.8313C7.1812 20.8547 3.11714 16.9078 3.1687 11.8969C3.22026 7.14376 7.08276 3.12657 12.1031 3.17813C16.8937 3.2297 20.864 7.14376 20.8312 12.1031C20.8078 16.8703 16.8749 20.85 11.9953 20.8313ZM16.739 9.33751C16.7109 9.31407 16.6921 9.29532 16.6734 9.28126C16.5749 9.20626 16.4812 9.12657 16.3828 9.05157C14.9531 7.94532 13.3218 7.12032 11.5828 6.62345C10.8046 6.39376 10.0031 6.25782 9.19682 6.21563C8.89682 6.20157 8.59682 6.21563 8.29682 6.22501C8.00151 6.23438 7.7062 6.27188 7.41557 6.33282C6.91401 6.43595 6.43589 6.60001 5.99995 6.87188C5.58745 7.12501 5.24995 7.48595 5.02964 7.92188C4.79526 8.38595 4.74839 8.88751 4.79995 9.39845C4.84214 9.76876 4.94057 10.1344 5.0812 10.4766C5.32495 11.0906 5.67182 11.6438 6.07495 12.1688C6.50151 12.7172 6.97964 13.2188 7.50464 13.6688C7.64995 13.8 7.87026 13.8094 8.02026 13.6828C8.81245 13.0594 9.64214 12.4922 10.5093 11.9813C10.7062 11.8734 10.8281 11.6719 10.8328 11.4516C10.8515 11.1563 10.8703 10.8563 10.8937 10.5609C10.9124 10.3313 10.9359 10.1016 10.9687 9.87188C11.0249 9.50157 11.0859 9.12657 11.1609 8.76095C11.264 8.23126 11.4046 7.70626 11.5828 7.19532C11.6109 7.07813 11.7328 7.00782 11.8499 7.03595C11.8593 7.04063 11.8687 7.04063 11.8781 7.04532C11.9624 7.07345 12.0515 7.10157 12.1359 7.1297C12.2953 7.18126 12.3515 7.28907 12.2953 7.44845C12.0281 8.25938 11.8359 9.09376 11.7281 9.93751C11.6765 10.3359 11.639 10.7344 11.6062 11.1328C11.5828 11.4703 11.5781 11.8125 11.5687 12.15C11.564 12.3422 11.5734 12.5391 11.5781 12.7313C11.5781 12.8391 11.5828 12.9422 11.5874 13.05C11.6109 13.4016 11.6296 13.7531 11.6624 14.1C11.6859 14.3672 11.7187 14.6344 11.7609 14.9016C11.8218 15.2719 11.9015 15.6422 11.9765 16.0125C12.0187 16.2094 11.939 16.3688 11.7515 16.4484C11.6156 16.5047 11.4796 16.5563 11.3437 16.6125C11.1515 16.6922 10.9312 16.6875 10.7484 16.5938C10.0593 16.275 9.3937 15.9188 8.74682 15.5203C7.54214 14.7563 6.45464 13.8563 5.55932 12.7359C5.10464 12.1641 4.71557 11.55 4.43432 10.875C4.36401 10.7016 4.30307 10.5234 4.24214 10.3453C4.22807 10.3031 4.20464 10.2656 4.15776 10.2797C4.12964 10.2891 4.10151 10.3125 4.09214 10.3406C3.9937 10.7625 3.93745 11.1891 3.92339 11.6203C3.91401 11.9766 3.92339 12.3375 3.94682 12.6938C3.96557 12.9797 4.00307 13.2609 4.05932 13.5422C4.17182 14.1563 4.35932 14.7563 4.61714 15.3234C4.79526 15.7125 5.00151 16.0875 5.23589 16.4438C5.2687 16.5141 5.3437 16.5516 5.4187 16.5422C5.48901 16.5328 5.54995 16.4813 5.5687 16.4109C5.59682 16.35 5.62495 16.2891 5.65776 16.2281C5.95307 15.6938 6.34214 15.2297 6.77339 14.7984C6.87651 14.7 7.04057 14.6906 7.15307 14.7797C7.19995 14.8125 7.24214 14.85 7.28432 14.8828C7.41089 14.9766 7.43901 15.1547 7.34526 15.2813C7.33589 15.2953 7.32182 15.3094 7.30776 15.3234C7.01245 15.6141 6.74526 15.9328 6.51089 16.2703C6.34214 16.5234 6.18745 16.7859 6.12182 17.0859C6.05151 17.3953 6.14526 17.5922 6.4312 17.7234C6.64682 17.8172 6.87651 17.8688 7.11089 17.8734C7.32182 17.8828 7.53276 17.8828 7.73901 17.8641C8.07182 17.8313 8.40932 17.7938 8.73745 17.7281C9.52026 17.5688 10.2937 17.3484 11.039 17.0625C12.1031 16.6641 13.139 16.1953 14.1421 15.6563C15.3328 15.0234 16.4624 14.2922 17.5218 13.4625C17.5781 13.425 17.6109 13.3594 17.6109 13.2938C17.6249 13.0219 17.6484 12.75 17.6578 12.4828C17.6671 12.2484 17.6671 12.0141 17.6718 11.7797C17.6718 11.6766 17.6671 11.5734 17.6624 11.4703C17.6531 11.2406 17.6531 11.0109 17.639 10.7813C17.6203 10.5 17.5968 10.2188 17.564 9.9422C17.5265 9.62345 17.4843 9.30001 17.4328 8.98126C17.3203 8.28751 17.1421 7.60782 16.9031 6.94688C16.7156 6.42657 16.4812 5.9297 16.1624 5.4797C15.9562 5.18438 15.7171 4.91251 15.4078 4.72032C15.0562 4.50001 14.6859 4.43907 14.2874 4.58907C14.0578 4.68282 13.8468 4.81876 13.6687 4.9922C13.3593 5.28282 13.1203 5.6297 12.9093 6.00001C12.8343 6.13595 12.8718 6.24376 13.0171 6.30001C14.3484 6.81563 15.6046 7.51407 16.7437 8.37657C16.9218 8.50782 17.0437 8.70001 17.0859 8.91563C17.1234 9.10313 17.1562 9.28595 17.1796 9.47345C17.2171 9.77813 17.0578 10.0219 16.7812 10.0922C15.9281 10.3078 15.0937 10.5844 14.2828 10.9172C13.5468 11.2172 12.8249 11.5547 12.1218 11.925C11.9812 11.9953 11.8781 11.9297 11.8781 11.775C11.8828 11.6531 11.8921 11.5359 11.8921 11.4141C11.8921 11.25 11.9624 11.1469 12.1171 11.0766C12.5671 10.8703 13.0078 10.65 13.4578 10.4531C14.3624 10.05 15.2953 9.7172 16.2515 9.4547C16.4156 9.4172 16.5703 9.3797 16.739 9.33751ZM11.9906 20.0906C12.3328 20.0859 12.6749 20.0625 13.0171 20.0156C13.0734 20.0156 13.1203 19.9781 13.139 19.9266C13.1531 19.875 13.1296 19.8188 13.0874 19.7906C12.7265 19.4859 12.4499 19.1156 12.2109 18.7125C12.0374 18.4125 11.8828 18.1031 11.7515 17.7844C11.7046 17.6719 11.6249 17.6391 11.5124 17.6813C10.6453 18.0141 9.75464 18.2813 8.84526 18.4688C8.47495 18.5438 8.10464 18.5953 7.72495 18.6188C7.66401 18.6234 7.61714 18.6375 7.59839 18.6984C7.57964 18.7594 7.61714 18.7969 7.6687 18.825C7.82339 18.9188 7.97339 19.0125 8.13276 19.1016C9.06089 19.6125 10.0828 19.9313 11.1328 20.0391C11.4187 20.0672 11.7046 20.0719 11.9906 20.0906ZM11.8687 5.90157C12.0468 5.90157 12.1546 5.83595 12.2249 5.70938C12.3937 5.39532 12.5953 5.10001 12.8156 4.82345C12.9843 4.61251 13.1718 4.42501 13.3828 4.25626C13.4249 4.22813 13.4437 4.17657 13.4296 4.12501C13.4203 4.07813 13.3781 4.04063 13.3312 4.03126C13.3031 4.02657 13.2749 4.02188 13.2468 4.0172C12.9234 3.98438 12.6046 3.94688 12.2812 3.92813C12.0515 3.91876 11.8218 3.91876 11.5921 3.93751C11.2828 3.96095 10.9781 3.98907 10.6734 4.03126C9.96089 4.14376 9.26245 4.3547 8.6062 4.65938C8.1562 4.86563 7.72964 5.11407 7.32651 5.40001C7.28901 5.42813 7.2562 5.45626 7.27495 5.50782C7.2937 5.5547 7.33589 5.55938 7.37807 5.55001C7.73432 5.48438 8.09057 5.44688 8.45151 5.43751C8.7562 5.43282 9.06089 5.4422 9.36557 5.45626C9.65151 5.47501 9.93745 5.50313 10.2234 5.54063C10.7015 5.60626 11.1749 5.7047 11.639 5.83595C11.7328 5.87345 11.8124 5.8922 11.8687 5.90157ZM14.5078 19.6172C14.6015 19.6031 14.6999 19.5938 14.789 19.5703C15.089 19.4953 15.3328 19.3313 15.5531 19.125C15.9374 18.7641 16.214 18.3281 16.4484 17.8594C16.4812 17.7984 16.4578 17.7188 16.3968 17.6859C16.3734 17.6766 16.3499 17.6672 16.3265 17.6719C16.1718 17.6766 16.0171 17.6906 15.8624 17.6906C15.614 17.6906 15.3656 17.6859 15.1218 17.6672C14.8687 17.6531 14.6109 17.6344 14.3624 17.5922C13.9874 17.5359 13.6171 17.4656 13.2468 17.3906C13.0593 17.3531 12.8718 17.2969 12.6843 17.25C12.614 17.2266 12.5343 17.2453 12.4828 17.3016C12.4359 17.3578 12.4265 17.4375 12.464 17.4984C12.6046 17.775 12.7312 18.0609 12.8812 18.3328C13.0781 18.7031 13.3499 19.0266 13.6828 19.2891C13.9218 19.4859 14.189 19.6078 14.5078 19.6172ZM10.814 12.6797C10.4953 12.8063 8.51714 14.1844 8.39057 14.3672C9.26245 14.9953 10.1999 15.5203 11.189 15.9422C10.9546 14.8688 10.8328 13.7766 10.814 12.6797ZM15.6562 16.95C15.8203 16.9453 15.9843 16.9406 16.1484 16.9313C16.3124 16.9219 16.4718 16.8938 16.6359 16.8844C16.8187 16.875 16.9171 16.7813 16.9734 16.6125C17.1796 15.975 17.339 15.3234 17.4468 14.6625C17.4562 14.6156 17.4562 14.5734 17.414 14.5453C17.3718 14.5219 17.3343 14.5406 17.2968 14.5688C17.1609 14.6672 17.025 14.7656 16.8843 14.8594C15.9374 15.5063 14.9484 16.0922 13.9265 16.6125C13.8843 16.6313 13.8515 16.6594 13.8562 16.7063C13.8609 16.7578 13.9031 16.7766 13.9499 16.7859C14.5124 16.8891 15.0843 16.9453 15.6562 16.95ZM19.6593 14.1094C19.6499 13.9734 19.6453 13.8328 19.6218 13.6969C19.5843 13.4813 19.5421 13.2703 19.4859 13.0594C19.4484 12.9188 19.289 12.8859 19.1812 12.9844C18.9515 13.2 18.7171 13.4156 18.4874 13.6313C18.4031 13.7016 18.3468 13.7953 18.3187 13.9031C18.2953 14.0063 18.2812 14.1141 18.2671 14.2219C18.2156 14.5359 18.1781 14.85 18.1124 15.1594C18.0374 15.5391 17.939 15.9141 17.8499 16.2891C17.8218 16.3734 17.8687 16.4672 17.9531 16.4953C17.9953 16.5094 18.0421 16.5047 18.0843 16.4813C18.1218 16.4625 18.1546 16.4438 18.1921 16.4297C18.5765 16.2281 18.914 15.9703 19.1718 15.6188C19.4953 15.1828 19.6687 14.6531 19.6593 14.1094ZM19.3546 9.14063C19.4624 9.14532 19.5187 9.07032 19.4859 8.9672C19.4812 8.94845 19.4718 8.9297 19.4625 8.91095C19.1249 8.10001 18.6562 7.35001 18.0749 6.68907C17.9109 6.50157 17.7328 6.32813 17.5593 6.1547C17.5359 6.13595 17.5031 6.13126 17.4703 6.14063C17.4374 6.1547 17.4187 6.1922 17.4328 6.22501C17.4328 6.2297 17.4328 6.2297 17.4374 6.23438C17.4515 6.26251 17.4609 6.29532 17.4703 6.32345C17.7843 7.10157 18.014 7.91251 18.1593 8.7422C18.1874 8.94845 18.3656 9.10313 18.5765 9.09376C18.7124 9.09376 18.8531 9.09845 18.989 9.10782C19.1109 9.11251 19.2328 9.12657 19.3546 9.14063ZM18.764 9.83438C18.7359 9.83438 18.7124 9.83438 18.6843 9.83438C18.6234 9.82501 18.5671 9.85782 18.5437 9.91407C18.5156 9.97501 18.5437 10.0219 18.5812 10.0641C18.6749 10.1766 18.7734 10.2844 18.8578 10.4016C19.0453 10.6547 19.2281 10.9125 19.4109 11.1703C19.4859 11.2734 19.6218 11.2734 19.6874 11.1656C19.7859 11.0016 19.8562 10.8188 19.8984 10.6359C19.9687 10.3172 19.8656 10.1156 19.5749 9.98907C19.5703 9.98438 19.5656 9.98438 19.5562 9.98438C19.3031 9.87188 19.0359 9.84376 18.764 9.83438ZM18.4218 12.4734H18.4124C18.4124 12.4781 18.4124 12.4875 18.4124 12.4922C18.4124 12.5344 18.4078 12.5766 18.4546 12.5953C18.5015 12.6141 18.5343 12.5906 18.5624 12.5578C18.689 12.4266 18.8156 12.3 18.9374 12.1688C19.0312 12.0703 19.0406 12 18.9703 11.8875C18.8437 11.6813 18.7124 11.4844 18.5812 11.2828C18.5531 11.2406 18.5203 11.2172 18.4734 11.2313C18.4265 11.2453 18.4171 11.2875 18.4171 11.3344C18.4218 11.7141 18.4218 12.0938 18.4218 12.4734ZM17.339 18.0469C17.3578 18.0375 17.3718 18.0281 17.3859 18.0188C17.4281 17.9813 17.4749 17.9438 17.5124 17.9016C17.639 17.7797 17.7656 17.6578 17.8874 17.5313C17.9062 17.5078 17.9156 17.475 17.9062 17.4422C17.8968 17.4 17.8593 17.3906 17.8171 17.3953C17.8078 17.3953 17.8031 17.3953 17.7937 17.4C17.6906 17.4281 17.5874 17.4609 17.4843 17.4938C17.4609 17.5031 17.4374 17.5172 17.4234 17.5406C17.3624 17.6766 17.3015 17.8078 17.2453 17.9484C17.2312 17.9953 17.2687 18.0469 17.339 18.0469ZM20.0859 12.1313C20.0812 12.1078 20.0812 12.0844 20.0812 12.0609C20.0812 12.0469 20.0718 12.0281 20.0624 12.0234C20.0484 12.0234 20.0343 12.0281 20.0203 12.0375C19.9546 12.0891 19.9453 12.1828 19.9968 12.2484C19.9968 12.2531 20.0015 12.2531 20.0015 12.2578C20.025 12.2859 20.0578 12.2813 20.0671 12.2438C20.0765 12.2063 20.0812 12.1734 20.0859 12.1313Z" fill="white"/>
<path d="M16.7388 9.33749C16.5701 9.37968 16.4107 9.41718 16.256 9.45937C15.2998 9.72187 14.367 10.0547 13.4623 10.4578C13.0123 10.6594 12.5717 10.8797 12.1217 11.0812C11.9717 11.1516 11.8967 11.2547 11.8967 11.4187C11.8967 11.5406 11.8873 11.6578 11.8826 11.7797C11.8779 11.9344 11.9857 12.0047 12.1263 11.9297C12.8295 11.5594 13.5513 11.2219 14.2873 10.9219C15.0982 10.5844 15.9326 10.3125 16.7857 10.0969C17.0623 10.0266 17.2217 9.7828 17.1842 9.47812C17.1607 9.29062 17.1279 9.10312 17.0904 8.9203C17.0482 8.70468 16.9263 8.51249 16.7482 8.38124C15.6092 7.51874 14.3529 6.8203 13.0217 6.30468C12.8763 6.24843 12.8388 6.13593 12.9138 6.00468C13.1248 5.63437 13.3638 5.29218 13.6732 4.99687C13.8513 4.82343 14.0623 4.68749 14.292 4.59374C14.6857 4.43905 15.0607 4.49999 15.4123 4.72499C15.7217 4.92187 15.9607 5.18905 16.167 5.48437C16.4857 5.93905 16.7154 6.43593 16.9076 6.95155C17.1467 7.61249 17.3248 8.29218 17.4373 8.98593C17.4888 9.30468 17.531 9.62343 17.5685 9.94687C17.6013 10.2281 17.6248 10.5047 17.6435 10.7859C17.6576 11.0156 17.6623 11.2453 17.667 11.475C17.6717 11.5781 17.6763 11.6812 17.6763 11.7844C17.6763 12.0187 17.6717 12.2531 17.6623 12.4875C17.6529 12.7594 17.6295 13.0312 17.6154 13.2984C17.6154 13.3641 17.5826 13.4297 17.5263 13.4672C16.467 14.2969 15.3326 15.0281 14.1467 15.6609C13.1482 16.2 12.1076 16.6687 11.0435 17.0672C10.2935 17.3531 9.52478 17.5734 8.74197 17.7328C8.41385 17.7984 8.07635 17.8359 7.74353 17.8687C7.5326 17.8875 7.32635 17.8922 7.11541 17.8781C6.88103 17.8734 6.65135 17.8219 6.43572 17.7281C6.14978 17.5922 6.05603 17.3953 6.12635 17.0906C6.19666 16.7906 6.34666 16.5281 6.51541 16.275C6.75447 15.9375 7.02166 15.6187 7.31228 15.3281C7.42947 15.2203 7.43885 15.0422 7.33103 14.925C7.31697 14.9109 7.30291 14.8969 7.28885 14.8875C7.24666 14.85 7.20447 14.8172 7.1576 14.7844C7.0451 14.6953 6.88103 14.7047 6.77791 14.8031C6.35135 15.2344 5.9576 15.6937 5.66228 16.2328C5.62947 16.2937 5.59666 16.3547 5.57322 16.4156C5.54978 16.4859 5.49353 16.5328 5.42322 16.5469C5.34822 16.5562 5.27322 16.5187 5.24041 16.4484C5.00603 16.0922 4.79978 15.7172 4.62166 15.3281C4.36385 14.7609 4.17635 14.1609 4.06385 13.5469C4.01228 13.2656 3.97478 12.9844 3.95135 12.6984C3.92791 12.3422 3.91853 11.9812 3.92791 11.625C3.94197 11.1937 3.99822 10.7672 4.09666 10.3453C4.10603 10.3172 4.13416 10.2937 4.16228 10.2844C4.20916 10.2703 4.2326 10.3078 4.24666 10.35C4.31228 10.5281 4.36853 10.7062 4.43885 10.8797C4.7201 11.5547 5.10916 12.1687 5.56385 12.7406C6.45916 13.8609 7.54197 14.7609 8.75135 15.525C9.39353 15.9234 10.0638 16.2844 10.7529 16.5984C10.9404 16.6922 11.156 16.6969 11.3482 16.6172C11.4842 16.5609 11.6201 16.5094 11.756 16.4531C11.9435 16.3734 12.0232 16.2141 11.981 16.0172C11.906 15.6469 11.831 15.2812 11.7654 14.9062C11.7185 14.6391 11.6904 14.3719 11.667 14.1047C11.6342 13.7531 11.6154 13.4062 11.592 13.0547C11.5873 12.9469 11.5826 12.8437 11.5826 12.7359C11.5779 12.5437 11.5685 12.3469 11.5732 12.1547C11.5826 11.8172 11.5873 11.475 11.6107 11.1375C11.6388 10.7391 11.6763 10.3406 11.7326 9.94218C11.8404 9.09374 12.0326 8.25937 12.2998 7.45312C12.356 7.29374 12.2998 7.18593 12.1404 7.13437C12.056 7.10624 11.9717 7.07812 11.8826 7.04999C11.7701 7.00312 11.6435 7.05937 11.5967 7.17187C11.592 7.18124 11.592 7.19062 11.5873 7.19999C11.4138 7.71093 11.2732 8.23593 11.1654 8.76562C11.0951 9.13593 11.0295 9.50624 10.9732 9.87655C10.9404 10.1062 10.917 10.3359 10.8982 10.5656C10.8748 10.8609 10.856 11.1562 10.8373 11.4562C10.8326 11.6766 10.706 11.8828 10.5138 11.9859C9.64666 12.4969 8.81697 13.0641 8.02478 13.6875C7.8701 13.8094 7.64978 13.8047 7.50916 13.6734C6.98416 13.2234 6.50603 12.7219 6.07947 12.1734C5.67635 11.6531 5.33416 11.0953 5.08572 10.4812C4.9451 10.1344 4.84666 9.77343 4.80447 9.40312C4.74822 8.89218 4.79978 8.39062 5.03416 7.92655C5.25447 7.4953 5.58728 7.12968 6.00447 6.87655C6.44041 6.60468 6.91853 6.44062 7.4201 6.33749C7.71072 6.27655 8.00603 6.23905 8.30135 6.22968C8.60135 6.2203 8.90135 6.20624 9.20135 6.2203C10.0123 6.26249 10.8138 6.39843 11.5873 6.62812C13.3263 7.12499 14.9576 7.94999 16.3873 9.05624C16.4857 9.13124 16.5795 9.21093 16.6779 9.28593C16.6967 9.2953 16.7107 9.30937 16.7388 9.33749Z" fill="#28292F"/>
<path d="M11.9906 20.0906C11.7047 20.0719 11.4187 20.0672 11.1375 20.0391C10.0828 19.9312 9.06559 19.6125 8.13747 19.1016C7.97809 19.0172 7.82809 18.9187 7.6734 18.825C7.62653 18.7969 7.58903 18.7594 7.60309 18.6984C7.62184 18.6375 7.66872 18.6234 7.72965 18.6187C8.10465 18.5953 8.47965 18.5437 8.84997 18.4687C9.75934 18.2812 10.65 18.0187 11.5172 17.6812C11.6297 17.6391 11.7093 17.6719 11.7562 17.7844C11.8875 18.1031 12.0422 18.4125 12.2156 18.7125C12.4547 19.1156 12.7312 19.4859 13.0922 19.7906C13.139 19.8187 13.1578 19.875 13.1437 19.9266C13.125 19.9781 13.0781 20.0156 13.0218 20.0156C12.675 20.0578 12.3328 20.0859 11.9906 20.0906Z" fill="#28292F"/>
<path d="M11.8686 5.90157C11.8171 5.88751 11.7327 5.87344 11.6483 5.85001C11.1842 5.72344 10.7108 5.62501 10.2327 5.55469C9.94675 5.51719 9.66081 5.48438 9.37487 5.47032C9.07018 5.45157 8.7655 5.44219 8.46081 5.45157C8.09987 5.46094 7.73893 5.49844 7.38737 5.56407C7.3405 5.57344 7.303 5.56876 7.28425 5.52188C7.2655 5.47032 7.29831 5.44219 7.33581 5.41407C7.73893 5.12813 8.1655 4.87969 8.6155 4.67344C9.27175 4.36876 9.9655 4.15313 10.6827 4.04532C10.9874 3.99844 11.2967 3.97032 11.6014 3.95157C11.8311 3.93282 12.0608 3.93282 12.2905 3.94219C12.6139 3.96094 12.9327 3.99844 13.2561 4.03126C13.2842 4.03594 13.3124 4.04063 13.3405 4.04532C13.3921 4.05001 13.4296 4.08751 13.4389 4.13907C13.453 4.19063 13.4342 4.24219 13.3921 4.27032C13.1811 4.43907 12.9936 4.62657 12.8249 4.83751C12.5999 5.11407 12.403 5.41407 12.2342 5.72344C12.1546 5.84063 12.0467 5.90157 11.8686 5.90157Z" fill="#28292F"/>
<path d="M14.5076 19.6172C14.1889 19.6078 13.9217 19.4812 13.6779 19.2937C13.3498 19.0312 13.0779 18.7078 12.8764 18.3375C12.7217 18.0656 12.5951 17.7797 12.4592 17.5031C12.4217 17.4422 12.4264 17.3625 12.4779 17.3062C12.5295 17.25 12.6092 17.2266 12.6795 17.2547C12.867 17.3016 13.0545 17.3578 13.242 17.3953C13.6123 17.4703 13.9873 17.5406 14.3576 17.5969C14.6107 17.6344 14.8639 17.6531 15.117 17.6719C15.3654 17.6859 15.6139 17.6906 15.8576 17.6953C16.0123 17.6953 16.167 17.6812 16.3217 17.6766C16.392 17.6719 16.4529 17.7234 16.4623 17.7937C16.4623 17.8172 16.4576 17.8406 16.4482 17.8641C16.2139 18.3328 15.9326 18.7687 15.5529 19.1297C15.3326 19.3359 15.0889 19.5047 14.7889 19.575C14.6998 19.5937 14.6014 19.6031 14.5076 19.6172Z" fill="#28292F"/>
<path d="M10.8141 12.6797C10.8281 13.7766 10.9547 14.8734 11.1891 15.9469C10.2 15.525 9.2625 14.9953 8.39062 14.3719C8.51719 14.1844 10.4953 12.8063 10.8141 12.6797Z" fill="#28292F"/>
<path d="M15.6562 16.95C15.0843 16.9453 14.5124 16.8891 13.9499 16.7859C13.903 16.7766 13.8608 16.7578 13.8562 16.7063C13.8515 16.6594 13.8843 16.6359 13.9265 16.6125C14.9483 16.0922 15.9374 15.5063 16.8843 14.8594C17.0202 14.7656 17.1608 14.6672 17.2968 14.5688C17.3343 14.5453 17.3671 14.5219 17.414 14.5453C17.4608 14.5734 17.4562 14.6109 17.4468 14.6625C17.339 15.3234 17.1796 15.975 16.9733 16.6125C16.9171 16.7813 16.8187 16.875 16.6358 16.8844C16.4718 16.8938 16.3124 16.9172 16.1483 16.9313C15.9843 16.9406 15.8202 16.9453 15.6562 16.95Z" fill="#28292F"/>
<path d="M19.6593 14.1094C19.664 14.6531 19.4953 15.1828 19.1718 15.6188C18.914 15.9703 18.5765 16.2281 18.1921 16.4297C18.1546 16.4484 18.1218 16.4672 18.0843 16.4813C18.0046 16.5234 17.9062 16.4953 17.864 16.4203C17.8406 16.3781 17.8359 16.3313 17.85 16.2891C17.939 15.9141 18.0328 15.5391 18.1125 15.1594C18.1734 14.85 18.2156 14.5359 18.2671 14.2219C18.2859 14.1141 18.2953 14.0063 18.3187 13.9031C18.3468 13.8 18.4078 13.7016 18.4875 13.6313C18.7171 13.4156 18.9515 13.2 19.1812 12.9844C19.2843 12.8859 19.4484 12.9188 19.4859 13.0594C19.5421 13.2703 19.5843 13.4813 19.6218 13.6969C19.65 13.8328 19.65 13.9734 19.6593 14.1094Z" fill="#28292F"/>
<path d="M19.3546 9.14061C19.2327 9.13124 19.1108 9.11249 18.9843 9.1078C18.8483 9.09843 18.7077 9.09843 18.5718 9.09374C18.3608 9.10311 18.1827 8.94843 18.1546 8.74218C18.0093 7.91249 17.7796 7.10624 17.4655 6.32342C17.4515 6.2953 17.4421 6.26249 17.4327 6.23436C17.414 6.20155 17.428 6.15936 17.4608 6.1453C17.4655 6.1453 17.4655 6.14061 17.4702 6.14061C17.503 6.13124 17.5358 6.13593 17.5593 6.15468C17.7327 6.32811 17.9108 6.50155 18.0749 6.68905C18.6562 7.3453 19.1296 8.0953 19.4624 8.91093C19.4718 8.92968 19.4765 8.94843 19.4858 8.96718C19.5233 9.0703 19.4624 9.1453 19.3546 9.14061Z" fill="#28292F"/>
<path d="M18.764 9.83437C19.0359 9.84375 19.3031 9.87187 19.5609 9.975C19.5656 9.975 19.5703 9.97968 19.5796 9.97968C19.8703 10.1062 19.9734 10.3078 19.9031 10.6266C19.8609 10.8141 19.7906 10.9922 19.6921 11.1562C19.6265 11.2687 19.4906 11.2687 19.4156 11.1609C19.2328 10.9031 19.05 10.6453 18.8625 10.3922C18.7781 10.275 18.6796 10.1672 18.5859 10.0547C18.5484 10.0078 18.5156 9.96562 18.5484 9.90468C18.5718 9.84843 18.6328 9.82031 18.689 9.825C18.7125 9.83437 18.7359 9.83437 18.764 9.83437Z" fill="#28292F"/>
<path d="M18.4218 12.4734C18.4218 12.0938 18.4218 11.7141 18.4218 11.3344C18.4218 11.2875 18.4265 11.25 18.4781 11.2313C18.5296 11.2125 18.5624 11.2406 18.5859 11.2828C18.7171 11.4844 18.8484 11.6859 18.9749 11.8875C19.0452 12 19.0312 12.0703 18.9421 12.1688C18.8202 12.3 18.6937 12.4266 18.5671 12.5578C18.5343 12.5906 18.5015 12.6141 18.4593 12.5953C18.4124 12.5766 18.4171 12.5344 18.4171 12.4922C18.4171 12.4875 18.4171 12.4781 18.4171 12.4734H18.4218Z" fill="#28292F"/>
<path d="M17.3389 18.0469C17.2686 18.0469 17.2311 17.9953 17.2545 17.939C17.3108 17.8031 17.3717 17.6672 17.4327 17.5312C17.4467 17.5078 17.4655 17.4937 17.4936 17.4844C17.5967 17.4515 17.6998 17.4234 17.803 17.3906C17.8123 17.3906 17.817 17.3859 17.8264 17.3859C17.8639 17.3812 17.9061 17.3906 17.9155 17.4328C17.9202 17.4656 17.9155 17.4984 17.8967 17.5219C17.7748 17.6484 17.6483 17.7703 17.5217 17.8922C17.4795 17.9344 17.4373 17.9719 17.3952 18.0094C17.3717 18.0281 17.353 18.0375 17.3389 18.0469Z" fill="#28292F"/>
<path d="M20.0859 12.1313C20.0812 12.1688 20.0765 12.2063 20.0718 12.2438C20.0625 12.2813 20.0297 12.2859 20.0062 12.2578C19.95 12.1969 19.9547 12.1031 20.0156 12.0469C20.0203 12.0422 20.0203 12.0422 20.025 12.0422C20.0343 12.0328 20.0531 12.0281 20.0672 12.0281C20.0765 12.0328 20.0859 12.0516 20.0859 12.0656C20.0812 12.0844 20.0812 12.1078 20.0859 12.1313Z" fill="#7B2BF9"/>
</g>
<defs>
<clipPath id="clip0_2818_31628">
<rect width="24" height="24" fill="white"/>
</clipPath>
</defs>
</svg>
