<svg width="24" height="24" viewBox="0 0 24 24" fill="none" xmlns="http://www.w3.org/2000/svg">
<g clip-path="url(#clip0_2751_36342)">
<circle cx="12" cy="12" r="12" fill="#28292F"/>
<path d="M10.8809 6.92938C10.6938 6.90265 10.6849 6.89374 10.774 6.88483C10.9433 6.8581 11.3353 6.89374 11.6116 6.95611C12.2531 7.10759 12.8322 7.49963 13.447 8.1857L13.6074 8.37281L13.8391 8.33717C14.8281 8.17679 15.8438 8.30153 16.6903 8.69358C16.9219 8.8005 17.2873 9.01434 17.3318 9.0678C17.3496 9.08562 17.3764 9.20145 17.3942 9.31728C17.4566 9.73605 17.4298 10.0479 17.2962 10.2885C17.2249 10.4221 17.2249 10.4578 17.2694 10.5736C17.3051 10.6627 17.412 10.7251 17.51 10.7251C17.7239 10.7251 17.9466 10.3865 18.0535 9.91425L18.0981 9.72714L18.1783 9.81624C18.6327 10.3241 18.9891 11.028 19.0425 11.527L19.0604 11.6606L18.9802 11.5448C18.8465 11.3399 18.7218 11.2062 18.5525 11.0904C18.2495 10.8854 17.9288 10.8231 17.0823 10.7785C16.3161 10.734 15.8795 10.6716 15.4518 10.529C14.7212 10.2885 14.3469 9.97662 13.4827 8.82723C13.0995 8.31935 12.859 8.04314 12.6184 7.81148C12.0927 7.30361 11.567 7.0363 10.8809 6.92938Z" fill="white"/>
<path d="M17.5191 8.06092C17.5369 7.72234 17.5814 7.49959 17.6794 7.29466C17.7151 7.21447 17.7507 7.14319 17.7596 7.14319C17.7685 7.14319 17.7507 7.20556 17.724 7.27684C17.6527 7.47286 17.6438 7.74907 17.6883 8.06092C17.7507 8.46188 17.7774 8.51534 18.2051 8.95193C18.4011 9.15686 18.6328 9.41525 18.7219 9.52217L18.8734 9.7182L18.7219 9.57563C18.5348 9.39743 18.1071 9.05885 18.0091 9.0143C17.9467 8.97866 17.9378 8.97866 17.8933 9.02321C17.8576 9.05885 17.8487 9.11231 17.8487 9.3707C17.8398 9.77166 17.7864 10.0211 17.6527 10.2795C17.5814 10.4132 17.5725 10.3864 17.6349 10.235C17.6794 10.1191 17.6883 10.0657 17.6883 9.68256C17.6883 8.90738 17.5992 8.72027 17.0557 8.40842C16.9221 8.32823 16.6904 8.2124 16.5568 8.15003C16.4142 8.08765 16.3073 8.03419 16.3162 8.03419C16.334 8.01637 16.8597 8.16785 17.0646 8.25695C17.3765 8.38169 17.4299 8.3906 17.4656 8.38169C17.4923 8.35496 17.5101 8.28368 17.5191 8.06092Z" fill="white"/>
<path d="M11.2462 9.38857C10.872 8.87179 10.6314 8.06988 10.6849 7.47291L10.7027 7.2858L10.7918 7.30362C10.9522 7.33035 11.2284 7.43727 11.3621 7.51746C11.7185 7.7313 11.8789 8.02533 12.0303 8.75596C12.0749 8.9698 12.1372 9.21928 12.164 9.29947C12.2085 9.43312 12.3778 9.74497 12.5204 9.94099C12.6184 10.0836 12.556 10.1548 12.3333 10.137C11.9947 10.1014 11.5403 9.78952 11.2462 9.38857Z" fill="white"/>
<path d="M17.0647 13.2644C15.3005 12.5516 14.6768 11.9368 14.6768 10.8943C14.6768 10.7429 14.6857 10.6181 14.6857 10.6181C14.6946 10.6181 14.7569 10.6716 14.8371 10.734C15.1935 11.0191 15.5945 11.1438 16.7083 11.3042C17.3587 11.4022 17.7329 11.4735 18.0715 11.5893C19.1496 11.9457 19.8179 12.6764 19.9782 13.6654C20.0228 13.9505 19.9961 14.494 19.9248 14.7791C19.8624 15.0019 19.6842 15.4117 19.6397 15.4207C19.6308 15.4207 19.6129 15.3761 19.6129 15.3048C19.5951 14.9306 19.408 14.5742 19.0961 14.298C18.7219 13.9772 18.2408 13.7367 17.0647 13.2644Z" fill="white"/>
<path d="M15.8174 13.5585C15.7996 13.4249 15.755 13.2556 15.7283 13.1843L15.6837 13.0506L15.7639 13.1486C15.8798 13.2823 15.9689 13.4427 16.049 13.6654C16.1114 13.8347 16.1114 13.8882 16.1114 14.1644C16.1114 14.4317 16.1025 14.4941 16.049 14.6455C15.9599 14.8861 15.853 15.0554 15.6748 15.2425C15.3541 15.5722 14.9353 15.7504 14.3383 15.8306C14.2314 15.8395 13.9284 15.8662 13.6611 15.884C12.9929 15.9197 12.5474 15.9909 12.1464 16.1335C12.093 16.1513 12.0395 16.1691 12.0306 16.1602C12.0128 16.1424 12.289 15.982 12.5117 15.8751C12.8236 15.7236 13.1444 15.6435 13.8483 15.5187C14.1957 15.4653 14.5522 15.394 14.6413 15.3583C15.5233 15.0821 15.9599 14.396 15.8174 13.5585Z" fill="white"/>
<path d="M16.6282 14.993C16.3966 14.4851 16.3431 14.004 16.4678 13.5495C16.4857 13.505 16.5035 13.4604 16.5213 13.4604C16.5391 13.4604 16.5926 13.4872 16.646 13.5228C16.753 13.5941 16.9757 13.7188 17.546 14.0307C18.2677 14.4227 18.6775 14.7257 18.9627 15.0732C19.2121 15.3761 19.3636 15.7236 19.4349 16.1513C19.4794 16.3919 19.4527 16.971 19.3903 17.2116C19.1943 17.9689 18.7488 18.5748 18.0984 18.9223C18.0004 18.9758 17.9202 19.0114 17.9113 19.0114C17.9024 19.0114 17.938 18.9223 17.9915 18.8154C18.2053 18.361 18.232 17.9244 18.0716 17.4343C17.9736 17.1314 17.7687 16.7661 17.3588 16.1513C16.8688 15.4385 16.753 15.2514 16.6282 14.993Z" fill="white"/>
<path d="M9.98985 17.7195C10.6492 17.167 11.46 16.775 12.2084 16.6502C12.5292 16.5968 13.0638 16.6146 13.3578 16.6948C13.8301 16.8195 14.2578 17.0868 14.4805 17.4165C14.6944 17.7373 14.7924 18.0135 14.8904 18.6283C14.926 18.8689 14.9706 19.1183 14.9795 19.1718C15.0508 19.4926 15.1933 19.742 15.3715 19.8757C15.6477 20.0806 16.1289 20.0895 16.6011 19.9113C16.6813 19.8846 16.7526 19.8579 16.7526 19.8668C16.7704 19.8846 16.5298 20.045 16.3694 20.1252C16.1467 20.241 15.9685 20.2766 15.7279 20.2766C15.3002 20.2766 14.9349 20.0539 14.6409 19.6084C14.5785 19.5193 14.4538 19.2609 14.3469 19.0203C14.035 18.2986 13.8746 18.0848 13.5093 17.8442C13.1886 17.6393 12.7787 17.5947 12.4668 17.7462C12.057 17.9422 11.9501 18.4679 12.2352 18.7887C12.351 18.9223 12.5649 19.0292 12.7431 19.056C13.0727 19.1005 13.3578 18.8421 13.3578 18.5125C13.3578 18.2986 13.2777 18.1739 13.0638 18.0759C12.7787 17.9511 12.4668 18.0937 12.4758 18.3699C12.4758 18.4857 12.5292 18.557 12.645 18.6105C12.7163 18.6461 12.7163 18.6461 12.6629 18.6372C12.4045 18.5837 12.3421 18.263 12.547 18.058C12.7965 17.8086 13.3222 17.9155 13.5004 18.263C13.5717 18.4055 13.5806 18.6907 13.5182 18.8689C13.3668 19.2609 12.9391 19.4658 12.5025 19.35C12.2084 19.2698 12.0837 19.1896 11.7273 18.8243C11.1036 18.1828 10.863 18.058 9.97203 17.9244L9.80273 17.8977L9.98985 17.7195Z" fill="white"/>
<path fill-rule="evenodd" clip-rule="evenodd" d="M5.30334 3.38316C7.37938 5.90471 10.5781 9.82514 10.7385 10.039C10.8721 10.2172 10.8187 10.3865 10.5959 10.5112C10.4712 10.5825 10.2128 10.6538 10.088 10.6538C9.94548 10.6538 9.77619 10.5825 9.66036 10.4667C9.58017 10.3865 9.23267 9.8786 8.44859 8.65792C7.85162 7.72236 7.34374 6.94719 7.33483 6.93828C7.29919 6.92046 7.29919 6.92046 8.38622 8.86285C9.07229 10.0835 9.29504 10.5201 9.29504 10.5736C9.29504 10.6894 9.2594 10.7518 9.11684 10.9122C8.87627 11.1795 8.76935 11.4824 8.68916 12.115C8.60006 12.8189 8.35949 13.3179 7.67341 14.1643C7.27246 14.6633 7.21009 14.7524 7.11208 14.9573C6.98734 15.2068 6.9517 15.3494 6.93388 15.6701C6.91606 16.0087 6.9517 16.2226 7.04971 16.5433C7.13881 16.8284 7.23682 17.0156 7.47739 17.3809C7.68232 17.7016 7.80706 17.9422 7.80706 18.0313C7.80706 18.1026 7.82488 18.1026 8.14565 18.0313C8.91191 17.8531 9.54453 17.5502 9.89202 17.1759C10.1059 16.9443 10.1593 16.8195 10.1593 16.4988C10.1593 16.2938 10.1504 16.2493 10.0969 16.1245C10.0078 15.9285 9.83856 15.7681 9.47325 15.5187C8.9921 15.189 8.78717 14.9217 8.73371 14.5653C8.68916 14.2623 8.74262 14.0574 9.00992 13.4961C9.28613 12.9169 9.35742 12.6764 9.40197 12.0883C9.4287 11.7141 9.47325 11.5626 9.58017 11.4468C9.696 11.322 9.79401 11.2775 10.0702 11.2418C10.5246 11.1795 10.8187 11.0636 11.0503 10.8409C11.2553 10.6538 11.3444 10.4667 11.3533 10.1904L11.3622 9.98552L11.2463 9.86078C10.8276 9.37963 5.02713 3.00003 5.0004 3.00003C4.99149 3.00003 5.13405 3.16932 5.30334 3.38316ZM8.03873 16.0533C8.13674 15.884 8.08328 15.6701 7.9229 15.5632C7.77142 15.4652 7.53976 15.5098 7.53976 15.6434C7.53976 15.679 7.55758 15.7147 7.61104 15.7325C7.69123 15.7771 7.70014 15.8216 7.63777 15.9196C7.5754 16.0176 7.5754 16.1067 7.65559 16.1691C7.78033 16.2671 7.94963 16.2136 8.03873 16.0533Z" fill="white"/>
<path fill-rule="evenodd" clip-rule="evenodd" d="M11.6473 11.3667C11.4334 11.429 11.2285 11.6607 11.1661 11.8924C11.1305 12.0349 11.1483 12.2933 11.2107 12.3735C11.3087 12.4982 11.3978 12.5339 11.6473 12.5339C12.1373 12.5339 12.5561 12.32 12.6006 12.0616C12.6452 11.8478 12.4581 11.5538 12.1997 11.4201C12.066 11.3488 11.7898 11.3221 11.6473 11.3667ZM12.2175 11.8122C12.2888 11.7052 12.2621 11.5894 12.1284 11.5092C11.8878 11.3577 11.5225 11.4825 11.5225 11.7142C11.5225 11.83 11.7096 11.9547 11.8878 11.9547C12.0037 11.9547 12.164 11.8834 12.2175 11.8122Z" fill="white"/>
</g>
<defs>
<clipPath id="clip0_2751_36342">
<rect width="24" height="24" fill="white"/>
</clipPath>
</defs>
</svg>
