<svg width="24" height="24" viewBox="0 0 24 24" fill="none" xmlns="http://www.w3.org/2000/svg">
<path d="M23.6433 14.8962C22.042 21.3208 15.5349 25.244 9.0985 23.6417C2.67383 22.0356 -1.24298 15.5285 0.358284 9.1038C1.95955 2.67916 8.46271 -1.24396 14.8835 0.358273C21.3238 1.94087 25.2406 8.46762 23.6433 14.8962Z" fill="#28292F"/>
<path d="M17.3735 5.73401H19.5392L15.0272 10.2962C13.3928 11.9506 10.7458 11.9506 9.11143 10.2962L4.5994 5.73401H6.76517L10.1943 9.20326C11.207 10.236 12.8815 10.246 13.9142 9.23334C13.9243 9.22332 13.9343 9.21329 13.9443 9.20326L17.3735 5.73401ZM6.74512 18.4178H4.57935L9.12146 13.8256C10.7558 12.1712 13.4029 12.1712 15.0372 13.8256L19.5793 18.4178H17.4136L13.9644 14.9285C12.9517 13.8958 11.2772 13.8858 10.2445 14.8985C10.2344 14.9085 10.2244 14.9185 10.2144 14.9285L6.74512 18.4178Z" fill="white"/>
</svg>
