<svg width="24" height="24" viewBox="0 0 24 24" fill="none" xmlns="http://www.w3.org/2000/svg">
<path d="M23.6433 14.8962C22.042 21.3208 15.5349 25.244 9.0985 23.6417C2.67383 22.0356 -1.24298 15.5285 0.358284 9.1038C1.95955 2.67916 8.46271 -1.24396 14.8835 0.358273C21.3238 1.94087 25.2406 8.46762 23.6433 14.8962Z" fill="#28292F"/>
<g clip-path="url(#clip0_2818_31629)">
<path d="M11.7924 4.00229C11.1598 4.00541 10.5341 4.13247 9.95088 4.37623C9.36769 4.61999 8.83847 4.9757 8.39345 5.42298C7.94844 5.87026 7.59633 6.40038 7.35725 6.98308C7.11817 7.56576 6.9968 8.1896 7.00006 8.81897V10.4099H10.8938V8.10494C10.8938 7.99669 10.9152 7.88949 10.9568 7.78947C10.9984 7.68945 11.0594 7.59857 11.1363 7.52201C11.2133 7.44546 11.3046 7.38476 11.4051 7.34334C11.5056 7.30192 11.6134 7.28062 11.7222 7.28064H11.8626C11.9714 7.28062 12.0791 7.30193 12.1796 7.34334C12.2802 7.38476 12.3715 7.44546 12.4484 7.52201C12.5254 7.59857 12.5864 7.68945 12.6281 7.78947C12.6697 7.88949 12.6911 7.99668 12.6911 8.10494V14.2841C13.2024 14.2842 13.7087 14.184 14.1812 13.9893C14.6536 13.7946 15.0828 13.5092 15.4444 13.1494C15.806 12.7897 16.0928 12.3626 16.2885 11.8925C16.4842 11.4225 16.5848 10.9187 16.5848 10.4099V8.81897C16.5876 7.5438 16.0829 6.31936 15.1811 5.4133C14.7386 4.96618 14.2111 4.61115 13.6293 4.36891C13.0475 4.12666 12.4231 4.00203 11.7924 4.00229Z" fill="#F2F2F2"/>
<path d="M11.8627 17.4121H11.7224C11.6136 17.4121 11.5059 17.3908 11.4053 17.3494C11.3048 17.308 11.2135 17.2472 11.1366 17.1707C11.0597 17.0942 10.9987 17.0033 10.957 16.9033C10.9154 16.8033 10.894 16.6961 10.894 16.5879V10.4088C10.3827 10.4087 9.87632 10.5089 9.40388 10.7035C8.93145 10.8982 8.50219 11.1836 8.14062 11.5433C7.77904 11.9031 7.49222 12.3302 7.29655 12.8003C7.10089 13.2703 7.00021 13.7741 7.00025 14.2829V15.8517C6.99376 16.482 7.11293 17.1073 7.35086 17.6915C7.58879 18.2756 7.94076 18.8071 8.38642 19.2551C8.83208 19.7031 9.36258 20.0587 9.94724 20.3014C10.5319 20.5441 11.1591 20.6691 11.7926 20.6691C12.4262 20.6691 13.0534 20.5441 13.638 20.3014C14.2227 20.0587 14.7532 19.7031 15.1988 19.2551C15.6445 18.8071 15.9965 18.2756 16.2344 17.6915C16.4723 17.1073 16.5915 16.482 16.585 15.8517V14.2829H12.6913V16.5879C12.6913 16.6961 12.6698 16.8033 12.6282 16.9033C12.5865 17.0033 12.5255 17.0942 12.4486 17.1707C12.3716 17.2472 12.2803 17.308 12.1798 17.3494C12.0793 17.3908 11.9715 17.4121 11.8627 17.4121Z" fill="#F2F2F2"/>
</g>
<defs>
<clipPath id="clip0_2818_31629">
<rect width="10" height="16.6667" fill="white" transform="translate(7 4.00003)"/>
</clipPath>
</defs>
</svg>
