<svg width="100" height="100" viewBox="0 0 100 100" fill="none" xmlns="http://www.w3.org/2000/svg">
<g clip-path="url(#clip0_944_11254)">
<mask id="mask0_944_11254" style="mask-type:luminance" maskUnits="userSpaceOnUse" x="0" y="0" width="100" height="100">
<path d="M100 0H0V100H100V0Z" fill="white"/>
</mask>
<g mask="url(#mask0_944_11254)">
<path d="M50 98.5C76.7858 98.5 98.5 76.7858 98.5 50C98.5 23.2142 76.7858 1.5 50 1.5C23.2142 1.5 1.5 23.2142 1.5 50C1.5 76.7858 23.2142 98.5 50 98.5Z" fill="white"/>
<path d="M71.225 69.325L54.825 29.675C53.9 27.625 52.525 26.625 50.7125 26.625H49.2625C47.45 26.625 46.075 27.625 45.15 29.675L38.0125 46.95H32.6125C31 46.9625 29.6875 48.2625 29.675 49.8875V49.925C29.6875 51.5375 31 52.85 32.6125 52.8625H35.5125L28.7 69.325C28.575 69.6875 28.5 70.0625 28.5 70.45C28.5 71.375 28.7875 72.1 29.3 72.6625C29.8125 73.225 30.55 73.5 31.475 73.5C32.0875 73.4875 32.675 73.3 33.1625 72.9375C33.6875 72.575 34.05 72.05 34.3375 71.45L41.8375 52.85H47.0375C48.65 52.8375 49.9625 51.5375 49.975 49.9125V49.8375C49.9625 48.225 48.65 46.9125 47.0375 46.9H44.2625L49.9875 32.6375L65.5875 71.4375C65.875 72.0375 66.2375 72.5625 66.7625 72.925C67.25 73.2875 67.85 73.475 68.45 73.4875C69.375 73.4875 70.1 73.2125 70.625 72.65C71.15 72.0875 71.425 71.3625 71.425 70.4375C71.4375 70.0625 71.375 69.675 71.225 69.325Z" fill="black"/>
</g>
</g>
<defs>
<clipPath id="clip0_944_11254">
<rect width="100" height="100" fill="white"/>
</clipPath>
</defs>
</svg>
