<svg width="2500" height="2500" viewBox="0 0 2500 2500" fill="none" xmlns="http://www.w3.org/2000/svg">
<g clip-path="url(#clip0_567_3550)">
<path d="M226 760V1740C226 1803 259 1860 314 1892L1163 2382C1217 2413 1284 2413 1338 2382L2187 1892C2241 1861 2275 1803 2275 1740V760C2275 697 2242 640 2187 608L1338 118C1284 87 1217 87 1163 118L314 608C260 639 227 697 227 760H226Z" fill="#0F0F0F"/>
<path d="M1435 1440L1314 1772C1311 1781 1311 1791 1314 1801L1522 2372L1763 2233L1474 1440C1467 1422 1442 1422 1435 1440Z" fill="white"/>
<path d="M1678 882C1671 864 1646 864 1639 882L1518 1214C1515 1223 1515 1233 1518 1243L1859 2178L2100 2039L1678 883V882Z" fill="white"/>
<path d="M1250 155C1256 155 1262 157 1267 160L2185 690C2196 696 2202 708 2202 720V1780C2202 1792 2195 1804 2185 1810L1267 2340C1262 2343 1256 2345 1250 2345C1244 2345 1238 2343 1233 2340L315 1810C304 1804 298 1792 298 1780V719C298 707 305 695 315 689L1233 159C1238 156 1244 154 1250 154V155ZM1250 0C1217 0 1185 8 1155 25L237 555C178 589 142 651 142 719V1779C142 1847 178 1909 237 1943L1155 2473C1184 2490 1217 2498 1250 2498C1283 2498 1315 2490 1345 2473L2263 1943C2322 1909 2358 1847 2358 1779V719C2358 651 2322 589 2263 555L1344 25C1315 8 1282 0 1249 0H1250Z" fill="white"/>
<path d="M642 2179L727 1947L897 2088L738 2234L642 2179Z" fill="#0F0F0F"/>
<path d="M1172 644H939C922 644 906 655 900 671L401 2039L642 2178L1192 671C1197 657 1187 643 1173 643L1172 644Z" fill="white"/>
<path d="M1580 644H1347C1330 644 1314 655 1308 671L738 2233L979 2372L1599 671C1604 657 1594 643 1580 643V644Z" fill="white"/>
</g>
<defs>
<clipPath id="clip0_567_3550">
<rect width="2500" height="2500" fill="white"/>
</clipPath>
</defs>
</svg>
