<svg width="308" height="80" viewBox="0 0 308 80" fill="none" xmlns="http://www.w3.org/2000/svg">
<path d="M39.3196 62.9013L26.0389 79.7158H60.5808V62.9013H39.3196Z" fill="url(#paint0_linear_520_3484)"/>
<path d="M286.371 62.9013L273.09 79.7158H307.632V62.9013H286.371Z" fill="url(#paint1_linear_520_3484)"/>
<path d="M193.775 79.7527V62.7587C190.742 61.9636 188.136 60.508 185.958 58.3919C182.469 54.9522 180.724 50.4408 180.724 44.8576V0.142094H163.6V47.1009C163.6 57.021 166.89 64.997 173.471 71.0289C178.846 75.9194 185.614 78.8273 193.775 79.7527Z" fill="url(#paint2_linear_520_3484)"/>
<path d="M205.346 79.7843V62.8357C208.497 62.0594 211.182 60.5782 213.401 58.3919C216.84 55.0021 218.56 50.4907 218.56 44.8576V0.142094H235.684V47.1009C235.684 57.021 232.393 64.997 225.813 71.0289C220.416 75.9764 213.593 78.8948 205.346 79.7843Z" fill="url(#paint3_linear_520_3484)"/>
<path fill-rule="evenodd" clip-rule="evenodd" d="M151.794 46.7276C152.087 44.5826 152.233 42.3888 152.233 40.1462C152.233 28.6411 148.41 19.0859 140.763 11.4808C133.166 3.82694 123.645 0 112.2 0C104.7 0 97.8576 1.73065 91.6725 5.19196C85.5361 8.65326 80.7147 13.4308 77.2082 19.5247C73.7017 25.5698 71.9484 32.2974 71.9484 39.7075C71.9484 51.1639 75.942 60.7435 83.929 68.4461C91.9647 76.1487 99.8405 79.9468 111.918 79.9468V64.7611C106.841 64.3583 102.406 62.759 98.6124 59.9634C94.2293 56.6484 91.3559 52.2364 89.9923 46.7276H151.794ZM97.8819 20.0366C101.924 16.7703 106.648 15.1371 112.054 15.1371C117.509 15.1371 122.257 16.7703 126.299 20.0366C130.39 23.3029 133.069 27.6173 134.335 32.9799H89.8462C91.2098 27.6173 93.8884 23.3029 97.8819 20.0366Z" fill="url(#paint4_linear_520_3484)"/>
<path d="M10.8951 79.7158H0V67.0859L19.8579 42.0923H15.3108L35.1687 17.0987H0V0.284192H60.5808V9.59147L35.6719 42.0923H40.2189L27.3796 58.8449L10.8951 79.7158Z" fill="url(#paint5_linear_520_3484)"/>
<path d="M257.946 79.7158H247.051V67.0859L266.909 42.0923H262.362L282.22 17.0987H247.051V0.284192H307.632V9.59147L282.723 42.0923H287.27L274.431 58.8449L257.946 79.7158Z" fill="url(#paint6_linear_520_3484)"/>
<path d="M185.607 58.748L185.61 58.7505C187.762 60.8412 190.32 62.3047 193.275 63.1407V79.1894C185.454 78.2073 178.974 75.3592 173.808 70.6599C167.344 64.7339 164.1 56.898 164.1 47.1009V0.642094H180.224V44.8576C180.224 50.5543 182.009 55.201 185.607 58.748ZM140.409 11.8331L140.411 11.8353C147.956 19.3398 151.733 28.7643 151.733 40.1462C151.733 42.2164 151.607 44.2434 151.356 46.2276H89.9923H89.3534L89.507 46.8477C90.8971 52.4638 93.8332 56.9757 98.3108 60.3623L98.3158 60.3659C102.074 63.1361 106.447 64.7517 111.418 65.2197V79.4446C105.659 79.3935 100.891 78.4537 96.6041 76.625C92.1919 74.7429 88.2633 71.9081 84.275 68.0851C76.3899 60.4803 72.4484 51.0326 72.4484 39.7075C72.4484 32.38 74.1811 25.7398 77.6407 19.7756L77.6416 19.774C81.1031 13.7583 85.8594 9.0451 91.9175 5.62781C98.0234 2.21102 104.781 0.5 112.2 0.5C123.521 0.5 132.911 4.27999 140.409 11.8331ZM97.5677 19.6477L97.5654 19.6495C93.4829 22.9886 90.7496 27.3984 89.3616 32.8567L89.2031 33.4799H89.8462H134.335H134.967L134.822 32.865C133.531 27.4002 130.795 22.9867 126.612 19.6468C122.477 16.3054 117.616 14.6371 112.054 14.6371C106.539 14.6371 101.703 16.3064 97.5677 19.6477ZM19.8579 41.5923H16.3467L35.5602 17.4098L36.2046 16.5987H35.1687H0.5V0.784192H60.0808V9.42191L35.275 41.7882L34.6587 42.5923H35.6719H39.2058L26.9872 58.535L26.9827 58.5408L10.6529 79.2158H0.5V67.2603L20.2494 42.4033L20.8938 41.5923H19.8579ZM266.909 41.5923H263.398L282.611 17.4098L283.256 16.5987H282.22H247.551V0.784192H307.132V9.42191L282.326 41.7882L281.71 42.5923H282.723H286.257L274.038 58.535L274.034 58.5408L257.704 79.2158H247.551V67.2603L267.301 42.4033L267.945 41.5923H266.909ZM39.5618 63.4013H60.0808V79.2158H27.071L39.5618 63.4013ZM286.613 63.4013H307.132V79.2158H274.122L286.613 63.4013ZM219.06 44.8576V0.642094H235.184V47.1009C235.184 56.8982 231.94 64.7343 225.475 70.6603C220.288 75.4158 213.753 78.2756 205.846 79.2241V63.2235C208.918 62.4031 211.556 60.9114 213.752 58.748C217.302 55.2486 219.06 50.6004 219.06 44.8576Z" stroke="white" stroke-opacity="0.22"/>
<defs>
<linearGradient id="paint0_linear_520_3484" x1="153.816" y1="0" x2="153.816" y2="79.9468" gradientUnits="userSpaceOnUse">
<stop stop-color="white"/>
<stop offset="1" stop-color="white" stop-opacity="0.7"/>
</linearGradient>
<linearGradient id="paint1_linear_520_3484" x1="153.816" y1="0" x2="153.816" y2="79.9468" gradientUnits="userSpaceOnUse">
<stop stop-color="white"/>
<stop offset="1" stop-color="white" stop-opacity="0.7"/>
</linearGradient>
<linearGradient id="paint2_linear_520_3484" x1="153.816" y1="0" x2="153.816" y2="79.9468" gradientUnits="userSpaceOnUse">
<stop stop-color="white"/>
<stop offset="1" stop-color="white" stop-opacity="0.7"/>
</linearGradient>
<linearGradient id="paint3_linear_520_3484" x1="153.816" y1="0" x2="153.816" y2="79.9468" gradientUnits="userSpaceOnUse">
<stop stop-color="white"/>
<stop offset="1" stop-color="white" stop-opacity="0.7"/>
</linearGradient>
<linearGradient id="paint4_linear_520_3484" x1="153.816" y1="0" x2="153.816" y2="79.9468" gradientUnits="userSpaceOnUse">
<stop stop-color="white"/>
<stop offset="1" stop-color="white" stop-opacity="0.7"/>
</linearGradient>
<linearGradient id="paint5_linear_520_3484" x1="153.816" y1="0" x2="153.816" y2="79.9468" gradientUnits="userSpaceOnUse">
<stop stop-color="white"/>
<stop offset="1" stop-color="white" stop-opacity="0.7"/>
</linearGradient>
<linearGradient id="paint6_linear_520_3484" x1="153.816" y1="0" x2="153.816" y2="79.9468" gradientUnits="userSpaceOnUse">
<stop stop-color="white"/>
<stop offset="1" stop-color="white" stop-opacity="0.7"/>
</linearGradient>
</defs>
</svg>
