<svg width="500" height="500" viewBox="0 0 500 500" fill="none" xmlns="http://www.w3.org/2000/svg">
<g clip-path="url(#clip0_567_3528)">
<path d="M492.52 310.476C459.126 444.406 323.462 525.913 189.501 492.515C55.5965 459.126 -25.9197 323.468 7.48797 189.549C40.8664 55.6048 176.531 -25.9084 310.45 7.48087C444.401 40.8702 525.913 176.543 492.516 310.479L492.518 310.476H492.52Z" fill="white"/>
<path d="M360.251 214.381C365.228 181.112 339.896 163.228 305.256 151.298L316.493 106.231L289.057 99.3956L278.118 143.276C270.905 141.477 263.498 139.782 256.136 138.102L267.154 93.9321L239.735 87.0964L228.491 132.148C222.522 130.789 216.66 129.446 210.972 128.031L211.004 127.89L173.169 118.443L165.87 147.743C165.87 147.743 186.226 152.409 185.797 152.696C196.907 155.468 198.916 162.822 198.582 168.651L185.782 219.993C186.547 220.187 187.539 220.468 188.634 220.908C187.719 220.68 186.745 220.432 185.734 220.19L167.793 292.112C166.435 295.487 162.988 300.553 155.221 298.629C155.496 299.028 135.279 293.653 135.279 293.653L121.658 325.056L157.362 333.955C164.004 335.621 170.513 337.363 176.923 339.002L165.57 384.585L192.974 391.421L204.218 346.322C211.704 348.354 218.97 350.228 226.083 351.995L214.877 396.882L242.315 403.718L253.667 358.22C300.452 367.073 335.63 363.504 350.438 321.192C362.369 287.125 349.844 267.476 325.23 254.662C343.157 250.529 356.661 238.739 360.261 214.385L360.252 214.379L360.251 214.381ZM297.565 302.273C289.086 336.339 231.723 317.924 213.124 313.306L228.191 252.916C246.788 257.559 306.427 266.745 297.566 302.273H297.565ZM306.05 213.888C298.316 244.874 250.571 229.132 235.083 225.271L248.743 170.501C264.231 174.361 314.108 181.566 306.053 213.888H306.05Z" fill="#0F0F0F"/>
</g>
<defs>
<clipPath id="clip0_567_3528">
<rect width="500" height="500" fill="white"/>
</clipPath>
</defs>
</svg>
