<svg width="21" height="20" viewBox="0 0 21 20" fill="none" xmlns="http://www.w3.org/2000/svg">
<path d="M13.0833 11.0832L10.0833 8.08317C10 7.99984 9.94111 7.90956 9.90667 7.81234C9.87167 7.71511 9.85417 7.61095 9.85417 7.49984C9.85417 7.38873 9.87167 7.28456 9.90667 7.18734C9.94111 7.09011 10 6.99984 10.0833 6.9165L13.0833 3.9165C13.25 3.74984 13.4444 3.6665 13.6667 3.6665C13.8889 3.6665 14.0833 3.74984 14.25 3.9165C14.4167 4.08317 14.5 4.28095 14.5 4.50984C14.5 4.73928 14.4167 4.93734 14.25 5.104L12.6875 6.6665H17.8333C18.0694 6.6665 18.2672 6.74623 18.4267 6.90567C18.5867 7.06567 18.6667 7.26373 18.6667 7.49984C18.6667 7.73595 18.5867 7.93373 18.4267 8.09317C18.2672 8.25317 18.0694 8.33317 17.8333 8.33317H12.6875L14.25 9.89567C14.4167 10.0623 14.5 10.2568 14.5 10.479C14.5 10.7012 14.4167 10.8957 14.25 11.0623C14.0833 11.229 13.8925 11.3193 13.6775 11.3332C13.4619 11.3471 13.2639 11.2637 13.0833 11.0832ZM6.41667 16.0623C6.58333 16.229 6.77778 16.3157 7 16.3223C7.22222 16.3296 7.41667 16.2498 7.58333 16.0832L10.5833 13.0832C10.6667 12.9998 10.7258 12.9096 10.7608 12.8123C10.7953 12.7151 10.8125 12.6109 10.8125 12.4998C10.8125 12.3887 10.7953 12.2846 10.7608 12.1873C10.7258 12.0901 10.6667 11.9998 10.5833 11.9165L7.58333 8.9165C7.41667 8.74984 7.22222 8.6665 7 8.6665C6.77778 8.6665 6.58333 8.74984 6.41667 8.9165C6.25 9.08317 6.16667 9.28095 6.16667 9.50984C6.16667 9.73928 6.25 9.93734 6.41667 10.104L7.97917 11.6665H2.83333C2.59722 11.6665 2.39944 11.7462 2.24 11.9057C2.08 12.0657 2 12.2637 2 12.4998C2 12.7359 2.08 12.9337 2.24 13.0932C2.39944 13.2532 2.59722 13.3332 2.83333 13.3332H7.97917L6.41667 14.8957C6.25 15.0623 6.16667 15.2568 6.16667 15.479C6.16667 15.7012 6.25 15.8957 6.41667 16.0623Z" fill="#F08700"/>
</svg>
