<svg width="99" height="100" viewBox="0 0 99 100" fill="none" xmlns="http://www.w3.org/2000/svg">
<path d="M89.8329 25.48C77.9472 13.5376 52.3708 3.82013 41.3478 1.51564C31.4261 -0.561799 21.7427 -1.53809 13.8416 5.61377C0.661739 17.5676 -0.405363 35.9354 0.0941315 46.6064C0.7185 59.7295 5.41829 74.5894 8.21092 81.4575C13.0469 93.3432 20.9821 102.788 31.812 99.2463C39.2363 96.8169 43.1642 85.8167 44.6513 80.7536C47.478 70.9908 47.7277 60.3198 44.7308 48.173C43.3799 42.7239 41.3251 37.2749 39.611 31.7351C38.7482 28.9765 37.8173 26.2293 37.034 23.3912C36.619 21.9566 36.278 20.5016 36.0123 19.032C35.8746 18.2568 35.8289 17.468 35.8761 16.6821C35.9127 15.8243 36.223 15.0008 36.7616 14.3322C36.8475 14.2468 36.9609 14.1946 37.0817 14.1851C37.2025 14.1756 37.3227 14.2093 37.421 14.2802C37.5192 14.3512 37.589 14.4547 37.6179 14.5724C37.6469 14.69 37.633 14.8141 37.5789 14.9225C36.9773 15.9556 37.3405 17.3292 37.7265 18.6233C38.1778 19.9635 38.7007 21.2785 39.2931 22.5625L42.9144 30.509C45.1281 35.5153 47.3645 40.5103 49.2149 45.8344C51.7805 45.6755 54.3915 45.4825 56.957 45.2214C60.0448 44.9263 63.1061 44.5251 66.1409 44.0181C69.1719 43.5186 80.8987 41.3844 80.9782 38.535C81.0463 36.7641 76.0513 33.5514 74.7118 32.7795C71.9924 31.2554 69.179 29.9056 66.2885 28.7381C63.3823 27.6029 60.4308 26.4677 57.4565 25.5141C55.9694 25.0373 54.4596 24.6173 52.9157 24.2426C51.4291 23.8413 49.9093 23.5753 48.3748 23.448C48.3026 23.448 48.2333 23.4193 48.1822 23.3682C48.1311 23.3171 48.1024 23.2478 48.1024 23.1755C48.1024 23.1033 48.1311 23.034 48.1822 22.9829C48.2333 22.9318 48.3026 22.9031 48.3748 22.9031C51.5186 23.288 54.6197 23.9645 57.6382 24.9238C60.6692 25.7979 63.6548 26.7969 66.6177 27.864C69.6041 28.934 72.5331 30.1579 75.3929 31.5307C78.5942 33.0633 83.8503 36.0716 83.6346 39.4772C83.2827 44.7333 70.1142 47.5259 66.9923 48.2638C61.6411 49.4629 56.2189 50.3198 50.7588 50.8294C51.9725 55.3276 52.6507 59.9535 52.7794 64.6109C52.8731 67.6556 52.6295 70.7014 52.0529 73.6926C51.8002 75.0057 51.455 76.2993 51.0199 77.5637C58.4328 75.2251 81.9658 69.742 88.0392 67.4262C95.9857 64.4065 97.3026 58.8326 98.3583 53.043C99.3088 48.1019 99.0283 43.0027 97.5414 38.1957C96.0546 33.3887 93.4072 29.0216 89.8329 25.48ZM32.6748 89.211C28.7697 93.9448 24.3877 92.3442 22.9914 91.4814C22.9325 91.4484 22.8811 91.4035 22.8405 91.3495C22.7999 91.2956 22.7708 91.2339 22.7553 91.1682C22.7397 91.1025 22.738 91.0342 22.7501 90.9678C22.7623 90.9014 22.7881 90.8382 22.8259 90.7823C22.8637 90.7264 22.9127 90.6789 22.9698 90.6429C23.0269 90.6068 23.0909 90.583 23.1576 90.573C23.2244 90.563 23.2925 90.5669 23.3577 90.5845C23.4229 90.6021 23.4837 90.6331 23.5363 90.6754C27.2939 93.0367 30.7222 90.244 32.0504 86.441C36.421 73.9537 33.583 59.9678 21.947 45.1306C21.7767 44.9035 21.6405 44.6652 21.7881 44.4268C21.8635 44.3227 21.9738 44.2493 22.099 44.2201C22.2241 44.1909 22.3556 44.2079 22.4692 44.2678C37.4654 50.8748 43.4707 76.1219 32.6748 89.211Z" fill="white"/>
</svg>
