<svg width="12" height="12" viewBox="0 0 12 12" fill="none" xmlns="http://www.w3.org/2000/svg">
<path d="M5.99996 8.38341C5.91107 8.38341 5.82774 8.36941 5.74996 8.34141C5.67218 8.31386 5.59996 8.26675 5.53329 8.20008L3.13329 5.80008C3.01107 5.67786 2.94996 5.5223 2.94996 5.33341C2.94996 5.14453 3.01107 4.98897 3.13329 4.86675C3.25551 4.74453 3.41374 4.68053 3.60796 4.67475C3.80263 4.66941 3.96107 4.72786 4.08329 4.85008L5.33329 6.10008V1.33341C5.33329 1.14453 5.39729 0.986081 5.52529 0.858081C5.65285 0.730526 5.81107 0.666748 5.99996 0.666748C6.18885 0.666748 6.34729 0.730526 6.47529 0.858081C6.60285 0.986081 6.66663 1.14453 6.66663 1.33341V6.10008L7.91663 4.85008C8.03885 4.72786 8.19729 4.66941 8.39196 4.67475C8.58618 4.68053 8.7444 4.74453 8.86662 4.86675C8.98885 4.98897 9.04996 5.14453 9.04996 5.33341C9.04996 5.5223 8.98885 5.67786 8.86662 5.80008L6.46663 8.20008C6.39996 8.26675 6.32774 8.31386 6.24996 8.34141C6.17218 8.36941 6.08885 8.38341 5.99996 8.38341ZM1.99996 11.3334C1.63329 11.3334 1.31951 11.203 1.05863 10.9421C0.797293 10.6807 0.666626 10.3667 0.666626 10.0001V8.66675C0.666626 8.47786 0.730404 8.31941 0.857959 8.19141C0.985959 8.06386 1.1444 8.00008 1.33329 8.00008C1.52218 8.00008 1.68063 8.06386 1.80863 8.19141C1.93618 8.31941 1.99996 8.47786 1.99996 8.66675V10.0001H9.99996V8.66675C9.99996 8.47786 10.064 8.31941 10.192 8.19141C10.3195 8.06386 10.4777 8.00008 10.6666 8.00008C10.8555 8.00008 11.0137 8.06386 11.1413 8.19141C11.2693 8.31941 11.3333 8.47786 11.3333 8.66675V10.0001C11.3333 10.3667 11.2028 10.6807 10.942 10.9421C10.6806 11.203 10.3666 11.3334 9.99996 11.3334H1.99996Z" fill="#989BA6"/>
</svg>
