<svg width="20" height="20" viewBox="0 0 20 20" fill="none" xmlns="http://www.w3.org/2000/svg">
<path d="M9.99992 12.9793C9.88881 12.9793 9.78464 12.9618 9.68742 12.9268C9.5902 12.8924 9.49992 12.8335 9.41659 12.7502L6.41658 9.75016C6.26381 9.59738 6.18742 9.40294 6.18742 9.16683C6.18742 8.93072 6.26381 8.73627 6.41658 8.5835C6.56936 8.43072 6.76714 8.35072 7.00992 8.3435C7.25325 8.33683 7.45131 8.40988 7.60408 8.56266L9.16658 10.1252V4.16683C9.16658 3.93072 9.24659 3.73266 9.40659 3.57266C9.56603 3.41322 9.76381 3.3335 9.99992 3.3335C10.236 3.3335 10.4341 3.41322 10.5941 3.57266C10.7535 3.73266 10.8333 3.93072 10.8333 4.16683V10.1252L12.3958 8.56266C12.5485 8.40988 12.7466 8.33683 12.9899 8.3435C13.2327 8.35072 13.4305 8.43072 13.5833 8.5835C13.736 8.73627 13.8124 8.93072 13.8124 9.16683C13.8124 9.40294 13.736 9.59738 13.5833 9.75016L10.5833 12.7502C10.4999 12.8335 10.4096 12.8924 10.3124 12.9268C10.2152 12.9618 10.111 12.9793 9.99992 12.9793ZM4.99992 16.6668C4.54159 16.6668 4.14936 16.5038 3.82325 16.1777C3.49659 15.851 3.33325 15.4585 3.33325 15.0002V13.3335C3.33325 13.0974 3.41297 12.8993 3.57242 12.7393C3.73242 12.5799 3.93047 12.5002 4.16659 12.5002C4.4027 12.5002 4.60075 12.5799 4.76075 12.7393C4.9202 12.8993 4.99992 13.0974 4.99992 13.3335V15.0002H14.9999V13.3335C14.9999 13.0974 15.0799 12.8993 15.2399 12.7393C15.3994 12.5799 15.5971 12.5002 15.8333 12.5002C16.0694 12.5002 16.2671 12.5799 16.4266 12.7393C16.5866 12.8993 16.6666 13.0974 16.6666 13.3335V15.0002C16.6666 15.4585 16.5035 15.851 16.1774 16.1777C15.8508 16.5038 15.4583 16.6668 14.9999 16.6668H4.99992Z" fill="#F08700"/>
</svg>
