<svg width="20" height="20" viewBox="0 0 20 20" fill="none" xmlns="http://www.w3.org/2000/svg">
<path d="M16.2601 4.14614C15.0866 3.60946 13.8404 3.21831 12.5397 3C12.3759 3.28199 12.194 3.66403 12.0666 3.96422C10.6831 3.76409 9.3095 3.76409 7.94505 3.96422C7.81769 3.66403 7.62666 3.28199 7.47202 3C6.16216 3.21831 4.91595 3.60946 3.75071 4.14614C1.39475 7.62096 0.757995 11.0139 1.07637 14.3613C2.64094 15.4984 4.15096 16.1897 5.63458 16.6446C5.99843 16.1534 6.32591 15.6258 6.6079 15.0709C6.07121 14.8708 5.56181 14.6252 5.07061 14.3341C5.19796 14.2431 5.32531 14.1431 5.44357 14.043C8.40898 15.3984 11.6209 15.3984 14.55 14.043C14.6773 14.1431 14.7956 14.2431 14.9229 14.3341C14.4317 14.6252 13.9223 14.8708 13.3856 15.0709C13.6676 15.6258 13.9951 16.1534 14.3589 16.6446C15.8416 16.1897 17.3607 15.4984 18.9171 14.3613C19.3083 10.4864 18.2976 7.12068 16.2601 4.14614ZM7.01723 12.2965C6.12577 12.2965 5.39806 11.4869 5.39806 10.4954C5.39806 9.50395 6.10758 8.69432 7.01723 8.69432C7.91776 8.69432 8.65454 9.50395 8.63634 10.4954C8.63634 11.4869 7.91776 12.2965 7.01723 12.2965ZM12.9945 12.2965C12.103 12.2965 11.3744 11.4869 11.3744 10.4954C11.3744 9.50395 12.0848 8.69432 12.9945 8.69432C13.895 8.69432 14.6318 9.50395 14.6136 10.4954C14.6136 11.4869 13.9041 12.2965 12.9945 12.2965Z" stroke="white" stroke-width="1.3" stroke-linejoin="round"/>
</svg>
