<svg width="26" height="19" viewBox="0 0 26 19" fill="none" xmlns="http://www.w3.org/2000/svg">
<path d="M11.8016 15.4158C11.8939 15.4159 11.9853 15.4343 12.0706 15.4697C12.1558 15.5052 12.2332 15.5571 12.2984 15.6224C12.3636 15.6878 12.4153 15.7654 12.4505 15.8507C12.4857 15.9361 12.5037 16.0275 12.5036 16.1198C12.5035 16.2121 12.4852 16.3035 12.4497 16.3888C12.4143 16.474 12.3624 16.5514 12.297 16.6166C12.2316 16.6818 12.1541 16.7335 12.0687 16.7687C11.9834 16.8039 11.8919 16.8219 11.7996 16.8218C11.6132 16.8216 11.4345 16.7472 11.3028 16.6152C11.1712 16.4832 11.0974 16.3043 11.0976 16.1178C11.0979 15.9314 11.1722 15.7527 11.3042 15.621C11.4363 15.4894 11.6152 15.4156 11.8016 15.4158ZM22.8256 11.0688C22.7333 11.0688 22.6419 11.0505 22.5566 11.0151C22.4714 10.9797 22.3939 10.9279 22.3287 10.8626C22.2634 10.7972 22.2117 10.7197 22.1764 10.6344C22.1412 10.5491 22.1231 10.4576 22.1231 10.3653C22.1232 10.273 22.1414 10.1816 22.1768 10.0963C22.2122 10.0111 22.264 9.9336 22.3294 9.86837C22.3947 9.80313 22.4722 9.75141 22.5576 9.71614C22.6429 9.68087 22.7343 9.66275 22.8266 9.66282C23.0131 9.66295 23.1918 9.73714 23.3236 9.86907C23.4553 10.001 23.5292 10.1799 23.5291 10.3663C23.529 10.5528 23.4548 10.7315 23.3229 10.8633C23.1909 10.995 23.0121 11.0689 22.8256 11.0688ZM22.8256 8.19282C22.2492 8.19335 21.6965 8.42256 21.2889 8.83015C20.8814 9.23774 20.6521 9.7904 20.6516 10.3668C20.6516 10.5998 20.6906 10.8318 20.7666 11.0578L13.5856 14.8808C13.3865 14.5917 13.1201 14.3553 12.8093 14.1921C12.4985 14.0289 12.1527 13.9437 11.8016 13.9438C10.9726 13.9438 10.2176 14.4188 9.85162 15.1598L3.40062 11.7578C2.71862 11.3998 2.20862 10.2778 2.26262 9.25582C2.29062 8.72282 2.47462 8.30882 2.75562 8.14882C2.93362 8.04882 3.14762 8.05682 3.37562 8.17582L3.41762 8.19882C5.12762 9.09882 10.7216 12.0458 10.9576 12.1548C11.3206 12.3238 11.5226 12.3918 12.1426 12.0978L23.7066 6.08382C23.8766 6.01982 24.0746 5.85682 24.0746 5.60982C24.0746 5.26782 23.7206 5.13282 23.7196 5.13282C23.0616 4.81782 22.0506 4.34482 21.0646 3.88282C18.9566 2.89582 16.5676 1.77782 15.5186 1.22782C14.6126 0.753817 13.8836 1.15382 13.7536 1.23382L13.5016 1.35882C8.77962 3.69382 2.45962 6.82382 2.09962 7.04282C1.45662 7.43482 1.05762 8.21582 1.00562 9.18482C0.925615 10.7218 1.70862 12.3248 2.82962 12.9118L9.65162 16.4298C9.72677 16.9466 9.98534 17.4191 10.3801 17.7609C10.7748 18.1028 11.2794 18.2913 11.8016 18.2918C12.3719 18.2909 12.9191 18.0661 13.3255 17.6659C13.7318 17.2657 13.9649 16.7221 13.9746 16.1518L21.4886 12.0788C21.8686 12.3768 22.3416 12.5398 22.8256 12.5398C23.402 12.5393 23.9547 12.3101 24.3623 11.9025C24.7699 11.4949 24.9991 10.9422 24.9996 10.3658C24.9991 9.7894 24.7699 9.23674 24.3623 8.82915C23.9547 8.42156 23.402 8.19235 22.8256 8.19182" fill="white"/>
<path d="M22.8256 8.19282C22.2492 8.19335 21.6965 8.42256 21.2889 8.83015C20.8814 9.23774 20.6521 9.7904 20.6516 10.3668C20.6516 10.5998 20.6906 10.8318 20.7666 11.0578L13.5856 14.8808C13.3865 14.5917 13.1201 14.3553 12.8093 14.1921C12.4985 14.0289 12.1527 13.9437 11.8016 13.9438C10.9726 13.9438 10.2176 14.4188 9.85162 15.1598L3.40062 11.7578C2.71862 11.3998 2.20862 10.2778 2.26262 9.25582C2.29062 8.72282 2.47462 8.30882 2.75562 8.14882C2.93362 8.04882 3.14762 8.05682 3.37562 8.17582L3.41762 8.19882C5.12762 9.09882 10.7216 12.0458 10.9576 12.1548C11.3206 12.3238 11.5226 12.3918 12.1426 12.0978L23.7066 6.08382C23.8766 6.01982 24.0746 5.85682 24.0746 5.60982C24.0746 5.26782 23.7206 5.13282 23.7196 5.13282C23.0616 4.81782 22.0506 4.34482 21.0646 3.88282C18.9566 2.89582 16.5676 1.77782 15.5186 1.22782C14.6126 0.753817 13.8836 1.15382 13.7536 1.23382L13.5016 1.35882C8.77962 3.69382 2.45962 6.82382 2.09962 7.04282C1.45662 7.43482 1.05762 8.21582 1.00562 9.18482C0.925615 10.7218 1.70862 12.3248 2.82962 12.9118L9.65162 16.4298C9.72677 16.9466 9.98534 17.4191 10.3801 17.7609C10.7748 18.1028 11.2794 18.2912 11.8016 18.2918C12.3719 18.2909 12.9191 18.0661 13.3255 17.6659C13.7318 17.2657 13.9649 16.7221 13.9746 16.1518L21.4886 12.0788C21.8686 12.3768 22.3416 12.5398 22.8256 12.5398C23.402 12.5393 23.9547 12.3101 24.3623 11.9025C24.7699 11.4949 24.9991 10.9422 24.9996 10.3658C24.9991 9.7894 24.7699 9.23674 24.3623 8.82915C23.9547 8.42156 23.402 8.19235 22.8256 8.19182M11.8016 15.4158C11.8939 15.4159 11.9853 15.4343 12.0706 15.4697C12.1558 15.5052 12.2332 15.5571 12.2984 15.6224C12.3636 15.6878 12.4153 15.7654 12.4505 15.8507C12.4857 15.9361 12.5037 16.0275 12.5036 16.1198C12.5035 16.2121 12.4852 16.3035 12.4497 16.3888C12.4143 16.474 12.3624 16.5514 12.297 16.6166C12.2316 16.6818 12.1541 16.7335 12.0687 16.7687C11.9834 16.8039 11.8919 16.8219 11.7996 16.8218C11.6132 16.8216 11.4345 16.7472 11.3028 16.6152C11.1712 16.4832 11.0974 16.3043 11.0976 16.1178C11.0979 15.9314 11.1722 15.7527 11.3042 15.621C11.4363 15.4894 11.6152 15.4156 11.8016 15.4158ZM22.8256 11.0688C22.7333 11.0688 22.6419 11.0505 22.5566 11.0151C22.4714 10.9797 22.3939 10.9279 22.3287 10.8626C22.2634 10.7972 22.2117 10.7197 22.1764 10.6344C22.1412 10.5491 22.123 10.4576 22.1231 10.3653C22.1232 10.273 22.1414 10.1816 22.1768 10.0963C22.2122 10.0111 22.264 9.9336 22.3294 9.86837C22.3947 9.80313 22.4722 9.75141 22.5576 9.71614C22.6429 9.68087 22.7343 9.66275 22.8266 9.66282C23.0131 9.66295 23.1918 9.73714 23.3236 9.86907C23.4553 10.001 23.5292 10.1799 23.5291 10.3663C23.529 10.5528 23.4548 10.7315 23.3229 10.8633C23.1909 10.995 23.0121 11.0689 22.8256 11.0688Z" stroke="white"/>
</svg>
