<svg width="21" height="20" viewBox="0 0 21 20" fill="none" xmlns="http://www.w3.org/2000/svg">
<path d="M10.1667 13.3333C9.93056 13.3333 9.73278 13.2533 9.57333 13.0933C9.41333 12.9339 9.33333 12.7361 9.33333 12.5V6.54167L7.77083 8.10417C7.60417 8.27083 7.40972 8.35417 7.1875 8.35417C6.96528 8.35417 6.76389 8.26389 6.58333 8.08333C6.41667 7.91667 6.33694 7.71861 6.34417 7.48917C6.35083 7.26028 6.43056 7.06944 6.58333 6.91667L9.58333 3.91667C9.66667 3.83333 9.75694 3.77417 9.85417 3.73917C9.95139 3.70472 10.0556 3.6875 10.1667 3.6875C10.2778 3.6875 10.3819 3.70472 10.4792 3.73917C10.5764 3.77417 10.6667 3.83333 10.75 3.91667L13.75 6.91667C13.9167 7.08333 13.9964 7.28111 13.9892 7.51C13.9825 7.73944 13.9028 7.93056 13.75 8.08333C13.5833 8.25 13.3856 8.33667 13.1567 8.34333C12.9272 8.35056 12.7292 8.27083 12.5625 8.10417L11 6.54167V12.5C11 12.7361 10.9203 12.9339 10.7608 13.0933C10.6008 13.2533 10.4028 13.3333 10.1667 13.3333ZM5.16667 16.6667C4.70833 16.6667 4.31611 16.5036 3.99 16.1775C3.66333 15.8508 3.5 15.4583 3.5 15V13.3333C3.5 13.0972 3.57972 12.8992 3.73917 12.7392C3.89917 12.5797 4.09722 12.5 4.33333 12.5C4.56944 12.5 4.7675 12.5797 4.9275 12.7392C5.08694 12.8992 5.16667 13.0972 5.16667 13.3333V15H15.1667V13.3333C15.1667 13.0972 15.2467 12.8992 15.4067 12.7392C15.5661 12.5797 15.7639 12.5 16 12.5C16.2361 12.5 16.4339 12.5797 16.5933 12.7392C16.7533 12.8992 16.8333 13.0972 16.8333 13.3333V15C16.8333 15.4583 16.6703 15.8508 16.3442 16.1775C16.0175 16.5036 15.625 16.6667 15.1667 16.6667H5.16667Z" fill="#F08700"/>
</svg>
