<svg xmlns="http://www.w3.org/2000/svg" width="20" height="20" viewBox="0 0 20 20" fill="none">
    <path d="M11.075 11.4917L10.8334 11.7417V9.58333C10.8334 9.36232 10.7456 9.15036 10.5893 8.99408C10.433 8.83779 10.221 8.75 10 8.75C9.77901 8.75 9.56704 8.83779 9.41076 8.99408C9.25448 9.15036 9.16669 9.36232 9.16669 9.58333V11.7417L8.92502 11.4917C8.7681 11.3347 8.55527 11.2466 8.33335 11.2466C8.11143 11.2466 7.89861 11.3347 7.74169 11.4917C7.58477 11.6486 7.49661 11.8614 7.49661 12.0833C7.49661 12.3052 7.58477 12.5181 7.74169 12.675L9.40835 14.3417C9.48761 14.4175 9.58106 14.477 9.68335 14.5167C9.7831 14.5608 9.89096 14.5835 10 14.5835C10.1091 14.5835 10.2169 14.5608 10.3167 14.5167C10.419 14.477 10.5124 14.4175 10.5917 14.3417L12.2584 12.675C12.4153 12.5181 12.5034 12.3052 12.5034 12.0833C12.5034 11.8614 12.4153 11.6486 12.2584 11.4917C12.1014 11.3347 11.8886 11.2466 11.6667 11.2466C11.4448 11.2466 11.2319 11.3347 11.075 11.4917ZM15.8334 4.58333H10.6L10.3334 3.75C10.1605 3.26102 9.83981 2.83792 9.41577 2.5393C8.99173 2.24068 8.48532 2.08133 7.96669 2.08333H4.16669C3.50365 2.08333 2.86776 2.34672 2.39892 2.81556C1.93008 3.28441 1.66669 3.92029 1.66669 4.58333V15.4167C1.66669 16.0797 1.93008 16.7156 2.39892 17.1844C2.86776 17.6533 3.50365 17.9167 4.16669 17.9167H15.8334C16.4964 17.9167 17.1323 17.6533 17.6011 17.1844C18.07 16.7156 18.3334 16.0797 18.3334 15.4167V7.08333C18.3334 6.42029 18.07 5.78441 17.6011 5.31556C17.1323 4.84672 16.4964 4.58333 15.8334 4.58333ZM16.6667 15.4167C16.6667 15.6377 16.5789 15.8496 16.4226 16.0059C16.2663 16.1622 16.0544 16.25 15.8334 16.25H4.16669C3.94567 16.25 3.73371 16.1622 3.57743 16.0059C3.42115 15.8496 3.33335 15.6377 3.33335 15.4167V4.58333C3.33335 4.36232 3.42115 4.15036 3.57743 3.99408C3.73371 3.8378 3.94567 3.75 4.16669 3.75H7.96669C8.14139 3.74955 8.31182 3.80401 8.45388 3.9057C8.59594 4.00739 8.70245 4.15115 8.75835 4.31666L9.20835 5.68333C9.26426 5.84885 9.37077 5.99261 9.51283 6.0943C9.65489 6.19598 9.82532 6.25045 10 6.25H15.8334C16.0544 6.25 16.2663 6.3378 16.4226 6.49408C16.5789 6.65036 16.6667 6.86232 16.6667 7.08333V15.4167Z" fill="white"/>
</svg>
