<svg xmlns="http://www.w3.org/2000/svg" width="16" height="16" viewBox="0 0 16 16" fill="none">
    <path d="M7.99992 11.3333C8.18881 11.3333 8.34725 11.2693 8.47525 11.1413C8.60325 11.0133 8.66703 10.8551 8.66659 10.6667V8.00001C8.66659 7.81112 8.60259 7.6529 8.47459 7.52534C8.34659 7.39779 8.18836 7.33379 7.99992 7.33334C7.81147 7.3329 7.65325 7.3969 7.52525 7.52534C7.39725 7.65379 7.33325 7.81201 7.33325 8.00001V10.6667C7.33325 10.8556 7.39725 11.014 7.52525 11.142C7.65325 11.27 7.81147 11.3338 7.99992 11.3333ZM7.99992 6.00001C8.18881 6.00001 8.34725 5.93601 8.47525 5.80801C8.60325 5.68001 8.66703 5.52179 8.66659 5.33334C8.66614 5.1449 8.60214 4.98668 8.47459 4.85868C8.34703 4.73068 8.18881 4.66668 7.99992 4.66668C7.81103 4.66668 7.65281 4.73068 7.52525 4.85868C7.3977 4.98668 7.3337 5.1449 7.33325 5.33334C7.33281 5.52179 7.39681 5.68023 7.52525 5.80868C7.6537 5.93712 7.81192 6.0009 7.99992 6.00001ZM7.99992 14.6667C7.0777 14.6667 6.21103 14.4916 5.39992 14.1413C4.58881 13.7911 3.88325 13.3162 3.28325 12.7167C2.68325 12.1171 2.20836 11.4116 1.85859 10.6C1.50881 9.78845 1.3337 8.92179 1.33325 8.00001C1.33281 7.07823 1.50792 6.21157 1.85859 5.40001C2.20925 4.58845 2.68414 3.8829 3.28325 3.28334C3.88236 2.68379 4.58792 2.2089 5.39992 1.85868C6.21192 1.50845 7.07859 1.33334 7.99992 1.33334C8.92125 1.33334 9.78792 1.50845 10.5999 1.85868C11.4119 2.2089 12.1175 2.68379 12.7166 3.28334C13.3157 3.8829 13.7908 4.58845 14.1419 5.40001C14.493 6.21157 14.6679 7.07823 14.6666 8.00001C14.6653 8.92179 14.4901 9.78845 14.1413 10.6C13.7924 11.4116 13.3175 12.1171 12.7166 12.7167C12.1157 13.3162 11.4101 13.7913 10.5999 14.142C9.7897 14.4927 8.92303 14.6676 7.99992 14.6667ZM7.99992 13.3333C9.48881 13.3333 10.7499 12.8167 11.7833 11.7833C12.8166 10.75 13.3333 9.4889 13.3333 8.00001C13.3333 6.51112 12.8166 5.25001 11.7833 4.21668C10.7499 3.18334 9.48881 2.66668 7.99992 2.66668C6.51103 2.66668 5.24992 3.18334 4.21659 4.21668C3.18325 5.25001 2.66659 6.51112 2.66659 8.00001C2.66659 9.4889 3.18325 10.75 4.21659 11.7833C5.24992 12.8167 6.51103 13.3333 7.99992 13.3333Z" fill="#989BA6"/>
</svg>
