<svg width="116" height="30" viewBox="0 0 116 30" fill="none" xmlns="http://www.w3.org/2000/svg">
<path d="M14.7448 23.588L9.7646 29.8934H22.7178V23.588H14.7448Z" fill="white"/>
<path d="M107.389 23.588L102.409 29.8934H115.362V23.588H107.389Z" fill="white"/>
<path d="M72.6657 29.9073V23.5345C71.5283 23.2363 70.5511 22.6905 69.7343 21.897C68.4257 20.6071 67.7714 18.9153 67.7714 16.8216V0.0532852H61.3501V17.6628C61.3501 21.3829 62.5839 24.3739 65.0515 26.6358C67.0673 28.4698 69.6053 29.5602 72.6657 29.9073Z" fill="white"/>
<path d="M77.0046 29.9191V23.5634C78.1864 23.2723 79.1933 22.7168 80.0252 21.897C81.3151 20.6258 81.96 18.934 81.96 16.8216V0.0532852H88.3813V17.6628C88.3813 21.3829 87.1475 24.3739 84.68 26.6358C82.656 28.4911 80.0975 29.5856 77.0046 29.9191Z" fill="white"/>
<path fill-rule="evenodd" clip-rule="evenodd" d="M56.9229 17.5229C57.0324 16.7185 57.0872 15.8958 57.0872 15.0548C57.0872 10.7404 55.6536 7.15722 52.7863 4.3053C49.9373 1.4351 46.3668 0 42.075 0C39.2625 0 36.6966 0.648994 34.3772 1.94698C32.076 3.24497 30.268 5.03656 28.9531 7.32175C27.6381 9.58867 26.9807 12.1115 26.9807 14.8903C26.9807 19.1865 28.4782 22.7788 31.4734 25.6673C34.4868 28.5558 38.2581 30 42.7873 30C43.0838 30 43.3778 29.9934 43.6695 29.9801H41.9694V24.2854C40.0653 24.1344 38.4021 23.5346 36.9797 22.4863C35.336 21.2431 34.2585 19.5887 33.7471 17.5229H56.9229ZM36.7057 7.51371C38.2215 6.28885 39.9931 5.67642 42.0202 5.67642C44.0657 5.67642 45.8464 6.28885 47.3622 7.51371C48.8963 8.73857 49.9007 10.3565 50.3756 12.3675H33.6923C34.2037 10.3565 35.2081 8.73857 36.7057 7.51371Z" fill="white"/>
<path d="M4.08567 29.8934H0V25.1572L7.44671 15.7846H5.74156L13.1883 6.41203H0V0.106572H22.7178V3.5968L13.3769 15.7846H15.0821L10.2673 22.0668L4.08567 29.8934Z" fill="white"/>
<path d="M96.7299 29.8934H92.6442V25.1572L100.091 15.7846H98.3858L105.832 6.41203H92.6442V0.106572H115.362V3.5968L106.021 15.7846H107.726L102.912 22.0668L96.7299 29.8934Z" fill="white"/>
</svg>
