<svg width="100" height="100" viewBox="0 0 100 100" fill="none" xmlns="http://www.w3.org/2000/svg">
<g clip-path="url(#clip0_944_3630)">
<path d="M50 100C77.6142 100 100 77.6142 100 50C100 22.3858 77.6142 0 50 0C22.3858 0 0 22.3858 0 50C0 77.6142 22.3858 100 50 100Z" fill="white"/>
<path d="M25.39 65V41.4667L43.2367 54.8983V65H47.7917V53.95C47.7909 53.5394 47.6949 53.1346 47.5112 52.7673C47.3276 52.4001 47.0614 52.0804 46.7334 51.8333L25.09 35.5383C24.6942 35.2443 24.2245 35.0658 23.7333 35.0227C23.2421 34.9795 22.7485 35.0735 22.3074 35.294C21.8664 35.5145 21.4951 35.853 21.2349 36.2719C20.9747 36.6907 20.8357 37.1736 20.8334 37.6667V65H25.39ZM74.7467 65V41.4667L56.9 54.8983V65H52.345V53.95C52.3459 53.5394 52.4419 53.1346 52.6255 52.7673C52.8091 52.4001 53.0754 52.0804 53.4034 51.8333L75.0467 35.545C75.4421 35.2513 75.9112 35.0729 76.4018 35.0295C76.8924 34.9861 77.3855 35.0794 77.8264 35.2991C78.2672 35.5189 78.6385 35.8564 78.8993 36.2743C79.16 36.6922 79.2999 37.1741 79.3034 37.6667V65H74.7467Z" fill="#0F0F0F"/>
</g>
<defs>
<clipPath id="clip0_944_3630">
<rect width="100" height="100" fill="white"/>
</clipPath>
</defs>
</svg>
