<svg width="78" height="81" viewBox="0 0 78 81" fill="none" xmlns="http://www.w3.org/2000/svg">
    <path d="M8.27035 35.1441C8.27035 35.1441 21.9706 34.5955 24.9312 12.0752C27.5604 -7.92499 50.6626 1.17836 57.3406 9.15091C65.9913 19.4787 61.3799 37.2446 72.5707 39.4889C83.7614 41.7333 76.4537 66.6865 59.4667 64.2981C38.3354 61.3269 43.448 73.6749 37.1045 78.9012C32.5519 82.6522 13.8847 79.0415 13.2626 65.4251C12.739 53.9671 7.9058 54.0034 4.47999 52.7042C-0.460829 50.8304 -3.57409 37.26 8.27035 35.1441Z" fill="#2B2C2D"/>
    <path d="M54.8429 60.1558L41.3828 46.8555L38.7175 49.5528L52.1776 62.8531L54.8429 60.1558Z" fill="white" fill-opacity="0.8"/>
    <path d="M59.9877 63.7286L49.5157 53.3809C49.4574 53.3233 49.3635 53.3239 49.3058 53.3822L45.3423 57.3934C45.2847 57.4517 45.2852 57.5456 45.3435 57.6032L55.8155 67.951C55.8738 68.0086 55.9678 68.008 56.0254 67.9497L59.989 63.9385C60.0466 63.8802 60.046 63.7863 59.9877 63.7286Z" fill="#989BA6"/>
    <path d="M29.4544 53.5437C38.7146 53.5437 46.2214 46.0368 46.2214 36.7767C46.2214 27.5166 38.7146 20.0098 29.4544 20.0098C20.1943 20.0098 12.6875 27.5166 12.6875 36.7767C12.6875 46.0368 20.1943 53.5437 29.4544 53.5437Z" fill="#989BA6"/>
    <path d="M29.453 50.8081C37.2022 50.8081 43.4841 44.5261 43.4841 36.777C43.4841 29.0278 37.2022 22.7458 29.453 22.7458C21.7038 22.7458 15.4219 29.0278 15.4219 36.777C15.4219 44.5261 21.7038 50.8081 29.453 50.8081Z" fill="#EAF1FF" fill-opacity="0.6"/>
</svg>
