<svg xmlns="http://www.w3.org/2000/svg" width="77" height="20" viewBox="0 0 77 20" fill="none">
    <path d="M9.82989 15.7253L6.50973 19.929H15.1452V15.7253H9.82989Z" fill="white"/>
    <path d="M71.5927 15.7253L68.2725 19.929H76.908V15.7253H71.5927Z" fill="white"/>
    <path d="M48.4438 19.9382V15.6897C47.6855 15.4909 47.0341 15.127 46.4895 14.598C45.6171 13.7381 45.181 12.6102 45.181 11.2144V0.0355235H40.9001V11.7752C40.9001 14.2553 41.7226 16.2493 43.3677 17.7572C44.7115 18.9798 46.4036 19.7068 48.4438 19.9382Z" fill="white"/>
    <path d="M51.3364 19.9461V15.7089C52.1243 15.5149 52.7955 15.1445 53.3501 14.598C54.21 13.7505 54.64 12.6227 54.64 11.2144V0.0355235H58.9209V11.7752C58.9209 14.2553 58.0984 16.2493 56.4533 17.7572C55.104 18.9941 53.3984 19.7237 51.3364 19.9461Z" fill="white"/>
    <path fill-rule="evenodd" clip-rule="evenodd" d="M37.9486 11.6819C38.0216 11.1456 38.0582 10.5972 38.0582 10.0366C38.0582 7.16027 37.1024 4.77148 35.1909 2.8702C33.2915 0.956734 30.9112 0 28.05 0C26.175 0 24.4644 0.432663 22.9181 1.29799C21.384 2.16332 20.1787 3.35771 19.302 4.88117C18.4254 6.39244 17.9871 8.07434 17.9871 9.92687C17.9871 12.791 18.9855 15.1859 20.9822 17.1115C22.9912 19.0372 25.5054 20 28.5249 20C28.7225 20 28.9185 19.9956 29.113 19.9867H27.9796V16.1903C26.7102 16.0896 25.6014 15.6898 24.6531 14.9909C23.5573 14.1621 22.839 13.0591 22.4981 11.6819H37.9486ZM24.4705 5.00914C25.481 4.19257 26.662 3.78428 28.0135 3.78428C29.3771 3.78428 30.5642 4.19257 31.5748 5.00914C32.5975 5.82572 33.2672 6.90433 33.5837 8.24497H22.4615C22.8025 6.90433 23.4721 5.82572 24.4705 5.00914Z" fill="white"/>
    <path d="M2.72378 19.929H0V16.7715L4.96448 10.5231H3.82771L8.79219 4.27469H0V0.071048H15.1452V2.39787L8.91796 10.5231H10.0547L6.8449 14.7112L2.72378 19.929Z" fill="white"/>
    <path d="M64.4866 19.929H61.7628V16.7715L66.7273 10.5231H65.5905L70.555 4.27469H61.7628V0.071048H76.908V2.39787L70.6808 10.5231H71.8175L68.6077 14.7112L64.4866 19.929Z" fill="white"/>
</svg>
