<svg xmlns="http://www.w3.org/2000/svg" width="20" height="20" viewBox="0 0 20 20" fill="none">
    <path fill-rule="evenodd" clip-rule="evenodd" d="M17.9673 3.8509C18.2119 2.65828 17.0405 1.66718 15.9049 2.10596L1.98443 7.48433C0.716233 7.97431 0.659725 9.74771 1.89415 10.3174L4.92564 11.7166L6.36776 16.764C6.44267 17.0262 6.65072 17.2292 6.91466 17.2976C7.17861 17.3659 7.45905 17.2896 7.65185 17.0967L9.87328 14.8753L12.9851 17.2092C13.8884 17.8866 15.1894 17.3932 15.4163 16.2871L17.9673 3.8509ZM2.53912 8.91998L16.4596 3.54162L13.9086 15.9779L10.2628 13.2435C9.95647 13.0137 9.52776 13.0442 9.25696 13.315L8.30549 14.2665L8.59137 12.6942L14.193 7.09264C14.4656 6.82003 14.4944 6.38776 14.2604 6.08138C14.0264 5.77499 13.6018 5.68906 13.2671 5.88034L5.53107 10.3009L2.53912 8.91998ZM6.47431 11.5345L6.94095 13.1678L7.12011 12.1824C7.14811 12.0284 7.22241 11.8866 7.3331 11.7759L9.0414 10.0677L6.47431 11.5345Z" fill="white"/>
</svg>
