<svg width="14" height="12" viewBox="0 0 14 12" fill="none" xmlns="http://www.w3.org/2000/svg">
<path d="M9.20004 6.86668L6.80004 4.46668C6.73337 4.40002 6.68626 4.32779 6.65871 4.25002C6.63071 4.17224 6.61671 4.08891 6.61671 4.00002C6.61671 3.91113 6.63071 3.82779 6.65871 3.75002C6.68626 3.67224 6.73337 3.60002 6.80004 3.53335L9.20004 1.13335C9.33337 1.00002 9.48893 0.93335 9.66671 0.93335C9.84449 0.93335 10 1.00002 10.1334 1.13335C10.2667 1.26668 10.3334 1.42491 10.3334 1.60802C10.3334 1.79157 10.2667 1.95002 10.1334 2.08335L8.88337 3.33335H13C13.1889 3.33335 13.3472 3.39713 13.4747 3.52468C13.6027 3.65268 13.6667 3.81113 13.6667 4.00002C13.6667 4.18891 13.6027 4.34713 13.4747 4.47468C13.3472 4.60268 13.1889 4.66668 13 4.66668H8.88337L10.1334 5.91668C10.2667 6.05002 10.3334 6.20557 10.3334 6.38335C10.3334 6.56113 10.2667 6.71668 10.1334 6.85002C10 6.98335 9.84737 7.05557 9.67537 7.06668C9.50293 7.07779 9.34449 7.01113 9.20004 6.86668ZM3.86671 10.85C4.00004 10.9833 4.1556 11.0527 4.33337 11.058C4.51115 11.0638 4.66671 11 4.80004 10.8667L7.20004 8.46668C7.26671 8.40002 7.31404 8.32779 7.34204 8.25002C7.3696 8.17224 7.38337 8.08891 7.38337 8.00002C7.38337 7.91113 7.3696 7.82779 7.34204 7.75002C7.31404 7.67224 7.26671 7.60002 7.20004 7.53335L4.80004 5.13335C4.66671 5.00002 4.51115 4.93335 4.33337 4.93335C4.1556 4.93335 4.00004 5.00002 3.86671 5.13335C3.73337 5.26668 3.66671 5.4249 3.66671 5.60802C3.66671 5.79157 3.73337 5.95002 3.86671 6.08335L5.11671 7.33335H1.00004C0.811152 7.33335 0.65293 7.39713 0.525374 7.52468C0.397374 7.65268 0.333374 7.81113 0.333374 8.00002C0.333374 8.18891 0.397374 8.34713 0.525374 8.47468C0.65293 8.60268 0.811152 8.66668 1.00004 8.66668H5.11671L3.86671 9.91668C3.73337 10.05 3.66671 10.2056 3.66671 10.3834C3.66671 10.5611 3.73337 10.7167 3.86671 10.85Z" fill="#989BA6"/>
</svg>
