<svg width="100" height="100" viewBox="0 0 100 100" fill="none" xmlns="http://www.w3.org/2000/svg">
<path d="M50 100C77.6142 100 100 77.6142 100 50C100 22.3858 77.6142 0 50 0C22.3858 0 0 22.3858 0 50C0 77.6142 22.3858 100 50 100Z" fill="white"/>
<g clip-path="url(#clip0_944_3636)">
<path d="M41.6501 25.4799C40.6749 25.3406 40.6284 25.2942 41.0928 25.2477C41.9752 25.1084 44.0185 25.2942 45.4582 25.6192C48.8018 26.4087 51.8204 28.4521 55.0247 32.0279L55.8606 33.0031L57.0681 32.8174C62.2229 31.9815 67.517 32.6316 71.9287 34.675C73.1362 35.2322 75.0402 36.3468 75.2724 36.6254C75.3653 36.7183 75.5046 37.322 75.5975 37.9257C75.9226 40.1084 75.7832 41.7338 75.0866 42.9877C74.7151 43.6843 74.7151 43.87 74.9473 44.4737C75.1331 44.9381 75.6904 45.2632 76.2012 45.2632C77.3157 45.2632 78.4767 43.4985 79.034 41.0372L79.2662 40.062L79.6842 40.5264C82.0526 43.1734 83.9102 46.8422 84.1888 49.4428L84.2817 50.1394L83.8637 49.5357C83.1671 48.4675 82.517 47.7709 81.6346 47.1672C80.0557 46.0991 78.3839 45.774 73.9721 45.5418C69.9783 45.3096 67.7027 44.9846 65.4736 44.2415C61.6656 42.9877 59.7151 41.3623 55.2105 35.3716C53.2136 32.7245 51.9597 31.2849 50.7058 30.0775C47.9659 27.4304 45.226 26.0372 41.6501 25.4799Z" fill="#0F0F0F"/>
<path d="M76.2476 31.3778C76.3405 29.6131 76.5727 28.4521 77.0836 27.384C77.2693 26.966 77.4551 26.5945 77.5015 26.5945C77.5479 26.5945 77.4551 26.9196 77.3158 27.2911C76.9442 28.3127 76.8978 29.7524 77.13 31.3778C77.4551 33.4675 77.5944 33.7462 79.8235 36.0217C80.8452 37.0898 82.0526 38.4366 82.517 38.9939L83.3065 40.0155L82.517 39.2725C81.5418 38.3437 79.3127 36.579 78.8018 36.3468C78.4767 36.161 78.4303 36.161 78.1981 36.3932C78.0123 36.579 77.9659 36.8576 77.9659 38.2044C77.9195 40.2942 77.6408 41.5945 76.9442 42.9412C76.5727 43.6378 76.5263 43.4985 76.8514 42.709C77.0836 42.1053 77.13 41.8267 77.13 39.8298C77.13 35.7895 76.6656 34.8143 73.8328 33.1889C73.1362 32.771 71.9288 32.1672 71.2322 31.8422C70.4891 31.5171 69.9318 31.2384 69.9783 31.2384C70.0712 31.1456 72.8111 31.935 73.8792 32.3994C75.5046 33.0496 75.7832 33.096 75.969 33.0496C76.1083 32.9103 76.2012 32.5388 76.2476 31.3778Z" fill="#0F0F0F"/>
<path d="M43.5542 38.2972C41.6037 35.6037 40.3499 31.4241 40.6285 28.3126L40.7214 27.3374L41.1858 27.4303C42.0217 27.5696 43.4613 28.1269 44.1579 28.5448C46.0155 29.6594 46.8514 31.1919 47.6409 34.9999C47.8731 36.1145 48.1982 37.4148 48.3375 37.8328C48.5697 38.5294 49.452 40.1547 50.1951 41.1764C50.7059 41.9194 50.3808 42.291 49.2198 42.1981C47.4551 42.0123 45.0867 40.3869 43.5542 38.2972Z" fill="#0F0F0F"/>
<path d="M73.8793 58.4985C64.6842 54.7833 61.4335 51.579 61.4335 46.1456C61.4335 45.3561 61.4799 44.7059 61.4799 44.7059C61.5264 44.7059 61.8514 44.9846 62.2694 45.3096C64.127 46.7957 66.2168 47.4459 72.0217 48.2818C75.4118 48.7926 77.3623 49.1641 79.127 49.7679C84.7462 51.6254 88.2291 55.4335 89.0651 60.5883C89.2973 62.0744 89.1579 64.9072 88.7864 66.3932C88.4613 67.5542 87.5325 69.6904 87.3003 69.7369C87.2539 69.7369 87.161 69.5047 87.161 69.1332C87.0681 67.1827 86.0929 65.3251 84.4675 63.8855C82.5171 62.2137 80.0093 60.9598 73.8793 58.4985Z" fill="#0F0F0F"/>
<path d="M67.3777 60.031C67.2848 59.3344 67.0526 58.452 66.9133 58.0805L66.6811 57.3839L67.0991 57.8947C67.7028 58.5913 68.1672 59.4273 68.5851 60.5882C68.9102 61.4706 68.9102 61.7492 68.9102 63.1889C68.9102 64.5821 68.8638 64.9071 68.5851 65.6966C68.1207 66.9505 67.5635 67.8328 66.6347 68.8081C64.9629 70.5263 62.7802 71.4551 59.6687 71.8731C59.1115 71.9195 57.5325 72.0588 56.1393 72.1517C52.6563 72.3375 50.3344 72.709 48.2446 73.452C47.9659 73.5449 47.6873 73.6378 47.6409 73.5913C47.548 73.4985 48.9876 72.6625 50.1486 72.1053C51.774 71.3158 53.4458 70.8978 57.1146 70.2477C58.9257 69.969 60.7833 69.5975 61.2477 69.4118C65.8452 67.9721 68.1207 64.3963 67.3777 60.031Z" fill="#0F0F0F"/>
<path d="M71.6038 67.5078C70.3963 64.8607 70.1177 62.353 70.7678 59.9845C70.8607 59.7523 70.9536 59.5201 71.0465 59.5201C71.1394 59.5201 71.418 59.6595 71.6966 59.8452C72.2539 60.2167 73.4149 60.8669 76.387 62.4923C80.1487 64.5356 82.2849 66.1146 83.7709 67.9257C85.0712 69.5047 85.8607 71.3158 86.2322 73.5449C86.4644 74.7988 86.3251 77.8174 86 79.0712C84.9784 83.0186 82.6564 86.1765 79.2663 87.9876C78.7555 88.2663 78.3375 88.452 78.2911 88.452C78.2446 88.452 78.4304 87.9876 78.709 87.4304C79.8236 85.0619 79.9629 82.7864 79.127 80.2322C78.6161 78.6533 77.548 76.7492 75.4118 73.5449C72.8576 69.8297 72.2539 68.8545 71.6038 67.5078Z" fill="#0F0F0F"/>
<path d="M37.0062 81.7182C40.4428 78.839 44.6688 76.7956 48.5697 76.1455C50.2415 75.8668 53.0279 75.9597 54.5604 76.3777C57.0217 77.0278 59.2508 78.421 60.4118 80.1393C61.5264 81.8111 62.0372 83.2507 62.548 86.4551C62.7338 87.7089 62.966 89.0093 63.0124 89.2879C63.3839 90.9597 64.127 92.26 65.0558 92.9566C66.4954 94.0247 69.0031 94.0712 71.4644 93.1424C71.8824 93.0031 72.2539 92.8637 72.2539 92.9102C72.3468 93.0031 71.0929 93.839 70.257 94.2569C69.096 94.8606 68.1672 95.0464 66.9134 95.0464C64.6843 95.0464 62.7802 93.8854 61.2477 91.5634C60.9226 91.099 60.2725 89.7523 59.7152 88.4984C58.0898 84.7368 57.2539 83.6223 55.3499 82.3684C53.6781 81.3003 51.5418 81.0681 49.9165 81.8576C47.7802 82.8792 47.223 85.6192 48.709 87.291C49.3127 87.9876 50.4273 88.5449 51.3561 88.6842C53.0743 88.9164 54.5604 87.5696 54.5604 85.8514C54.5604 84.7368 54.1425 84.0867 53.0279 83.5758C51.5418 82.9257 49.9165 83.6687 49.9629 85.1083C49.9629 85.712 50.2415 86.0836 50.8452 86.3622C51.2168 86.548 51.2168 86.548 50.9381 86.5015C49.5914 86.2229 49.2663 84.5511 50.3344 83.4829C51.6347 82.1826 54.3747 82.7399 55.3035 84.5511C55.675 85.2941 55.7214 86.7802 55.3963 87.709C54.6069 89.7523 52.3778 90.8204 50.1022 90.2167C48.5697 89.7987 47.9195 89.3808 46.062 87.4768C42.8112 84.1331 41.5573 83.4829 36.9134 82.7863L36.031 82.647L37.0062 81.7182Z" fill="#0F0F0F"/>
<path fill-rule="evenodd" clip-rule="evenodd" d="M12.5787 6.9969C23.3991 20.1393 40.071 40.5728 40.9069 41.6873C41.6035 42.6161 41.3248 43.4985 40.1638 44.1486C39.5137 44.5201 38.1669 44.8916 37.5168 44.8916C36.7737 44.8916 35.8914 44.5201 35.2877 43.9164C34.8697 43.4985 33.0586 40.8514 28.9719 34.4892C25.8604 29.613 23.2134 25.5728 23.1669 25.5263C22.9812 25.4334 22.9812 25.4334 28.6468 35.5573C32.2227 41.9195 33.3836 44.195 33.3836 44.4737C33.3836 45.0774 33.1979 45.4025 32.4549 46.2384C31.201 47.6316 30.6437 49.2105 30.2258 52.5077C29.7614 56.1765 28.5075 58.7771 24.9316 63.1889C22.8419 65.7895 22.5168 66.2539 22.0059 67.322C21.3558 68.6223 21.17 69.3653 21.0771 71.0371C20.9843 72.8019 21.17 73.9164 21.6809 75.5882C22.1453 77.0743 22.6561 78.0495 23.91 79.9536C24.9781 81.6254 25.6282 82.8792 25.6282 83.3437C25.6282 83.7152 25.7211 83.7152 27.3929 83.3437C31.3867 82.4149 34.684 80.8359 36.4951 78.8855C37.6097 77.678 37.8883 77.0279 37.8883 75.356C37.8883 74.2879 37.8418 74.0557 37.5632 73.4056C37.0988 72.3839 36.2165 71.548 34.3124 70.2477C31.8047 68.5294 30.7366 67.1362 30.4579 65.2786C30.2258 63.6997 30.5044 62.6316 31.8976 59.7059C33.3372 56.6873 33.7087 55.4334 33.9409 52.3684C34.0802 50.418 34.3124 49.6285 34.8697 49.0248C35.4734 48.3746 35.9843 48.1424 37.4239 47.9567C39.7923 47.6316 41.3248 47.0279 42.5323 45.8669C43.6004 44.8916 44.0648 43.9164 44.1112 42.4768L44.1576 41.4087L43.5539 40.7585C41.3713 38.2508 11.1391 5 10.9997 5C10.9533 5 11.6963 5.88235 12.5787 6.9969ZM26.8357 73.034C27.3465 72.1517 27.0679 71.0371 26.2319 70.4799C25.4425 69.969 24.235 70.2012 24.235 70.8978C24.235 71.0836 24.3279 71.2693 24.6066 71.3622C25.0245 71.5944 25.071 71.8266 24.7459 72.3375C24.4208 72.8483 24.4208 73.3127 24.8388 73.6378C25.4889 74.1486 26.3713 73.87 26.8357 73.034Z" fill="#0F0F0F"/>
<path fill-rule="evenodd" clip-rule="evenodd" d="M45.6439 48.6068C44.5294 48.9319 43.4613 50.1393 43.1362 51.3467C42.9504 52.0898 43.0433 53.4365 43.3684 53.8545C43.8792 54.5046 44.3436 54.6904 45.6439 54.6904C48.1981 54.6904 50.3808 53.5758 50.613 52.2291C50.8452 51.1145 49.8699 49.582 48.5232 48.8854C47.8266 48.5139 46.387 48.3746 45.6439 48.6068ZM48.6161 50.9288C48.9876 50.3715 48.8483 49.7678 48.1517 49.3498C46.8978 48.5604 44.9938 49.2105 44.9938 50.418C44.9938 51.0217 45.969 51.6718 46.8978 51.6718C47.5015 51.6718 48.3374 51.3003 48.6161 50.9288Z" fill="#0F0F0F"/>
</g>
<defs>
<clipPath id="clip0_944_3636">
<rect width="78.1579" height="90" fill="white" transform="translate(11 5)"/>
</clipPath>
</defs>
</svg>
