<svg width="20" height="20" viewBox="0 0 20 20" fill="none" xmlns="http://www.w3.org/2000/svg">
<path d="M10 12.9793C9.88893 12.9793 9.78476 12.9618 9.68754 12.9268C9.59032 12.8924 9.50004 12.8335 9.41671 12.7502L6.41671 9.75016C6.26393 9.59738 6.18754 9.40294 6.18754 9.16683C6.18754 8.93072 6.26393 8.73627 6.41671 8.5835C6.56948 8.43072 6.76726 8.35072 7.01004 8.3435C7.25337 8.33683 7.45143 8.40988 7.60421 8.56266L9.16671 10.1252V4.16683C9.16671 3.93072 9.24671 3.73266 9.40671 3.57266C9.56615 3.41322 9.76393 3.3335 10 3.3335C10.2362 3.3335 10.4342 3.41322 10.5942 3.57266C10.7537 3.73266 10.8334 3.93072 10.8334 4.16683V10.1252L12.3959 8.56266C12.5487 8.40988 12.7467 8.33683 12.99 8.3435C13.2328 8.35072 13.4306 8.43072 13.5834 8.5835C13.7362 8.73627 13.8125 8.93072 13.8125 9.16683C13.8125 9.40294 13.7362 9.59738 13.5834 9.75016L10.5834 12.7502C10.5 12.8335 10.4098 12.8924 10.3125 12.9268C10.2153 12.9618 10.1112 12.9793 10 12.9793ZM5.00004 16.6668C4.54171 16.6668 4.14948 16.5038 3.82337 16.1777C3.49671 15.851 3.33337 15.4585 3.33337 15.0002V13.3335C3.33337 13.0974 3.4131 12.8993 3.57254 12.7393C3.73254 12.5799 3.9306 12.5002 4.16671 12.5002C4.40282 12.5002 4.60087 12.5799 4.76087 12.7393C4.92032 12.8993 5.00004 13.0974 5.00004 13.3335V15.0002H15V13.3335C15 13.0974 15.08 12.8993 15.24 12.7393C15.3995 12.5799 15.5973 12.5002 15.8334 12.5002C16.0695 12.5002 16.2673 12.5799 16.4267 12.7393C16.5867 12.8993 16.6667 13.0974 16.6667 13.3335V15.0002C16.6667 15.4585 16.5037 15.851 16.1775 16.1777C15.8509 16.5038 15.4584 16.6668 15 16.6668H5.00004Z" fill="#F08700"/>
</svg>
