<svg width="12" height="12" viewBox="0 0 12 12" fill="none" xmlns="http://www.w3.org/2000/svg">
<path d="M5.99996 8.66662C5.81107 8.66662 5.65285 8.60262 5.52529 8.47462C5.39729 8.34706 5.33329 8.18884 5.33329 7.99995V3.23328L4.08329 4.48328C3.94996 4.61662 3.7944 4.68328 3.61663 4.68328C3.43885 4.68328 3.27774 4.61106 3.13329 4.46662C2.99996 4.33328 2.93618 4.17484 2.94196 3.99128C2.94729 3.80817 3.01107 3.65551 3.13329 3.53328L5.53329 1.13328C5.59996 1.06662 5.67218 1.01928 5.74996 0.991284C5.82774 0.963729 5.91107 0.949951 5.99996 0.949951C6.08885 0.949951 6.17218 0.963729 6.24996 0.991284C6.32774 1.01928 6.39996 1.06662 6.46663 1.13328L8.86662 3.53328C8.99996 3.66662 9.06374 3.82484 9.05796 4.00795C9.05263 4.19151 8.98885 4.3444 8.86662 4.46662C8.73329 4.59995 8.57507 4.66928 8.39196 4.67462C8.2084 4.6804 8.04996 4.61662 7.91663 4.48328L6.66663 3.23328V7.99995C6.66663 8.18884 6.60285 8.34706 6.47529 8.47462C6.34729 8.60262 6.18885 8.66662 5.99996 8.66662ZM1.99996 11.3333C1.63329 11.3333 1.31951 11.2028 1.05863 10.942C0.797293 10.6806 0.666626 10.3666 0.666626 9.99995V8.66662C0.666626 8.47773 0.730404 8.31928 0.857959 8.19128C0.985959 8.06373 1.1444 7.99995 1.33329 7.99995C1.52218 7.99995 1.68063 8.06373 1.80863 8.19128C1.93618 8.31928 1.99996 8.47773 1.99996 8.66662V9.99995H9.99996V8.66662C9.99996 8.47773 10.064 8.31928 10.192 8.19128C10.3195 8.06373 10.4777 7.99995 10.6666 7.99995C10.8555 7.99995 11.0137 8.06373 11.1413 8.19128C11.2693 8.31928 11.3333 8.47773 11.3333 8.66662V9.99995C11.3333 10.3666 11.2028 10.6806 10.942 10.942C10.6806 11.2028 10.3666 11.3333 9.99996 11.3333H1.99996Z" fill="#989BA6"/>
</svg>
