<svg width="21" height="20" viewBox="0 0 21 20" fill="none" xmlns="http://www.w3.org/2000/svg">
<path d="M10.1664 13.3333C9.93031 13.3333 9.73253 13.2533 9.57309 13.0933C9.41309 12.9339 9.33309 12.7361 9.33309 12.5V6.54167L7.77059 8.10417C7.60392 8.27083 7.40948 8.35417 7.18726 8.35417C6.96503 8.35417 6.76364 8.26389 6.58309 8.08333C6.41642 7.91667 6.3367 7.71861 6.34392 7.48917C6.35059 7.26028 6.43031 7.06944 6.58309 6.91667L9.58309 3.91667C9.66642 3.83333 9.7567 3.77417 9.85392 3.73917C9.95114 3.70472 10.0553 3.6875 10.1664 3.6875C10.2775 3.6875 10.3817 3.70472 10.4789 3.73917C10.5761 3.77417 10.6664 3.83333 10.7498 3.91667L13.7498 6.91667C13.9164 7.08333 13.9961 7.28111 13.9889 7.51C13.9823 7.73944 13.9025 7.93056 13.7498 8.08333C13.5831 8.25 13.3853 8.33667 13.1564 8.34333C12.927 8.35056 12.7289 8.27083 12.5623 8.10417L10.9998 6.54167V12.5C10.9998 12.7361 10.92 12.9339 10.7606 13.0933C10.6006 13.2533 10.4025 13.3333 10.1664 13.3333ZM5.16642 16.6667C4.70809 16.6667 4.31587 16.5036 3.98976 16.1775C3.66309 15.8508 3.49976 15.4583 3.49976 15V13.3333C3.49976 13.0972 3.57948 12.8992 3.73892 12.7392C3.89892 12.5797 4.09698 12.5 4.33309 12.5C4.5692 12.5 4.76726 12.5797 4.92726 12.7392C5.0867 12.8992 5.16642 13.0972 5.16642 13.3333V15H15.1664V13.3333C15.1664 13.0972 15.2464 12.8992 15.4064 12.7392C15.5659 12.5797 15.7636 12.5 15.9998 12.5C16.2359 12.5 16.4336 12.5797 16.5931 12.7392C16.7531 12.8992 16.8331 13.0972 16.8331 13.3333V15C16.8331 15.4583 16.67 15.8508 16.3439 16.1775C16.0173 16.5036 15.6248 16.6667 15.1664 16.6667H5.16642Z" fill="#F08700"/>
</svg>
