<svg width="24" height="25" viewBox="0 0 24 25" fill="none" xmlns="http://www.w3.org/2000/svg">
<path d="M15.75 21.5H18.375C19.0712 21.5 19.7389 21.2234 20.2312 20.7312C20.7234 20.2389 21 19.5712 21 18.875V16.25M21 8.75V6.125C21 5.42881 20.7234 4.76113 20.2312 4.26884C19.7389 3.77656 19.0712 3.5 18.375 3.5H15.75M8.25 21.5H5.625C4.92881 21.5 4.26113 21.2234 3.76884 20.7312C3.27656 20.2389 3 19.5712 3 18.875V16.25M3 8.75V6.125C3 5.42881 3.27656 4.76113 3.76884 4.26884C4.26113 3.77656 4.92881 3.5 5.625 3.5H8.25" stroke="#E0E2E5" stroke-width="2" stroke-linecap="round" stroke-linejoin="round"/>
<rect x="8" y="8.5" width="8" height="8" rx="4" fill="#E0E2E5"/>
</svg>
