<svg xmlns="http://www.w3.org/2000/svg" width="24" height="24" viewBox="0 0 24 24" fill="none">
    <path d="M8.45 11.425C8.45 11.5583 8.475 11.6873 8.525 11.812C8.575 11.9373 8.64167 12.0417 8.725 12.125L13.325 16.725C13.5083 16.9083 13.7417 17 14.025 17C14.3083 17 14.5417 16.9083 14.725 16.725C14.9083 16.5417 15 16.3083 15 16.025C15 15.7417 14.9083 15.5083 14.725 15.325L10.825 11.425L14.725 7.525C14.9083 7.34167 15 7.10833 15 6.825C15 6.54167 14.9083 6.30833 14.725 6.125C14.5417 5.94167 14.3083 5.85 14.025 5.85C13.7417 5.85 13.5083 5.94167 13.325 6.125L8.725 10.725C8.625 10.825 8.55433 10.9333 8.513 11.05C8.471 11.1667 8.45 11.2917 8.45 11.425Z" fill="white"/>
</svg>
