<svg xmlns="http://www.w3.org/2000/svg" width="17" height="17" viewBox="0 0 17 17" fill="none">
    <g clip-path="url(#clip0_2808_12629)">
        <path d="M15.8088 16.5H8.80002C8.25262 16.5 7.80883 16.0562 7.80883 15.5088C7.80883 14.9614 8.25262 14.5176 8.80002 14.5176H13.4159L1.09034 2.19201C0.703247 1.80499 0.703247 1.17736 1.09034 0.79027C1.47737 0.403243 2.10499 0.403243 2.49208 0.79027L14.8176 13.1159V8.49995C14.8176 7.95255 15.2614 7.50876 15.8088 7.50876C16.3562 7.50876 16.8 7.95255 16.8 8.49995V15.5087C16.8 16.0562 16.3562 16.5 15.8088 16.5Z" fill="#F70000"/>
    </g>
    <defs>
        <clipPath id="clip0_2808_12629">
            <rect width="16" height="16" fill="white" transform="matrix(-1 0 0 1 16.8 0.5)"/>
        </clipPath>
    </defs>
</svg>
