<svg xmlns="http://www.w3.org/2000/svg" width="17" height="17" viewBox="0 0 17 17" fill="none">
    <g clip-path="url(#clip0_2808_11557)">
        <path d="M15.8088 0.500016H8.80002C8.25262 0.500016 7.80883 0.943806 7.80883 1.49121C7.80883 2.03861 8.25262 2.4824 8.80002 2.4824H13.4159L1.09034 14.808C0.703247 15.195 0.703247 15.8226 1.09034 16.2097C1.47737 16.5968 2.10499 16.5968 2.49208 16.2097L14.8176 3.88414V8.50005C14.8176 9.04745 15.2614 9.49124 15.8088 9.49124C16.3562 9.49124 16.8 9.04745 16.8 8.50005V1.49127C16.8 0.943805 16.3562 0.500016 15.8088 0.500016Z" fill="#ffffff"/>
    </g>
    <defs>
        <clipPath id="clip0_2808_11557">
            <rect width="16" height="16" fill="white" transform="matrix(-1 0 0 -1 16.8 16.5)"/>
        </clipPath>
    </defs>
</svg>
