<svg width="16" height="16" viewBox="0 0 16 16" fill="none" xmlns="http://www.w3.org/2000/svg">
<g id="Keyboard arrow">
<path id="Vector" d="M7.71691 10.3667C7.62802 10.3667 7.54202 10.35 7.45891 10.3167C7.37536 10.2833 7.3058 10.2389 7.25024 10.1833L4.18358 7.11667C4.06135 6.99444 4.00024 6.83889 4.00024 6.65C4.00024 6.46111 4.06135 6.30556 4.18358 6.18333C4.3058 6.06111 4.46136 6 4.65024 6C4.83913 6 4.99469 6.06111 5.11691 6.18333L7.71691 8.78333L10.3169 6.18333C10.4391 6.06111 10.5947 6 10.7836 6C10.9725 6 11.128 6.06111 11.2502 6.18333C11.3725 6.30556 11.4336 6.46111 11.4336 6.65C11.4336 6.83889 11.3725 6.99444 11.2502 7.11667L8.18358 10.1833C8.11691 10.25 8.04469 10.2971 7.96691 10.3247C7.88913 10.3527 7.8058 10.3667 7.71691 10.3667Z" fill="white"/>
</g>
</svg>
