<svg xmlns="http://www.w3.org/2000/svg" width="16" height="16" viewBox="0 0 16 16" fill="none">
    <path d="M7.5306 10.4694C7.60052 10.539 7.656 10.6218 7.69385 10.713C7.7317 10.8042 7.75119 10.9019 7.75119 11.0006C7.75119 11.0993 7.7317 11.1971 7.69385 11.2882C7.656 11.3794 7.60052 11.4622 7.5306 11.5319L5.5306 13.5319C5.46092 13.6018 5.37813 13.6573 5.28696 13.6951C5.1958 13.733 5.09806 13.7525 4.99935 13.7525C4.90064 13.7525 4.8029 13.733 4.71173 13.6951C4.62057 13.6573 4.53778 13.6018 4.4681 13.5319L2.4681 11.5319C2.39833 11.4621 2.34299 11.3793 2.30524 11.2881C2.26748 11.197 2.24805 11.0993 2.24805 11.0006C2.24805 10.902 2.26748 10.8043 2.30524 10.7131C2.34299 10.622 2.39833 10.5391 2.4681 10.4694C2.53786 10.3996 2.62069 10.3443 2.71184 10.3065C2.80299 10.2688 2.90069 10.2493 2.99935 10.2493C3.09801 10.2493 3.19571 10.2688 3.28686 10.3065C3.37801 10.3443 3.46083 10.3996 3.5306 10.4694L4.24997 11.1875V3C4.24997 2.80108 4.32899 2.61032 4.46964 2.46967C4.61029 2.32901 4.80106 2.25 4.99997 2.25C5.19889 2.25 5.38965 2.32901 5.5303 2.46967C5.67096 2.61032 5.74997 2.80108 5.74997 3V11.1875L6.46935 10.4675C6.53913 10.3979 6.62194 10.3427 6.71306 10.3051C6.80417 10.2675 6.9018 10.2483 7.00036 10.2485C7.09892 10.2486 7.19648 10.2682 7.28747 10.3061C7.37845 10.344 7.46107 10.3995 7.5306 10.4694ZM13.5306 4.46937L11.5306 2.46937C11.4609 2.39945 11.3781 2.34397 11.287 2.30612C11.1958 2.26826 11.0981 2.24878 10.9993 2.24878C10.9006 2.24878 10.8029 2.26826 10.7117 2.30612C10.6206 2.34397 10.5378 2.39945 10.4681 2.46937L8.4681 4.46937C8.3272 4.61027 8.24805 4.80136 8.24805 5.00062C8.24805 5.19988 8.3272 5.39097 8.4681 5.53187C8.60899 5.67277 8.80009 5.75192 8.99935 5.75192C9.19861 5.75192 9.3897 5.67277 9.5306 5.53187L10.25 4.8125V13C10.25 13.1989 10.329 13.3897 10.4696 13.5303C10.6103 13.671 10.8011 13.75 11 13.75C11.1989 13.75 11.3896 13.671 11.5303 13.5303C11.671 13.3897 11.75 13.1989 11.75 13V4.8125L12.4693 5.5325C12.6102 5.67339 12.8013 5.75255 13.0006 5.75255C13.1999 5.75255 13.391 5.67339 13.5318 5.5325C13.6727 5.3916 13.7519 5.2005 13.7519 5.00125C13.7519 4.80199 13.6727 4.61089 13.5318 4.47L13.5306 4.46937Z" fill="#989BA6"/>
</svg>
