<svg xmlns="http://www.w3.org/2000/svg" width="24" height="24" viewBox="0 0 24 24" fill="none">
    <path d="M16.55 11.575C16.55 11.4417 16.525 11.3127 16.475 11.188C16.425 11.0627 16.3583 10.9583 16.275 10.875L11.675 6.275C11.4917 6.09167 11.2583 6 10.975 6C10.6917 6 10.4583 6.09167 10.275 6.275C10.0917 6.45833 10 6.69167 10 6.975C10 7.25833 10.0917 7.49167 10.275 7.675L14.175 11.575L10.275 15.475C10.0917 15.6583 10 15.8917 10 16.175C10 16.4583 10.0917 16.6917 10.275 16.875C10.4583 17.0583 10.6917 17.15 10.975 17.15C11.2583 17.15 11.4917 17.0583 11.675 16.875L16.275 12.275C16.375 12.175 16.4457 12.0667 16.487 11.95C16.529 11.8333 16.55 11.7083 16.55 11.575Z" fill="white"/>
</svg>
