<svg width="16" height="16" viewBox="0 0 16 16" fill="none" xmlns="http://www.w3.org/2000/svg">
<g id="Keyboard arrow">
<path id="Vector" d="M8.28333 9.99997C8.37222 9.99997 8.45822 9.9833 8.54133 9.94997C8.62489 9.91663 8.69444 9.87219 8.75 9.81663L11.8167 6.74997C11.9389 6.62775 12 6.47219 12 6.2833C12 6.09441 11.9389 5.93886 11.8167 5.81663C11.6944 5.69441 11.5389 5.6333 11.35 5.6333C11.1611 5.6333 11.0056 5.69441 10.8833 5.81663L8.28333 8.41663L5.68333 5.81663C5.56111 5.69441 5.40556 5.6333 5.21667 5.6333C5.02778 5.6333 4.87222 5.69441 4.75 5.81663C4.62778 5.93886 4.56667 6.09441 4.56667 6.2833C4.56667 6.47219 4.62778 6.62775 4.75 6.74997L7.81667 9.81663C7.88333 9.8833 7.95556 9.93041 8.03333 9.95797C8.11111 9.98597 8.19444 9.99997 8.28333 9.99997Z" fill="white"/>
</g>
</svg>
