<svg width="21" height="20" viewBox="0 0 21 20" fill="none" xmlns="http://www.w3.org/2000/svg">
<g id="Arrows upload-download">
<path id="Vector" d="M10.2502 12.9793C10.1391 12.9793 10.0349 12.9618 9.93766 12.9268C9.84044 12.8924 9.75016 12.8335 9.66683 12.7502L6.66683 9.75016C6.51405 9.59738 6.43766 9.40294 6.43766 9.16683C6.43766 8.93072 6.51405 8.73627 6.66683 8.5835C6.81961 8.43072 7.01738 8.35072 7.26016 8.3435C7.5035 8.33683 7.70155 8.40988 7.85433 8.56266L9.41683 10.1252V4.16683C9.41683 3.93072 9.49683 3.73266 9.65683 3.57266C9.81627 3.41322 10.0141 3.3335 10.2502 3.3335C10.4863 3.3335 10.6843 3.41322 10.8443 3.57266C11.0038 3.73266 11.0835 3.93072 11.0835 4.16683V10.1252L12.646 8.56266C12.7988 8.40988 12.9968 8.33683 13.2402 8.3435C13.4829 8.35072 13.6807 8.43072 13.8335 8.5835C13.9863 8.73627 14.0627 8.93072 14.0627 9.16683C14.0627 9.40294 13.9863 9.59738 13.8335 9.75016L10.8335 12.7502C10.7502 12.8335 10.6599 12.8924 10.5627 12.9268C10.4654 12.9618 10.3613 12.9793 10.2502 12.9793ZM5.25016 16.6668C4.79183 16.6668 4.39961 16.5038 4.0735 16.1777C3.74683 15.851 3.5835 15.4585 3.5835 15.0002V13.3335C3.5835 13.0974 3.66322 12.8993 3.82266 12.7393C3.98266 12.5799 4.18072 12.5002 4.41683 12.5002C4.65294 12.5002 4.851 12.5799 5.011 12.7393C5.17044 12.8993 5.25016 13.0974 5.25016 13.3335V15.0002H15.2502V13.3335C15.2502 13.0974 15.3302 12.8993 15.4902 12.7393C15.6496 12.5799 15.8474 12.5002 16.0835 12.5002C16.3196 12.5002 16.5174 12.5799 16.6768 12.7393C16.8368 12.8993 16.9168 13.0974 16.9168 13.3335V15.0002C16.9168 15.4585 16.7538 15.851 16.4277 16.1777C16.101 16.5038 15.7085 16.6668 15.2502 16.6668H5.25016Z" fill="#F08700"/>
</g>
</svg>
