<svg xmlns="http://www.w3.org/2000/svg" width="17" height="17" viewBox="0 0 17 17" fill="none">
    <path d="M14.3489 2.83469L14.3749 2.86069C14.7139 3.19978 15.0064 3.49228 15.209 3.75769C15.4268 4.04261 15.5914 4.36003 15.5914 4.75003C15.5914 5.14003 15.4257 5.45744 15.209 5.74236C15.0064 6.00778 14.7139 6.30028 14.3749 6.63936L14.3489 6.66536L6.55536 14.4589L6.51961 14.4946C6.34411 14.6701 6.18919 14.825 5.99527 14.9355C5.80135 15.046 5.58794 15.0991 5.34635 15.1598L5.29761 15.1706L2.44519 15.8834L2.42244 15.8899C2.24771 15.9395 2.06956 15.9761 1.88944 15.9994C1.72152 16.0167 1.43877 16.0134 1.21236 15.7859C0.985939 15.5584 0.981605 15.2757 0.997855 15.1078C1.0222 14.9383 1.05657 14.7705 1.10077 14.6051L1.10836 14.5759L1.82769 11.7007L1.83961 11.653C1.90027 11.4104 1.95227 11.198 2.06277 11.003C2.17219 10.8091 2.32819 10.6542 2.50369 10.4776L2.53944 10.4429L10.3329 2.64944L10.3589 2.62344C10.698 2.28436 10.9905 1.99186 11.2559 1.78928C11.5409 1.57153 11.8583 1.40686 12.2483 1.40686C12.6383 1.40686 12.9557 1.57261 13.2406 1.78928C13.506 1.99186 13.7985 2.28436 14.1376 2.62344L14.1636 2.64944L14.3489 2.83469ZM14.3489 2.83469L13.9664 3.21819" stroke="#6F727E"/>
    <path d="M15.3957 4.27208L13.7947 6.67355L10.3239 3.20275L12.7254 1.60177L15.3957 4.27208Z" fill="#6F727E" stroke="#6F727E"/>
</svg>
