<svg xmlns="http://www.w3.org/2000/svg" width="24" height="25" viewBox="0 0 24 25" fill="none">
    <path d="M2 18.5C2 16.96 2 16.19 2.347 15.624C2.541 15.307 2.807 15.041 3.124 14.847C3.689 14.5 4.46 14.5 6 14.5C7.54 14.5 8.31 14.5 8.876 14.847C9.193 15.041 9.459 15.307 9.653 15.624C10 16.189 10 16.96 10 18.5C10 20.04 10 20.81 9.653 21.377C9.459 21.693 9.193 21.959 8.876 22.153C8.311 22.5 7.54 22.5 6 22.5C4.46 22.5 3.69 22.5 3.124 22.153C2.80735 21.9593 2.54108 21.6934 2.347 21.377C2 20.81 2 20.04 2 18.5ZM14 18.5C14 16.96 14 16.19 14.347 15.624C14.541 15.307 14.807 15.041 15.124 14.847C15.689 14.5 16.46 14.5 18 14.5C19.54 14.5 20.31 14.5 20.877 14.847C21.193 15.041 21.459 15.307 21.653 15.624C22 16.189 22 16.96 22 18.5C22 20.04 22 20.81 21.653 21.377C21.4589 21.6931 21.1931 21.9589 20.877 22.153C20.31 22.5 19.54 22.5 18 22.5C16.46 22.5 15.69 22.5 15.124 22.153C14.8073 21.9593 14.5411 21.6934 14.347 21.377C14 20.81 14 20.04 14 18.5ZM2 6.5C2 4.96 2 4.19 2.347 3.624C2.541 3.307 2.807 3.041 3.124 2.847C3.689 2.5 4.46 2.5 6 2.5C7.54 2.5 8.31 2.5 8.876 2.847C9.193 3.041 9.459 3.307 9.653 3.624C10 4.189 10 4.96 10 6.5C10 8.04 10 8.81 9.653 9.376C9.459 9.693 9.193 9.959 8.876 10.153C8.311 10.5 7.54 10.5 6 10.5C4.46 10.5 3.69 10.5 3.124 10.153C2.80724 9.95904 2.54096 9.69277 2.347 9.376C2 8.811 2 8.04 2 6.5ZM14 6.5C14 4.96 14 4.19 14.347 3.624C14.541 3.307 14.807 3.041 15.124 2.847C15.689 2.5 16.46 2.5 18 2.5C19.54 2.5 20.31 2.5 20.877 2.847C21.193 3.041 21.459 3.307 21.653 3.624C22 4.189 22 4.96 22 6.5C22 8.04 22 8.81 21.653 9.376C21.459 9.693 21.193 9.959 20.877 10.153C20.31 10.5 19.54 10.5 18 10.5C16.46 10.5 15.69 10.5 15.124 10.153C14.8072 9.95904 14.541 9.69277 14.347 9.376C14 8.811 14 8.04 14 6.5Z" stroke="#E0E2E5" stroke-width="1.5" stroke-linecap="round" stroke-linejoin="round"/>
</svg>
