<svg xmlns="http://www.w3.org/2000/svg" width="17" height="17" viewBox="0 0 17 17" fill="none">
    <path d="M2.59998 5.16663C2.59998 5.03402 2.65265 4.90684 2.74642 4.81307C2.84019 4.7193 2.96737 4.66663 3.09998 4.66663H13.1C13.2326 4.66663 13.3598 4.7193 13.4535 4.81307C13.5473 4.90684 13.6 5.03402 13.6 5.16663C13.6 5.29923 13.5473 5.42641 13.4535 5.52018C13.3598 5.61395 13.2326 5.66663 13.1 5.66663H3.09998C2.96737 5.66663 2.84019 5.61395 2.74642 5.52018C2.65265 5.42641 2.59998 5.29923 2.59998 5.16663ZM4.26664 8.49996C4.26664 8.36735 4.31932 8.24017 4.41309 8.14641C4.50686 8.05264 4.63403 7.99996 4.76664 7.99996H11.4333C11.5659 7.99996 11.6931 8.05264 11.7869 8.14641C11.8806 8.24017 11.9333 8.36735 11.9333 8.49996C11.9333 8.63257 11.8806 8.75974 11.7869 8.85351C11.6931 8.94728 11.5659 8.99996 11.4333 8.99996H4.76664C4.63403 8.99996 4.50686 8.94728 4.41309 8.85351C4.31932 8.75974 4.26664 8.63257 4.26664 8.49996ZM6.26664 11.8333C6.26664 11.7007 6.31932 11.5735 6.41309 11.4797C6.50686 11.386 6.63403 11.3333 6.76664 11.3333H9.43331C9.56592 11.3333 9.69309 11.386 9.78686 11.4797C9.88063 11.5735 9.93331 11.7007 9.93331 11.8333C9.93331 11.9659 9.88063 12.0931 9.78686 12.1868C9.69309 12.2806 9.56592 12.3333 9.43331 12.3333H6.76664C6.63403 12.3333 6.50686 12.2806 6.41309 12.1868C6.31932 12.0931 6.26664 11.9659 6.26664 11.8333Z" fill="#989BA6"/>
</svg>
