<svg width="24" height="24" fill="none" xmlns="http://www.w3.org/2000/svg" data-testid="Icon-susde" viewBox="0 0 32 32">
    <g clip-path="url(#usde_svg__a)">
        <path d="M15.583 32.165a15.545 15.545 0 0 0 15.582-15.582A15.545 15.545 0 0 0 15.583 1 15.545 15.545 0 0 0 0 16.583a15.545 15.545 0 0 0 15.583 15.582Z"
              fill="#1C1C1C"></path>
        <path fill-rule="evenodd" clip-rule="evenodd"
              d="M13.122 4C7.356 5.131 3 10.297 3 16.5S7.356 27.869 13.122 29v-1.193C7.994 26.694 4.148 22.054 4.148 16.5S7.994 6.306 13.122 5.193V4ZM17.9 5.198V4.004C23.655 5.144 28 10.305 28 16.5s-4.345 11.356-10.1 12.496v-1.194c5.117-1.121 8.952-5.755 8.952-11.302 0-5.546-3.835-10.18-8.952-11.302Z"
              fill="#fff"></path>
        <path d="M17.312 16.058c.976.188 1.733.55 2.272 1.085.538.522.807 1.191.807 2.008v1.286c0 .977-.35 1.767-1.051 2.37-.701.589-1.621.883-2.76.883h-.395v2.05h-1.352v-2.05h-.413c-.75 0-1.414-.167-1.99-.502a3.64 3.64 0 0 1-1.352-1.446c-.313-.63-.47-1.352-.47-2.17h1.352c0 .831.226 1.507.676 2.03.464.508 1.07.763 1.822.763h2.084c.738 0 1.333-.174 1.784-.522.45-.362.676-.83.676-1.406V19.15c0-.455-.17-.843-.507-1.165-.326-.321-.776-.529-1.352-.622l-3.38-.603c-.951-.174-1.69-.536-2.216-1.084-.525-.55-.788-1.24-.788-2.07v-1.084c0-.977.338-1.754 1.014-2.33.688-.589 1.596-.883 2.722-.883h.338V7.26h1.352v2.05h.432c1.064 0 1.922.348 2.572 1.044.651.683.977 1.587.977 2.711h-1.352c0-.736-.2-1.325-.6-1.767-.401-.442-.933-.663-1.597-.663h-2.122c-.713 0-1.283.174-1.708.522-.426.335-.639.79-.639 1.366v1.085c0 .468.157.863.47 1.185.325.321.77.535 1.333.643l3.36.622Z"
              fill="#fff"></path>
    </g>
    <defs>
        <clipPath id="usde_svg__a">
            <path fill="#fff" d="M0 0h32v32H0z"></path>
        </clipPath>
    </defs>
</svg>
