<svg xmlns="http://www.w3.org/2000/svg" width="24" height="24" viewBox="0 0 24 24" fill="none">
<path d="M15.3 13.3L11.7 9.69999C11.6 9.59999 11.5293 9.49166 11.488 9.37499C11.446 9.25833 11.425 9.13333 11.425 8.99999C11.425 8.86666 11.446 8.74166 11.488 8.62499C11.5293 8.50833 11.6 8.39999 11.7 8.29999L15.3 4.69999C15.5 4.49999 15.7333 4.39999 16 4.39999C16.2667 4.39999 16.5 4.49999 16.7 4.69999C16.9 4.89999 17 5.13733 17 5.41199C17 5.68733 16.9 5.92499 16.7 6.12499L14.825 7.99999H21C21.2833 7.99999 21.5207 8.09566 21.712 8.28699C21.904 8.47899 22 8.71666 22 8.99999C22 9.28333 21.904 9.52066 21.712 9.71199C21.5207 9.90399 21.2833 9.99999 21 9.99999H14.825L16.7 11.875C16.9 12.075 17 12.3083 17 12.575C17 12.8417 16.9 13.075 16.7 13.275C16.5 13.475 16.271 13.5833 16.013 13.6C15.7543 13.6167 15.5167 13.5167 15.3 13.3ZM7.3 19.275C7.5 19.475 7.73333 19.579 8 19.587C8.26667 19.5957 8.5 19.5 8.7 19.3L12.3 15.7C12.4 15.6 12.471 15.4917 12.513 15.375C12.5543 15.2583 12.575 15.1333 12.575 15C12.575 14.8667 12.5543 14.7417 12.513 14.625C12.471 14.5083 12.4 14.4 12.3 14.3L8.7 10.7C8.5 10.5 8.26667 10.4 8 10.4C7.73333 10.4 7.5 10.5 7.3 10.7C7.1 10.9 7 11.1373 7 11.412C7 11.6873 7.1 11.925 7.3 12.125L9.175 14H3C2.71667 14 2.47933 14.0957 2.288 14.287C2.096 14.479 2 14.7167 2 15C2 15.2833 2.096 15.5207 2.288 15.712C2.47933 15.904 2.71667 16 3 16H9.175L7.3 17.875C7.1 18.075 7 18.3083 7 18.575C7 18.8417 7.1 19.075 7.3 19.275Z" fill="#F08700"/>
</svg>
