<svg width="16" height="16" viewBox="0 0 16 16" fill="none" xmlns="http://www.w3.org/2000/svg">
<path d="M5.36187 5.37781C5.23284 5.24878 5.16832 5.07869 5.16832 4.86755C5.16832 4.6564 5.23284 4.48632 5.36187 4.35728L7.52609 2.19306C7.59647 2.12268 7.67272 2.07271 7.75483 2.04315C7.83694 2.01406 7.92492 1.99951 8.01876 1.99951C8.1126 1.99951 8.20363 2.01406 8.29184 2.04315C8.37958 2.07271 8.45278 2.12268 8.51143 2.19306L10.6932 4.37488C10.8223 4.50391 10.8837 4.67095 10.8776 4.87599C10.872 5.08151 10.8047 5.24878 10.6757 5.37781C10.5466 5.50684 10.3765 5.57136 10.1654 5.57136C9.95424 5.57136 9.78416 5.50684 9.65512 5.37781L8.01876 3.74145L6.3648 5.39541C6.23577 5.52444 6.06873 5.58614 5.86369 5.58051C5.65817 5.57441 5.4909 5.50684 5.36187 5.37781ZM8.01876 13.9995C7.92492 13.9995 7.83694 13.9819 7.75483 13.9467C7.67272 13.9115 7.59647 13.8646 7.52609 13.806L5.36187 11.6417C5.23284 11.5127 5.16832 11.3426 5.16832 11.1315C5.16832 10.9203 5.23284 10.7502 5.36187 10.6212C5.4909 10.4922 5.66099 10.4277 5.87213 10.4277C6.08328 10.4277 6.25336 10.4922 6.3824 10.6212L8.01876 12.2576L9.67272 10.6036C9.80175 10.4746 9.96879 10.4131 10.1738 10.4192C10.3793 10.4248 10.5466 10.4922 10.6757 10.6212C10.8047 10.7502 10.8692 10.9203 10.8692 11.1315C10.8692 11.3426 10.8047 11.5127 10.6757 11.6417L8.51143 13.806C8.45278 13.8646 8.37958 13.9115 8.29184 13.9467C8.20363 13.9819 8.1126 13.9995 8.01876 13.9995Z" fill="#AEB0BA"/>
</svg>
