<svg width="16" height="16" viewBox="0 0 16 16" fill="none" xmlns="http://www.w3.org/2000/svg">
<g id="USD Coin">
<g id="USD Coin_2">
<path d="M3.86618 6.42938C3.00687 8.71091 4.19208 11.2887 6.50319 12.1183C6.59208 12.1776 6.68097 12.296 6.68097 12.3849V12.7998C6.68097 12.859 6.68097 12.8887 6.65132 12.9183C6.62174 13.0368 6.50319 13.096 6.38465 13.0368C4.72541 12.5035 3.45132 11.2294 2.91798 9.57014C2.02909 6.75535 3.56986 3.76271 6.38465 2.87382C6.4143 2.84424 6.47354 2.84424 6.50319 2.84424C6.62174 2.87382 6.68097 2.96271 6.68097 3.08125V3.49604C6.68097 3.64424 6.62174 3.73313 6.50319 3.79236C5.2884 4.23681 4.31062 5.18493 3.86618 6.42938Z" fill="white"/>
<path d="M9.37729 2.99236C9.40687 2.87382 9.52542 2.81458 9.64396 2.87382C11.2735 3.40715 12.5773 4.68125 13.1106 6.37014C13.9995 9.18493 12.4587 12.1776 9.64396 13.0665C9.6143 13.096 9.55507 13.096 9.52542 13.096C9.40687 13.0665 9.34764 12.9776 9.34764 12.859V12.4442C9.34764 12.296 9.40687 12.2072 9.52542 12.1479C10.7402 11.7035 11.718 10.7553 12.1624 9.51091C13.0217 7.22938 11.8365 4.6516 9.52542 3.82202C9.43653 3.76271 9.34764 3.64424 9.34764 3.5257V3.1109C9.34764 3.0516 9.34764 3.02202 9.37729 2.99236Z" fill="white"/>
<path d="M8.10317 7.46648C9.34761 7.6146 9.96984 7.97016 9.96984 9.00717C9.96984 9.80717 9.37727 10.4294 8.48838 10.5776V11.2887C8.45873 11.4368 8.36984 11.5257 8.25129 11.5257H7.80685C7.65873 11.4961 7.56984 11.4072 7.56984 11.2887V10.5776C6.59206 10.4294 6.11796 9.89606 5.99949 9.15537V9.12571C5.99949 9.00717 6.08838 8.91828 6.20685 8.91828H6.7106C6.79949 8.91828 6.88838 8.97759 6.91796 9.09606C7.00685 9.54051 7.27352 9.86648 8.04393 9.86648C8.60685 9.86648 9.02171 9.54058 9.02171 9.06648C9.02171 8.59238 8.75505 8.4146 7.92539 8.26648C6.68095 8.11828 6.08838 7.73315 6.08838 6.75537C6.08838 6.0146 6.65129 5.42203 7.54018 5.30349V4.62203C7.56984 4.47384 7.65873 4.38495 7.77727 4.38495H8.22171C8.36984 4.4146 8.45873 4.50349 8.45873 4.62203V5.33315C9.14018 5.39238 9.67352 5.89606 9.79206 6.54794V6.57759C9.79206 6.69606 9.70317 6.78495 9.58463 6.78495H9.1106C9.02171 6.78495 8.93282 6.72571 8.90317 6.63683C8.75505 6.19238 8.45873 6.0146 7.92539 6.0146C7.33282 6.0146 7.0365 6.2812 7.0365 6.69606C7.0365 7.11092 7.21428 7.34794 8.10317 7.46648Z" fill="white"/>
</g>
</g>
</svg>
