<svg width="21" height="20" viewBox="0 0 21 20" fill="none" xmlns="http://www.w3.org/2000/svg">
<g id="Arrows upload-download">
<path id="Vector" d="M10.2502 13.3333C10.0141 13.3333 9.81627 13.2533 9.65683 13.0933C9.49683 12.9339 9.41683 12.7361 9.41683 12.5V6.54167L7.85433 8.10417C7.68766 8.27083 7.49322 8.35417 7.271 8.35417C7.04877 8.35417 6.84738 8.26389 6.66683 8.08333C6.50016 7.91667 6.42044 7.71861 6.42766 7.48917C6.43433 7.26028 6.51405 7.06944 6.66683 6.91667L9.66683 3.91667C9.75016 3.83333 9.84044 3.77417 9.93766 3.73917C10.0349 3.70472 10.1391 3.6875 10.2502 3.6875C10.3613 3.6875 10.4654 3.70472 10.5627 3.73917C10.6599 3.77417 10.7502 3.83333 10.8335 3.91667L13.8335 6.91667C14.0002 7.08333 14.0799 7.28111 14.0727 7.51C14.066 7.73944 13.9863 7.93056 13.8335 8.08333C13.6668 8.25 13.4691 8.33667 13.2402 8.34333C13.0107 8.35056 12.8127 8.27083 12.646 8.10417L11.0835 6.54167V12.5C11.0835 12.7361 11.0038 12.9339 10.8443 13.0933C10.6843 13.2533 10.4863 13.3333 10.2502 13.3333ZM5.25016 16.6667C4.79183 16.6667 4.39961 16.5036 4.0735 16.1775C3.74683 15.8508 3.5835 15.4583 3.5835 15V13.3333C3.5835 13.0972 3.66322 12.8992 3.82266 12.7392C3.98266 12.5797 4.18072 12.5 4.41683 12.5C4.65294 12.5 4.851 12.5797 5.011 12.7392C5.17044 12.8992 5.25016 13.0972 5.25016 13.3333V15H15.2502V13.3333C15.2502 13.0972 15.3302 12.8992 15.4902 12.7392C15.6496 12.5797 15.8474 12.5 16.0835 12.5C16.3196 12.5 16.5174 12.5797 16.6768 12.7392C16.8368 12.8992 16.9168 13.0972 16.9168 13.3333V15C16.9168 15.4583 16.7538 15.8508 16.4277 16.1775C16.101 16.5036 15.7085 16.6667 15.2502 16.6667H5.25016Z" fill="#F08700"/>
</g>
</svg>
